<svg xmlns="http://www.w3.org/2000/svg" viewBox="0 0 219.37 338.16"><defs><style>.cls-2{fill:#a2388d}.cls-3{fill:#1d1d1b}.cls-4{fill:#e30613}.cls-5{fill:#37ab49}</style></defs><g id="Layer_2" data-name="Layer 2"><g id="Calque_1" data-name="Calque 1"><path d="M198.75,207.05v19.58h4.36V207.05Zm-5.82,29c-6.39,0-10.87,5-10.87,13.09s4.48,13.27,10.87,13.27,10.87-5.12,10.87-13.27S199.32,236.07,192.93,236.07Zm0,23.52c-4.54,0-7.53-4.09-7.53-10.43s3-10.24,7.53-10.24,7.53,3.91,7.53,10.24S197.47,259.59,192.93,259.59Zm6.64-178.51c-.23-.8-.48-1.59-.75-2.38A70.6,70.6,0,0,0,171.2,42.09c9.47,7.86,15,14.34,19.32,26.09,1.72,4.67,2.21,10.89,2.76,16.23a20.32,20.32,0,0,0,1.32,7.67h0c.11.4,9.73,34.79-11.22,63.18h0c-.1.17-10,10.13-14.21,5.53-2.92-3.18.09-9.11.09-9.11s0,0,0,0c1.41-4,4.15-9.52,7.56-18,.43-1,.82-1.82,1.16-2.54,3-6.38,11.36-30.89-4.79-49.85C146.63,50.09,101.38,53.23,93.64,54a2.78,2.78,0,0,0-1.87,1,160.71,160.71,0,0,0-13.9,20.61c-1.07,1.86.47,2.64,2.65,2.37,11.32-1.42,41.6-3.63,70.57,7.93a2.49,2.49,0,0,1-.59.09,108.05,108.05,0,0,0-27.3,2.52,2.08,2.08,0,0,0-1.67,2.13A143.42,143.42,0,0,0,123,105c.24,1.58,1.41,2.21,2.13,2,9-2.56,41.59-9.79,41.46,10.33-.06,9.83-9.26,26.79-11.61,34-3.47,10.7-.85,20,4,23.85s11.26.47,11.26.47l0-.08c4.63-2.1,19.34-10.49,28.39-41C207.27,105.45,201,85.11,199.57,81.08Zm-6.52,126v14.43c0,.74-.4,1.1-1.19,1.1h-1.28a1.07,1.07,0,0,1-1.19-1v-8.3h-4.51v8.3a1.07,1.07,0,0,1-1.19,1h-3v-3.9a4.89,4.89,0,0,0-1.65-3.73,5.74,5.74,0,0,0-4-1.52h-5.7a5.55,5.55,0,0,0-3.83,1.57v-7.95H161v15.53h-5.19v-9.29h-7.43a5.72,5.72,0,0,0-4,1.53,4.73,4.73,0,0,0-1.66,3.61v3a4.42,4.42,0,0,0,1.72,3.55,5.28,5.28,0,0,0,3.95,1.6h3.06v1c0,.73-.53,1.1-1.6,1.1H145.9v4h4.36a5.56,5.56,0,0,0,4-1.51,4.82,4.82,0,0,0,1.61-3.63v-1h27.87a6,6,0,0,0,3.44-1,6,6,0,0,0,3.45,1h1.28a6.06,6.06,0,0,0,4-1.46,4.88,4.88,0,0,0,1.72-3.69V207.05Zm-41.6,15.53h-3.06c-.79,0-1.19-.36-1.19-1.1v-3c0-.73.4-1.1,1.19-1.1h3.06Zm24.76,0h-9.53l1.6-4.51a1.23,1.23,0,0,1,1-.63H175c.8,0,1.19.37,1.19,1.1Zm11.22,5.75c-1.58,0-2.37.74-2.37,2.23s.79,2.2,2.37,2.2,2.41-.74,2.41-2.2S189,228.33,187.43,228.33ZM174,250.85a6.88,6.88,0,0,0,5.72-7.16c0-5.29-3.72-7.15-8.9-7.15h-8V262h3.23V251.22h4.6L176.8,262h3.67ZM161.09,29.5a4.2,4.2,0,0,0-.29-.32C154.13,22,127.66,8.53,94.14,13.78S42.06,43.89,40.53,46c-.75,1-3.07,3.73-5.28,6.87-3.53,5-7.3,10.88-7.57,11.31.47-.57,8.1-9.86,14.94-15.82C46.39,45.07,60.45,36.3,63.3,33.72l0,0c.74-.65,23.73-20.75,57.58-17.57,14,1.31,26.85,7,29.76,12.67.94,4.89-7.9,5.63-6.76,1.51.57-2.07-15.59-10.3-28.7-6.34C73.56,36.55,50.81,71.27,45.12,91.9c3.15.62,8.14,2.31,15.8,6.42a1.8,1.8,0,0,0,2.57-1c.18-.57.37-1.13.55-1.7C67.86,84.55,81.53,52,115.32,32c-3.7,6.11-7.76,13-10.16,18.73a133.11,133.11,0,0,1,16.9,1.51,139.83,139.83,0,0,1,5.67-16.61c2.18-5.38,8.85-6.68,14.11-3.3s8.44,8.26,17.27,6.57c2.15-.41,3.35-1.2,3.94-2.15C164.06,35.47,164.36,33.19,161.09,29.5Zm-12,207h-7.26V262h3.23V251.88h4.18c5.57,0,9.39-2.5,9.39-7.85C158.65,238.45,154.81,236.54,149.11,236.54Zm-.25,12.72h-3.78v-10.1h3.62c4.47,0,6.73,1.2,6.73,4.87S153.3,249.26,148.86,249.26Zm-8.15-93.33c-24.29-32.8-22.87-71.56-22.8-72.14,0,0,0-.07,0-.18a1.86,1.86,0,0,0-1.65-2,123.9,123.9,0,0,0-16.53-.75,1.66,1.66,0,0,0-1.6,1.52,94.17,94.17,0,0,0,13.12,55.26l.59.91-.91-.64q-6.93-5.8-13.85-11.61a3.82,3.82,0,0,0-5.07.15,74.94,74.94,0,0,0-9.34,10.66l0,0c.18-.09,6.68,5.67,15,10.68,9.56,5.8,19.53,11.31,28.68,17.74a26.82,26.82,0,0,1,9.61,11.29,11,11,0,0,1,.4,8.83,25.81,25.81,0,0,1-11.84,12.43c-.62.31-2,1.21-1.85,1.7,0,0,5.22-1.7,9.94-3a19.84,19.84,0,0,0,4.78-2C146.22,188.6,151.52,170.52,140.71,155.93Zm-4.88,51.12v14.43c0,.74-.4,1.1-1.19,1.1h-1.29v-9.29h-8.58a5.71,5.71,0,0,0-4,1.54,4.9,4.9,0,0,0-1.66,3.74v2.91a4.75,4.75,0,0,0,1.66,3.62,5.74,5.74,0,0,0,4,1.53h9.87a6.06,6.06,0,0,0,4-1.46,4.88,4.88,0,0,0,1.72-3.69V207.05Zm-7,15.53h-4.07c-.89,0-1.34-.36-1.34-1.1v-3c0-.73.45-1.1,1.34-1.1h4.07Zm5.94,16.17a6.42,6.42,0,0,0-4.71-1.94h-4.74a6.62,6.62,0,0,0-6.68,6.64V262H124v-7.28l7.49-2.05V262h5.3V243.45A6.37,6.37,0,0,0,134.78,238.75Zm-3.34,8.52-7.49,2v-5.83a1.4,1.4,0,0,1,1.38-1.38h4.74a1.34,1.34,0,0,1,1,.41,1.31,1.31,0,0,1,.4,1Zm-2.1-40.22c-1.58,0-2.37.74-2.37,2.23s.79,2.2,2.37,2.2,2.41-.74,2.41-2.2S131,207.05,129.34,207.05Zm-6,0c-1.58,0-2.37.74-2.37,2.23s.79,2.2,2.37,2.2,2.41-.74,2.41-2.2S124.92,207.05,123.31,207.05Zm-7.88,49.69h-8.69a1.33,1.33,0,0,1-1-.43,1.35,1.35,0,0,1-.42-1V236.81h-5.27v18.52a6.38,6.38,0,0,0,2,4.7,6.49,6.49,0,0,0,4.72,1.94h8.73Zm-6.11-49.69v19.36h3.36V207.05ZM88.59,190.44c-34.14-33.12-4.18-62.65,6.07-71.07,1.78-1.47,2.69-4.14,2.47-5.05-1.28-5.24-2.3-11.65-2.86-15.23C65.6,113,60,139.8,58.58,143.76a2.17,2.17,0,0,1-.11-.42c-.09-3.25-.31-6.5-.24-9.75s.32-6.67.53-10a2,2,0,0,0-.79-1.73,76.55,76.55,0,0,0-15.44-9.69S34,160.77,72.36,189.07c17.59,13,31.7,10.25,41.15,10.69C99.88,198.84,92.26,194,88.59,190.44Zm15.28,16.61v14.51c0,.8-.11,1.65-1.4,1.65H95.82v3.2h6.65a4.65,4.65,0,0,0,3.32-1.4,4.91,4.91,0,0,0,1.44-3.45V207.05Zm-6.13,2.77v11.61h3.36V209.82Zm-3,29a6.39,6.39,0,0,0-4.68-2H85.29a6.69,6.69,0,0,0-6.65,6.64v11.88A6.66,6.66,0,0,0,85.29,262h4.77a6.66,6.66,0,0,0,6.64-6.64V243.45A6.37,6.37,0,0,0,94.74,238.77Zm-3.3,16.56a1.38,1.38,0,0,1-.41,1,1.27,1.27,0,0,1-1,.43H85.29a1.27,1.27,0,0,1-1-.43,1.34,1.34,0,0,1-.41-1V243.45a1.29,1.29,0,0,1,.41-1,1.32,1.32,0,0,1,1-.41h4.77a1.4,1.4,0,0,1,1.38,1.38Zm.69-40.44a5.13,5.13,0,0,0-3.63-1.35H83.23v3.17H88.5a1.57,1.57,0,0,1,1.77,1.65v4.85h-9.7a1.61,1.61,0,0,1-1.76-1.47v-8.2H75.3v8.14a1.64,1.64,0,0,1-1.77,1.53h-5v-9.67H65.05v14.37a1.57,1.57,0,0,1-1.76,1.65H60.86v3.2h2.43a5.43,5.43,0,0,0,3.65-1.38,4.66,4.66,0,0,0,1.59-3.47v-1.5h5a5.45,5.45,0,0,0,3.19-.93l.33-.23.33.23a5.45,5.45,0,0,0,3.19.93H93.63v-8A4.84,4.84,0,0,0,92.13,214.89Zm-12.38-7.84c-1.32,0-1.88.54-1.88,1.82s.56,1.78,1.88,1.78,1.9-.53,1.9-1.78S81.08,207.05,79.75,207.05ZM58.5,236.81V242h6V262h5.26V242h5.94v-5.23Zm15.62-29.76c-1.32,0-1.88.54-1.88,1.82s.56,1.78,1.88,1.78,1.9-.53,1.9-1.78S75.45,207.05,74.12,207.05ZM61.78,103a83.56,83.56,0,0,0-17.39-7,33.73,33.73,0,0,0-11.28-1.5l-1,0-.84.07h-.14l-.73.08q-.54.06-1.05.15c-.33,0-.64.11-.94.18l-.48.11-.33.08c-.26.07-.51.13-.75.21l-.84.27L25.4,96a11.48,11.48,0,0,0-1.15.52l-.26.13c-.29.15-.54.29-.77.43l-.3.2a4,4,0,0,0-.41.29l-.12.08-.23.19-.07,0c.18-.2.38-.39.58-.58l.62-.59c.22-.2.45-.41.68-.6s.62-.53,1-.78l.29-.23c.31-.25.64-.49,1-.72s.48-.35.72-.51l.89-.59c.7-.46,1.43-.91,2.18-1.34,1.4-.8,2.88-1.56,4.42-2.27.31-.15.62-.3.94-.43.6-.28,1.22-.54,1.84-.8.29-.13.58-.25.88-.36q1.17-.48,2.37-.93a4.39,4.39,0,0,0,2.47-2.28C50.62,68,55.5,62.07,56.58,60.61a.24.24,0,0,0-.14,0l-.54.26C51.54,62.73,27.62,73.7,19.47,96.26a40.29,40.29,0,0,0-2.91,16.09c-.83,28.16,18.82,51.85,26.6,59.63a110.91,110.91,0,0,0,11.9,10.25c.7.53,1.4,1.06,2.12,1.58s1.32.92,2,1.37c1,.68,1.56,1,1.56,1a.17.17,0,0,0,.17,0c.69.09,3.1-.11-3.39-8.91-7.42-10-11.18-9.76-22.07-23.09S17.53,113.86,26,108s22.53,3.66,22.53,3.66c.53.32,9.19,6,13.52,8.86a2.72,2.72,0,0,0,3.79-.81,75.73,75.73,0,0,1,7.66-9.75C69.64,107.5,65.76,105.17,61.78,103Zm-4.06,104v19.36h3.36V207.05Zm-4.54,31.72a6.39,6.39,0,0,0-4.68-2H43.73a6.69,6.69,0,0,0-6.65,6.64v11.88A6.66,6.66,0,0,0,43.73,262H48.5a6.66,6.66,0,0,0,6.64-6.64V243.45A6.37,6.37,0,0,0,53.18,238.77Zm-3.3,16.56a1.38,1.38,0,0,1-.41,1,1.28,1.28,0,0,1-1,.43H43.73a1.29,1.29,0,0,1-1-.43,1.37,1.37,0,0,1-.4-1V243.45a1.31,1.31,0,0,1,.4-1,1.34,1.34,0,0,1,1-.41H48.5a1.34,1.34,0,0,1,1,.41,1.32,1.32,0,0,1,.41,1Zm-1.24-41.65a5.28,5.28,0,0,0-3.72,1.42,4.51,4.51,0,0,0-1.53,3.4v3.06a4.15,4.15,0,0,0,.11,1l.16.62H40.28a1.61,1.61,0,0,1-1.76-1.47v-8.2H35v8.14a1.63,1.63,0,0,1-1.76,1.53H29.93v-9.67H21.81A5.26,5.26,0,0,0,18.08,215a4.7,4.7,0,0,0-1.55,3.54v3A4.57,4.57,0,0,0,18.07,225a5.33,5.33,0,0,0,3.74,1.43H33.24a5.42,5.42,0,0,0,3.18-.93l.34-.23.33.23a5.45,5.45,0,0,0,3.19.93h14V213.68Zm-22.22,9.53H21.81c-1.2,0-1.92-.62-1.92-1.65v-3.17c0-1,.72-1.65,1.92-1.65h4.61Zm24.4,0H48.64a1.57,1.57,0,0,1-1.77-1.65V218.5a1.57,1.57,0,0,1,1.77-1.64h2.18ZM49.3,207.05c-1.31,0-1.87.54-1.87,1.82s.56,1.78,1.87,1.78,1.91-.53,1.91-1.78S50.64,207.05,49.3,207.05Zm-9.87,22.1c-1.32,0-1.88.55-1.88,1.82s.56,1.79,1.88,1.79,1.91-.54,1.91-1.79S40.77,229.15,39.43,229.15Zm-5.48,0c-1.32,0-1.88.55-1.88,1.82s.56,1.79,1.88,1.79,1.9-.54,1.9-1.79S35.28,229.15,34,229.15Zm-.61,20.48a6.53,6.53,0,0,0-2.73-2.4,5,5,0,0,0,.07-1v-2.79A6.62,6.62,0,0,0,24,236.81h-8.2V262H27.68a6.69,6.69,0,0,0,6.68-6.68v-2.12A6.44,6.44,0,0,0,33.34,249.63ZM21.14,242H24a1.35,1.35,0,0,1,1,.42,1.37,1.37,0,0,1,.4,1v2.86c0,.12-.11.29-.33.52a1.69,1.69,0,0,1-.76.44l-3.22.74Zm7.92,13.43a1.42,1.42,0,0,1-.41,1,1.3,1.3,0,0,1-1,.43H21.14v-3.5l6.75-1.63a1.29,1.29,0,0,1,.83.48,1.35,1.35,0,0,1,.34.9Zm-2.94-48.42c-1.32,0-1.88.54-1.88,1.82s.56,1.78,1.88,1.78,1.91-.53,1.91-1.78S27.46,207.05,26.12,207.05Zm-5.63,0c-1.31,0-1.87.54-1.87,1.82s.56,1.78,1.87,1.78,1.91-.53,1.91-1.78S21.83,207.05,20.49,207.05Z" style="fill:#fff"/><path class="cls-2" d="M208.07,15.27C181.71,5.42,146.77,0,109.69,0s-72,5.42-98.38,15.27A17.63,17.63,0,0,0,0,31.77v239H219.37v-239A17.63,17.63,0,0,0,208.07,15.27ZM2.68,31.77a14.93,14.93,0,0,1,9.56-14C38.31,8,72.92,2.68,109.69,2.68S181.06,8,207.13,17.78a14.94,14.94,0,0,1,9.57,14V268.08H2.68Z"/><path class="cls-2" d="M0,270v36.44a17.62,17.62,0,0,0,11.31,16.49c26.36,9.85,61.3,15.28,98.38,15.28s72-5.43,98.38-15.28a17.61,17.61,0,0,0,11.3-16.49V270Zm21.49,45.73a9.74,9.74,0,0,1-5-8.37c-.13-8.23-.12-16.47,0-24.71a6.1,6.1,0,0,1,6.29-6.34c4.28-.13,7,1.92,7.27,6,.32,4.69.31,9.4.38,14.09.05,3.32.06,6.65,0,10-.09,4-.2,8.05,3,11.58C28.87,318.34,25,317.89,21.49,315.68Zm67.11-5.27c-.08,5.18-2.64,7.71-7.5,7.61-3.78-.07-6.25-2.77-6.42-7v-8.52h0c0-2.77.12-5.55,0-8.31-.37-7-5.38-8.53-10.79-7.07-2.93.79-4.45,3.67-4.48,7.7,0,5.33,0,10.66,0,16,0,3.49-1.45,5.87-4.16,6.77-4.7,1.57-9.41-.74-9.48-5.55-.11-7.39-.51-14.85.27-22.17.79-7.48,6.22-11.48,13.38-13A34.55,34.55,0,0,1,74.9,277c9.42,2.33,13.47,7.51,13.69,17.22C88.72,299.6,88.68,305,88.6,310.41Zm84.23-4.82c-.6,5.75-4.92,9.42-10.45,11-8,2.29-16,2.32-23.81-1.39a3.69,3.69,0,0,0-2.63.22,31.73,31.73,0,0,1-25.15.39c-6.23-2.46-8.94-7.63-9.29-14.06-.17-3.11,0-6.23,0-9.35h0c0-3.11,0-6.23,0-9.34.07-3.9,2.41-6.53,5.92-6.78,4.48-.31,7.26,1.48,7.68,5.71.44,4.52.22,9.11.36,13.67a36.48,36.48,0,0,0,.51,7.19c.79,3.4,3,4.67,6.89,4.7,4.07,0,6.18-1.27,7.17-4.64a17,17,0,0,0,.67-4.48c.08-5.13,0-10.25.06-15.37s4.1-7.95,9-6.63a6.22,6.22,0,0,1,4.66,6.18c.13,4.56.06,9.14.12,13.7,0,1.8.11,3.6.28,5.39A6.21,6.21,0,0,0,151,307.5c6.08.31,8.66-2.16,8.73-8.29.06-5.67,0-11.35.31-17a5.9,5.9,0,0,1,6-5.94c4.21-.16,7.27,1.6,7.37,5.34A184.6,184.6,0,0,1,172.83,305.59Zm30.12,5c0,4.61-2.66,7.41-6.85,7.43-4.45,0-7-2.55-7.08-7.36-.09-7.88,0-15.76,0-23.64,0-5.15,0-5.15-2.83-10.7,4-.26,7.76,0,11.27,2,4,2.3,5.47,5.93,5.5,10.26Q203,299.6,203,310.59Z"/><path class="cls-3" d="M33.34,249.63a6.53,6.53,0,0,0-2.73-2.4,5,5,0,0,0,.07-1v-2.79A6.62,6.62,0,0,0,24,236.81h-8.2V262H27.68a6.69,6.69,0,0,0,6.68-6.68v-2.12A6.44,6.44,0,0,0,33.34,249.63ZM21.14,242H24a1.35,1.35,0,0,1,1,.42,1.37,1.37,0,0,1,.4,1v2.86c0,.12-.11.29-.33.52a1.69,1.69,0,0,1-.76.44l-3.22.74Zm7.92,13.43a1.42,1.42,0,0,1-.41,1,1.3,1.3,0,0,1-1,.43H21.14v-3.5l6.75-1.63a1.29,1.29,0,0,1,.83.48,1.35,1.35,0,0,1,.34.9Z"/><path class="cls-3" d="M53.18,238.77a6.39,6.39,0,0,0-4.68-2H43.73a6.69,6.69,0,0,0-6.65,6.64v11.88A6.66,6.66,0,0,0,43.73,262H48.5a6.66,6.66,0,0,0,6.64-6.64V243.45A6.37,6.37,0,0,0,53.18,238.77Zm-3.3,16.56a1.38,1.38,0,0,1-.41,1,1.28,1.28,0,0,1-1,.43H43.73a1.29,1.29,0,0,1-1-.43,1.37,1.37,0,0,1-.4-1V243.45a1.31,1.31,0,0,1,.4-1,1.34,1.34,0,0,1,1-.41H48.5a1.34,1.34,0,0,1,1,.41,1.32,1.32,0,0,1,.41,1Z"/><path class="cls-3" d="M58.5,236.81V242h6V262h5.26V242h5.94v-5.23Z"/><path class="cls-3" d="M94.74,238.77a6.39,6.39,0,0,0-4.68-2H85.29a6.69,6.69,0,0,0-6.65,6.64v11.88A6.66,6.66,0,0,0,85.29,262h4.77a6.66,6.66,0,0,0,6.64-6.64V243.45A6.37,6.37,0,0,0,94.74,238.77Zm-3.3,16.56a1.38,1.38,0,0,1-.41,1,1.27,1.27,0,0,1-1,.43H85.29a1.27,1.27,0,0,1-1-.43,1.34,1.34,0,0,1-.41-1V243.45a1.29,1.29,0,0,1,.41-1,1.32,1.32,0,0,1,1-.41h4.77a1.4,1.4,0,0,1,1.38,1.38Z"/><path class="cls-3" d="M115.43,256.74h-8.69a1.33,1.33,0,0,1-1-.43,1.35,1.35,0,0,1-.42-1V236.81h-5.27v18.52a6.38,6.38,0,0,0,2,4.7,6.49,6.49,0,0,0,4.72,1.94h8.73Z"/><path class="cls-3" d="M134.78,238.75a6.42,6.42,0,0,0-4.71-1.94h-4.74a6.62,6.62,0,0,0-6.68,6.64V262H124v-7.28l7.49-2.05V262h5.3V243.45A6.37,6.37,0,0,0,134.78,238.75Zm-3.34,8.52-7.49,2v-5.83a1.4,1.4,0,0,1,1.38-1.38h4.74a1.34,1.34,0,0,1,1,.41,1.31,1.31,0,0,1,.4,1Z"/><path class="cls-3" d="M149.11,236.54h-7.26V262h3.23V251.88h4.18c5.57,0,9.39-2.5,9.39-7.85C158.65,238.45,154.81,236.54,149.11,236.54Zm-.25,12.72h-3.78v-10.1h3.62c4.47,0,6.73,1.2,6.73,4.87S153.3,249.26,148.86,249.26Z"/><path class="cls-3" d="M174,250.85l-1.28-2.19-2.54,1.67.51.89L176.8,262h3.67Zm-3.18-14.31h-8V262h3.23V251.22h4.73a12.79,12.79,0,0,0,3.18-.37,6.88,6.88,0,0,0,5.72-7.16C179.71,238.4,176,236.54,170.81,236.54Zm-.46,12.05h-4.27v-9.43h4.27c4,0,6.13,1.19,6.13,4.53S174.3,248.59,170.35,248.59Z"/><path class="cls-3" d="M192.93,236.07c-6.39,0-10.87,5-10.87,13.09s4.48,13.27,10.87,13.27,10.87-5.12,10.87-13.27S199.32,236.07,192.93,236.07Zm0,23.52c-4.54,0-7.53-4.09-7.53-10.43s3-10.24,7.53-10.24,7.53,3.91,7.53,10.24S197.47,259.59,192.93,259.59Z"/><path class="cls-3" d="M131.75,209.28c0,1.46-.8,2.2-2.41,2.2s-2.37-.74-2.37-2.2.79-2.23,2.37-2.23S131.75,207.79,131.75,209.28Z"/><path class="cls-3" d="M125.72,209.28c0,1.46-.8,2.2-2.41,2.2s-2.37-.74-2.37-2.2.79-2.23,2.37-2.23S125.72,207.79,125.72,209.28Z"/><path class="cls-3" d="M135.83,207.05v14.43c0,.74-.4,1.1-1.19,1.1h-1.29v-9.29h-8.58a5.71,5.71,0,0,0-4,1.54,4.9,4.9,0,0,0-1.66,3.74v2.91a4.75,4.75,0,0,0,1.66,3.62,5.74,5.74,0,0,0,4,1.53h9.87a6.06,6.06,0,0,0,4-1.46,4.88,4.88,0,0,0,1.72-3.69V207.05Zm-7,15.53h-4.07c-.89,0-1.34-.36-1.34-1.1v-3c0-.73.45-1.1,1.34-1.1h4.07Z"/><path class="cls-3" d="M193.05,207.05v14.43c0,.74-.4,1.1-1.19,1.1h-1.28a1.07,1.07,0,0,1-1.19-1v-8.3h-4.51v8.3a1.07,1.07,0,0,1-1.19,1h-3v-3.9a4.89,4.89,0,0,0-1.65-3.73,5.74,5.74,0,0,0-4-1.52h-5.7a5.55,5.55,0,0,0-3.83,1.57v-7.95H161v15.53h-5.19v-9.29h-7.43a5.72,5.72,0,0,0-4,1.53,4.73,4.73,0,0,0-1.66,3.61v3a4.42,4.42,0,0,0,1.72,3.55,5.28,5.28,0,0,0,3.95,1.6h3.06v1c0,.73-.53,1.1-1.6,1.1H145.9v4h4.36a5.56,5.56,0,0,0,4-1.51,4.82,4.82,0,0,0,1.61-3.63v-1h27.87a6,6,0,0,0,3.44-1,6,6,0,0,0,3.45,1h1.28a6.06,6.06,0,0,0,4-1.46,4.88,4.88,0,0,0,1.72-3.69V207.05Zm-41.6,15.53h-3.06c-.79,0-1.19-.36-1.19-1.1v-3c0-.73.4-1.1,1.19-1.1h3.06Zm24.76,0h-9.53l1.6-4.51a1.23,1.23,0,0,1,1-.63H175c.8,0,1.19.37,1.19,1.1Z"/><path class="cls-3" d="M189.84,230.56c0,1.46-.8,2.2-2.41,2.2s-2.37-.74-2.37-2.2.79-2.23,2.37-2.23S189.84,229.07,189.84,230.56Z"/><rect class="cls-3" x="198.75" y="207.05" width="4.36" height="19.58"/><path class="cls-3" d="M26.12,207.05c-1.32,0-1.88.54-1.88,1.82s.56,1.78,1.88,1.78,1.91-.53,1.91-1.78S27.46,207.05,26.12,207.05Z"/><path class="cls-3" d="M48.64,213.68a5.28,5.28,0,0,0-3.72,1.42,4.51,4.51,0,0,0-1.53,3.4v3.06a4.15,4.15,0,0,0,.11,1l.16.62H40.28a1.61,1.61,0,0,1-1.76-1.47v-8.2H35v8.14a1.63,1.63,0,0,1-1.76,1.53H29.93v-9.67H21.81A5.26,5.26,0,0,0,18.08,215a4.7,4.7,0,0,0-1.55,3.54v3A4.57,4.57,0,0,0,18.07,225a5.33,5.33,0,0,0,3.74,1.43H33.24a5.42,5.42,0,0,0,3.18-.93l.34-.23.33.23a5.45,5.45,0,0,0,3.19.93h14V213.68Zm-22.22,9.53H21.81c-1.2,0-1.92-.62-1.92-1.65v-3.17c0-1,.72-1.65,1.92-1.65h4.61Zm24.4,0H48.64a1.57,1.57,0,0,1-1.77-1.65V218.5a1.57,1.57,0,0,1,1.77-1.64h2.18Z"/><path class="cls-3" d="M20.49,207.05c-1.31,0-1.87.54-1.87,1.82s.56,1.78,1.87,1.78,1.91-.53,1.91-1.78S21.83,207.05,20.49,207.05Z"/><path class="cls-3" d="M39.43,229.15c-1.32,0-1.88.55-1.88,1.82s.56,1.79,1.88,1.79,1.91-.54,1.91-1.79S40.77,229.15,39.43,229.15Z"/><path class="cls-3" d="M34,229.15c-1.32,0-1.88.55-1.88,1.82s.56,1.79,1.88,1.79,1.9-.54,1.9-1.79S35.28,229.15,34,229.15Z"/><path class="cls-3" d="M49.3,207.05c-1.31,0-1.87.54-1.87,1.82s.56,1.78,1.87,1.78,1.91-.53,1.91-1.78S50.64,207.05,49.3,207.05Z"/><path class="cls-3" d="M92.13,214.89a5.13,5.13,0,0,0-3.63-1.35H83.23v3.17H88.5a1.57,1.57,0,0,1,1.77,1.65v4.85h-9.7a1.61,1.61,0,0,1-1.76-1.47v-8.2H75.3v8.14a1.64,1.64,0,0,1-1.77,1.53h-5v-9.67H65.05v14.37a1.57,1.57,0,0,1-1.76,1.65H60.86v3.2h2.43a5.43,5.43,0,0,0,3.65-1.38,4.66,4.66,0,0,0,1.59-3.47v-1.5h5a5.45,5.45,0,0,0,3.19-.93l.33-.23.33.23a5.45,5.45,0,0,0,3.19.93H93.63v-8A4.84,4.84,0,0,0,92.13,214.89Z"/><path class="cls-3" d="M74.12,207.05c-1.32,0-1.88.54-1.88,1.82s.56,1.78,1.88,1.78,1.9-.53,1.9-1.78S75.45,207.05,74.12,207.05Z"/><path class="cls-3" d="M79.75,207.05c-1.32,0-1.88.54-1.88,1.82s.56,1.78,1.88,1.78,1.9-.53,1.9-1.78S81.08,207.05,79.75,207.05Z"/><path class="cls-3" d="M97.74,209.82v11.61h3.36V209.82Z"/><path class="cls-3" d="M103.87,207.05v14.51c0,.8-.11,1.65-1.4,1.65H95.82v3.2h6.65a4.65,4.65,0,0,0,3.32-1.4,4.91,4.91,0,0,0,1.44-3.45V207.05Z"/><path class="cls-3" d="M109.32,207.05v19.36h3.36V207.05Z"/><path class="cls-3" d="M57.72,207.05v19.36h3.36V207.05Z"/><path class="cls-4" d="M137.37,194.81a19.84,19.84,0,0,1-4.78,2c-4.72,1.28-9.94,2.94-9.94,3-.16-.49,1.23-1.39,1.85-1.7a25.81,25.81,0,0,0,11.84-12.43,11,11,0,0,0-.4-8.83,26.82,26.82,0,0,0-9.61-11.29c-9.15-6.43-19.12-11.94-28.68-17.74-8.27-5-14.77-10.77-15-10.68l0,0A74.94,74.94,0,0,1,92,126.43a3.82,3.82,0,0,1,5.07-.15q6.91,5.82,13.85,11.61l.91.64-.59-.91A94.17,94.17,0,0,1,98.14,82.36a1.66,1.66,0,0,1,1.6-1.52,123.9,123.9,0,0,1,16.53.75,1.86,1.86,0,0,1,1.65,2c0,.11,0,.18,0,.18-.07.58-1.49,39.34,22.8,72.14C151.52,170.52,146.22,188.6,137.37,194.81Z"/><path class="cls-4" d="M113.51,199.76c-9.45-.44-23.56,2.3-41.15-10.69C34,160.77,42.53,112.16,42.53,112.16A76.55,76.55,0,0,1,58,121.85a2,2,0,0,1,.79,1.73c-.21,3.34-.46,6.67-.53,10s.15,6.5.24,9.75a2.17,2.17,0,0,0,.11.42c1.44-4,7-30.81,35.69-44.67.56,3.58,1.58,10,2.86,15.23.22.91-.69,3.58-2.47,5.05-10.25,8.42-40.21,37.95-6.07,71.07C92.26,194,99.88,198.84,113.51,199.76Z"/><path class="cls-4" d="M163.05,36.79c-.59,1-1.79,1.74-3.94,2.15-8.83,1.69-12-3.19-17.27-6.57s-11.93-2.08-14.11,3.3a139.83,139.83,0,0,0-5.67,16.61,133.11,133.11,0,0,0-16.9-1.51c2.4-5.74,6.46-12.62,10.16-18.73C81.53,52,67.86,84.55,64,95.58c-.18.57-.37,1.13-.55,1.7a1.8,1.8,0,0,1-2.57,1c-7.66-4.11-12.65-5.8-15.8-6.42C50.81,71.27,73.56,36.55,115.2,24c13.11-4,29.27,4.27,28.7,6.34-1.14,4.12,7.7,3.38,6.76-1.51-2.91-5.63-15.77-11.36-29.76-12.67C87.05,13,64.06,33.05,63.32,33.7l0,0C60.45,36.3,46.39,45.07,42.62,48.35c-6.84,6-14.47,15.25-14.94,15.82.27-.43,4-6.31,7.57-11.31C37.46,49.72,39.78,47,40.53,46,42.06,43.89,60.62,19,94.14,13.78s60,8.17,66.66,15.4a4.2,4.2,0,0,1,.29.32C164.36,33.19,164.06,35.47,163.05,36.79Z"/><path class="cls-4" d="M73.48,109.91a75.73,75.73,0,0,0-7.66,9.75,2.72,2.72,0,0,1-3.79.81c-4.33-2.87-13-8.54-13.52-8.86,0,0-14.08-9.57-22.53-3.66s-1.41,33,9.48,46.29,14.65,13,22.07,23.09c6.49,8.8,4.08,9,3.39,8.91a.17.17,0,0,1-.17,0s-.57-.35-1.56-1c-.69-.45-1.36-.9-2-1.37s-1.42-1.05-2.12-1.58A110.91,110.91,0,0,1,43.16,172c-7.78-7.78-27.43-31.47-26.6-59.63a40.29,40.29,0,0,1,2.91-16.09C27.62,73.7,51.54,62.73,55.9,60.89l.54-.26a.24.24,0,0,1,.14,0c-1.08,1.46-6,7.34-13.69,24.23a4.39,4.39,0,0,1-2.47,2.28q-1.2.45-2.37.93c-.3.11-.59.23-.88.36-.62.26-1.24.52-1.84.8-.32.13-.63.28-.94.43-1.54.71-3,1.47-4.42,2.27-.75.43-1.48.88-2.18,1.34-.3.19-.6.38-.89.59s-.48.33-.72.51-.65.47-1,.72l-.29.23c-.33.25-.64.51-1,.78s-.46.4-.68.6-.43.39-.62.59-.4.38-.58.58l-.07.07.14-.12.23-.19.12-.08a4,4,0,0,1,.41-.29l.3-.2c.23-.14.48-.28.77-.43l.26-.13A11.48,11.48,0,0,1,25.4,96l.59-.22.84-.27c.24-.08.49-.14.75-.21l.33-.08.48-.11.94-.18q.51-.09,1.05-.15l.73-.08h.14l.84-.07,1,0A33.73,33.73,0,0,1,44.39,96a83.56,83.56,0,0,1,17.39,7C65.76,105.17,69.64,107.5,73.48,109.91Z"/><path class="cls-4" d="M198.64,134.61c-9,30.56-23.76,38.95-28.39,41l0,.08s-6.38,3.38-11.26-.47-7.51-13.15-4-23.85c2.35-7.26,11.55-24.22,11.61-34,.13-20.12-32.5-12.89-41.46-10.33-.72.2-1.89-.43-2.13-2a143.42,143.42,0,0,1-1.47-14.35,2.08,2.08,0,0,1,1.67-2.13A108.05,108.05,0,0,1,150.5,86a2.49,2.49,0,0,0,.59-.09c-29-11.56-59.25-9.35-70.57-7.93-2.18.27-3.72-.51-2.65-2.37A160.71,160.71,0,0,1,91.77,55a2.78,2.78,0,0,1,1.87-1c7.74-.79,53-3.93,79.55,27.27,16.15,19,7.8,43.47,4.79,49.85-.34.72-.73,1.58-1.16,2.54-3.41,8.47-6.15,14-7.56,18,0,0,0,0,0,0s-3,5.93-.09,9.11c4.22,4.6,14.11-5.36,14.21-5.53h0c21-28.39,11.33-62.78,11.22-63.18h0a20.32,20.32,0,0,1-1.32-7.67c-.55-5.34-1-11.56-2.76-16.23C186.19,56.43,180.67,50,171.2,42.09A70.6,70.6,0,0,1,198.82,78.7c.27.79.52,1.58.75,2.38C201,85.11,207.27,105.45,198.64,134.61Z"/><path class="cls-5" d="M130,196.54a27.38,27.38,0,0,0,7.85-10.29,12.49,12.49,0,0,0-.41-10.06,28.2,28.2,0,0,0-10.16-12c-6.72-4.73-14-9-21-13.14-2.58-1.53-5.24-3.1-7.83-4.67a170.26,170.26,0,0,1-14.33-10.37,74.33,74.33,0,0,1,6.48-7.45,4.58,4.58,0,0,1,6.26-.25,198.61,198.61,0,0,0,19,14l-3.21-5.51a98.68,98.68,0,0,1-8.9-19.79,95.41,95.41,0,0,1-4.14-34.16,1.52,1.52,0,0,1,1.49-1.43h1.37A122.65,122.65,0,0,1,115,82.1a1.53,1.53,0,0,1,1.37,1.52h0a112.54,112.54,0,0,0,2.29,24.46,130.08,130.08,0,0,0,6.8,23.41,112,112,0,0,0,14,25.39,28.57,28.57,0,0,1,5.36,21.68c-1,6.33-4.22,12.05-8.34,14.94A32.45,32.45,0,0,1,130,196.54Z"/><path class="cls-5" d="M88,194.34a44.56,44.56,0,0,1-13.67-7.75,75.81,75.81,0,0,1-19.46-23.68,84.82,84.82,0,0,1-8.2-24.12,103.32,103.32,0,0,1-1.42-23,84.7,84.7,0,0,1,9.1,6,2.75,2.75,0,0,1,1.09,2.3c-.85,22.15,3.24,32.6,3.24,32.6a88.43,88.43,0,0,1,11.71-32.33c5.22-8.61,14.14-16.47,23.17-21.61.44,2.59.86,4.91,1.29,7a8.13,8.13,0,0,1-2.63,7.76c-8,7-22.25,21.88-22.62,39.89C69.37,170.25,75.56,182.66,88,194.34Z"/><path class="cls-5" d="M58.87,32.47a89.49,89.49,0,0,0-7,5.93,67.08,67.08,0,0,0,9.32-7l.05,0A57.11,57.11,0,0,1,66.93,27,85.11,85.11,0,0,0,58.87,32.47Zm65.38-6.34-2.88,3.24s-4.24,5.26-12.29,20.45c3.55.2,6.67.5,9.6.89,1.47-4.88,4.35-11.93,6.09-16.24a11.3,11.3,0,0,1,8.07-6.83A36.23,36.23,0,0,0,124.25,26.13Zm-8.13.9a104.29,104.29,0,0,0-47.07,30C60.1,67,52.18,80.19,48.52,91a70.49,70.49,0,0,1,10,4.17,1.8,1.8,0,0,0,2.49-1A151.76,151.76,0,0,1,75.78,65.38,117.67,117.67,0,0,1,107,33.43a55.36,55.36,0,0,1,12.67-6.64l2-.67A22.68,22.68,0,0,0,116.12,27Z"/><path class="cls-5" d="M21.31,96.55c3.94-4.06,11.39-8.42,19.74-11.63a4.41,4.41,0,0,0,2.43-2.26,153.05,153.05,0,0,1,10.1-19C45.11,68.07,27.66,79.19,21.31,96.55Zm40,7.8a83,83,0,0,0-17-6.86h0A35.49,35.49,0,0,0,34.77,96c-.45,0-.87,0-1.26,0h-.08c-5.7.12-9.08,2-10.06,3,0,0-4.65,3.28-4.93,13.21v.09c-.36,11.87,3,24.2,9.87,36.63a102.27,102.27,0,0,0,16.26,21.82,113,113,0,0,0,11.74,10.11c.79.6,1.45,1.09,2.09,1.56s1,.7,1.59,1.09a40.09,40.09,0,0,0-3.47-5.33,56.2,56.2,0,0,0-9.35-9.94,98.23,98.23,0,0,1-12.66-13.1,65.26,65.26,0,0,1-10.47-20c-2.6-7.83-3.62-15.11-2.88-20.48.53-3.83,1.94-6.57,4.19-8.14a12.94,12.94,0,0,1,7.58-2.22c7.9,0,16.1,5.42,16.74,5.85s7.94,5,12.7,8a3.4,3.4,0,0,0,4.64-.95,70.53,70.53,0,0,1,5.22-6.71C68.54,108.26,64.4,106,61.31,104.35Z"/><path class="cls-5" d="M196.66,82.34l0-.08,0-.09c-.08-.28-.16-.55-.25-.83a19.16,19.16,0,0,0,.66,7.22.09.09,0,0,0,0,0,29.31,29.31,0,0,1,.77,2.9A76.77,76.77,0,0,1,200,106.14C200.16,93.15,197.47,84.62,196.66,82.34ZM172.12,165.4a6.88,6.88,0,0,1-5.22-2.24c-4-4.39-1.21-11-.49-12.54.77-2.16,1.85-4.63,3.21-7.75,1.27-2.9,2.71-6.18,4.33-10.2l0-.06,0-.06c.44-1,.84-1.85,1.19-2.58a53.48,53.48,0,0,0,4.48-19c.52-10.72-2.45-20-8.81-27.43C151.14,60.39,120.48,56.93,104,56.93c-1.73,0-3.59,0-5.35.12a14.3,14.3,0,0,0-11.1,6.07c-1.1,1.57-2.15,3.14-3.12,4.65a4.19,4.19,0,0,0,3.77,6.47c3.78-.23,8-.4,11.86-.4,24,0,49.87,4.35,67,18.17-.73-.23-17.67-5.48-41.44-.69a3.07,3.07,0,0,0-2.48,3v.07a42.42,42.42,0,0,0,.73,7.64,1.9,1.9,0,0,0,2.29,1.52c5.48-1.27,14.28-2.85,21.26-2.85,8.39,0,14.55,1.93,18.33,5.73a15.13,15.13,0,0,1,4.21,11.2c0,7.5-4.62,18-8.3,26.5-1.5,3.46-2.8,6.46-3.47,8.51-1.46,4.5-2.17,8.92-1.38,12.85a13,13,0,0,0,4.36,7.51,6.57,6.57,0,0,0,3.9.94,17.11,17.11,0,0,0,4.09-1,34.67,34.67,0,0,0,11.39-9,54.1,54.1,0,0,0,3.56-4.56C181.33,161.77,176.46,165.4,172.12,165.4Z"/><path class="cls-5" d="M155.7,36.1a9.7,9.7,0,0,1-4.79-1.21,6.83,6.83,0,0,0,1.58-1.39,6.3,6.3,0,0,0,1.31-5.3l-.09-.45-.15-.29a25.54,25.54,0,0,1,4.89,3.89l.09.09a.27.27,0,0,1,.07.08l0,.05,0,0c1.76,2,1.93,3.1,1.82,3.24l-.1.12-.08.14s-.33.41-1.82.7A15.24,15.24,0,0,1,155.7,36.1Z"/></g></g></svg>