<svg xmlns="http://www.w3.org/2000/svg" viewBox="0 0 1566 1669.1"><defs><style>.cls-1{fill:#010003}.cls-1,.cls-2,.cls-3,.cls-8,.cls-9{fill-rule:evenodd}.cls-2,.cls-8{fill:#25943d}.cls-3{fill:#fff}.cls-8{stroke:#25943d}.cls-8,.cls-9{stroke-miterlimit:10}.cls-8,.cls-9{stroke-width:0.22px}.cls-9{stroke:#000}</style></defs><g id="Layer_2" data-name="Layer 2"><g id="Layer_1-2" data-name="Layer 1"><path class="cls-1" d="M574,1500.76S42.8,1457.54,41.16,1083.57C40.57,948,78.4,904.78,78.4,904.78,22.54,882.51,0,839,0,839l52.92-53.05L29.4,757.42l40.18-27.5c-11-9.83-15.68-35.37-15.68-35.37C191.11,608.1,182.29,466.64,182.29,466.64,182.29,297.66,11.66,35,11.66,35L97,61.89C315.57,146.38,466.5,0,466.5,0,601.16,99.22,782.94,89.79,782.94,89.79S964.84,99.22,1099.5,0c0,0,150.93,146.38,369.48,61.89L1548.67,35s-165,262.71-165,431.69c0,0-8.81,141.46,128.39,227.91,0,0-.39,20.3-15.68,35.37l40.18,27.5-23.52,28.49L1566,839s-22.54,43.55-78.4,65.82c0,0,37.83,43.22,37.24,178.79-1.63,374-532.82,417.19-532.82,417.19S794,1528.3,574,1500.76Z"/><path class="cls-2" d="M106.66,1071.78C106.13,944.07,152.73,893,152.73,893h1259s46.61,51.08,46.06,178.79c-1.63,387.07-675.25,371.35-675.25,371.35s-674.25,15.72-675.89-371.35Z"/><polygon class="cls-1" points="895.58 1441.82 895.58 892.99 670.83 892.99 670.83 1441.82 895.58 1441.82 895.58 1441.82"/><path class="cls-1" d="M1303.29,1323.93V893H1078.53v517.39c166.6-32.74,224.76-86.45,224.76-86.45Z"/><path class="cls-1" d="M487.88,1410.38V893H263.13v438.8s132.63,70.73,224.75,78.59Z"/><path class="cls-3" d="M782.62,154.23s-177.29,9.83-313-86.45c0,0-149.62,123.78-341.71,69.42,0,0,115.32,156.54,115.32,328.46,0,0-1,99.21-40.18,150.3H1362.74c-39.2-51.09-40.18-150.3-40.18-150.3,0-171.92,115.32-328.46,115.32-328.46-192.09,54.36-341.71-69.42-341.71-69.42-135.74,96.28-313,86.45-313,86.45"/><path d="M1362.74,617.27c-41.82-63.53-39.2-152.6-39.2-152.6,0-174.21,116.3-328.11,116.3-328.11-196,55.66-343.67-68.78-343.67-68.78-138.52,95.62-313,86.45-313,86.45S608,163.4,469.53,67.78c0,0-147.66,124.44-343.67,68.78,0,0,116.3,153.9,116.3,328.11,0,0,2.61,89.07-39.21,152.6m0,0H1362.74M106.66,1071.78C106.13,944.07,152.73,893,152.73,893m0,0h1259m0,0s46.61,51.08,46.06,178.79c-1.63,387.07-675.25,371.35-675.25,371.35s-674.25,15.72-675.89-371.35" style="stroke:#231f20;stroke-miterlimit:2.61;fill:none"/><polyline points="781.95 964.15 781.95 964.15 792.34 964.76 802.72 965.37 812.5 966.6 822.88 968.43 832.05 970.88 841.82 973.32 850.99 976.37 860.15 980.04 869.32 984.32 877.87 988.59 886.43 993.48 894.37 998.98 902.31 1004.48 909.64 1009.98 916.97 1016.7 924.3 1023.42 931.02 1030.14 937.14 1037.47 943.24 1045.41 948.74 1052.74 953.63 1061.3 958.52 1069.85 963.41 1078.4 967.07 1086.96 970.74 1096.12 973.79 1105.89 976.85 1115.06 978.68 1124.83 980.51 1134.61 981.74 1145 982.96 1155.39 982.96 1165.77 982.96 1176.16 981.74 1185.93 980.51 1196.32 978.68 1206.1 976.85 1215.87 973.79 1225.65 970.74 1234.81 967.07 1243.97 963.41 1252.53 958.52 1261.69 953.63 1269.64 948.74 1278.19 943.24 1286.13 937.14 1293.46 931.02 1300.79 924.3 1307.52 916.97 1314.23 909.64 1320.96 902.31 1327.06 894.37 1332.57 886.43 1337.46 877.87 1342.34 869.32 1346.62 860.15 1350.9 850.99 1354.56 841.82 1357.62 832.05 1360.67 822.88 1362.51 812.5 1364.34 802.72 1365.56 792.34 1366.78 781.95 1366.78 771.56 1366.78 761.79 1365.56 751.4 1364.34 741.63 1362.51 731.85 1360.67 722.68 1357.62 712.91 1354.56 703.75 1350.9 695.19 1346.62 686.64 1342.34 678.09 1337.46 670.14 1332.57 662.2 1327.06 654.26 1320.96 646.93 1314.23 640.2 1307.52 633.48 1300.79 627.37 1293.46 621.26 1286.13 615.77 1278.19 610.27 1269.64 605.38 1261.69 601.1 1252.53 596.83 1243.97 593.77 1234.81 590.11 1225.65 587.66 1215.87 585.22 1206.1 583.39 1196.32 582.16 1185.93 581.55 1176.16 581.55 1165.77 581.55 1155.39 582.16 1145 583.39 1134.61 585.22 1124.83 587.66 1115.06 590.11 1105.89 593.77 1096.12 596.83 1086.96 601.1 1078.4 605.38 1069.85 610.27 1061.3 615.77 1052.74 621.26 1045.41 627.37 1037.47 633.48 1030.14 640.2 1023.42 646.93 1016.7 654.26 1009.98 662.2 1004.48 670.14 998.98 678.09 993.48 686.64 988.59 695.19 984.32 703.75 980.04 712.91 976.37 722.68 973.32 731.85 970.88 741.63 968.43 751.4 966.6 761.79 965.37 771.56 964.76 781.95 964.15" style="fill:#0c0b0e"/><polyline points="739.37 1037.91 738.28 1037.91 734.45 1038.45 724.08 1043.37 712.06 1049.92 706.04 1053.75 700.04 1057.57 694.03 1061.94 688.57 1066.31 684.74 1069.59 681.46 1073.42 678.73 1076.69 676.55 1079.97 676.55 1089.26 678.73 1102.37 681.46 1117.12 684.74 1130.78 686.38 1135.69 688.02 1139.52 689.66 1142.25 690.75 1143.89 694.57 1144.43 699.49 1144.98 705.5 1144.98 712.6 1144.43 728.44 1143.34 744.29 1142.25 750.84 1141.7 756.31 1141.15 761.22 1141.15 765.59 1140.61 766.14 1140.61 768.87 1134.6 773.79 1120.94 779.25 1104.01 785.26 1087.62 788.54 1078.88 790.18 1073.96 790.72 1073.96 790.72 1073.42 790.72 1072.87 789.63 1070.68 789.08 1070.14 787.44 1069.05 778.7 1061.94 766.69 1053.2 759.58 1048.29 753.03 1044.46 746.47 1040.64 740.46 1038.45 739.91 1038.45 739.37 1037.91" style="fill:#231f20"/><path d="M685.18,1147.82l-6.37,9.85-8.69,16.23-4.06,9.86-4.06,11-1.74,5.22-1.73,5.21-1.16,5.8-.58,5.22,7,12.75,12.75,20.28,7,11,7.53,9.86,3.48,4.06,3.47,3.48,3.48,2.32,2.9,1.73,7.54,1.16,16.8,1.16h11l12.17-.58,13.33-1.74,13.91-2.31,7.54-13.92L793,1251l6.37-14.5,5.8-14.49,1.74-4.63,2.31-5.22-45.79-67.81-4.06.57h-5.21l-5.8.58-5.79.58-16.23,1.16-16.23,1.16H689.82l-4.64-.58m-86.36,18,2.32,12.17,3.47,13.91,2.32,7,2.9,5.21,1.16,2.32,1.74,2.32,1.74,1.16,1.16,1.16h.58l2.32,1.16,2.9.58,2.89,1.16,2.32.58,7,.58H640l6.38-.58,5.79-1.16,2.32-11,2.91-11,4-9.86,4.64-9.86,8.69-16.22,5.8-9.86-1.16-2.31-1.74-2.9-1.74-4.64-1.74-5.22-3.47-13.91L667.8,1102l-2.32-13.91-.58-11-5.22-1.16-5.22-.58H644l-9.28,1.16-5.79,1.15-1.16.59-3.48,2.89-4.63,5.8-5.22,7.54-4.06,7-2.32,7.53-2.32,7.54-2.31,8.11-1.75,7.54-1.15,8.12L599.4,1149l-.58,8.11Zm158.82,182h22.6l9.28-1.16,8.11-1.16,7.54-2.32,5.79-2.31,5.22-2.32,4.63-2.9,3.48-2.9,2.9-2.9,2.9-2.89,1.74-2.9,2.32-5.22.58-4.06-1.74-.57-2.32-.58-4.06-1.74-4.64-1.74-12.17-5.8-12.17-6.38-5.79-3.48-5.22-3.47-4.06-3.48-3.48-3.48-13.33,2.9L753,1288.67l-11.59.58h-11l-16.8-1.16-9.28-1.74-2.9,5.8-4.06,7.53-4.05,8.12-2.9,5.8,2.32,3.47,4.06,5.22,2.31,2.9,2.9,3.48,3.48,2.89,4.06,2.32,11.59,4.64,11.59,4,12.76,2.9Zm179.68-84-7,2.32-8.7,2.31-4,.58-4.64.58h-4.07l-4.63-.58-1.74,3.48-2.9,3.48-3.47,4.06-4.06,4.63-5.8,5.22-6.37,5.21-6.38,4.64-6.95,4.64-7,4.06-6.95,2.89-6.38,2.91-6.38,1.15-1.16,4.64-2.31,5.8-2.32,3.47-2.32,3.48-3.48,3.48-4.06,2.9,5.8,1.16,5.22,1.16,10.43-3.48,11-4.64,9.86-4.63,9.85-5.8,9.27-5.8,9.27-7,8.7-7,8.12-7.54,6.95-7.53,6.38-8.11,6.37-8.12ZM964,1143.19l-1.75-4.06-2.31-4.64-2.91-4.64-4-4.06-5.22,1.16-6.37,1.16-7,1.16-6.37.58h-2.9l-2.32.58h-1.16l-1.16,7.54-2.31,8.69-2.32,8.7-2.9,8.69-6.38,16.81-6.38,13.91-2.31,4.64-2.33,3.48L895,1204l-.58.59,1.16,2.89,1.17,3.48,1.73,4.06,1.74,4,2.9,11.6,2.9,12.17.58,5.79.58,5.22-.58,5.8-.58,4.64h10.44l5.21-1.17,5.22-1.16,8.69-3.47,6.38-2.9,5.21-9.85,4.64-10.44,4.06-11,3.48-11.59,2.32-11,2.32-12.17,1.16-11.6V1154.2l-.58-5.22ZM791.84,982.05h-.58L782,983.78l-9.86,2.32-9.85,2.9L753,993.06l-3.48,4.63-3.47,6.38-1.74,4.64-1.74,4.64-1.74,5.8-2.32,6.37h.58l.58.58,6.38,2.32,7.53,4.06,7.53,4.63,7.54,4.64,12.75,9.85,9.28,7.54,1.74,1.16,1.16,1.16.58.57,1.15,1.17,13.33-1.74,22.61-2.9,11.59-1.16,11.59-.58h9.28l6.95.58h.58l3.48-8.12,3.48-11,2.9-10.43,1.73-7-4.63-5.21-7-6.38-8.11-6.38-6.38-5.22-7.53-2.89-7.54-2.9-8.12-2.9-8.11-1.74-8.11-1.74-8.7-1.74-8.11-1.15Zm-162.3,82.31-.58,4.05v4.06l6.95-1.16,9.28-1.16h10.43l5.22.58,4.64,1.16,2.9-4.06,2.9-3.47,4.05-4.06,4.06-4.06,5.79-4.64,7-4.63,6.38-4.06,7-4.06,12.76-7.53,11.59-5.22,1.73-.58,1.74-.58,2.32-7,2.32-5.8,1.74-5.22,1.74-4.64,2.9-5.22,2.31-4.63-12.75-4.06-11.59,3.48-11,4.06-11,5.21-10.43,5.8-9.85,6.38-9.85,6.95-8.7,7.54-8.7,8.11-6.37,6.38-6.38,7-5.22,7.54ZM622,1076.53l1.16-1.16,1.16-1.16v-1.74l-1.16,2.32Zm145.49,64.92,46.37,67.81,15.07-.58,24.34-1.74,12.76-1.16,10.43-1.15,8.69-.59,4.06-1.15.58-.59,1.74-2.31,1.74-3.48,2.31-4.06,6.38-13.91,6.38-16.81,2.9-8.69,2.32-8.69,1.74-8.12,1.16-7.54v-1.16l-.58-.58-1.16-4.63-2.9-7-2.32-4.64-3.48-5.79-4.64-7-5.8-7.53-11-13.91-8.11-8.7-4.64-4.06L869.5,1062l-6.37-.57-9.28.57-10.43.59-11.59,1.15-22,2.32-13.33,1.74-.58,1.74v.58l-2.31,5.8-3.48,8.69-5.8,14.49-5.8,15.65-5.8,13.91-5.21,11Z" style="fill:#fff"/><polyline points="885.78 1209.99 884.68 1207.81 883.59 1205.62 869.39 1207.26 846.99 1209.44 825.14 1211.08 812.03 1211.63 810.39 1216 808.2 1220.37 802.74 1234.57 796.73 1248.23 790.72 1261.34 783.07 1275 786.35 1277.73 790.18 1280.46 794.55 1283.19 799.46 1286.47 810.93 1291.93 821.86 1297.39 825.68 1299.03 829.51 1300.67 832.24 1301.77 834.42 1302.31 839.89 1301.22 845.9 1299.03 852.45 1296.31 858.46 1292.48 865.02 1288.65 871.03 1284.29 877.03 1279.37 882.5 1274.45 886.33 1270.08 889.05 1266.26 891.78 1262.98 893.97 1259.16 894.52 1254.78 895.07 1250.41 894.52 1244.95 893.97 1239.49 891.78 1228.56 888.5 1217.64 887.42 1213.82 885.78 1209.99"/><polyline points="652.51 1279.91 660.16 1286.47 669.99 1293.57 675.45 1296.85 680.92 1299.58 686.38 1301.22 691.84 1302.31 694.03 1297.39 697.85 1290.29 701.67 1283.19 704.41 1277.73 701.13 1275.54 697.85 1272.27 694.03 1268.44 690.75 1264.62 683.65 1254.78 676.55 1244.4 665.07 1225.83 659.61 1215.45 653.6 1216.54 647.59 1217.09 641.04 1217.09 635.03 1216 632.29 1215.45 629.02 1214.9 627.38 1214.36 625.19 1213.27 625.74 1219.28 627.38 1227.47 630.11 1238.4 633.39 1253.69 637.76 1260.8 642.13 1267.35 647.05 1273.9 652.51 1279.91"/><polyline points="898.35 1037.36 891.78 1035.17 887.42 1033.54 883.59 1032.44 881.41 1031.89 879.77 1039 876.49 1048.83 873.21 1058.66 869.93 1066.31 873.76 1069.59 878.67 1074.51 885.23 1081.61 892.88 1091.99 898.35 1099.09 902.71 1105.65 905.99 1111.11 908.72 1116.02 911.45 1123.12 913.09 1127.5 913.64 1127.5 914.18 1127.5 916.37 1127.5 919.1 1126.95 925.65 1126.4 932.76 1125.31 938.77 1124.22 943.14 1123.12 943.69 1119.31 944.23 1114.93 944.23 1110.56 944.78 1106.74 940.96 1097.45 937.13 1088.71 932.76 1080.52 927.84 1072.33 922.38 1064.67 916.92 1057.02 910.9 1049.92 904.35 1043.37 901.07 1040.09 898.35 1037.36"/><path class="cls-1" d="M779.66,1669.1l47.19-62.7,22.31,6,30,.76-4.29-28s-57.48-43.06,30.89-83.85c0,0-127-53.64-243.67,0,0,0,48.9,33.23,43.76,61.19L687,1583l-10.3,28.71,36,1.51,19.73-8.31,43.76,59.68"/><path class="cls-8" d="M653.8,213.93c-17.91,6.3-38.36,25.38-36.25,43C632.8,255.64,648.81,232.35,653.8,213.93Z"/><path class="cls-9" d="M596.84,302c-7.08-34.07-3.75-61.79,18.12-78.2-3.25,13.56-.81,30.51-6.73,50.24-.46,1.26,1.18,2.88,2.28.85,8.46-15.54,23.72-18.66,36-28.82C640,274.27,621.45,291,596.84,302Z"/><path class="cls-8" d="M586,362c-17.71-36.26-22.77-70.66,0-101-4.85,21.63,5.74,40.57,5.18,62.14-.34,1.33,1.87,2.91,2.63,0,4.22-16.2,20.9-19.9,32.07-34.15C626.49,312.86,604.13,339.72,586,362Z"/><path class="cls-9" d="M592.18,413.3c-41.59-39.58-39.33-66.1-32.11-91.14,6.37,21.23,25.09,38.2,26.23,61.72.16,3.36,2.16,1.84,2.31.53,3.08-23.27,14.4-29.14,24.28-50.86C618.75,358.24,606.77,385.5,592.18,413.3Z"/><path class="cls-8" d="M617.55,472.85c-33.91-18.6-55.3-50.62-53.18-78.79,12.66,16.83,29,27.47,38,47.94.95,2.15,1.79,1.1,1.38-.13-1.62-20.92,9.17-41,8.15-59.64C631.7,410.39,616.13,442.42,617.55,472.85Z"/><path class="cls-9" d="M655.87,522.56c-47.79-.31-74.48-34.78-75.87-69,12.59,21.83,41.3,31,53.39,45.56,1.15,1.38,2.7-.3,1.63-1.54-13.44-19.74-5.19-43.12-9.18-61C649.69,459.32,654.74,490.11,655.87,522.56Z"/><path class="cls-8" d="M705.59,547.42c-46.87,19.86-76.12,3.42-97.36-29.52,21.93,14.06,47.59,6.3,70.33,19.53,2.06,1.21,3.33-1.19,1.36-2.51-18.63-6.32-15.34-35.4-26.64-55.34C668.46,484.9,685.75,506.39,705.59,547.42Z"/><path class="cls-9" d="M838.46,596.81C827.19,581,798.18,562.2,785.57,556.7s-34.3-7.23-45.6-7.45-34.63,4.94-49.11,11-30.82,4-45.84,1.52c9.54,21.08,42.63,26.89,73.17,14.47s34.3-14,42.82-14.6a52,52,0,0,1,27.71,6.34c7.86,4.63,29.86,16.82,43.42,32.4C835.41,603.71,840.27,600.46,838.46,596.81Z"/><path class="cls-8" d="M913.34,213.93c17.91,6.3,38.36,25.38,36.25,43C934.35,255.64,918.33,232.35,913.34,213.93Z"/><path class="cls-9" d="M970.3,302c7.08-34.07,3.76-61.79-18.12-78.2,3.25,13.56.82,30.51,6.73,50.24.46,1.26-1.18,2.88-2.28.85-8.46-15.54-23.72-18.66-36-28.82C927.15,274.27,945.7,291,970.3,302Z"/><path class="cls-8" d="M981.18,362c17.71-36.26,22.77-70.66,0-101,4.85,21.63-5.74,40.57-5.18,62.14.35,1.33-1.86,2.91-2.63,0-4.21-16.2-20.89-19.9-32.07-34.15C940.65,312.86,963,339.72,981.18,362Z"/><path class="cls-9" d="M975,413.3c41.58-39.58,39.32-66.1,32.1-91.14-6.37,21.23-25.08,38.2-26.23,61.72-.16,3.36-2.16,1.84-2.31.53-3.08-23.27-14.4-29.14-24.28-50.86C948.39,358.24,960.37,385.5,975,413.3Z"/><path class="cls-8" d="M949.59,472.85c33.91-18.6,55.3-50.62,53.18-78.79-12.66,16.83-29,27.47-38,47.94-.94,2.15-1.79,1.1-1.38-.13,1.62-20.92-9.17-41-8.14-59.64C935.44,410.39,951,442.42,949.59,472.85Z"/><path class="cls-9" d="M911.27,522.56c47.79-.31,74.48-34.78,75.87-69-12.58,21.83-41.3,31-53.39,45.56-1.15,1.38-2.7-.3-1.62-1.54,13.43-19.74,5.19-43.12,9.17-61C917.45,459.32,912.41,490.11,911.27,522.56Z"/><path class="cls-8" d="M861.56,547.42c46.86,19.86,76.11,3.42,97.35-29.52C937,532,911.33,524.2,888.59,537.43c-2.07,1.21-3.34-1.19-1.37-2.51,18.63-6.32,15.34-35.4,26.64-55.34C898.68,484.9,881.39,506.39,861.56,547.42Z"/><path class="cls-9" d="M728.68,596.81C740,581,769,562.2,781.58,556.7s34.29-7.23,45.6-7.45,34.62,4.94,49.11,11,30.81,4,45.83,1.52c-9.54,21.08-42.62,26.89-73.17,14.47s-34.29-14-42.82-14.6-19.84,1.72-27.7,6.34-29.87,16.82-43.43,32.4C731.73,603.71,726.87,600.46,728.68,596.81Z"/><ellipse cx="783.57" cy="361.18" rx="160.19" ry="170.83" style="stroke:#000;stroke-width:0.22px;stroke-miterlimit:10"/><ellipse cx="783.57" cy="361.18" rx="149" ry="158.89" style="stroke:#fff;stroke-width:0.22px;stroke-miterlimit:10;fill:#fff"/><polygon points="796.86 516.95 771.46 516.95 757.48 328.46 809.67 328.46 796.86 516.95" style="stroke-width:2px;stroke:#000;stroke-miterlimit:10;fill:#25943d;fill-rule:evenodd"/><rect x="745.51" y="314.99" width="76.12" height="13.46" style="stroke-width:2px;stroke:#000;stroke-miterlimit:10"/><path class="cls-3" d="M806.93,313.26c-7.45,3-40.3,3.19-48.81,0-19.42-27.24-7.87-48.78,4.34-59.07S776.9,231.05,779,215.64c2.78,13,15.58,26.32,26.52,35C827.77,268.29,822.63,294.27,806.93,313.26Z"/><path d="M782.46,317.71c-4.35,0-19-.17-25.09-2.45l-.61-.23-.38-.53c-19-26.71-10-49.51,4.71-61.94,11.28-9.51,13.64-21.42,15.75-37.2l1.61-12.16,2.58,12c3.22,14.95,20.53,29.62,25.76,33.77,9.26,7.32,14.51,16.35,15.62,26.83,1.33,12.64-3.58,26.43-13.84,38.83l-.34.42-.51.2C803.19,317.06,791.7,317.71,782.46,317.71Zm-23-6.24c3.91,1.21,12.77,2,23,2,10.44,0,19.58-.79,23.19-2,9.14-11.24,13.7-24,12.51-35.23-1-9.29-5.69-17.34-14-23.93-5.81-4.61-18.22-15.4-24.33-27.93-2.18,12.67-5.7,22.8-16,31.45C750.63,266.94,742.62,287.36,759.46,311.47Z"/><path class="cls-3" d="M799.15,314.8c-6.57,1.17-35.12,1.53-42.52-1.23-18.5-27.65-7.56-47.89,3.06-56.83s12.71-19.13,15.06-28.1c2.32,9.93,11.83,21,21.34,28.48C815.5,272.48,812.82,298.27,799.15,314.8Z"/><path d="M781.2,317.81c-5.8,0-19.9-.22-25.32-2.25l-.64-.24-.39-.57c-17.89-26.74-9.94-48.34,3.47-59.64,9.45-8,11.73-16.81,13.94-25.36l2.61-10,2,8.37c2.32,9.95,12.16,20.63,20.58,27.3a37.61,37.61,0,0,1,14.52,26c1.25,11.8-2.91,24.78-11.13,34.72l-.5.61-.77.13C796.46,317.44,789.1,317.81,781.2,317.81Zm-23.2-6c3.69,1.09,12.43,1.77,23.2,1.77a155.54,155.54,0,0,0,16.82-.73c7.17-9,10.78-20.5,9.67-30.94a33.47,33.47,0,0,0-12.92-23.09c-7.21-5.7-15.4-14.25-19.7-23.08-2.14,7.46-5.42,15.42-14,22.66C749.16,268.39,742.18,287.65,758,311.78Z"/><path d="M764.28,308a2.13,2.13,0,0,1-1.6-.73c-10.32-11.76-17.76-30.56,5.31-53.31a2.13,2.13,0,0,1,3,3c-16.63,16.4-18.34,32.37-5.09,47.47a2.14,2.14,0,0,1-.2,3A2.17,2.17,0,0,1,764.28,308Z"/><path d="M773.59,307.71a2.14,2.14,0,0,1-1.34-.48,29,29,0,0,1-10.33-22.06,35.26,35.26,0,0,1,11.59-26.84,2.13,2.13,0,1,1,2.84,3.18,30.9,30.9,0,0,0-10.16,23.55c.18,7.74,3.29,14.44,8.74,18.86a2.13,2.13,0,0,1-1.34,3.79Z"/><line x1="765.83" y1="445.83" x2="801.32" y2="445.83" style="stroke-width:2px;stroke:#000;stroke-miterlimit:10;fill:none"/><polygon class="cls-2" points="1372.52 659.98 199.17 659.98 127.88 850.33 1437.88 850.33 1372.52 659.98"/><path d="M378.43,184c9.8,0,16.11,4.9,18.71,4.9,2.2,0,2.8-.7,4.5-.7,4.21,0,9.61,6.3,9.61,17.41,0,5.71-3.4,10.51-9.31,10.51-10.31,0-7.7-17.71-25.52-17.71-7.7,0-10.9,7.2-10.9,12.71,0,14.81,7.9,27.42,21.91,27.42,12.71,0,14.61-6.91,17.72-6.91,2.9,0,4.3,3.4,4.3,5.91,0,4.4-4.6,13.61-9.61,13.61-3.4,0-10.41,5.8-22.22,5.8-21,0-38.23-16.61-38.23-36.73C339.39,199.72,358.71,184,378.43,184Z"/><path d="M351.75,331.47c3.11-6.91,7.21-15.71,7.21-23.62,0-6.9,3.2-12.11,12.11-12.11,8.7,0,14.21,8.91,18.11,15.51,1.7,2.91,16.81,33.53,20.42,41.73,3.3,7.61,8.7,3,8.7,8.71,0,7.31-14.21,7-19.21,7-14.31,0-22.92-.1-22.92-6.31,0-4.8,6.11-3,6.11-6.5,0-4.51-2.51-4.91-18.62-4.91-5.2,0-8.3.2-8.3,5.11,0,3.9,6.4,1.3,6.4,6.5,0,6-10.81,6.11-14.81,6.11-14.31,0-15.61-2.71-15.61-5.91,0-4.7,5.4-3.3,8.3-6.9,2.21-2.71,4.31-7.51,5.81-10.71Zm21,7.2c1,0,4,.2,4-1.3s-2.9-6.7-3.7-8.1c-.9-1.6-2.6-5.31-4.8-5.31-2.41,0-4.11,6-4.51,7.11s-2.1,5-2.1,6.2c0,1.7,2.5,1.4,3.6,1.4Z"/><path d="M391.28,435.9c-4.4,5.5-4.7,8.5-4.7,15.51,0,9.21.5,13.21,1.4,15.11,1.4,2.9,6.71,2.3,6.71,7,0,7.2-15.82,7.2-20.72,7.2-19.61,0-22.22-4.5-22.22-7.2,0-5.41,5.71-3.41,7.51-7.51,1-2.3,1.6-6.9,1.6-16.61,0-5.71-.9-7.61-4.4-12.11l-11.31-13.11c-4.9-5.7-11.41-4.1-11.41-9,0-2.3-.7-6.8,22.62-6.8,20.81,0,20.61,3.9,20.61,6.1,0,2.6-2.8,3.6-2.8,5.71s4,8.5,6.51,8.5,6.8-5.3,6.8-7.6c0-2.8-2.9-3-2.9-6.81,0-5.9,11.61-5.9,15.41-5.9,12.51,0,15.81,1.5,15.81,5.9,0,6.41-7.2,2.7-12.21,8.11Z"/><path d="M399.64,549.64c-.9.8-1.8,1.4-1.8,2.7s1.1,1.7,2.1,2.2c4.1,1.6,11.21,6.91,11.21,15.31,0,10-6.71,22.32-26.82,22.32-3.4,0-6.51-.1-9.51-.3s-6-.2-9.1-.2c-3.41,0-6.91.1-10.31.2s-6.81.3-10.31.3c-3.1,0-6.61-1.8-6.61-5.31,0-6.2,6.51.1,7.11-16.51l1.1-28.82c.6-15.11-8-8.21-8-15.11,0-3.81,4.11-5.61,7.21-5.61,3.7,0,7.41.2,11.11.3s7.4.4,11.11.4c2.4,0,4.7-.2,7-.4s4.71-.3,7-.3c18.31,0,23,8.71,23,16.42A16.2,16.2,0,0,1,399.64,549.64Zm-29.12-4.41c0,3.91-.2,5.81,2.9,5.81,6,0,7.41-4.21,7.41-9.71,0-4.5-1.5-10.11-7-10.11-3.7,0-3.3,3-3.3,5.91Zm0,24.42c0,11.61,1.9,11.91,5,11.91,5.71,0,7.71-3.9,7.71-9.11,0-6.1-1.8-11.51-8.81-11.51-3.1,0-3.8,1.61-3.9,3.71Z"/><path d="M1170.89,217.18c0-4.5-.4-6.31-5.3-6.31-1.31,0-2.51.21-3.71.21-2.1,0-4-1.11-4-3.31,0-6.9,22.52-12.41,37.33-12.41,3.1,0,8.31.2,8.31,4.51,0,5-7.31,1.4-7.51,10.8-.1,5.31-.2,8.71-.2,12,0,4.41.1,12.91.9,17.12,1.8,8.9,13.11,1.9,13.11,9,0,3.51-3.1,4.41-6,5.11a123.68,123.68,0,0,1-20.22,1.8c-3.5,0-27.92-.5-27.92-7.41a4.26,4.26,0,0,1,4.5-4c1.7,0,3.5.6,5.21.6,3.8,0,5.5-2.6,5.5-14.11Z"/><path d="M1181.9,386.36c-2.81,0-13-4.1-13-7,0-1,1.4-2.11,2.2-2.51,4.7-2.5,9.91-9.71,9.91-13.71,0-1.3-.9-1.9-2.11-1.9-1.6,0-3.2.3-4.8.3-14.51,0-21.21-12.61-21.21-24,0-16,15.51-23.31,29.62-23.31,15,0,30.22,7.4,30.22,24.31,0,11.51-5,21.72-11.71,30.83C1198,373.45,1187.2,386.36,1181.9,386.36Zm.1-57.44c-3.3,0-5.11,3.5-5.11,6.5,0,5,2.8,12.91,8.71,12.91,3.1,0,4.7-2.8,4.7-5.6C1190.3,338.52,1187.8,328.92,1182,328.92Z"/><path d="M1212.32,478.88c0,11.21-7.21,17.92-11.21,17.92-5.5,0-.7-4.81-9.8-4.81h-33c-1.8,0-5.8.2-5.8-2.6,0-1.6-.2-1.6,7.3-8.71,5.1-4.8,17.21-17.31,17.21-24.41,0-3.51-2.1-5.71-5.6-5.71-6.1,0-7.31,5.81-11.91,5.81-2.9,0-6.5-2.81-6.5-5.81,0-8.8,18.81-17.51,31.12-17.51,16.91,0,23.92,7.8,23.92,15.71,0,12.81-16.81,21-16.81,25.12,0,2.3,2.4,3.5,4.4,3.5,7.1,0,8.9-6,12.21-6C1211.52,471.38,1212.32,476,1212.32,478.88Z"/><path d="M1206,533.42c2.6,0,6.1.11,6.1,3.81a11.09,11.09,0,0,1-.8,3.5l-20.11,60.85c-.81,2.6-.91,3.4-5.81,3.4-10.91,0-15.61-4-15.61-5.61a6.5,6.5,0,0,1,1-2.4l18-34.42c.8-1.6,2.7-5,2.7-6.81,0-3.9-8.8-3.3-11.81-3.3-19.91,0-10.5,6.2-18.71,6.2-6,0-7.5-6.3-7.5-11.1,0-9.51,4.3-16.92,9-16.92,4.1,0,3.11,2.8,12.91,2.8Z"/><path d="M275.13,793H230.79V785h18.43v-32.6q0-6.43-15.54-6.43,9.06-5,10.83-5,20.3,0,20.3,9.87V785h10.32Z"/><path d="M269.21,793v-8h9.31V749.49a25.49,25.49,0,0,0,15.65-7.64V785h9.36v8Zm15.39,15.33a2.44,2.44,0,0,1-2.78,2.74h-5.47a2.42,2.42,0,0,1-2.74-2.74V802.9c0-1.79.91-2.69,2.74-2.69h5.47c1.85,0,2.78.9,2.78,2.69Zm11.84,0c0,1.83-.92,2.74-2.78,2.74h-5.47a2.42,2.42,0,0,1-2.73-2.74V802.9a2.4,2.4,0,0,1,2.73-2.69h5.47c1.86,0,2.78.9,2.78,2.69Z"/><path d="M344.89,741.09l.1-.41V785h6.38v-36.3q9.87-1.37,15.79-8.05V793H297.31V785h9.61V748.58q9.93-1.37,15.75-8.1V785h6.43V748.58a24.74,24.74,0,0,0,15.79-8.1Zm-8.1-11.8a2.4,2.4,0,0,1-2.73,2.69h-5.57c-1.76,0-2.63-.9-2.63-2.69v-5.36c0-1.89.87-2.84,2.63-2.84h5.57c1.82,0,2.73.95,2.73,2.84ZM343.37,718q0,2.64-2.73,2.64h-5.52a2.35,2.35,0,0,1-2.68-2.64v-5.46c0-1.83.89-2.74,2.68-2.74h5.52a2.42,2.42,0,0,1,2.73,2.74Zm6.23,11.29a2.4,2.4,0,0,1-2.73,2.69h-5.52a2.38,2.38,0,0,1-2.69-2.69v-5.36c0-1.89.9-2.84,2.69-2.84h5.52c1.82,0,2.73.95,2.73,2.84Z"/><path d="M406.11,793v2.13q0,7.44-13.71,9.42-4.41.6-20-2.94,18.22.76,17.92-8v-44.5A24.7,24.7,0,0,0,406.06,741v.6l.05-.4V785h11.24V793Z"/><path d="M410.82,793v-8h9.37V749.49q9.62-1.26,15.39-7.64l.25-.56v.41l.15-.31v38.12h-.15V793Zm14.73,15.33a2.44,2.44,0,0,1-2.78,2.74H417.2c-1.76,0-2.63-.91-2.63-2.74V802.9c0-1.79.87-2.69,2.63-2.69h5.57c1.85,0,2.78.9,2.78,2.69Z"/><path d="M531.33,793H483.65V748.38q0-7.65,12.2-7.65h25.61V785h9.87Zm-28.85-69v5.36c0,1.83-.93,2.74-2.79,2.74h-5.46c-1.79,0-2.68-.91-2.68-2.74V724a2.37,2.37,0,0,1,2.68-2.68h5.46Q502.48,721.3,502.48,724Zm3.19,61V746.66a8.75,8.75,0,0,0-3.95,1c-1.59.77-2.38,1.69-2.38,2.73V785Zm9.62-61v5.36c0,1.83-.93,2.74-2.79,2.74H507c-1.79,0-2.69-.91-2.69-2.74V724A2.37,2.37,0,0,1,507,721.3h5.46Q515.29,721.3,515.29,724Z"/><path d="M524.35,793v-8h9.31V749.49a25.46,25.46,0,0,0,15.64-7.64V785h9.37v8Zm15.39,15.33c0,1.83-.93,2.74-2.79,2.74h-5.46a2.42,2.42,0,0,1-2.74-2.74V802.9c0-1.79.91-2.69,2.74-2.69H537c1.86,0,2.79.9,2.79,2.69Zm11.84,0a2.44,2.44,0,0,1-2.78,2.74h-5.47a2.42,2.42,0,0,1-2.73-2.74V802.9a2.4,2.4,0,0,1,2.73-2.69h5.47c1.85,0,2.78.9,2.78,2.69Z"/><path d="M609.89,793H552.64v-8h9.42V746.81q0-5.92,18.63-5.93,19.18,0,19.18,6.43V785h10Zm-24-69v5.41a2.44,2.44,0,0,1-2.78,2.74h-5.47a2.42,2.42,0,0,1-2.73-2.74V724c0-1.79.91-2.68,2.73-2.68h5.47C585,721.3,585.9,722.19,585.9,724Zm-1.82,61V747.31q0-1.21-3.09-1.26c-2.12,0-3.19.39-3.19,1.26V785Z"/><path d="M651.3,741.59l.11-.4V785h6.37V749.24a24.87,24.87,0,0,0,15.8-8V793H603.72V785h9.62V749.08c6.61-.9,11.86-3.61,15.74-8.09v44h6.43V749.08A24.7,24.7,0,0,0,651.3,741Z"/><path d="M728.63,793h-9.88q0,11-25.2,11-5.77,0-12.41-4.2,11.85.41,16.25-1.27A6.42,6.42,0,0,0,702,793h-21V748.88q0-7.7,12.2-7.69h25.61V785h9.88ZM703,785V747.11a9.57,9.57,0,0,0-4,1c-1.58.78-2.37,1.69-2.37,2.74V785Z"/><path d="M722.65,793v-8h9.22V749.44q9.87-1.47,15.79-8.15V793Zm14.43,15.33a2.44,2.44,0,0,1-2.78,2.74h-5.47a2.42,2.42,0,0,1-2.73-2.74V802.9a2.4,2.4,0,0,1,2.73-2.69h5.47c1.85,0,2.78.9,2.78,2.69Zm11.85,0c0,1.83-.93,2.74-2.79,2.74h-5.46a2.42,2.42,0,0,1-2.74-2.74V802.9a2.4,2.4,0,0,1,2.74-2.69h5.46c1.86,0,2.79.9,2.79,2.69Z"/><path d="M862.91,793q0,5.16-9.93,8.35-9.11,2.73-22.12,2.73t-22.07-2.88q-10.12-3.15-10.12-8.61V771.31q0-6.52,9.21-8.2a42.56,42.56,0,0,1,4.81-.41c2.22-.1,5.13-.15,8.7-.15a10.6,10.6,0,0,0-4.65,2,4.74,4.74,0,0,0-2.33,3.8v24.25q0,2.88,5.47,4.56a42.27,42.27,0,0,0,12,1.51q15.35,0,15.34-5.61H825.09v-8h37.82Zm-30.68,18.73v5.51c0,1.79-.93,2.69-2.79,2.69H824a2.38,2.38,0,0,1-2.69-2.69v-5.41c0-1.83.9-2.74,2.69-2.74h5.46Q832.23,809.12,832.23,811.76Zm11.85,0v5.51c0,1.79-.94,2.69-2.79,2.69h-5.47a2.37,2.37,0,0,1-2.68-2.69v-5.41c0-1.83.89-2.74,2.68-2.74h5.47C843.14,809.12,844.08,810,844.08,811.76Z"/><path d="M885.13,768.63q8.5-27.43,34.12-27.44V793H859.77V785h9.67V749.08A24.73,24.73,0,0,0,885.23,741Zm18.38-18.23q-7.14,3-12.45,14.12-5.92,12.32-5.93,20.51h18.38ZM900,729.75c0,1.75-.9,2.63-2.73,2.63h-5.52a2.35,2.35,0,0,1-2.68-2.63v-5.47c0-1.82.89-2.73,2.68-2.73h5.52a2.41,2.41,0,0,1,2.73,2.73Z"/><path d="M927,793V697q5.87,6.68,15.74,8.1V785h9.62v8Z"/><path d="M946.05,793v-8h9.21V749.44q9.87-1.47,15.8-8.15V793Zm14.43,15.33c0,1.83-.93,2.74-2.79,2.74h-5.47a2.42,2.42,0,0,1-2.73-2.74V802.9a2.4,2.4,0,0,1,2.73-2.69h5.47c1.86,0,2.79.9,2.79,2.69Zm11.84,0a2.44,2.44,0,0,1-2.78,2.74h-5.47a2.42,2.42,0,0,1-2.73-2.74V802.9a2.4,2.4,0,0,1,2.73-2.69h5.47c1.85,0,2.78.9,2.78,2.69Z"/><path d="M1012.79,793v2.13q0,7.44-13.72,9.42-4.41.6-20-2.94,18.21.76,17.92-8v-44.5a24.73,24.73,0,0,0,15.79-8.09v.6l0-.4V785H1024V793Z"/><path d="M1017.6,793v-8h9.72V705.5a24.9,24.9,0,0,0,15.64-8.1V793Z"/><path d="M1066.78,797.28a12.14,12.14,0,0,0,4.65,5.82q-20.34,0-20.35-10.18v-88a24.81,24.81,0,0,0,15.7-8Z"/><path d="M1184,792.92q0,5.18-9.93,8.25A76,76,0,0,1,1151.9,804q-13.11,0-22.07-2.89-10.12-3.18-10.12-8.6V742.76q0-6.43,9.21-8.2a115.36,115.36,0,0,1,13.51-.46,10.51,10.51,0,0,0-4.65,2,4.67,4.67,0,0,0-2.33,3.74v52.65q0,5.61,16.3,5.62,16.56,0,16.55-5.57v-7.14h-22.17V747.26q0-5.93,18.63-5.92,19.18,0,19.19,6.48v12.45q-10.89,1.51-15.8,8.05V748.88c0-1.11-1-1.67-3.09-1.67s-3.19.56-3.19,1.67v27.74H1184Zm-31.64,18.73v5.47q0,2.73-2.79,2.73h-5.46a2.4,2.4,0,0,1-2.69-2.73V811.7a2.38,2.38,0,0,1,2.69-2.68h5.46C1151.38,809,1152.31,809.9,1152.31,811.65Zm11.84,0v5.47c0,1.82-.93,2.73-2.78,2.73h-5.47c-1.79,0-2.68-.91-2.68-2.73V811.7a2.37,2.37,0,0,1,2.68-2.68h5.47C1163.22,809,1164.15,809.9,1164.15,811.65Z"/><path d="M1225,792.92h-34V785h18.42v-32.6q0-6.43-15.54-6.43,9.06-5,10.83-5,20.31,0,20.3,9.87Z"/><path d="M1233,793V697q5.87,6.68,15.75,8.1V785h9.61v8Z"/><path d="M1252.13,793v-8h9.31V749.14a25.51,25.51,0,0,0,15.64-7.85V785h9.37v8Zm22.77-61.21q0,2.64-2.73,2.64h-5.57a2.33,2.33,0,0,1-2.63-2.64v-5.41c0-1.86.88-2.79,2.63-2.79h5.57q2.73,0,2.73,2.79Zm2.18,9.47a.51.51,0,0,1,.16-.3Z"/><path d="M1280.83,793v-8h9.72V705.5a24.9,24.9,0,0,0,15.64-8.1V793Z"/><path d="M1330,797.28a12.14,12.14,0,0,0,4.65,5.82q-20.34,0-20.35-10.18v-88a24.81,24.81,0,0,0,15.7-8Z"/></g></g></svg>