<svg version="1.1" id="Layer_1" xmlns="http://www.w3.org/2000/svg" x="0px" y="0px" viewBox="0 0 1080 1080" style="enable-background:new 0 0 1080 1080" xml:space="preserve"><style>.st0{fill:#13A538}.st1{fill:#FFFFFF}.st2{fill:#E30613}.st3{fill:#D49600}</style><path class="st0" d="M540.82,74.43c-187.24,0-339.04,151.81-339.04,339.06c0,187.26,151.8,339.07,339.04,339.07 c187.26,0,339.08-151.81,339.08-339.07C879.9,226.24,728.09,74.43,540.82,74.43z"/><path d="M415.25,554.08v328.17h55.84v61.16h55.84v61.17h57.2v-61.17h55.84V573.87c-28.8,17.84-62.77,28.16-99.15,28.16 C492.58,602.03,448.58,583.9,415.25,554.08z"/><path class="st1" d="M540.82,224.98c-104.1,0-188.52,84.4-188.52,188.52c0,104.12,84.42,188.53,188.52,188.53 c104.12,0,188.54-84.41,188.54-188.53C729.36,309.38,644.94,224.98,540.82,224.98z"/><path class="st2" d="M416.58,880.9h54.5V588.69c-20.1-8-38.5-19.37-54.5-33.4V880.9z"/><path class="st0" d="M472.45,942.07h54.48V601.52c-19.1-1.4-37.4-5.63-54.48-12.29V942.07z"/><path class="st2" d="M528.29,601.6v401.63h54.49V597.34c-13.49,3.06-27.52,4.69-41.95,4.69 C536.63,602.03,532.44,601.88,528.29,601.6z"/><path class="st0" d="M584.13,942.07h54.48V574.71c-16.65,10.12-34.99,17.72-54.48,22.3V942.07z"/><path d="M368.59,413.5c0-95.13,77.12-172.24,172.23-172.24l0,0c95.14,0,172.25,77.11,172.25,172.24l0,0 c0,95.14-77.12,172.25-172.25,172.25l0,0C445.7,585.75,368.59,508.63,368.59,413.5L368.59,413.5z"/><path d="M323.2,538.92c-1.06,0.76-3.11,2.35-6.15,4.78c-1.64,1.51-4.87,4.5-9.68,8.96c-1.78,0.6-3.95,0.94-6.57,1.02 c-0.54-0.17-1.64-1.49-3.29-3.93c-1.63-2.4-2.61-3.62-2.91-3.68c-0.42,0.53-0.88,1.51-1.32,2.95c-0.46,1.53-0.58,2.53-0.3,3.03 c0.44,0.77,1.8,1.66,4.09,2.69c0.56,0.25,0.9,0.48,1.02,0.7c0.12,0.2,0.06,0.35-0.14,0.46c-0.28,0.16-0.74,0.25-1.38,0.28 c-5.71,0.3-9.14-0.6-10.3-2.68c-0.64-1.13-0.82-2.28-0.54-3.46c0.2-0.89,0.82-2.24,1.86-4.08c1.7-2.92,2.65-4.66,2.91-5.22 c0.34-0.73,0.36-1.36,0.04-1.9c-0.08-0.18-0.12-0.29-0.08-0.36c0.02-0.06,0.2-0.11,0.48-0.18l5.47-1.15 c0.8-0.17,1.72,0.72,2.81,2.65c0.32,0.58,0.78,1.48,1.38,2.68c0.6,1.19,1.06,2.09,1.38,2.68c0.92,1.62,1.48,2.58,1.7,2.9 c0.76,1.11,1.5,1.72,2.24,1.81c4.23-4.68,7.7-7.77,10.42-9.29c0.94-0.52,2.06-0.99,3.35-1.37 C321.29,538.71,322.47,538.62,323.2,538.92z M289,526.16c-0.82,0.34-2.04,0.71-3.65,1.09c-2.04,0.49-3.13,0.55-3.27,0.2 c-0.1-0.23,0.18-0.48,0.9-0.74c2.62-0.93,3.43-2.58,2.44-4.98c-0.42-0.97-1.04-2.2-1.9-3.67c-1.16-1.96-2-3.08-2.51-3.37 c-3.19,2.15-5.73,4.82-7.6,8.01l-6.15-0.69c-0.42-0.04-0.52-0.25-0.3-0.62c1.22-2.06,3.33-4.2,6.3-6.45 c2.18-1.62,3.99-2.76,5.49-3.48l-5.79-17.43l-0.14,0.04l-0.54-2.07l-0.54-1.62l0.12-0.04l-3.99-15.83l-0.12,0.02l-0.28-1.56 l-0.54-2.16l0.2-0.05c-0.2-1.29-0.4-2.85-0.64-4.74c-0.36-3.01-0.66-5.26-0.92-6.75c-0.72,3.3-1.38,5.68-2.04,7.14 c-0.92,2.09-2.08,3.25-3.47,3.5c-1.34,0.24-3.55-0.39-6.63-1.9c-3.17-1.54-4.87-2.95-5.11-4.24c-0.28-1.61,0.7-3.38,2.93-5.34 c2.53-2.21,5.71-3.64,9.56-4.33c1.14-0.2,2.2-0.36,3.15-0.47l-1.94-18.18l-0.16,0.01l-0.06-2.16l-0.18-1.7h0.12l-0.56-16.29h-0.14 l0.08-1.93l-0.08-1.92h0.16l0.4-10.49l-21.3,1.74l-4.13-4.46c-0.4-0.42-0.56-0.69-0.56-0.82c0-0.16,0.3-0.25,0.92-0.26l25.23-0.5 l6.05,0.24c0.56,0.52,0.82,2.59,0.78,6.14c-0.06,1.06-0.18,3.77-0.34,8.17l-0.08,1.81l0.66,19.75l2.18,20.3 c0.04,0.42-0.08,0.81-0.38,1.18c-0.04,0.05-0.08,0.07-0.12,0.11c0.94,1,1.74,3.36,2.41,7.12c0.16,0.91,0.34,2.28,0.56,4.13 c0.2,1.85,0.38,3.22,0.56,4.14l0.24,1.34l4.77,18.89l6.41,19.29c0.18,0.14,0.38,0.31,0.58,0.54c0.38,0.44,1.08,1.44,2.08,2.99 c2.25,3.44,3.59,5.7,4.05,6.77C293.41,522.57,292.35,524.74,289,526.16z M260.32,457.35c-1.88,0.91-3.49,1.9-4.85,2.99 c-1.7,1.38-2.47,2.53-2.32,3.43c0.24,1.42,1.58,2.68,3.99,3.77C258.14,465.15,259.2,461.74,260.32,457.35z M241.44,471.4l4.13,1.81 l2.35-5.72l-4.17-1.87L241.44,471.4z M246.25,459.86l-4.13-1.87l-2.33,5.79l4.15,1.82L246.25,459.86z M240.94,389.78 c1.91,0.1,5.61,0.16,11.06,0.18c4.57,0.01,8.26,0.11,11.08,0.29c0.88,0.05,2.68,0.24,5.45,0.57c0.58,0.07,0.86,0.05,0.88-0.05 c0-0.1-0.14-0.32-0.42-0.67c-0.74-0.92-1.8-1.9-3.17-2.97c-1.64-1.24-2.87-1.88-3.75-1.9l-25.71-0.87 c-0.5-0.03-0.76,0.03-0.78,0.15c0,0.1,0.1,0.25,0.36,0.47L240.94,389.78z M243.25,355.96l4.49-3.61l-2.85-3.37l3.95-3.18l-3.53-4.2 l-4.45,3.77l2.83,3.22l-3.95,3.34L243.25,355.96z M260.38,356.33c-0.08-0.07-2.22-2.65-6.47-7.75c1.5-0.86,3.35-2.28,5.55-4.26 c1.44-1.31,2.5-2.17,3.15-2.6c1.08-0.72,2.04-0.98,2.88-0.81c0.78,0.17,1.94,0.79,3.43,1.84c1.34,0.95,2.37,1.79,3.11,2.51 c2.27,4.46,2.97,8.64,2.12,12.56c-0.28,1.39-1,2.45-2.09,3.18c-1.12,0.74-2.38,0.96-3.75,0.66 C265.68,361.09,263.05,359.31,260.38,356.33z M259.84,352.81c2.45,2.64,4.23,4.1,5.37,4.34c0.76,0.17,1.46-0.14,2.08-0.94 c0.48-0.62,0.82-1.37,1.02-2.23c0.22-1.05,0.32-2.38,0.26-3.96c-0.04-1.82-0.28-3.14-0.72-3.95 C267.08,347.02,264.41,349.27,259.84,352.81z M342.88,216.02l-19.34-16.21c-0.48-0.39-0.78-0.53-0.88-0.42 c-0.1,0.1-0.12,0.43-0.1,1l0.18,6.09l17.18,12.67l-7.16,7.6l-0.16-0.12l-1.89,2.3l-0.62,0.66l0.06,0.04l-10.36,12.55l-0.1-0.08 l-0.98,1.37l-1.38,1.67l0.14,0.1l-10.6,14.89c-0.08-0.06-0.18-0.12-0.28-0.18c-1.04-0.62-3.91,0.02-8.64,1.91 c-3.85,1.56-6.73,2.93-8.64,4.09c0.12-1.89,0.44-4.07,0.92-6.53c0.18-0.96,0.68-3.1,1.44-6.45c-2.09-2.32-3.23-3.45-3.41-3.41 c-0.08,0-0.2,0.23-0.34,0.68c-0.78,2.51-1.5,6.18-2.14,11c-0.64,4.99-0.76,8.06-0.34,9.22c0.08,0.22,0.42,0.6,1.02,1.16 c0.4,0.37,0.72,0.62,0.92,0.74c0.12,0.08,0.24,0.12,0.34,0.14c0.94,0.14,2.55-0.24,4.89-1.11l-0.5-1.19 c3.97-2.19,8-3.85,12.11-4.95c-0.74,1.71-1.82,3.78-3.29,6.24c-0.3,0.5-1.18,1.79-2.63,3.88c-1.14,1.68-1.91,2.84-2.41,3.57 l-0.32-0.15l-1.02,2.05l-0.88,1.23l0.2,0.12l-7.26,14.63l-0.1-0.05l-0.64,1.56l-0.96,1.96l0.14,0.07l-7.22,17.59 c-2.71,0.01-5.21,0.91-7.47,2.71l5.25,4.69c3.09-1.76,5.81-2.69,8.08-2.79c2.19,1.5,3.81,3.37,4.87,5.65 c1.16,2.49,1.36,4.93,0.62,7.31c-0.78,2.44-2.27,4.5-4.51,6.22c-0.5,0.37-0.78,0.67-0.86,0.9c-0.04,0.14,0.04,0.24,0.22,0.29 c0.26,0.09,0.7,0.09,1.34,0c2.08-0.26,4.21-1.01,6.43-2.23c2.55-1.41,4.09-2.93,4.63-4.57c1.12-3.61,0-7.21-3.37-10.82 c-2.34-2.49-5.11-4.39-8.26-5.73l7.52-18.34l8.14-16.4c0.12-0.13,0.22-0.24,0.32-0.41l1.04-1.7c0.54-0.91,1.42-2.22,2.6-3.91 c1.22-1.71,2.07-3.01,2.63-3.92c0.84-1.42,1.78-3.19,2.79-5.35c0.96-2.06,1.54-3.55,1.7-4.52c0.42-0.1,0.74-0.29,0.96-0.6 l11.83-16.64l11.99-14.54c0.02-0.01,0.02-0.01,0.02-0.01l1.88-1.99c3.01-3.2,4.87-5.18,5.61-5.94c2.37-2.66,3.53-4.39,3.45-5.15 L342.88,216.02z M360.52,168.65l-5.85,0.03l0.1,4.28l-5.19,0.03l0.12,5.35l5.75,0.11v-4.41l5.07,0.1V168.65z M414.71,186.49 l-5.09-0.99l-0.94,5.27l5.63,1.24l0.84-4.33l4.97,1.1l1.06-5.39l-5.73-1.12L414.71,186.49z M444.92,158.86 c-0.84,0.32-2.15,0.74-3.91,1.25c-1.78,0.51-3.09,0.93-3.93,1.25l-1.74,0.66l-18.62,8.63c-0.22,0.1-0.42,0.14-0.66,0.13 c-1.08,1.13-3.37,2.68-6.96,4.67c-0.8,0.45-2.04,1.05-3.71,1.82c-1.68,0.76-2.91,1.36-3.71,1.81l-1.62,0.9L382.9,191.2 c-0.02,0.02-0.06,0.02-0.1,0.04l-1.28,1c-1.16,0.9-2.51,0.98-4.03,0.24c-1-0.49-2.47-1.63-4.43-3.4c0.86,3.13,1.1,4.94,0.76,5.41 c-1.79,1.4-3.69,2.34-5.71,2.83c-2.27,0.58-3.85,0.29-4.73-0.84c-0.52-0.67-1.02-2.15-1.54-4.47c-0.54-2.45-0.66-4.16-0.36-5.13 c0.14-0.41,0.66-1.42,1.6-3.03l2.04-3.51l-1.76-1.97c0.12-1.22,0.38-2.78,0.72-4.69c0.64,0.41,3.67,3.83,9.14,10.26 c1.34,1.59,2.32,2.48,2.9,2.72c0.46,0.17,0.98,0.02,1.62-0.4l-0.06-0.07l1.08-0.71l1.1-0.85l0.06,0.09l14.61-9.57l-0.06-0.12 l1.64-0.91l1.66-1.08l0.06,0.12l0.32-0.17c0.82-0.45,2.06-1.09,3.73-1.9c1.66-0.82,2.89-1.45,3.71-1.89 c1.91-1.07,3.21-1.95,3.85-2.64c-1.66-1.56-3.67-2.81-6.03-3.75l0.32-6.61c0.02-0.52,0.24-0.66,0.68-0.46 c3.79,1.77,6.95,4.59,9.5,8.44l16.66-7.73l-0.04-0.13l1.76-0.67l1.76-0.82l0.06,0.13l0.34-0.13c0.88-0.33,2.19-0.77,3.95-1.34 c1.78-0.56,3.09-1.01,3.97-1.33c2.05-0.78,3.45-1.47,4.21-2.06c-1.42-1.79-3.23-3.31-5.45-4.59l1.28-6.49 c0.1-0.51,0.36-0.64,0.74-0.37c4.09,2.69,7.13,6.66,9.1,11.89c0.8,2.12,1.2,3.28,1.18,3.51 C453.39,155.12,450.57,156.73,444.92,158.86z M371.8,187.7c-0.66-0.79-2.14-2.5-4.45-5.18c-2.19,3.12-3.21,5.74-3.07,7.84 C366.57,190.7,369.09,189.81,371.8,187.7z M445.56,172.25l6.19,0.11l0.22-5.55l-6.23,0.01L445.56,172.25z M501.03,112.91 l-6.07-1.31l-1.32,5.27l6.01,1.43L501.03,112.91z M617.74,118.52l-4.37,24.86l-1.38,5.89c-0.62,0.44-2.71,0.29-6.21-0.43 c-1.02-0.26-3.65-0.9-7.92-1.91l-2.65-0.63h-0.02l-18.52-3.11l-20.36-1.94c-0.42-0.04-0.76-0.24-1.08-0.6 c-0.1-0.13-0.16-0.27-0.24-0.4c-0.2,0.16-0.44,0.29-0.68,0.42c-0.62,0.29-1.72,0.43-3.27,0.4c-3.05-0.05-5.29-0.48-6.71-1.29 c-0.64-0.35-1.4-1.02-2.3-2c-0.82,1.41-1.54,2.29-2.19,2.62c-0.6,0.31-1.74,0.45-3.45,0.43l-0.52-0.02l-22.31,1.36 c-0.1,0-0.2-0.03-0.32-0.05l-0.44,0.07c-3.99,0.58-7.12-0.14-9.4-2.16c-2.63,2.74-6.61,4.49-11.88,5.27l-2.16,0.32l-21.05,4.97 c0.74,3.34,0.8,6.7,0.12,10.06c-0.98,4.84-3.25,7.84-6.83,9.02c-1.63,0.53-3.79,0.16-6.4-1.1c-2.3-1.1-4.13-2.41-5.55-3.93 c-0.44-0.47-0.7-0.84-0.8-1.1c-0.06-0.19-0.02-0.3,0.12-0.35c0.22-0.07,0.64-0.01,1.22,0.18c2.71,0.82,5.27,0.83,7.68,0.05 c2.37-0.78,4.25-2.35,5.59-4.75c1.24-2.17,1.84-4.59,1.78-7.24c-1.42-1.8-3.73-3.45-6.96-4.96l0.76-6.99 c2.77,0.78,4.95,2.29,6.57,4.49l18.56-4.38l-0.04-0.31l3.59-0.53l0.12-0.02l0,0l3.99-0.58c3.53-0.52,6.21-1.46,8.02-2.81 c-2.39-2.12-4.47-3.05-6.23-2.79c-0.26,0.04-0.56,0.1-0.86,0.2c-0.8,0.27-1.22,0.28-1.26,0.05c-0.02-0.12,0.08-0.47,0.26-1.03 c0.72-2.04,1.62-4.31,2.7-6.85c0.32-0.38,1.04-0.77,2.14-1.2c0.96-0.36,1.78-0.59,2.43-0.69c1.82-0.26,3.71,0.04,5.69,0.91 c2.19,1,3.41,2.34,3.67,4.07c0.1,0.62-0.1,1.7-0.58,3.23c-0.4,1.38-0.8,2.42-1.22,3.15c1.16,0.81,2.81,1.06,4.91,0.83v-0.02 l0.56-0.03l2.06-0.3l0.04,0.17l17.48-1.06v-0.28l3.71,0.05h0.1v0.01l4.73,0.08c1.26-0.14,2.14-0.74,2.65-1.8 c1.62-3.24,2.55-5.08,2.81-5.49c1.8-2.66,3.77-3.98,5.91-3.94c0.98,0.01,1.86,0.77,2.6,2.28c0.18,0.35,0.66,1.61,1.44,3.78 c1.08,2.98,1.64,4.83,1.66,5.56l18.14,1.73l0.02-0.16l2.16,0.36l1.66,0.16v0.12l16.01,2.69v-0.06l0.94,0.22l2.89,0.49l-0.02,0.19 l10.16,2.41l2.37-21.22l5.19-3.2c0.48-0.3,0.78-0.44,0.9-0.4C617.84,117.6,617.86,117.92,617.74,118.52z M553.15,134.77 c-0.62-3.63-1.84-5.46-3.69-5.5c-0.9-0.01-1.66,0.24-2.28,0.76c-0.48,0.39-1.1,1.15-1.84,2.25 C545.87,133.51,548.46,134.33,553.15,134.77z M630.13,120.5l-5.71,3.95c-0.5,1.87-1.3,5.46-2.41,10.8 c-0.94,4.46-1.78,8.06-2.52,10.8c-0.22,0.82-0.78,2.55-1.66,5.22c-0.18,0.53-0.22,0.81-0.12,0.86c0.08,0.01,0.34-0.07,0.74-0.28 c1.04-0.53,2.22-1.37,3.55-2.51c1.54-1.35,2.41-2.44,2.61-3.27l6.03-25.01c0.14-0.5,0.14-0.76,0.02-0.8 C630.57,120.22,630.39,120.3,630.13,120.5z M669.83,139.44l2.22,4.56l4.89-2.5l-2.68-5.18l-3.79,2.02l-2.36-4.6l-4.73,2.52 l2.51,5.18L669.83,139.44z M685.62,197.92l-1.42-4.98l-5.11,1.55l1.44,5.58l4.23-1.22l1.28,4.93l5.29-1.5l-1.6-5.61L685.62,197.92z M754.31,244.56c-0.16-0.22-0.24-0.47-0.26-0.74c-0.82-0.67-1.9-1.78-3.23-3.32c-0.66-0.84-2.35-2.94-5.11-6.34l-1.2-1.47h-0.02 l-15.21-16.37c-0.26-0.29-0.38-0.65-0.4-1.07c-0.92-0.36-2.26-1.22-4.09-2.6c-1.9-1.43-3.45-2.69-4.67-3.82 c-0.78-0.71-1.88-1.83-3.29-3.35c-1.44-1.53-2.53-2.64-3.31-3.35l-1.46-1.35c0,0,0-0.02-0.02-0.03l-11.36-8.19 c-0.2-0.15-0.32-0.33-0.42-0.54c-1.48-0.45-3.91-1.81-7.34-4.11c-0.76-0.51-1.86-1.34-3.29-2.49c-1.44-1.14-2.54-1.98-3.27-2.47 l-1.56-1.05l-17.76-10.19c-0.02-0.02-0.04-0.05-0.08-0.07l-1.48-0.7c-1.34-0.63-1.99-1.79-2.04-3.47c-0.02-1.12,0.32-2.96,1.02-5.5 c-2.41,2.18-3.89,3.22-4.49,3.12c-2.06-0.97-3.75-2.23-5.11-3.79c-1.54-1.77-2-3.29-1.4-4.6c0.36-0.75,1.46-1.89,3.29-3.39 c1.94-1.6,3.41-2.49,4.41-2.65c0.42-0.07,1.56-0.05,3.41,0.04l4.05,0.22l0.98-2.43c1.14-0.45,2.63-0.95,4.49-1.5 c-0.08,0.75-1.74,5.01-4.99,12.79c-0.8,1.92-1.16,3.18-1.12,3.82c0.06,0.48,0.44,0.9,1.1,1.26l0.06-0.08l1.12,0.64l1.22,0.58 l-0.04,0.1l15.15,8.69l0.06-0.11l1.56,1.05l1.74,0.99l-0.08,0.13l0.28,0.18c0.76,0.52,1.89,1.34,3.37,2.45 c1.48,1.13,2.6,1.94,3.37,2.46c1.82,1.22,3.19,1.98,4.11,2.24c0.64-2.18,0.84-4.54,0.6-7.09l6.03-2.7 c0.48-0.21,0.72-0.08,0.74,0.39c0.14,4.17-0.94,8.25-3.19,12.25l10.38,7.55l0.26-0.28l1.3,1.42l1.5,1.09l-0.22,0.27 c0.62,0.62,1.62,1.65,3.05,3.11c1.74,1.86,2.83,2.97,3.25,3.37c2.09,1.94,3.91,3.43,5.43,4.49c-0.24-4.25-1.02-8.54-2.37-12.87 l-1.28,0.24c-0.38-2.45-0.42-4.12-0.08-5.01c0.04-0.09,0.1-0.19,0.2-0.3c0.16-0.17,0.46-0.42,0.92-0.75 c0.66-0.48,1.1-0.73,1.32-0.77c1.22-0.16,4.21,0.58,8.98,2.22c4.57,1.6,8.02,3.03,10.32,4.32c0.42,0.23,0.62,0.38,0.6,0.47 c0.02,0.19-1.34,1.07-4.03,2.65c-3.11-1.44-5.13-2.34-6.01-2.71c-2.32-0.99-4.39-1.72-6.23-2.23c0.76,2.1,1.52,5.21,2.27,9.3 c0.9,5.01,0.94,7.95,0.1,8.85c-0.08,0.09-0.14,0.15-0.22,0.23l13.69,14.74l0.1-0.09l1.24,1.53l0.04,0.03l0,0l7.76,9.57l14.85-15.38 l6.05,0.62c0.58,0.06,0.9,0.14,0.98,0.24c0.1,0.12-0.08,0.4-0.54,0.82l-18.54,16.97l10.56,14.85l0.26-0.15l1.94,3.23l0.02,0.02 h-0.02l2.45,4.09c0.78,0.98,1.76,1.42,2.93,1.3c3.59-0.36,5.65-0.53,6.15-0.51c3.21,0.11,5.35,1.1,6.47,2.93 c0.5,0.85,0.32,1.99-0.56,3.42c-0.22,0.33-1.02,1.4-2.47,3.21c-1.96,2.49-3.23,3.92-3.83,4.33l8.08,16.31l0.04-0.02l0.36,0.82 l1.32,2.65l-0.18,0.08l4.03,9.68l18.58-10.52l5.65,2.32c0.52,0.22,0.8,0.38,0.86,0.5c0.06,0.16-0.2,0.36-0.74,0.64l-22.69,11.04 l-5.59,2.33c-0.72-0.25-1.84-2.03-3.29-5.3c-0.42-1.02-1.44-3.5-3.11-7.5l-1.04-2.52v-0.01l-8.74-17.6 c-0.18-0.37-0.2-0.78-0.06-1.23c0.04-0.15,0.14-0.27,0.2-0.4c-0.22-0.09-0.46-0.21-0.68-0.35c-0.58-0.38-1.28-1.24-2.07-2.58 c-1.58-2.62-2.4-4.74-2.46-6.38c-0.02-0.72,0.14-1.73,0.5-3c-1.64,0.07-2.75-0.09-3.39-0.48c-0.56-0.34-1.3-1.24-2.17-2.71 l-0.28-0.45l0,0L754.31,244.56z M781.53,274.25c2.75-2.43,3.65-4.44,2.72-6.03c-0.48-0.77-1.08-1.28-1.86-1.54 c-0.58-0.2-1.54-0.32-2.87-0.37C778.74,267.41,779.42,270.06,781.53,274.25z M667.71,153.93c-3.79-0.54-6.59-0.27-8.4,0.81 c0.76,2.2,2.69,4.03,5.79,5.5C665.52,159.3,666.38,157.19,667.71,153.93z M811.09,313.16c-4.17,1.86-7.58,3.29-10.22,4.3 c-0.8,0.31-2.53,0.88-5.21,1.72c-0.54,0.17-0.78,0.31-0.78,0.41c0.04,0.09,0.26,0.23,0.68,0.44c1.04,0.53,2.41,1,4.11,1.39 c2,0.47,3.39,0.54,4.19,0.21l23.79-9.79c0.48-0.19,0.7-0.34,0.64-0.47c-0.02-0.08-0.18-0.18-0.5-0.28l-6.57-2.31 C819.45,309.48,816.06,310.93,811.09,313.16z M833.32,347.98l4.99,2.27l2.39-5.33l-3.95-1.7l2.14-4.72l-4.93-2.1l-2.47,5.19 l4.01,1.81L833.32,347.98z M820.53,406.21h0.02l-0.02,0.6l0.14,2.04l-0.18,0.02l-0.28,17.5l0.28,0.02l-0.34,3.74v0.07h-0.02 l-0.44,4.72c0.04,1.24,0.58,2.17,1.58,2.77c3.11,1.85,4.87,2.93,5.27,3.23c2.51,2,3.67,4.06,3.47,6.2c-0.1,0.98-0.94,1.78-2.5,2.42 c-0.36,0.15-1.66,0.53-3.87,1.13c-3.17,0.87-5.09,1.28-5.77,1.22c-3.29-0.32-5.31-1.47-6.09-3.43c-0.24-0.64-0.28-1.75-0.14-3.3 c0.3-3.04,0.9-5.24,1.81-6.59c0.4-0.61,1.12-1.31,2.16-2.13c-1.34-0.92-2.16-1.72-2.43-2.4c-0.26-0.61-0.32-1.77-0.14-3.47 l0.04-0.5l0,0l0.38-22.35c0-0.1,0.04-0.2,0.06-0.3l-0.04-0.47c-0.26-4.02,0.7-7.09,2.87-9.21c-2.51-2.86-3.95-6.94-4.31-12.25 l-0.16-2.21l-3.37-21.99c0-0.04,0.02-0.08,0.02-0.12l-0.38-1.57c-0.36-1.44,0.14-2.68,1.44-3.76c0.86-0.72,2.5-1.59,4.93-2.63 c-3.19-0.53-4.95-1.05-5.23-1.57c-0.54-2.21-0.62-4.33-0.24-6.36c0.44-2.31,1.34-3.62,2.73-3.96c0.82-0.19,2.37-0.04,4.71,0.46 c2.45,0.51,4.05,1.11,4.81,1.79c0.32,0.28,1.02,1.18,2.12,2.7l2.36,3.3l2.5-0.77c1.06,0.61,2.39,1.48,3.97,2.59 c-0.62,0.4-5.01,1.76-13.11,4.08c-2,0.56-3.21,1.07-3.67,1.52c-0.34,0.33-0.44,0.87-0.3,1.62l0.08-0.02l0.2,1.29l0.32,1.33 l-0.12,0.02l2.67,17.36l0.3-0.03l0.26,3.62l0.02,0.12h-0.02l0.28,4.04c0.24,3.54,0.96,6.3,2.17,8.21c2.3-2.24,3.39-4.23,3.27-5.99 c-0.02-0.28-0.06-0.56-0.14-0.87c-0.2-0.83-0.18-1.25,0.04-1.27c0.14,0,0.48,0.11,1.02,0.35c1.98,0.87,4.17,1.94,6.61,3.21 c0.36,0.33,0.68,1.09,1.02,2.23c0.3,0.98,0.46,1.82,0.5,2.47c0.12,1.84-0.32,3.69-1.34,5.59c-1.16,2.12-2.61,3.23-4.35,3.35 c-0.62,0.04-1.68-0.24-3.17-0.83c-1.34-0.51-2.36-0.99-3.06-1.46C820.85,402.46,820.45,404.08,820.53,406.21z M816.28,352.63 c1-0.27,3.19-0.9,6.57-1.88c-1.94-3.29-3.89-5.32-5.87-6.07C815.72,346.65,815.5,349.29,816.28,352.63z M817.78,447.76 c3.67-0.32,5.59-1.4,5.77-3.25c0.08-0.88-0.12-1.67-0.58-2.32c-0.34-0.51-1.06-1.18-2.1-2.02 C819.59,440.6,818.57,443.13,817.78,447.76z M841.47,465.61l-3.25-4.88l-21.87-2.15c-4.41-0.44-6.87,0.86-7.37,3.86l-0.66,3.98 l0.02,0.01l-4.67,20.2l0.12,0.03l-0.18,0.54c-0.54,1.62-1.46,4.02-2.77,7.2c-1.3,3.18-2.22,5.59-2.78,7.21 c-0.26,0.8-0.66,2.18-1.2,4.17c-0.88,3.25-1.36,5.01-1.44,5.3c-0.64,2.08-0.98,3.28-1.08,3.6c0,0.02,0,0.03,0,0.05 c-0.2,0.15-0.36,0.33-0.46,0.55l-8.36,18.62l-8.94,16.6c-0.02,0-0.02,0-0.02,0l-1.46,2.31c-2.32,3.73-3.77,6.03-4.35,6.91 c-1.8,3.07-2.61,4.99-2.37,5.72l5.11,3.21l22.11,12.14c0.56,0.3,0.86,0.37,0.96,0.24c0.06-0.11,0.04-0.43-0.1-0.99l-1.36-5.95 l-19.32-9.08l5.55-8.86l0.16,0.1l1.42-2.61l0.48-0.78l-0.04-0.03l7.7-14.32l0.12,0.05l0.68-1.51l1.04-1.92l-0.16-0.08l7.54-16.76 l0.24,0.08c0.46-1.32,1.94-2.63,4.47-3.92c4.39-2.25,6.78-3.48,7.14-3.72c2.71-1.82,4.49-4,5.35-6.57c1-2.95,0.42-5.96-1.76-9.02 c-0.28-0.41-0.56-0.66-0.84-0.75c-0.34-0.11-0.56,0.03-0.7,0.43c-0.06,0.19-0.08,0.44-0.08,0.75c0.04,2.18-0.08,3.75-0.4,4.69 c-1.06,3.14-4.53,5.82-10.42,8.03l3.79-11.26c0.34-1,0.94-2.46,1.8-4.38c0.86-1.93,1.46-3.39,1.8-4.38l1.18-3.47l-0.48-0.16 l4.59-19.78l-0.1-0.02c0.24-0.61,0.54-1.02,0.9-1.18c1.28-0.06,2.33-0.05,3.17,0.05l21.08,2.69c0.46,0.07,0.72,0.02,0.74-0.15 C841.64,465.95,841.55,465.73,841.47,465.61z M784.67,497.13l4.35,3.91l4.47-5.47l-4.23-3.82L784.67,497.13z M787.9,585.17 c-1.62-1.06-4.77-2.98-9.46-5.75c-3.93-2.32-7.07-4.27-9.42-5.85c-0.72-0.48-2.19-1.56-4.41-3.25c-0.46-0.34-0.7-0.46-0.78-0.38 c-0.04,0.09-0.04,0.34,0.04,0.79c0.16,1.16,0.56,2.54,1.24,4.16c0.78,1.91,1.52,3.08,2.24,3.53l21.75,13.75 c0.44,0.28,0.68,0.37,0.76,0.26c0.06-0.07,0.04-0.27-0.06-0.58L787.9,585.17z"/><path d="M391.16,559.66l4.19,4.43l-21.22,20.09l-14.31-15.1l3.77-3.55l10.1,10.67l4.79-4.53l-8.86-9.34l3.77-3.55l8.84,9.34 L391.16,559.66z"/><path d="M345.88,542.01l9.14,12.52l4.95-3.62l-8.38-11.51l4.17-3.04l8.4,11.5l6.11-4.46l-9.56-13.08l4.17-3.03l13.09,17.9 l-23.61,17.22l-12.65-17.34L345.88,542.01z"/><path d="M336.17,536.34l-6.11-11.36c-4.67-8.67,1.76-14.43,6.63-17.05c5.53-2.95,14.65-5.05,19.22,3.44l5.99,11.15L336.17,536.34z M354.62,519.63l-2.81-5.23c-2.34-4.38-7.54-3.48-11.78-1.22c-7.58,4.08-6.27,8.03-5.03,10.33l2.78,5.16L354.62,519.63z"/><path d="M318.19,484l5.37,14.54l5.75-2.14l-4.91-13.35l4.83-1.79l4.93,13.36l7.11-2.63l-5.61-15.19l4.85-1.79l7.68,20.8 l-27.4,10.12l-7.44-20.15L318.19,484z"/><path d="M310.39,475.85l-3.15-14.43c-1.66-7.59,3.65-10.21,6.11-10.75c3.15-0.69,6.21,0.32,7.76,2.93c0.52-2.58,1.12-4.04,6.45-5.2 c4.17-0.91,5.21-1.13,5.43-2.51l0.74-0.17l1.44,6.6c-1.26,0.7-2.69,1.26-5.61,1.89c-3.91,0.85-5.37,1.42-4.41,5.83l1.36,6.17 l11.18-2.44l1.26,5.85L310.39,475.85z M320.15,460.28c-0.68-3.1-2.08-4.38-4.89-3.76c-1.52,0.33-3.59,1.49-2.83,4.99l1.64,7.43 l7.62-1.67L320.15,460.28z"/><path d="M332.74,436.13l0.46,6.41l-29.89-8.29l-0.5-7.02l28.4-12.37l0.48,6.63l-5.89,2.3l0.78,10.76L332.74,436.13z M321.43,433.27 l-0.52-7.43l-11.28,4.44v0.08L321.43,433.27z"/><path d="M331.98,401.25l-0.26,6.1l-24.03-1.04l-0.38,8.82l-5.15-0.23l1.02-23.74l5.17,0.23l-0.38,8.81L331.98,401.25z"/><path d="M334,381.98l-0.82,6.05l-28.96-3.94l0.82-6.05L334,381.98z"/><path d="M308.71,355.63c0.94-3.74,5.01-13.22,18.32-9.91c13.31,3.3,12.47,13.58,11.53,17.32c-0.94,3.75-5.01,13.22-18.3,9.92 C306.96,369.65,307.8,359.38,308.71,355.63z M333.56,361.81c0.8-3.2-0.06-8.19-8-10.17s-11.02,2.05-11.81,5.24 c-0.8,3.19,0.06,8.18,7.98,10.16C329.67,369.01,332.76,365,333.56,361.81z"/><path d="M322.9,316.54l2.2-5.26l26.96,11.19l-2.32,5.64l-23.83,3.03l-0.02,0.07l19.24,7.98l-2.17,5.27l-26.98-11.2l2.45-5.94 l23.23-2.92l0.04-0.07L322.9,316.54z"/><path d="M337.25,288.86l8.32-12.2c4.39-6.42,9.92-4.36,12.01-2.93c2.65,1.81,4.01,4.72,3.19,7.64c2.23-1.39,3.71-1.96,8.2,1.12 c3.53,2.42,4.41,3,5.55,2.21l0.64,0.44l-3.81,5.57c-1.38-0.44-2.75-1.08-5.23-2.79c-3.29-2.24-4.71-2.91-7.27,0.82l-3.55,5.21 l9.44,6.44l-3.35,4.95L337.25,288.86z M355.29,285.25c1.78-2.62,1.74-4.51-0.64-6.15c-1.28-0.87-3.55-1.58-5.57,1.38l-4.29,6.29 l6.45,4.4L355.29,285.25z"/><path d="M364.63,251.79c2.62-2.84,10.72-9.21,20.82,0.07c10.1,9.28,4.45,17.9,1.84,20.75c-2.61,2.84-10.72,9.21-20.84-0.07 C356.37,263.25,362.02,254.64,364.63,251.79z M383.48,269.1c2.24-2.42,3.87-7.21-2.16-12.74c-6.01-5.54-10.66-3.49-12.87-1.07 c-2.24,2.42-3.89,7.21,2.15,12.75C376.61,273.57,381.26,271.54,383.48,269.1z"/><path d="M408.9,251.14l-4.67,3.91l-7.09-8.44l-19.42-7.44l5.51-4.63l12.81,5.83l-3.73-13.44l5.29-4.44l4.27,20.27L408.9,251.14z"/><path d="M420,242.58l-5.37,3.52l-7.32-30.15l5.89-3.86l24.63,18.78l-5.55,3.64l-4.85-4.01l-9.02,5.93L420,242.58z M416.99,231.31 l6.23-4.09l-9.36-7.67l-0.08,0.05L416.99,231.31z"/><path d="M445.22,221.43l13.09-6.29l2.3,4.77l-18.58,8.93l-12.65-26.33l5.51-2.64L445.22,221.43z"/><path d="M478.15,188.53l-14.73,4.85l1.92,5.85l13.53-4.47l1.62,4.91l-13.51,4.46l2.36,7.19l15.39-5.07l1.62,4.9l-21.06,6.95 l-9.16-27.74l20.4-6.74L478.15,188.53z"/><path d="M532.3,204.02l-5.67,0.61l-2.6-24.28l-0.1,0.01l-2.81,24.86l-5.95,0.64l-7.9-23.71l-0.08,0.02l2.61,24.27l-5.67,0.61 l-3.11-29.05l8.86-0.95l7.7,22.33l0.08-0.01l2.73-23.45l8.78-0.95L532.3,204.02z"/><path d="M542.8,204.2l-6.43-0.28l11.72-28.72l7.01,0.31l9,29.64l-6.63-0.3l-1.6-6.1l-10.78-0.48L542.8,204.2z M546.93,193.31 l7.45,0.33l-3.09-11.71h-0.08L546.93,193.31z"/><path d="M573.95,177.11l14.53,2.74c7.62,1.44,7.96,7.34,7.5,9.82c-0.6,3.15-2.71,5.57-5.73,6.01c2.15,1.48,3.27,2.59,2.25,7.95 c-0.8,4.2-0.98,5.24,0.2,5.96l-0.16,0.76l-6.63-1.25c-0.14-1.44-0.1-2.95,0.46-5.92c0.74-3.92,0.78-5.48-3.65-6.33l-6.19-1.17 l-2.14,11.25l-5.89-1.12L573.95,177.11z M584.49,192.19c3.11,0.58,4.83-0.21,5.39-3.05c0.28-1.53,0.02-3.89-3.49-4.56l-7.48-1.41 l-1.46,7.67L584.49,192.19z"/><path d="M618.88,187.35c3.67,1.26,12.73,6.15,8.26,19.12c-4.47,12.96-14.63,11.23-18.28,9.97c-3.65-1.27-12.73-6.16-8.26-19.13 C605.07,184.35,615.22,186.09,618.88,187.35z M610.54,211.55c3.13,1.08,8.16,0.67,10.84-7.06c2.68-7.73-1.06-11.17-4.17-12.24 c-3.11-1.08-8.16-0.66-10.84,7.06C603.71,207.04,607.42,210.49,610.54,211.55z"/><path d="M652.86,213.8c0.38-1.78,1.08-5.14-3.39-7.47c-2.59-1.36-7.32-1.62-11.14,5.7c-2.43,4.65-2.79,9.79,1.8,12.18 c2.99,1.57,5.97,0.97,8.28-1.88l5.41,2.83c-4.03,5.06-9.76,7.06-16.25,3.67c-6.89-3.59-9.4-10.83-4.73-19.77 c4.73-9.05,12.35-10.95,19.04-7.45c7.74,4.04,8.1,11.02,6.41,14.99L652.86,213.8z"/><path d="M656.94,239.31l-5.23-3.75l25.53-17.61l5.73,4.11l-8.74,29.72l-5.37-3.88l1.99-5.97l-8.76-6.31L656.94,239.31z M666.38,232.47l6.03,4.35l3.81-11.49l-0.06-0.05L666.38,232.47z"/><path d="M682.04,259.14l-4.55-4.05l19.4-21.83l4.55,4.05L682.04,259.14z"/><path d="M720.82,257.03l3.83,4.2l-21.51,19.75l-4.13-4.5l7.3-22.86l-0.06-0.06l-15.35,14.08l-3.87-4.2l21.53-19.75l4.35,4.74 l-7.17,22.29l0.08,0.06L720.82,257.03z"/><path d="M739.12,290.17l-8.8-12.76l-5.07,3.49l8.08,11.72l-4.23,2.93l-8.1-11.72l-6.23,4.3l9.2,13.32l-4.25,2.93l-12.59-18.25 l24.03-16.59l12.22,17.68L739.12,290.17z"/><path d="M755.61,309.26l5.05,11.86c3.87,9.06-3.03,14.22-8.12,16.39c-5.77,2.46-15.05,3.72-18.84-5.14l-4.97-11.64L755.61,309.26z M735.71,324.25l2.33,5.46c1.96,4.57,7.21,4.14,11.63,2.25c7.92-3.39,6.95-7.43,5.93-9.84l-2.32-5.39L735.71,324.25z"/><path d="M768.84,362.98l-4.05-14.97l-5.93,1.61l3.73,13.75l-5.01,1.35l-3.71-13.75l-7.3,1.98l4.23,15.64l-4.99,1.35l-5.79-21.4 l28.2-7.64l5.61,20.74L768.84,362.98z"/><path d="M749.2,394.63l-0.44-6.09l29.14-2.17l1.54,20.75l-5.17,0.38l-1.08-14.65l-6.58,0.49l0.96,12.82l-5.17,0.38l-0.94-12.82 L749.2,394.63z"/><path d="M779.54,428.6c-0.24,3.85-2.53,13.9-16.23,13.05c-13.69-0.85-14.71-11.11-14.47-14.97c0.24-3.85,2.54-13.9,16.23-13.05 C778.74,414.48,779.78,424.74,779.54,428.6z M753.99,427.01c-0.2,3.29,1.54,8.05,9.7,8.55c8.16,0.51,10.48-3.99,10.68-7.28 c0.22-3.29-1.54-8.04-9.7-8.56C756.52,419.22,754.21,423.73,753.99,427.01z"/><path d="M774.49,464.87c-0.84,3.77-4.63,13.36-18.04,10.43c-13.39-2.92-12.85-13.22-12.01-17c0.82-3.78,4.63-13.36,18.02-10.44 C775.84,450.8,775.31,461.1,774.49,464.87z M749.48,459.4c-0.7,3.21,0.28,8.19,8.28,9.94c7.98,1.74,10.98-2.35,11.67-5.57 c0.7-3.23-0.3-8.19-8.3-9.94C753.15,452.08,750.18,456.19,749.48,459.4z"/><path d="M736.55,487.6l2.07-5.74l22.61,8.18l2.99-8.3l4.87,1.76l-8.08,22.34l-4.85-1.76l2.99-8.3L736.55,487.6z"/><path d="M757.66,513.4L751.1,526c-3.31,6.35-8.14,5.9-10.82,4.5c-3.69-1.94-3.65-4.58-3.63-5.94c-2.85,2.54-5.81,2.06-8.36,0.73 c-2.06-1.08-3.55-2.96-4.17-5.03c-0.68-2.24-0.86-4.11,1.91-9.41l5.73-10.97L757.66,513.4z M733.53,507.42l-3.47,6.63 c-1.38,2.63-1.02,4.76,1.62,6.13c2.27,1.2,4.15-0.3,5.17-2.26l3.61-6.89L733.53,507.42z M744.81,513.31l-3.31,6.36 c-1.1,2.13-1.18,4.25,0.9,5.32c2.12,1.12,3.57-0.06,4.85-2.51l3.23-6.21L744.81,513.31z"/><path d="M715.69,528.61l3.73-5.24l17.74,25.43l-4.07,5.74L703.32,546l3.85-5.41l5.99,1.97l6.27-8.79L715.69,528.61z M722.58,538.01 l-4.31,6.07l11.52,3.75l0.04-0.06L722.58,538.01z"/><path d="M699.85,557.47l-9.92,10.62l-3.87-3.61l14.07-15.08l21.36,19.94l-4.15,4.46L699.85,557.47z"/><path d="M681.01,575.86l-11.14,9.33l-3.39-4.05l15.81-13.24l18.76,22.38l-4.67,3.92L681.01,575.86z"/><path d="M438.24,698.72h-7.94v-44.81h27.08v7.93h-19.14v10.1H455v7.92h-16.76V698.72z"/><path d="M483.74,653.92H503c10.12,0,11.98,8.8,11.98,12.66c0,4.93-2.12,9.18-5.89,10.68c3.13,1.62,4.83,2.99,4.83,11.36 c0,6.55,0,8.17,1.7,8.92v1.19h-8.8c-0.52-2.13-0.84-4.43-0.84-9.05c0-6.11-0.32-8.48-6.23-8.48h-8.2v17.53h-7.8V653.92z M500.89,673.64c4.13,0,6.15-1.69,6.15-6.12c0-2.37-0.9-5.86-5.57-5.86h-9.92v11.98H500.89z"/><path d="M573.99,698.72h-7.42v-37.44h-0.12l-7.09,37.44h-7.8l-6.94-37.44h-0.12v37.44h-7.42v-44.81h11.64l6.89,35.32h0.1 l6.79-35.32h11.52V698.72z"/><path d="M605.78,698.72h-7.96v-44.81h27.1v7.93h-19.14v10.1h16.76v7.92h-16.76V698.72z"/><path class="st1" d="M631.35,442.91c11.72-36.05,40.53-61.75,74.54-71.1c-1.86-7.4-4.21-14.61-7.01-21.59 c-33.01,12.44-71.45,8.59-102.12-13.7c-30.66-22.28-46.2-57.62-44.58-92.84c-3.75-0.25-7.52-0.39-11.36-0.39 c-3.79,0-7.58,0.14-11.32,0.39c1.6,35.22-13.93,70.56-44.61,92.84c-30.68,22.29-69.09,26.13-102.1,13.7 c-2.81,6.99-5.17,14.19-7.03,21.59c34.01,9.34,62.83,35.05,74.54,71.1c11.72,36.04,3.51,73.75-18.5,101.3 c5.81,4.85,11.94,9.3,18.36,13.35c19.4-29.46,52.75-48.92,90.65-48.92c37.92,0,71.27,19.46,90.69,48.92 c6.41-4.05,12.53-8.5,18.34-13.36C627.84,516.67,619.65,478.96,631.35,442.91z"/><path class="st2" d="M540.82,508.65c-37.9,0-71.25,19.46-90.65,48.92c26.24,16.55,57.34,26.14,90.65,26.14 c33.35,0,64.42-9.59,90.69-26.14C612.09,528.11,578.74,508.65,540.82,508.65z"/><path class="st2" d="M596.76,336.52c30.68,22.29,69.11,26.14,102.12,13.7c-8.64-21.55-21.55-40.93-37.68-57.08 c-28.32-28.31-66.54-46.67-109.03-49.47C550.56,278.9,566.11,314.24,596.76,336.52z"/><path class="st2" d="M711.04,413.5c0-14.38-1.78-28.34-5.15-41.68c-34.01,9.35-62.83,35.05-74.54,71.1 c-11.7,36.04-3.51,73.75,18.5,101.3c3.93-3.28,7.72-6.74,11.35-10.35C692,503.05,711.04,460.51,711.04,413.5z"/><path class="st2" d="M484.9,336.52c30.68-22.28,46.2-57.62,44.61-92.84c-42.49,2.79-80.73,21.16-109.03,49.47 c-16.15,16.14-29.06,35.53-37.68,57.08C415.81,362.66,454.22,358.81,484.9,336.52z"/><path class="st2" d="M450.31,442.91c-11.71-36.05-40.53-61.76-74.54-71.1c-3.35,13.34-5.15,27.3-5.15,41.68 c0,47.01,19.04,89.55,49.85,120.36c3.63,3.61,7.41,7.06,11.34,10.36C453.83,516.67,462.03,478.96,450.31,442.91z"/><path class="st3" d="M475,423.36c-3.19-0.08-5.75-2.69-5.75-5.91c0-3.17,2.51-5.76,5.67-5.88c0.04-0.28,0.06-0.55,0.1-0.83 c-2.09-0.8-3.57-2.81-3.57-5.2c0-3.07,2.5-5.57,5.57-5.57c0.48,0,0.92,0.08,1.36,0.19c0.08-0.14,0.16-0.27,0.22-0.4 c-1.7-0.97-2.83-2.75-2.83-4.83c0-3.09,2.5-5.59,5.59-5.59c1.52,0,2.91,0.64,3.93,1.64c0.02-0.01,0.04-0.03,0.06-0.04 c-1.06-0.97-1.72-2.33-1.72-3.87c0-2.89,2.34-5.25,5.23-5.25c2.23,0,4.13,1.4,4.89,3.35c0.1-0.05,0.18-0.1,0.28-0.15 c-0.94-0.89-1.52-2.15-1.52-3.53c0-2.71,2.19-4.91,4.91-4.91c2.73,0,4.93,2.19,4.93,4.91c0,0.21-0.04,0.41-0.06,0.63 c0.18-0.05,0.38-0.09,0.58-0.13c-0.36-0.63-0.58-1.34-0.58-2.12c0-2.34,1.91-4.25,4.25-4.25c2.35,0,4.25,1.91,4.25,4.25 c0,0.37-0.06,0.71-0.14,1.05c0.1-0.01,0.22-0.02,0.32-0.02c-0.02-0.2-0.06-0.4-0.06-0.61c0-2.17,1.76-3.92,3.93-3.92 c2.16,0,3.89,1.76,3.89,3.92c0,0.25-0.02,0.48-0.06,0.71c0.04,0,0.06,0,0.1,0c0.1-1.89,1.66-3.38,3.57-3.38 c1.96,0,3.57,1.61,3.57,3.58c0,0.23-0.02,0.46-0.06,0.68c0.06,0.02,0.14,0.02,0.22,0.04c0.2-0.69,0.62-1.28,1.18-1.7 c-0.1-0.58-0.18-1.36-0.18-2.3c0-2.31,0.56-5.52,2.93-8.79c0.8-1.1,1.66-2,2.52-2.73c-0.16,0-0.34,0.01-0.5,0 c-1.74,0.01-3.65-0.25-5.75-0.93c-8.68-2.82-10.94-9.99-10.94-10.04l-0.08-0.22l0.2-0.15c0.02-0.02,3.51-2.62,9.02-2.62 c1.74,0,3.65,0.26,5.73,0.94c1.44,0.46,2.69,1.05,3.79,1.7c-0.32-1.42-0.5-2.98-0.5-4.7c0-10.62,7.11-15.67,7.14-15.7l0.18-0.15 l0.22,0.15c0.02,0.03,7.14,5.08,7.14,15.7c0,1.72-0.2,3.28-0.5,4.7c1.1-0.65,2.35-1.24,3.77-1.7c2.1-0.68,4.01-0.94,5.75-0.94 c5.49,0,8.98,2.6,9.02,2.62l0.18,0.15l-0.06,0.22c-0.02,0.05-2.25,7.22-10.96,10.04c-2.08,0.68-3.99,0.94-5.73,0.93 c-0.18,0.01-0.34,0-0.52,0c0.88,0.74,1.74,1.63,2.54,2.73c2.35,3.27,2.93,6.48,2.93,8.79c0,0.94-0.08,1.72-0.18,2.31 c0.56,0.41,0.98,1,1.18,1.69c0.08-0.02,0.14-0.02,0.22-0.04c-0.04-0.22-0.08-0.45-0.08-0.68c0-1.98,1.62-3.58,3.59-3.58 c1.91,0,3.47,1.5,3.57,3.38c0.02,0,0.06,0,0.1,0c-0.06-0.23-0.08-0.46-0.08-0.71c0-2.17,1.76-3.92,3.91-3.92 c2.17,0,3.91,1.76,3.91,3.92c0,0.21-0.02,0.41-0.06,0.61c0.12,0,0.22,0.01,0.34,0.02c-0.08-0.34-0.16-0.68-0.16-1.05 c0-2.34,1.92-4.25,4.27-4.25c2.34,0,4.25,1.91,4.25,4.25c0,0.78-0.24,1.49-0.6,2.12c0.2,0.04,0.42,0.08,0.6,0.13 c-0.02-0.22-0.06-0.42-0.06-0.63c0-2.71,2.19-4.91,4.91-4.91s4.93,2.19,4.93,4.91c0,1.39-0.6,2.64-1.52,3.53 c0.08,0.05,0.18,0.1,0.28,0.15c0.76-1.96,2.65-3.35,4.87-3.35c2.91,0,5.25,2.35,5.25,5.25c0,1.54-0.68,2.9-1.72,3.87 c0.02,0.01,0.04,0.03,0.04,0.03c1.02-0.99,2.41-1.63,3.95-1.63c3.09,0,5.59,2.5,5.59,5.59c0,2.07-1.16,3.86-2.83,4.83 c0.06,0.12,0.14,0.26,0.2,0.4c0.44-0.11,0.9-0.19,1.36-0.19c3.09,0,5.59,2.5,5.59,5.57c0,2.38-1.5,4.4-3.57,5.2 c0.02,0.28,0.06,0.55,0.08,0.83c3.17,0.12,5.69,2.71,5.69,5.88c0,3.22-2.57,5.83-5.77,5.91c2.61,0.73,4.55,3.11,4.55,5.97 c0,3.44-2.8,6.24-6.25,6.24c-0.74,0-1.46-0.15-2.12-0.39c-2.87,6.16-6.29,9.28-6.99,9.86c-0.04,1.96-1,3.5-1.28,3.9v11.86 l-0.28,0.05c0,0-23.95,4.48-53.49,4.48c-29.5,0-53.45-4.48-53.47-4.48l-0.28-0.05v-11.87c-0.26-0.4-1.22-1.95-1.28-3.89 c-0.7-0.59-4.11-3.72-6.96-9.86c-0.68,0.24-1.38,0.39-2.14,0.39c-3.45,0-6.25-2.8-6.25-6.24 C470.45,426.47,472.39,424.08,475,423.36z"/><path class="st1" d="M557.51,393.39c0.92-0.27,4.81-1.25,12.43-1.25c12.65,0.02,22.89,10.24,22.89,22.89 c0,12.34-11.06,20.96-28.22,22.55C564.57,420.84,561.66,405.25,557.51,393.39z"/><path class="st1" d="M517.05,437.59c-17.14-1.59-28.22-10.21-28.2-22.55c0.02-12.65,10.22-22.87,22.87-22.89 c7.62,0,11.52,0.99,12.43,1.25C520.02,405.25,517.11,420.84,517.05,437.59z"/><path class="st1" d="M488.57,460.37c4.95-2.15,19.2-6.59,52.25-6.59c33.11,0,47.34,4.45,52.31,6.59 c-4.93,0.85-26.45,4.28-52.31,4.28C515.02,464.65,493.5,461.22,488.57,460.37z"/><path class="st1" d="M594.13,448.38c-4.35-2.05-18.38-6.98-53.31-6.99c-34.91,0.01-48.94,4.95-53.27,6.99 c-0.32-0.5-1.02-1.8-1.06-3.33c0.26-0.18,0.92-0.56,2.16-1.09c5.05-2.17,19.32-6.55,52.17-6.55c21.91,0,35.58,1.95,43.75,3.89 c7.07,1.69,9.96,3.34,10.62,3.74C595.15,446.59,594.43,447.88,594.13,448.38z"/><path class="st1" d="M514.84,383.54c-1.8,0-3.23-1.46-3.25-3.24c0.02-1.79,1.46-3.24,3.25-3.24c1.78,0,3.23,1.45,3.23,3.24 S516.61,383.54,514.84,383.54z"/><path class="st1" d="M522.34,384.12c-1.62-0.01-2.91-1.31-2.91-2.91s1.3-2.9,2.91-2.91c1.6,0.01,2.89,1.31,2.89,2.91 S523.94,384.11,522.34,384.12z"/><path class="st1" d="M506.53,383.45c-1.98-0.01-3.57-1.6-3.57-3.57c0-1.96,1.6-3.56,3.57-3.56c1.98,0,3.57,1.6,3.57,3.56 C510.11,381.85,508.51,383.44,506.53,383.45z"/><path class="st1" d="M497.41,385.73c-2.34,0-4.23-1.89-4.23-4.23c0-2.33,1.89-4.23,4.23-4.23c2.34,0,4.25,1.9,4.25,4.23 C501.66,383.84,499.75,385.73,497.41,385.73z"/><path class="st1" d="M488.85,391.64c-2.52-0.01-4.55-2.06-4.55-4.57c0-2.52,2.04-4.57,4.55-4.57c2.51,0,4.57,2.05,4.57,4.57 C493.42,389.59,491.39,391.63,488.85,391.64z"/><path class="st1" d="M477.02,400.64c2.71,0.02,4.89,2.19,4.89,4.9c0,2.71-2.17,4.9-4.89,4.9c-2.7,0-4.89-2.2-4.89-4.9 C472.13,402.84,474.32,400.66,477.02,400.64z"/><path class="st1" d="M481.35,399.83c-2.71,0-4.91-2.19-4.91-4.89c0-2.72,2.2-4.9,4.91-4.91c2.69,0.01,4.87,2.19,4.89,4.91 C486.22,397.63,484.04,399.83,481.35,399.83z"/><path class="st1" d="M469.91,417.45c0.02-2.88,2.35-5.22,5.25-5.23c2.88,0.01,5.23,2.34,5.23,5.23c0,2.89-2.35,5.23-5.23,5.24 C472.27,422.68,469.93,420.34,469.91,417.45z"/><path class="st1" d="M476.7,434.89c-3.05-0.02-5.55-2.49-5.55-5.57l0,0c0-3.07,2.5-5.56,5.55-5.57c3.07,0.01,5.57,2.5,5.57,5.57 C482.27,432.4,479.77,434.87,476.7,434.89z"/><path class="st1" d="M566.85,383.54c1.79,0,3.23-1.46,3.23-3.24s-1.44-3.24-3.23-3.24c-1.78,0-3.23,1.45-3.23,3.24 S565.07,383.54,566.85,383.54z"/><path class="st1" d="M559.34,384.12c1.6-0.01,2.91-1.31,2.91-2.91s-1.32-2.9-2.91-2.91c-1.6,0.01-2.89,1.31-2.91,2.91 C556.45,382.81,557.74,384.11,559.34,384.12z"/><path class="st1" d="M575.15,383.45c1.96-0.01,3.55-1.6,3.55-3.57c0-1.96-1.6-3.56-3.55-3.56c-1.98,0-3.57,1.6-3.57,3.56 C571.58,381.85,573.17,383.44,575.15,383.45z"/><path class="st1" d="M584.25,385.73c2.36,0,4.23-1.89,4.23-4.23c0-2.33-1.88-4.23-4.23-4.23c-2.33,0-4.23,1.9-4.23,4.23 C580.02,383.84,581.92,385.73,584.25,385.73z"/><path class="st1" d="M592.81,391.64c2.53-0.01,4.57-2.06,4.57-4.57c0-2.52-2.04-4.57-4.57-4.57c-2.52,0-4.57,2.05-4.57,4.57 C588.24,389.59,590.3,391.63,592.81,391.64z"/><path class="st1" d="M604.65,400.64c-2.7,0.02-4.89,2.19-4.89,4.9c0,2.71,2.19,4.9,4.89,4.9c2.71,0,4.91-2.2,4.91-4.9 C609.56,402.84,607.36,400.66,604.65,400.64z"/><path class="st1" d="M600.34,399.83c2.71,0,4.91-2.19,4.91-4.89c0-2.72-2.2-4.9-4.91-4.91c-2.69,0.01-4.89,2.19-4.89,4.91 C595.45,397.63,597.64,399.83,600.34,399.83z"/><path class="st1" d="M611.75,417.45c0-2.88-2.35-5.22-5.23-5.23c-2.89,0.01-5.23,2.34-5.23,5.23c0,2.89,2.34,5.23,5.23,5.24 C609.4,422.68,611.75,420.34,611.75,417.45z"/><path class="st1" d="M604.97,434.89c3.07-0.02,5.57-2.49,5.57-5.57l0,0c0-3.07-2.5-5.56-5.57-5.57c-3.07,0.01-5.55,2.5-5.55,5.57 C599.42,432.4,601.89,434.87,604.97,434.89z"/><path class="st1" d="M544.05,338.94c1.72,2.52,3.45,6.3,3.45,11.45c0,1.96-0.26,3.71-0.66,5.29l-5.67,7.45v-27.45 C541.82,336.22,542.94,337.3,544.05,338.94z"/><path class="st1" d="M530,354.04c1.68,0.54,3.07,1.25,4.27,2.04l5.11,6.71l-22.95-7.53c1.16-0.7,4.03-2.12,8.04-2.12 C526.13,353.14,527.99,353.38,530,354.04z"/><path class="st1" d="M530.54,369.55c1.02-1.39,2.12-2.44,3.19-3.24l6.67-2.19l0.02,0.02l-12.43,16.36 c-0.12-0.56-0.26-1.45-0.26-2.56C527.73,375.74,528.27,372.67,530.54,369.55z"/><path class="st1" d="M543.54,375.06c-1.24-1.72-1.96-3.41-2.35-4.96v-4.95l11.94,15.72C551.4,380.68,546.93,379.75,543.54,375.06z"/><path class="st1" d="M555.19,364.84c-2.02,0.65-3.87,0.9-5.53,0.9c-0.52,0-1.02-0.03-1.52-0.07l-6.23-2.05l23.53-7.73 C564.69,357.66,562.02,362.62,555.19,364.84z"/><path class="st1" d="M527.61,381.66l-0.1-0.3c0,0-0.04-0.15-0.1-0.38c-0.5,0.46-0.82,1.13-0.82,1.87l0,0c0,0.84,0.4,1.59,1.04,2.05 c0.6-1.24,1.2-2.38,1.82-3.48c-0.84,0.16-1.42,0.17-1.58,0.17L527.61,381.66z"/><path class="st1" d="M554.05,381.64l-0.26-0.06c-0.18,0-0.76-0.02-1.56-0.17c0.6,1.1,1.22,2.25,1.8,3.49 c0.64-0.47,1.04-1.21,1.04-2.05l0,0c0-0.74-0.3-1.41-0.8-1.87c-0.06,0.23-0.12,0.37-0.12,0.37L554.05,381.64z"/><path class="st1" d="M525.63,391.3c-4.53,12.04-7.84,28.52-7.88,46.29c2.7-0.22,5.59-0.41,8.7-0.55c-0.48-5.51-0.7-10.54-0.7-15.15 c0-21.5,4.85-34.01,10.42-43.71c-2.1,1.79-4.25,2.63-5.87,3.03C528.67,384.06,527.09,387.44,525.63,391.3z"/><path class="st1" d="M555.91,421.9c0,4.61-0.22,9.64-0.7,15.15c3.13,0.14,6.03,0.33,8.72,0.55c-0.04-17.77-3.35-34.26-7.9-46.29 c-1.44-3.86-3.03-7.24-4.67-10.08c-1.6-0.4-3.77-1.24-5.87-3.03C551.08,387.89,555.93,400.4,555.91,421.9z"/><path class="st1" d="M540.82,444.63c-3.41,0-6.63,0.05-9.64,0.14h-0.14v5.92h0.16c3.01-0.09,6.23-0.13,9.62-0.13 c3.41,0,6.63,0.04,9.66,0.13l0.16,0.01v-5.93h-0.16C547.45,444.68,544.25,444.63,540.82,444.63z"/><path class="st1" d="M505.52,446.94l-0.14,0.03v0.14v5.72l0.2-0.03c5.99-0.9,13.49-1.66,22.91-2.02h0.16v-5.93h-0.16 C518.85,445.23,511.33,446.02,505.52,446.94z"/><path class="st1" d="M490.41,450.66l-0.1,0.04v0.12v5.44l0.22-0.07c2.79-0.94,6.83-2,12.33-2.95l0.16-0.02v-5.85l-0.2,0.03 C496.56,448.53,492.64,449.78,490.41,450.66z"/><path class="st1" d="M553.2,444.85h-0.18v0.18v5.75h0.16c9.42,0.36,16.94,1.12,22.91,2.02l0.22,0.04v-5.87l-0.16-0.03 C570.34,446.02,562.82,445.23,553.2,444.85z"/><path class="st1" d="M591.26,450.66c-2.22-0.88-6.13-2.13-12.39-3.25l-0.2-0.04v5.85l0.14,0.02c5.53,0.95,9.54,2.02,12.35,2.95 l0.22,0.08v-5.57L591.26,450.66z"/><linearGradient id="SVGID_1_" gradientUnits="userSpaceOnUse" x1="531.1918" y1="447.6595" x2="550.4731" y2="447.6595"><stop offset="0" style="stop-color:#FFFFFF"/><stop offset="1" style="stop-color:#D49600"/></linearGradient><path d="M531.36,450.35c2.99-0.09,6.15-0.13,9.46-0.13c3.35,0,6.51,0.04,9.48,0.13v-5.25 c-2.97-0.09-6.11-0.13-9.48-0.13c-3.33,0-6.49,0.04-9.46,0.13V450.35z" style="fill:url(#SVGID_1_)"/><linearGradient id="SVGID_2_" gradientUnits="userSpaceOnUse" x1="505.5459" y1="448.8213" x2="528.4805" y2="448.8213"><stop offset="0" style="stop-color:#FFFFFF"/><stop offset="1" style="stop-color:#D49600"/></linearGradient><path d="M528.31,445.21c-9.44,0.37-16.86,1.14-22.59,2.05v5.18c5.93-0.9,13.35-1.63,22.59-1.98V445.21z" style="fill:url(#SVGID_2_)"/><linearGradient id="SVGID_3_" gradientUnits="userSpaceOnUse" x1="490.4794" y1="451.7755" x2="502.8512" y2="451.7755"><stop offset="0" style="stop-color:#FFFFFF"/><stop offset="1" style="stop-color:#D49600"/></linearGradient><path d="M502.68,447.76c-6.05,1.11-9.84,2.32-12.04,3.17v4.85c2.78-0.91,6.71-1.94,12.04-2.86V447.76z" style="fill:url(#SVGID_3_)"/><linearGradient id="SVGID_4_" gradientUnits="userSpaceOnUse" x1="553.1867" y1="448.8213" x2="576.12" y2="448.8213"><stop offset="0" style="stop-color:#FFFFFF"/><stop offset="1" style="stop-color:#D49600"/></linearGradient><path d="M575.95,447.25c-5.73-0.91-13.13-1.68-22.59-2.05v5.24c9.26,0.35,16.66,1.09,22.59,1.98V447.25z" style="fill:url(#SVGID_4_)"/><linearGradient id="SVGID_5_" gradientUnits="userSpaceOnUse" x1="578.8309" y1="451.7805" x2="591.2082" y2="451.7805"><stop offset="0" style="stop-color:#FFFFFF"/><stop offset="1" style="stop-color:#D49600"/></linearGradient><path d="M591.04,450.94c-2.2-0.86-6.01-2.07-12.04-3.16v5.15c5.33,0.93,9.24,1.96,12.04,2.86V450.94z" style="fill:url(#SVGID_5_)"/><path class="st1" d="M596.42,415.03c0-13.73-10.54-24.86-23.55-24.86c-2.78,0-5.43,0.52-7.9,1.45c1.46-0.1,3.11-0.16,4.97-0.16 c0.48,0,0.92,0.04,1.38,0.07c0.06,0,0.14-0.01,0.18-0.01c12.99,0,23.51,10.53,23.51,23.51c0,8.94-5.01,16.68-12.35,20.66 c0.88,0.17,1.72,0.35,2.5,0.54C591.91,431.86,596.42,424,596.42,415.03z"/><path class="st1" d="M485.24,415.03c0-13.73,10.56-24.86,23.57-24.86c2.78,0,5.43,0.52,7.88,1.45c-1.44-0.1-3.09-0.16-4.97-0.16 c-0.46,0-0.92,0.04-1.38,0.07c-0.06,0-0.12-0.01-0.18-0.01c-12.97,0-23.51,10.53-23.51,23.51c0,8.94,5.03,16.68,12.37,20.66 c-0.88,0.17-1.72,0.35-2.51,0.54C489.75,431.86,485.24,424,485.24,415.03z"/><path class="st1" d="M535.23,389.83c0-3.09,2.51-5.61,5.59-5.61l0,0c3.11,0,5.61,2.52,5.61,5.61l0,0c0,3.09-2.49,5.61-5.61,5.61 l0,0C537.75,395.44,535.23,392.92,535.23,389.83L535.23,389.83z"/><path class="st3" d="M535.91,389.83c0,2.71,2.22,4.93,4.91,4.93l0,0c2.73,0,4.93-2.22,4.95-4.93l0,0 c-0.02-2.72-2.22-4.92-4.95-4.93l0,0C538.13,384.91,535.91,387.11,535.91,389.83L535.91,389.83z"/><path class="st1" d="M535.23,402.88c0-3.09,2.51-5.6,5.59-5.6l0,0c3.11,0,5.61,2.51,5.61,5.6l0,0c0,3.09-2.49,5.61-5.61,5.61l0,0 C537.75,408.49,535.23,405.97,535.23,402.88L535.23,402.88z"/><path class="st3" d="M535.91,402.88c0,2.72,2.22,4.93,4.91,4.93l0,0c2.73,0,4.93-2.21,4.95-4.93l0,0 c-0.02-2.71-2.22-4.92-4.95-4.92l0,0C538.13,397.96,535.91,400.16,535.91,402.88L535.91,402.88z"/><path class="st1" d="M535.23,415.93c0-3.08,2.51-5.6,5.59-5.6l0,0c3.11,0,5.61,2.51,5.61,5.6l0,0c0,3.09-2.49,5.61-5.61,5.61l0,0 C537.75,421.54,535.23,419.03,535.23,415.93L535.23,415.93z"/><path class="st3" d="M535.91,415.93c0,2.72,2.22,4.93,4.91,4.93l0,0c2.73,0,4.93-2.21,4.95-4.93l0,0 c-0.02-2.71-2.22-4.91-4.95-4.93l0,0C538.13,411.02,535.91,413.22,535.91,415.93L535.91,415.93z"/><path class="st1" d="M535.23,428.99c0-3.09,2.51-5.61,5.59-5.61l0,0c3.11,0,5.61,2.51,5.61,5.61l0,0c0,3.09-2.49,5.6-5.61,5.6l0,0 C537.75,434.59,535.23,432.09,535.23,428.99L535.23,428.99z"/><path class="st3" d="M535.91,428.99c0,2.72,2.22,4.92,4.91,4.92l0,0c2.73,0,4.93-2.19,4.95-4.92l0,0 c-0.02-2.72-2.22-4.93-4.95-4.93l0,0C538.13,424.07,535.91,426.27,535.91,428.99L535.91,428.99z"/></svg>