<svg version="1.1" id="Layer_1" xmlns="http://www.w3.org/2000/svg" x="0px" y="0px" viewBox="0 0 337.8 407.9" style="enable-background:new 0 0 337.8 407.9" xml:space="preserve"><style>.st0{fill:#FFFFFF}.st1{fill:#EC2F35}</style><path d="M288.9,174.2l35.6-28c0.8-0.6,1.3-1.5,1.4-2.5s-0.2-2-0.9-2.7v0l-28.4-31.5h0l-17.8-19.7l-0.8-0.3	c-4.1-1.7-9.1-2.7-14.4-3.6c-2.2-0.4-4.5-0.7-6.8-1.1l5.5-22.9l-4.2-0.3c-1.2-0.1-2.4-0.1-3.6-0.1c-7.7,0-14.5,1.7-19.6,4.5	c-2.6,1.4-4.8,3.1-6.4,5.1c-1.6,2-2.8,4.4-2.8,7.1l-0.5,22.8c-15.5,1.2-34.2,1.8-56.3,1.8s-40.8-0.6-56.3-1.8l-0.5-22.8	c-0.1-2.7-1.2-5.1-2.8-7.1c-2.5-3-6.2-5.3-10.6-7c-4.5-1.6-9.7-2.6-15.5-2.6c-1.2,0-2.4,0-3.6,0.1l-4.2,0.3l5.5,22.9	c-0.6,0.1-1.2,0.2-1.8,0.3c-7,1.1-13.9,2.2-19.3,4.4L59,89.7l-45.3,50.2l-0.9,1c-0.7,0.7-1,1.7-0.9,2.7c0.1,1,0.6,1.9,1.4,2.5	l35.6,28C18.6,199,0,233.1,0,270.7c0,75.8,69.6,137.2,168.9,137.2s168.9-61.4,168.9-137.2C337.8,233.1,319.1,199,288.9,174.2"/><path class="st0" d="M168.9,267.8c-0.8,0-1.6-0.3-2.2-0.8L64.5,186.6c-22.2,22.9-35.7,53.1-35.7,86.2c0,71.4,69.9,129.2,140,129.2	s140-57.9,140-129.2c0-33.1-13.5-63.3-35.7-86.2l-102.1,80.4C170.4,267.6,169.7,267.8,168.9,267.8"/><path class="st1" d="M211.6,109c-12.6,0.6-26.8,0.9-42.8,0.9c-15.9,0-30.2-0.3-42.8-0.9c-6.1,14.6-9.4,33.8-9.4,59.6	c0,22.2,3.2,41.4,9,57.1l43.2,34l43.2-34c5.8-15.6,9-34.8,9-57.1C221.1,142.7,217.7,123.6,211.6,109"/><path class="st1" d="M270.2,179.8l46.8-36.9l-41-45.4c-1.9,1.1-4.2,2.1-6.7,3.1c3.9,10.3,6.1,22.3,6.1,36.6	C275.4,151.8,273.6,166.4,270.2,179.8"/><path class="st1" d="M68.4,100.5c-2.5-0.9-4.7-1.9-6.7-3.1l-41,45.4l46.8,36.9c-3.4-13.4-5.2-28-5.2-42.7	C62.3,122.9,64.5,110.8,68.4,100.5"/><path class="st0" d="M211.6,109c6.1,14.6,9.4,33.8,9.4,59.6c0,22.2-3.2,41.4-9,57.1l58.1-45.8c3.4-13.4,5.2-28,5.2-42.7	c0-14.2-2.2-26.3-6.1-36.6c-7.1,2.6-16.5,4.5-28.4,6.1C232.5,107.6,222.7,108.4,211.6,109"/><path class="st0" d="M116.7,168.5c0-25.8,3.4-44.9,9.4-59.6c-11-0.5-20.8-1.3-29.3-2.4c-11.9-1.5-21.3-3.4-28.4-6.1	c-3.9,10.3-6.1,22.3-6.1,36.6c0,14.7,1.8,29.3,5.2,42.7l58.1,45.8C119.9,210,116.7,190.8,116.7,168.5"/><path class="st0" d="M241.6,70.8c3.3-1.2,7.3-2,11.7-2.1l-3.6,15c-3.1-0.5-6-1-8.5-1.6c-3.1-0.7-5.6-1.6-7-2.4	c-0.7-0.4-1.1-0.8-1.2-1c-0.1-0.2-0.1-0.2-0.1-0.4c0-0.7,0.3-1.6,1.2-2.7C235.4,73.9,238,72.1,241.6,70.8"/><path class="st0" d="M84.4,68.6c6.1,0.2,11.3,1.6,15,3.6c1.9,1,3.4,2.2,4.3,3.3c0.9,1.1,1.2,2,1.2,2.7c0,0.2,0,0.2-0.4,0.6	c-0.7,0.8-3.1,2-6.5,2.8c-2.8,0.8-6.3,1.4-10,2"/><path class="st0" d="M149.7,206.6h-3v-2.1h0.5c1.4,0,2.5-0.2,3.1-1.8h2.4v9.6h-3"/><path class="st0" d="M162.7,205.8c0-0.6-0.6-1.2-2.1-1.2c-1.7,0-2.1,0.6-2.1,1.2c0,0.7,0.5,1.3,2.1,1.3	C162.5,207.1,162.7,206.5,162.7,205.8 M158.6,209.7c0.2,0.6,0.9,0.9,1.9,0.9c2,0,2.4-1.1,2.5-2.2c-0.8,0.5-1.8,0.7-3,0.7	c-2.3,0-4.8-0.5-4.8-3.2c0-2,1.7-3.3,5.2-3.3c3.3,0,5.8,0.9,5.8,5.1c0,3.6-2.3,5-5.7,5c-2.4,0-4.9-0.6-5.2-2.9"/><path class="st0" d="M174.1,204.9l-3.6,3.8h3.6V204.9z M174.1,210.8h-6.6v-2.2l5.5-5.8h4v6h1.8v2.1h-1.8v1.6h-2.9"/><path class="st0" d="M183.5,209.4c0,0.6,0.6,1.2,2.1,1.2c1.7,0,2.1-0.6,2.1-1.2c0-0.7-0.5-1.3-2.1-1.3	C183.7,208.1,183.5,208.8,183.5,209.4 M191,209.4c0,2-1.7,3.3-5.2,3.3c-3.3,0-5.8-0.9-5.8-5.1c0-3.6,2.3-5,5.7-5	c2.4,0,4.9,0.6,5.2,2.9h-3.3c-0.2-0.6-0.9-0.9-1.9-0.9c-2,0-2.4,1.1-2.5,2.2c0.8-0.5,1.8-0.7,3-0.7C188.4,206.1,191,206.7,191,209.4"/><path class="st1" d="M97.2,323.1h39.3v9.5h-24v5.9h22.1v9.5h-22.1v14H97.2"/><path class="st1" d="M139.9,323.1h15.3v23.5c0,5,2.9,6.6,7.9,6.6c5,0,7.9-1.6,7.9-6.6v-23.5h15.3v24.1c0,12.3-7.4,16.1-23.2,16.1	s-23.2-3.8-23.2-16.1"/><path class="st1" d="M202,345.4c-7.5-1.1-10.6-5.5-10.6-10.9c0-10.1,9.8-12.8,22.5-12.8c17.3,0,24.4,4.5,25,12.7H221	c0-1.6-0.9-2.6-2.3-3.1c-1.4-0.6-3.1-0.8-4.8-0.8c-4.6,0-6.1,1.1-6.1,2.8c0,1.1,0.5,1.8,2,2l18.3,2.7c7.7,1.1,12.5,4.7,12.5,11.3	c0,9.5-7.7,13.9-25,13.9c-11.8,0-24.7-1.6-24.7-13.1h18.5c0.1,1.3,0.5,2.2,1.6,2.8c1.1,0.5,2.8,0.8,5.2,0.8c4.8,0,6.1-1.3,6.1-3.2	c0-1.1-0.7-2.3-2.8-2.6"/><path d="M285.7,219c-4-13.3-9.2-20.1-11.7-21.7c0,0-7.6,10.6-7.6,33c0,14.1,2.3,25.2,2.3,39.9c0,1.6-0.2,3.4-0.2,4.8	c0,1.5-0.1,2.7,0.6,2.7c1.4,0,3.1-8.1,3.7-14.5c0.6-6,0.8-12.2,0.8-15.1c0-9.2-1.4-13.6-0.8-26.4c6.1,14.2,14.6,29.8,14.6,42.5	c0,13.2-7.5,22.4-16.7,30.1c-19.7,16.4-20.1,10.4-28.1,16.5c0,0,3.6,0.9,10.8,0.9c10.5,0,19.2-3.8,25.5-9.6	c10.2-9.3,14.7-24,14.7-42.5C293.6,246.6,288.7,229.1,285.7,219"/><path d="M194,284.1c0,0-5,3.6-9,3.6c-1.4,0-2.6-0.3-3.6-1.5c-1.1-1.4-2.3-4.5-2.3-6.3c0-3.8,2.8-6.9,6.3-6.9	C190.2,272.9,194.5,277.3,194,284.1 M80.6,260.4c-2.7,1.9-6.7,4-7.5,4c-2.2,0-6.7-4.6-6.7-5.3c0-0.3,2.2-2.4,5.5-4.1	c3.2-1.6,10.8-3.9,14.2-3.9c1.5,0,2.7,1,2.7,2.1C88.7,254.2,84.7,257.6,80.6,260.4 M236.6,219c-4-13.3-7.7-20.6-10.1-22.2	c0,0-7.2,11.1-7.2,28.7c0,17.9,2.1,33.3,2.2,40.9c0.1,7.2,0.1,9.7,0.9,9.7c1.2,0.2,1.6-0.7,1.8-3.4c0.2-3,1-7.6,1-16.9	c0-16.1-0.9-17.8-0.9-32.5c6.1,14.2,15.5,29.9,15.5,45.8c0,5.7-1.9,10.3-8.5,15.1c-7.6,5.6-12.6,6.7-23.1,6.7	c-7.1,0-10.5-0.2-12-0.5c3.1-6.1,6.7-14.5,6.7-20.5c0-6.8-5-12.3-11.1-12.3c-8.1,0-16.9,20.3-19.9,32.4c-1.6,0.5-5,1-12.2,1	c-9.8,0-14.5-1.4-17.6-4.3c-5.5-5.2-5.8-13.4-9.1-15.2c-6.4,12.1-13.8,19.4-32,19.4c-6.3,0-10.7-0.8-12.8-3.3	c-2.5-2.9-2.4-8.8-3.1-16.9c7.8-8.1,12.9-18.5,12.9-30.3c0-4.8-1.5-5.9-3.3-5.9c-14.7,0-39.1,15.6-39.1,31.4c0,3.9,2.2,7.8,5.3,10.7	c-3.4,5.1-11.3,18.5-11.3,33.6c0,14.6,5.1,24.7,13.4,33.4c14.3,15,46.2,31.7,60.6,35.6c-14.6-6.1-41.3-19.9-55.4-39.6	c-5.6-7.9-8.5-16.3-8.5-26.6c0-18.4,12.8-31.6,22.1-39.3c-0.8,5.6-3.2,9.6-3.2,15.3c0,5.2,2.1,11,6,14.2c3.4,2.8,6.2,3.5,14.4,3.5	c10.2,0,16.7-2,21.5-6.6c4.4-4.3,4.6-9.2,6.2-9.2c2.3,0,2.7,5.8,6.7,9.7c4.9,4.8,11,6.1,21.5,6.1c13.5,0,24.5-4.2,24.5-4.2	c8.5,4.2,11.9,4.2,26.6,4.2c12.4,0,21,0.2,30.6-15.9c4.4-7.3,9-19,9-31.1C245.6,249.6,239.5,229.1,236.6,219"/><path class="st0" d="M206,239.1c-3.4-3.4-6.7-6-10.9-8.7l-1.9-1.2l-1.4,1.8c-0.7,0.9-1.6,1.8-2.4,2.8c-2.4,2.7-4.9,5.5-6,8.9	l-0.6,1.7l1.4,1.1c3.7,2.7,7,5.4,10.1,8.1l1.7,1.5l1.6-1.6c2.6-2.5,7.2-7.4,8.9-11.6l0.6-1.5"/><path class="st0" d="M150.5,245.5c-2-2.6-4.1-5.3-6.7-6.3l-1.5-0.6l-1.1,1.1l-9.5,9.2l-2.2,2.1l2.4,1.7c1.9,1.4,3.1,2.9,4.4,4.4	c1.3,1.6,2.6,3.2,4.7,4.8l1.5,1.1l1.5-1.1c0.2-0.1,5-3.6,9.6-10.1l1.2-1.7l-1.5-1.5C152.3,248,151.4,246.8,150.5,245.5"/><path d="M185.7,243.4c1.4-4.1,5.2-7.4,8.1-11c4.3,2.8,7.3,5.3,10.5,8.4c-1.3,3.4-5.2,7.8-8.3,10.8	C192.5,248.6,189,245.9,185.7,243.4"/><path d="M151.5,250.6c-2.8-2.8-5.5-7.8-8.6-9l-9.5,9.2c4.2,2.9,5.4,6.3,9.2,9.3C142.5,260.1,147.1,256.9,151.5,250.6"/><path d="M131,251c-1.5-3.2-5.6-6-7.2-8.5c-5.8,3.4-10,8.6-10,8.6c3.9,6.3,7.6,9.2,7.6,9.2c6.4-3.7,6.6-8.3,12.4-9.4"/><path class="st0" d="M165.6,150.5l-0.8,2.3h29.4l-13.8,10.2l0.8,2.3l19.9-14.7"/><path class="st0" d="M178,167.7l-0.8-2.3l-23.4,17.3l5-14.7l-1.9-1.4l-7.6,22.3"/><path class="st0" d="M166.3,172.4l1.9-1.4l-24.7-18.2h17.2l0.8-2.3h-24.9"/><path class="st0" d="M158.2,162.6l1.9,1.4l8.7-25.7l3.8,11.3h2.4l-6.3-18.5"/><path class="st0" d="M180.6,165.7l-4.1-12.1h-2.4l9.9,29.1l-12.4-9.2l-1.9,1.4l18.9,13.9"/><path class="st1" d="M132.3,66.1c-0.5,1.1-1.4,2.3-1.2,3.9c0.2,1.3,1.2,1.3,2.5,1.6c0.6,0.1,1.6,0.2,1.9,0.5c0.2,0.3,0.1,0.7,0,1.2	c-0.3,1.3-0.6,2.6-0.4,3.9c1.7,0.3,2.8-0.7,3.8-1.5c0.3-0.3,0.7-0.8,1-0.8c0.5-0.1,1.3,0.2,1.9,0.2c2,0.2,4.1,0.5,6.1,0.1	c0.2-0.6,0.6-1.2,0.4-2c-1.2-0.5-2.8-0.7-3.8-1.5c0.4-1.1,1.1-2.7,1-4.1c-0.1-1.6-1.2-1.5-2.2-2.1c-0.4-0.2-0.6-0.5-0.9-0.9	c-0.7-0.2-1.4-0.4-1.6-1c-0.1-0.3,0-0.9,0.1-1.3c0.1-3.4-0.9-5.8-1.8-8.9c-0.8-2.9-0.9-6.2-2.5-8.2c-0.2-0.3-0.7-0.7-1-0.8	c-1.7-0.8-3.4,0.5-4.4,1.4c-0.8,0.7-1.6,1.4-2,2.1c-0.4,0.6-0.6,1.4-0.9,2c-0.3,0.7-0.6,1.3-0.8,2.1C125.8,58.2,129,63.4,132.3,66.1 M144.8,86.6c2.9-0.8,5.1-1.8,5.1-2.7c0-0.8-2.1-2.4-4.1-2.7c-3.1,0-5.1,1.7-5.6,2.7C140.4,85.1,142.2,86.3,144.8,86.6 M152.6,68.4	c0.5,0.5,1,0.8,1.4,1.4c-0.7,1.1-2.4,2.1-1.9,4c0.1,0.5,0.9,1.2,1.4,1.5c1.1,0.6,2.9,0.4,3.7-0.3c0.3-0.2,0.3-0.5,0.4-0.7	c0.6-0.9,1.8-1.3,3.4-1.2c1.2,0.1,2.2,0.7,3.2,0.8c2.1,0.1,2.6-2,2.9-3.7c-0.5-0.5-1.3-0.6-1.8-1.1c-0.3-0.2-0.7-0.8-0.7-1.3	c0-0.5,0.8-1,1.2-1.4c0.7-0.7,1.9-1.5,1.6-2.9c-0.2-1-1.7-1.5-2.3-2.1c-0.3-0.2-0.5-0.6-0.7-0.8c-0.6-0.5-1.6-0.9-1.7-1.9	c-0.1-0.8,0.5-1.9,0.8-2.7c0.9-2.7,1.5-5.6,1.2-9.2c-0.2-3.1-1.2-5.9-2.3-8.2c-0.4-0.8-0.7-1.6-1.2-2.3c-0.5-0.7-1.5-1.3-2.4-1.9	c-1.1-0.7-2.6-1.6-4.3-1.2c-2.9,0.6-3.9,3.2-5.3,5.4c-1.6,2.4-2.1,6-1.6,9.7c0.2,1.5,0.3,2.8,0.7,3.9c1.2,3.4,3.5,6.1,5.4,8.8	c-0.4,1-1.5,2.2-2.1,3.4C150.9,65.8,150.4,68.6,152.6,68.4 M156.5,85.5c3.2,0.5,2.5-4.8-0.2-4.3C154.4,81.5,155,85.2,156.5,85.5 M168.9,85.3c1.7,0,3.9-1,3.9-2.3c0-1-1.7-2.5-3.9-2.5S165,82.1,165,83C165,84.3,167.2,85.3,168.9,85.3 M176.7,73	c1.6-0.1,2.8,0.3,3.4,1.2c0.1,0.2,0.2,0.5,0.4,0.7c0.9,0.8,2.7,1,3.7,0.3c0.6-0.3,1.3-1,1.4-1.5c0.6-2-1.1-2.9-1.9-4	c0.4-0.5,0.9-0.9,1.4-1.4c2.2,0.2,1.6-2.6,1-4c-0.5-1.3-1.6-2.4-2.1-3.4c1.9-2.7,4.2-5.3,5.4-8.8c0.4-1.2,0.6-2.4,0.7-3.9	c0.4-3.7,0-7.3-1.6-9.7c-1.4-2.1-2.4-4.7-5.3-5.4c-1.7-0.4-3.2,0.5-4.3,1.2c-0.9,0.6-1.9,1.2-2.4,1.9c-0.5,0.6-0.9,1.5-1.2,2.3	c-1.1,2.3-2,5.1-2.3,8.2c-0.3,3.6,0.3,6.5,1.2,9.2c0.2,0.8,0.8,1.9,0.8,2.7c-0.1,1-1.1,1.4-1.7,1.9c-0.2,0.2-0.4,0.5-0.7,0.8	c-0.7,0.6-2.1,1.1-2.3,2.1c-0.3,1.3,0.9,2.2,1.6,2.9c0.3,0.3,1.1,0.9,1.2,1.4c0,0.4-0.4,1-0.7,1.3c-0.5,0.5-1.4,0.7-1.8,1.1	c0.3,1.7,0.7,3.8,2.8,3.7C174.5,73.8,175.5,73.1,176.7,73 M181.2,85.5c1.5-0.2,2.2-3.9,0.2-4.3C178.7,80.6,178,86,181.2,85.5 M193,86.6c2.6-0.3,4.4-1.5,4.6-2.7c-0.5-1-2.5-2.7-5.6-2.7c-2,0.4-4.1,1.9-4.1,2.7C187.8,84.8,190.1,85.8,193,86.6 M197.9,74.9	c0.3,0.1,0.7,0.6,1,0.8c1,0.9,2.1,1.8,3.8,1.5c0.2-1.3-0.1-2.6-0.4-3.9c-0.1-0.5-0.2-0.9,0-1.2c0.2-0.3,1.3-0.4,1.9-0.5	c1.3-0.3,2.3-0.3,2.5-1.6c0.2-1.6-0.8-2.8-1.2-3.9c3.2-2.7,6.5-7.9,4.8-14.1c-0.2-0.8-0.5-1.4-0.8-2.1c-0.3-0.6-0.5-1.4-0.9-2	c-0.4-0.7-1.2-1.4-2-2.1c-1-0.9-2.7-2.2-4.4-1.4c-0.3,0.1-0.7,0.5-1,0.8c-1.6,2-1.7,5.3-2.5,8.2c-0.9,3.1-2,5.5-1.8,8.9	c0,0.4,0.1,1,0,1.3c-0.2,0.7-0.9,0.8-1.6,1c-0.3,0.4-0.5,0.7-0.9,0.9c-1.1,0.6-2.2,0.5-2.2,2.1c0,1.4,0.6,2.9,1,4.1	c-1,0.8-2.5,1-3.8,1.5c-0.2,0.8,0.3,1.4,0.4,2c2,0.4,4.1,0.1,6.1-0.1C196.6,75,197.4,74.8,197.9,74.9 M117.1,55.9	c-0.4-1-1.2-2-0.9-3.4c0.1-0.4,0.4-0.8,0.6-1.2c0.6-1.2,1-2.7,1.6-3.8c-0.1-3.7,4.3-2.9,4.4-6.4c2.2,0.3,2.9-1.2,4.2-2.1	c0.8-0.5,1.6-1,2.7-1.1c0.3,0,0.7,0.1,1.1,0.1c0.4,0,1-0.5,1.5-0.7c2.4-0.9,5.7-0.6,6.3-3.3c1.9-0.7,2.7-2.6,3.8-4.1	c0.7-0.1,1.3,0.1,2,0c0.9-0.1,1.4-1,2.1-1.4c1-0.6,2.2-1,3.4-1.4c1.2-0.4,2.6-0.8,4.2-0.8c4-0.2,7,1.4,8.7,3.7	c0.9,1.2,1.8,2.3,2.8,3.4c0.9,1.1,1.9,2.4,3.2,3c1.4-0.6,2.3-1.9,3.2-3c0.9-1.1,1.9-2.3,2.8-3.4c1.7-2.2,4.7-3.9,8.7-3.7	c1.6,0.1,2.9,0.4,4.2,0.8c1.2,0.4,2.4,0.8,3.4,1.4c0.7,0.4,1.2,1.3,2.1,1.4c0.7,0.1,1.4-0.1,2,0c1.1,1.5,1.9,3.3,3.8,4.1	c0.7,2.6,3.9,2.4,6.3,3.3c0.5,0.2,1.1,0.7,1.5,0.7c0.5,0,0.8-0.1,1.1-0.1c1.1,0.1,1.9,0.6,2.7,1.1c1.3,0.9,2,2.4,4.2,2.1	c0,3.6,4.4,2.8,4.4,6.4c0.6,1.1,1.1,2.7,1.6,3.8c0.2,0.5,0.5,0.8,0.6,1.2c0.3,1.4-0.4,2.4-0.9,3.4c0.4,0.8,1.4,2.2,0.9,3.6	c-0.2,0.4-1,1.1-1.3,1.6c-0.7,1.5,0,3.6-0.5,5c-0.4,1-1.2,1.3-2.1,1.6c-0.3,1.4-0.8,2.7-2,3.3c-2.8-0.8-4.8,0.8-5.2,3.1	c-5.4,1.7-7.3,7-8.7,12.8l-1.5,1.1h-62.7l-1.5-1.1c-1.4-5.7-3.3-11-8.7-12.8c-0.4-2.3-2.3-3.9-5.2-3.1c-1.2-0.6-1.6-1.9-2-3.3	c-0.9-0.3-1.7-0.7-2.1-1.6c-0.5-1.4,0.2-3.5-0.5-5c-0.3-0.6-1.1-1.2-1.3-1.6C115.7,58.2,116.7,56.8,117.1,55.9"/><path class="st1" d="M200.5,91.6h-63.3c-0.8,0-1.5,1-1.5,2.2s0.7,2.2,1.5,2.2h63.3c0.8,0,1.5-1,1.5-2.2S201.3,91.6,200.5,91.6"/><path class="st1" d="M170.3,14.3l1.3-1l0.9,2.6L170.3,14.3z M166.1,13.3l1.3,1l-2.2,1.6L166.1,13.3z M162.8,8.8h3.1l-0.6,1.8	L162.8,8.8z M167.7,8.8h2.4l1,2.8l-1.9,1.4c-0.1-0.1-0.2-0.1-0.3-0.1s-0.2,0.1-0.3,0.1l-1.9-1.4L167.7,8.8z M168.9,5.2l0.6,1.9h-1.3	L168.9,5.2z M174.9,8.8l-2.5,1.8l-0.6-1.8H174.9z M173,12.2l7-5.2h-8.8L168.9,0l-2.4,7.1h-8.8l7,5.2l-2.8,8.1l5.5-4	c-0.5,2-1.8,4-1.8,6.4c0,1.2,0.3,1.7,0.3,2.1c0,1-0.9,1.6-2.1,1.9l5.1,5.7l5.1-5.7c-1.3-0.3-2.1-0.8-2.1-1.9c0-0.4,0.3-0.9,0.3-2.1	c0-2.4-1.3-4.4-1.8-6.4l5.5,4"/></svg>