<svg version="1.1" id="Calque_1" xmlns="http://www.w3.org/2000/svg" x="0px" y="0px" viewBox="0 0 327.401 427.963" style="enable-background:new 0 0 327.401 427.963" xml:space="preserve"><path style="fill:#E22028" d="M163.347,192.881c-41.472,37.608-116.272,8.357-116.272,8.357v105.626 c1.763,48.201,60.591,54.73,60.591,54.73c49.491,10.904,51.972,39.175,51.972,39.175c1.849,0,5.571,0,7.42,0 c0,0,2.481-28.271,51.972-39.175c0,0,58.828-6.529,60.591-54.73V201.239C279.619,201.239,204.819,230.489,163.347,192.881z"/><path style="fill:#FFFFFF" d="M245.824,346.574c17.409-9.031,26.576-22.431,27.25-39.827v-96.764 c-8.808,2.711-23.575,6.524-40.422,7.869v134.132C236.725,350.685,241.281,348.93,245.824,346.574z"/><path style="fill:#FFFFFF" d="M173.452,207.774v168.628h0.404c7.883-7.608,20.408-15.304,40.295-20.172V218.176 C198.576,217.432,184.963,213.949,173.452,207.774z"/><path style="fill:#FFFFFF" d="M153.895,207.125c-11.467,6.422-25.084,10.099-40.7,10.993V356.54 c19.18,4.88,31.365,12.412,39.085,19.862h1.614V207.125H153.895z"/><path style="fill:#FFFFFF" d="M53.065,209.983v96.764c0.233,22.425,18.129,38.452,40.045,45.126V217.819 C76.421,216.448,61.807,212.674,53.065,209.983z"/><path style="fill:#E22028" d="M227.092,73.962c0,0,0.816-1.355,0.832-5.533c0.016-4.13-6.121-10.202-11.312-5.24 c-1.526,1.459-1.769,1.937-3.428,3.722c0,0-7.247-11.361-17.041,3.526c0,0-4.179,4.832-11.23-2.416c0,0-0.098,0.228,0-3.983 c1.434-1.596,2.17-2.949,2.766-4.192c0,0,3.241-10.825-6.814-10.172c0,0-9.924,2.35-2.35,13.711c0,0,4.701,6.856-10.186,4.701 c0,0,0.133-0.191,0.341-0.52c7.171-4.844,4.75-16.098-3.807-17.548c-0.511-0.13-1.047-0.248-1.627-0.345 c-0.426,0.084-0.823,0.181-1.212,0.282c-8.793,1.076-11.544,12.657-4.253,17.588c0.226,0.343,0.372,0.543,0.372,0.543 c-14.886,2.155-10.186-4.701-10.186-4.701c7.574-11.361-2.35-13.711-2.35-13.711c-10.055-0.653-6.814,10.172-6.814,10.172 c0.595,1.244,1.332,2.596,2.766,4.192c0.098,4.211,0,3.983,0,3.983c-7.051,7.247-11.23,2.416-11.23,2.416 c-9.794-14.886-17.041-3.526-17.041-3.526c-1.659-1.784-1.902-2.263-3.428-3.722c-5.191-4.962-11.328,1.11-11.312,5.24 c0.017,4.179,0.832,5.533,0.832,5.533c-11.752,7.443,4.897,14.886,4.897,14.886c-11.752,13.515,10.577,12.732,10.577,12.732 c-8.618,12.144,8.031,11.165,8.031,11.165c-12.928,15.67,16.845,9.01,16.845,9.01c6.66,9.206,23.505,7.835,23.505,7.835 s16.845,1.371,23.505-7.835c0,0,29.773,6.66,16.845-9.01c0,0,16.649,0.979,8.031-11.165c0,0,22.33,0.784,10.577-12.732 C222.195,88.848,238.845,81.405,227.092,73.962z"/><path style="fill:#FFFFFF" d="M163.237,117.923c6.448,0,11.675,2.105,11.675,4.701c-0.446,6.211-22.91,6.205-23.35,0 C151.562,120.028,156.789,117.923,163.237,117.923z"/><path style="fill:#FFFFFF" d="M176.165,109.304c3.226,0.12,3.224,7.718,0,7.836C172.939,117.02,172.941,109.422,176.165,109.304z"/><path style="fill:#FFFFFF" d="M163.237,105.387c3.226,0.12,3.224,7.718,0,7.836C160.011,113.103,160.013,105.505,163.237,105.387 z"/><path style="fill:#FFFFFF" d="M150.309,109.304c3.226,0.12,3.224,7.718,0,7.836C147.083,117.02,147.085,109.422,150.309,109.304z"/><path style="fill:#FFFFFF" d="M186.551,119.49c0,0,1.241-8.031,17.563-15.474c0,0,25.007-19.13,16.519-27.488 c0,0-4.804-7.476-19.849,0c0,0-12.965,0.947-19.587-4.57h-7.089c0,0,9.244,14.364-2.901,20.828c0,0,0.783,4.113,4.505,2.938 c0,0,20.371-19.783,32.907-18.021c0,0,10.05,1.681,2.35,9.402c0,0-9.244,8.145-13.101,10.492l0.271,4.786l-13.907,10.088 C184.233,112.471,183.287,119.36,186.551,119.49z"/><path style="fill:#FFFFFF" d="M181.785,95.724h14.103c0,0,18.412-11.557,10.577-15.082 C206.465,80.642,193.146,82.013,181.785,95.724z"/><path style="fill:#FFFFFF" d="M140.483,119.49c0,0-1.241-8.031-17.563-15.474c0,0-25.007-19.13-16.519-27.488 c0,0,4.804-7.476,19.849,0c0,0,12.965,0.947,19.588-4.57h7.089c0,0-9.244,14.364,2.901,20.828c0,0-0.783,4.113-4.505,2.938 c0,0-20.371-19.783-32.907-18.021c0,0-10.05,1.681-2.35,9.402c0,0,9.244,8.145,13.101,10.492l-0.271,4.786l13.907,10.088 C142.801,112.471,143.747,119.36,140.483,119.49z"/><path style="fill:#FFFFFF" d="M145.249,95.724h-14.103c0,0-18.412-11.557-10.577-15.082 C120.569,80.642,133.888,82.013,145.249,95.724z"/><path style="fill:#E22028" d="M163.139,24l4.185,9.837h11.238l-9.169,5.777l3.278,10.14l-9.532-6.079l-9.531,6.079l3.277-10.14 l-9.169-5.777h11.238L163.139,24z"/><path style="fill:#E22028" d="M163.064,132.633c-2.867,1.921-23.399,14.44-52.025,7.193c0,0-45.443-8.227-52.103,13.711 c0,0-0.905,6.482-1.395,7.117c0,0-6.513,3.724-1.152-10.643c0,0,4.505-8.227,19.587-14.103c0,0,41.721-8.618,11.948-53.67 c0,0-0.105,2.712-1.371,6.66c0,0-3.134,8.423-5.876,8.227c0,0-5.002-2.577-6.072-12.928V72.444c0,0,1.306-9.402,3.787-11.753 c0,0-22.199,9.01-17.498,35.257c0,0,4.309,20.371-21.938,33.69s-19.587,44.268,10.577,59.546s71.299,10.186,63.464,0 c0,0-7.579-5.082,49.885-7.045c57.462,1.963,49.883,7.045,49.883,7.045c-7.835,10.186,33.299,15.278,63.464,0 s36.824-46.227,10.577-59.546s-21.938-33.69-21.938-33.69c4.701-26.247-17.498-35.257-17.498-35.257 c2.481,2.351,3.787,11.753,3.787,11.753v11.752c-1.576,10.742-6.072,12.928-6.072,12.928c-2.742,0.196-5.876-8.227-5.876-8.227 c-0.988-3.622-1.371-6.66-1.371-6.66c-29.773,45.051,11.948,53.67,11.948,53.67c15.082,5.876,19.587,14.103,19.587,14.103 c5.361,14.366-1.152,10.643-1.152,10.643c-0.49-0.635-1.395-7.117-1.395-7.117c-6.66-21.938-52.103-13.711-52.103-13.711 C186.098,147.073,165.931,134.553,163.064,132.633"/><path style="fill:#FFFFFF" d="M255.972,75.219c0,0,6.863,8.229,6.529,27.945c0,0,0.987,19.46,17.498,26.498 c0,0,29.773,13.199,10.447,38.532c0,0-27.945,33.691-67.903,25.855c0,0-4.628-5.613,13.32-5.746l22.518-22.983 c0,0,22.403,3.918,16.918-16.715c0,0,0-6.55-29.512-18.945c0,0-23.504-7.694-9.663-35.9c0,0,4.962,11.23,9.924,11.23 C246.047,104.992,255.711,103.948,255.972,75.219z"/><path style="fill:#FFFFFF" d="M69.238,75.219c0,0-7.24,7.837-6.529,27.945c0,0,0.856,19.46-17.498,26.498 c0,0-29.773,13.199-10.447,38.532c0,0,27.945,33.691,67.903,25.855c0,0,4.628-5.613-13.319-5.746L66.83,165.32 c0,0-22.403,3.918-16.918-16.715c0,0,0-6.55,29.512-18.945c0,0,23.504-7.694,9.663-35.9c0,0-4.962,11.23-9.924,11.23 C79.162,104.992,69.499,103.948,69.238,75.219z"/><path style="fill:#FFFFFF" d="M221.048,145.474c0,0-34.474,3.002-39.828,0.26c0,0-9.924-0.783-18.151-9.794 c-8.227,9.01-18.151,9.794-18.151,9.794c-5.354,2.742-39.828-0.26-39.828-0.26c-36.041-3.133-36.621,12.796-36.621,12.796 l25.205,26.378l8.674,0.522c9.271-7.313,60.721-9.01,60.721-9.01l0,0c0,0,51.45,1.698,60.721,9.01l8.673-0.522l25.205-26.378 C257.669,158.27,257.089,142.342,221.048,145.474z"/><g><path style="fill:#E22028" d="M63.488,246.671h8.28v9.273h4.201v-9.273h8.31v26.498h-8.31V262.45h-4.201v10.718h-8.28 C63.488,273.168,63.488,246.671,63.488,246.671z"/><path style="fill:#E22028" d="M136.456,246.671h8.265v15.787c0.128,6.048-3.31,11.516-9.869,11.162 c-7.563,0.316-10.816-4.087-10.952-11.163c0,0,0-15.787,0-15.787h8.265v16.163c0,1.445-0.108,2.71,0.202,3.386 c0.39,0.73,0.785,1.219,1.951,1.219c1.197-0.146,1.361-0.342,1.936-1.201c0.319-0.728,0.202-1.935,0.202-3.404V246.671z"/><path style="fill:#E22028" d="M183.142,264.402l6.387-0.488c0.138,1.265,0.42,2.23,0.845,2.892 c0.965,1.764,3.843,2.173,5.179,0.787c1.018-1.041,1.045-2.685,0.037-3.751c-0.494-0.542-1.64-1.054-3.439-1.536 c-2.944-0.807-5.044-1.88-6.298-3.217c-2.179-2.196-2.473-6.199-0.927-8.974c1.722-2.997,4.443-3.878,8.262-3.895 c5.533,0.029,8.379,2.343,8.951,7.899l-6.328,0.452c-0.317-2.151-1.157-3.389-3.29-3.416c-1.824-0.164-3.116,1.855-1.867,3.218 c0.316,0.35,1.067,0.675,2.253,0.976c2.934,0.771,5.036,1.552,6.305,2.341c5.41,3.136,4.513,12.071-0.748,14.821 c-3.322,1.921-11.018,1.325-12.908-1.492C184.135,269.282,183.329,267.077,183.142,264.402z"/><path style="fill:#E22028" d="M254.733,268.794h-7.622l-1.058,4.374h-6.855l7.382-26.498h8.889l7.381,26.498h-7.03 L254.733,268.794z M253.34,263.064l-2.399-9.525l-2.373,9.525H253.34z"/></g><g><path style="fill:#E22028" d="M256.131,319.057c-3.672,0-6.66-2.987-6.66-6.66c0.334-8.823,12.987-8.821,13.32,0 C262.791,316.07,259.803,319.057,256.131,319.057z M256.131,308.088c-5.695,0.181-5.693,8.437,0,8.618 C261.826,316.525,261.824,308.269,256.131,308.088z"/></g><g><path style="fill:#E22028" d="M134.179,301.82c-3.672,0-6.66-2.987-6.66-6.66c0.334-8.823,12.987-8.821,13.32,0 C140.839,298.833,137.85,301.82,134.179,301.82z M134.179,290.851c-5.695,0.181-5.693,8.437,0,8.618 C139.874,299.288,139.872,291.032,134.179,290.851z"/></g><g><path style="fill:#E22028" d="M134.179,319.057c-3.672,0-6.66-2.987-6.66-6.66c0.334-8.823,12.987-8.821,13.32,0 C140.839,316.07,137.85,319.057,134.179,319.057z M134.179,308.088c-5.695,0.181-5.693,8.437,0,8.618 C139.874,316.525,139.872,308.269,134.179,308.088z"/></g><g><path style="fill:#E22028" d="M198.198,317.541c-7.668,0-13.907-6.239-13.907-13.907c0.764-18.449,27.052-18.444,27.814,0 C212.105,311.302,205.867,317.541,198.198,317.541z M198.198,292.078c-6.372,0-11.557,5.184-11.557,11.557 c0.635,15.332,22.482,15.327,23.114,0C209.755,297.262,204.57,292.078,198.198,292.078z"/></g><path style="fill:#E22028" d="M198.198,300.644c3.943,0.1,3.943,5.881,0,5.98C194.255,306.524,194.255,300.743,198.198,300.644z"/><polygon style="fill:#E22028" points="77.257,301.69 83.565,288.991 79.256,288.991 64.663,318.96 68.678,318.96 75.323,305.583 75.323,305.583 81.9,318.96 86.307,318.96"/><path style="fill:#E22028" d="M77.297,295.846"/><g><path style="fill:#E22028" d="M122.006,170.293l0.506-0.012c1.449,0.057,3.099-0.193,3.646-0.759 c1.085-2.006,1.039-5.93-0.242-8.275l-1.415,2.603c0.377,0.506,0.63,1.104,0.758,1.797c-0.585,0.497-2.122,0.341-2.909,0.363 c-1.406,0.139-1.953-0.516-2.728-2.708l-1.535,2.754c0.283,0.872,0.673,1.56,1.172,2.066c-1.528,3.548-3.83,5.027-6.971,4.003 c3.537,5.9,6.136,2.789,7.739-2.86c0.489,0.565,1.065,0.88,1.719,0.974C121.82,170.273,121.905,170.293,122.006,170.293z"/><polygon style="fill:#E22028" points="126.037,171.832 124.663,173.653 123.077,172.101 121.774,173.863 123.34,175.485 124.663,173.676 126.239,175.205 127.603,173.361"/><path style="fill:#E22028" d="M129.09,165.414h0.142c0.154,1.68,5.024,0.77,5.667,0.21c-0.435-1.816-1.568-4.892-3.497-3.349 l-0.151-0.035c0.327-3.458,1.202-5.042,3.516-1.741c1.738,2.629,1.788,6.347,0.616,9.266c-0.996,0.68-4.756,1.366-6.051,0.298 C128.438,169.116,128.881,166.775,129.09,165.414z"/><path style="fill:#E22028" d="M149.085,157.28l0.95-2.346c-2.207,0.382-4.593,1.163-6.637,2.055 c-0.66,0.901-1.127,2.272-1.222,3.396c0.053,0.801,0.83,1.493,1.323,2.053l0.151-0.257c0.826,1.112,1.539,2.112,1.9,3.419 c-0.903,0.682-3.534,0.295-4.597,0.404c-0.886-0.256-0.784-1.105-0.93-2.213c0,0-0.617-8.648-0.617-8.648l-1.444,2.685 c0.339,1.895,0.661,4.095,0.737,5.542c0.098,2.138,0.411,4.956,0.778,5.672c0.295,0.722,0.798,1.108,1.485,1.198 c0.068,0.022,0.137,0.043,0.224,0.043c1.241-0.019,3.008,0.115,4.167-0.357c0.172-0.066,0.278-0.131,0.318-0.193 c0.719-1.163,1.247-2.486,1.243-3.827c-0.01-2.538-1.684-4.716-3.102-6.665C145.473,158.345,147.159,157.747,149.085,157.28z"/><path style="fill:#E22028" d="M153.804,153.323l-0.455,1.027c-0.916,0.086-1.812,0.428-2.687,1.027l-0.041-0.094 c0.216-0.428,0.451-0.762,0.707-1.004c-0.952-0.726-0.606-1.087,0.01-2.113c0.804-1.272,2.378-0.938,1.616,0.631 c-0.404-0.694-0.921-0.349-1.586,0.117C151.864,153.705,153.06,153.669,153.804,153.323z M151.41,157.968l1.586-2.789 c-0.02,0.179-0.03,0.358-0.03,0.537l-0.02,0.642l0.02,0.7c0.07,1.762,0.277,3.92,0.425,5.789c0.233,2.681,0.652,4.748-0.91,7.306 l-0.061,0.117l-0.172,0.023c0.224-1.473-0.026-3.401-0.181-5.369C151.891,163.022,151.567,160.07,151.41,157.968z"/><g><polygon style="fill:#E22028" points="172.29,156.427 173.866,157.956 175.23,156.112 173.654,154.583 172.289,156.404 170.693,154.84 169.39,156.614 170.966,158.236"/><polygon style="fill:#E22028" points="177.713,173.664 176.127,172.112 174.824,173.874 176.39,175.508 177.713,173.688 179.289,175.217 180.653,173.373 179.088,171.844"/><polygon style="fill:#E22028" points="185.624,159.882 183.826,157.991 182.462,159.823 184.26,161.609"/><path style="fill:#E22028" d="M211.338,163.468c-1.147-0.33-3.479-2.056-4.631-2.468c-2.449-1.083-4.566,0.731-5.011,3.28 l0.142,0.117c1.702-1.68,4.292-0.654,6.465,0.759c-0.842,0.568-1.903,0.852-3.182,0.852h-5.207l-0.532-0.022 c-0.754,0-1.343-0.591-1.767-1.774l-0.131,0.058l-0.627,2.054c-0.579-0.093-1.047-0.323-1.404-0.689l-0.272-1.949l-0.111,0.082 c-0.445,1.113-0.849,1.785-1.213,2.019c-0.363,0.27-2.102,0.35-2.768,0.07l0.303-1.855l-0.101,0.012 c-0.505,0.81-0.977,1.345-1.414,1.605c-0.676,0.49-2.468,0.386-3.418,0.391c-1.201,0.115-1.826-0.46-2.208-2.207l-0.121,0.012 l-0.707,1.914c-0.609,0.322-0.901,0.286-1.445,0.28c0,0-1.263,0-1.263,0c-1.199,0.117-1.821-0.463-2.203-2.206l-0.121,0.012 l-0.707,1.914c-0.609,0.323-0.901,0.285-1.445,0.28c-0.365-0.003-1.356,0.002-1.707,0c-0.829,0.035-1.257-0.676-1.383-2.159 c0,0-0.414-5.229-0.414-5.229l-1.415,2.487l0.192,1.4c-3.88,1.674-3.663,1.568-4.991,5.17c0.484,1.043,1.801,1.732,3.95,2.066 c0.552-0.677,1.078-1.645,1.576-2.906h0.061c0.337,2.146,0.642,3.695,2.786,3.438c0.944,0.077,1.957-0.134,2.092-0.451 l0.9-2.089l0.143-0.105c0.074,0.879,0.867,2.594,1.777,2.649c0.02-0.006,0.816,0.008,0.836-0.003 c0.948,0.075,1.947-0.136,2.083-0.452l0.9-2.089l0.143-0.105c0.074,0.879,0.867,2.594,1.777,2.649c0,0,0.719,0,0.719,0 c1.043,0.02,2.026,0.091,2.956-0.688l0.091,0.012l-0.273,0.852c0.179,0.096,0.444,0.121,0.657,0.14 c1.389-0.06,2.368-0.318,4.253-1.156c1.24,0.778,2.233,1.167,2.981,1.167l0.515-0.023l0.373-1.05 c0.101,0.085,0.179,0.147,0.232,0.185c0.677,0.54,0.84,0.545,1.683,0.56c0,0,2.632,0,2.632,0l0.596-0.023 c1.254-0.148,2.489-0.584,3.708-1.307l0.394-0.245l0.444-0.233c1.402-0.848,2.898-1.389,4.627-1.365l1.717-3.139 C212.874,163.889,212.037,163.723,211.338,163.468z M169.794,165.519c0.465-0.653,1.098-1.217,1.9-1.692l0.353,2.369 C171.3,166.196,170.549,165.97,169.794,165.519z"/></g><polygon style="fill:#E22028" points="146.161,150.657 148.051,151.759 147.177,153.88 145.276,152.78 144.433,154.857 142.519,153.664 143.355,151.638 145.271,152.758"/><polyline style="fill:#E22028" points="143.12,151.038 144.01,148.937 145.901,150.039 145.027,152.16 143.126,151.06"/></g></svg>