<svg version="1.1" id="Layer_3" xmlns="http://www.w3.org/2000/svg" x="0px" y="0px" viewBox="0 0 432.401 427.963" style="enable-background:new 0 0 432.401 427.963" xml:space="preserve"><path style="fill:#FFFFFF" d="M215.567,411.291c0,0-140.269-48.003-141.715-218.536c16.692-1.783,29.693-15.907,29.693-33.071 c0-17.175-13.019-31.308-29.726-33.075v-3.02V74.046l91.3-63.698h0.261c8.975,18.684,28.074,31.583,50.187,31.583"/><path style="fill:#FFFFFF" d="M215.402,411.958c0,0,140.269-48.003,141.715-218.536c-16.692-1.783-29.693-15.907-29.693-33.071 c0-17.175,13.019-31.308,29.726-33.075v-3.02V74.713l-91.3-63.698h-0.261c-8.976,18.684-28.074,31.583-50.187,31.583"/><path style="fill:#2126FF" d="M357.413,129.763l2.237-0.237V73.409L266.636,8.515h-2.619l-0.682,1.417 c-8.803,18.325-27.617,30.166-47.933,30.166v5c21.298,0,41.087-11.893,51.177-30.526l88.071,61.445v49.08 c-17.097,2.891-29.726,17.667-29.726,35.254c0,17.56,12.602,32.328,29.666,35.244c-0.59,37.63-8.133,72.182-22.43,102.727 c-11.654,24.899-27.804,47.223-48.001,66.35c-31.573,29.902-63.387,42.615-68.759,44.625c-5.372-2.01-37.186-14.723-68.759-44.625 c-20.197-19.127-36.347-41.451-48.001-66.35c-14.297-30.545-21.839-65.097-22.43-102.727 c17.065-2.916,29.667-17.684,29.667-35.244c0-17.586-12.629-32.363-29.726-35.254v-49.08l88.071-61.445 c10.089,18.633,29.878,30.526,51.177,30.526v-5c-20.315,0-39.131-11.841-47.934-30.166l-0.681-1.417h-2.62L71.152,73.409v56.117 l2.237,0.237c15.671,1.657,27.489,14.808,27.489,30.588c0,15.765-11.805,28.914-27.458,30.585l-2.253,0.241l0.019,2.266 c0.333,39.26,8.068,75.304,22.99,107.13c11.948,25.483,28.499,48.323,49.193,67.883c35.238,33.307,69.77,45.369,71.223,45.866 l0.811,0.226l0.81-0.226c1.453-0.497,35.985-12.56,71.223-45.866c20.694-19.561,37.245-42.4,49.193-67.883 c14.922-31.826,22.656-67.87,22.989-107.13l0.02-2.266l-2.254-0.241c-15.653-1.672-27.458-14.821-27.458-30.585 C329.925,144.57,341.742,131.42,357.413,129.763z"/><path style="fill:#8B5354;stroke:#3853A3;stroke-miterlimit:10" d="M214.23,415.275"/><path style="fill:#2126FF" d="M345.58,118.42l1.7-0.6V87.07l-77.14-59.83h-2.69l-0.69,1.46c-7.97,16.87-32.78,27.32-51.19,27.32	c-15.76,0-42.2-9.95-50.07-26.6l-0.68-1.46h-2.67L83.87,87.05v30.77l1.7,0.6c16.54,5.84,27.66,21.74,27.66,39.55	c0,17.77-11.09,33.66-27.6,39.52l-1.73,0.61l0.03,1.86c0.5,36.11,7.68,69.26,21.33,98.54c10.94,23.45,26.02,44.47,44.84,62.48	c32.03,30.65,64.58,42.09,65.9,42.55c1.31-0.46,33.02-11.9,65.05-42.55c18.82-18.01,33.9-39.03,44.83-62.48	c13.66-29.28,20.84-62.43,21.34-98.54l0.02-1.86l-1.72-0.61c-16.51-5.86-27.6-21.75-27.6-39.53	C317.92,140.16,329.04,124.26,345.58,118.42z M109.84,296.3C97.012,268.805,90.051,237.766,89.093,204l125.789,0.207v193.565	c-6.588-2.596-33.954-14.358-61.312-40.542C135.21,339.66,120.5,319.17,109.84,296.3z M304.716,325.346	c-3.051,4.441-6.286,8.757-9.691,12.95V204.339l9.691,0.016V325.346z M274.698,359.924c-3.563,3.282-7.115,6.323-10.61,9.134	v-164.77l10.61,0.017V359.924z M243.973,383.386c-3.474,2.179-6.753,4.096-9.772,5.763V204.239l9.772,0.016V383.386z M324.441,289.196v-84.809l17.603,0.029C341.125,235.144,335.217,263.609,324.441,289.196z M312.86,157.97	c0,16.367,8.375,31.311,21.619,39.789H96.668c13.24-8.478,21.622-23.422,21.622-39.789c0-19.39-11.72-36.75-29.36-43.77V89.64	l73.37-55.39c10.08,17.51,34.46,26.92,53.27,26.92v-0.01c10.43,0,22.22-2.97,32.37-8.17c9.89-5.07,17.59-11.89,22-19.44l72.28,56.07	v24.58C324.59,121.22,312.86,138.59,312.86,157.97z"/><path style="fill:#2126FF" d="M144.834,330.984h9.037v2.376h-3.032v7.246h-2.973v-7.246h-3.032V330.984z"/><path style="fill:#2126FF" d="M160.219,339.018h-3.375l-0.469,1.588h-3.036l3.616-9.622h3.243l3.615,9.622H160.7L160.219,339.018 z M159.602,336.937l-1.062-3.458l-1.051,3.458H159.602z"/><path style="fill:#2126FF" d="M164.779,330.984h2.777l3.623,5.323v-5.323h2.801v9.622h-2.801l-3.604-5.283v5.283h-2.796 L164.779,330.984L164.779,330.984z"/><path style="fill:#2126FF" d="M180.793,337.121v-2.002h4.594v4.102c-0.879,0.6-1.656,1.007-2.333,1.224 c-0.676,0.216-1.478,0.325-2.405,0.325c-1.142,0-2.072-0.195-2.792-0.584c-0.72-0.39-1.278-0.969-1.674-1.739 c-0.396-0.77-0.594-1.654-0.594-2.651c0-1.05,0.217-1.963,0.649-2.74c0.434-0.776,1.067-1.366,1.903-1.769 c0.652-0.311,1.529-0.466,2.632-0.466c1.063,0,1.858,0.097,2.386,0.289s0.965,0.491,1.312,0.896 c0.348,0.405,0.609,0.918,0.784,1.539l-2.868,0.512c-0.118-0.363-0.318-0.641-0.601-0.833s-0.642-0.289-1.079-0.289 c-0.652,0-1.172,0.227-1.559,0.68c-0.388,0.453-0.581,1.169-0.581,2.149c0,1.042,0.195,1.785,0.587,2.231s0.938,0.669,1.638,0.669 c0.333,0,0.649-0.048,0.952-0.144c0.302-0.096,0.647-0.26,1.036-0.492v-0.906L180.793,337.121L180.793,337.121z"/><path style="fill:#2126FF" d="M187.145,330.984h7.968v2.054h-4.988v1.529h4.627v1.962h-4.627v1.897h5.133v2.179h-8.112 L187.145,330.984L187.145,330.984z"/><path style="fill:#2126FF" d="M196.897,340.606v-9.622h4.955c0.919,0,1.621,0.079,2.107,0.236 c0.485,0.158,0.877,0.45,1.175,0.876c0.297,0.426,0.446,0.946,0.446,1.559c0,0.534-0.114,0.994-0.342,1.381 s-0.541,0.701-0.939,0.942c-0.254,0.153-0.602,0.28-1.044,0.381c0.354,0.118,0.612,0.236,0.774,0.354 c0.109,0.079,0.268,0.248,0.476,0.506c0.207,0.258,0.346,0.458,0.416,0.598l1.439,2.788h-3.359l-1.589-2.94 c-0.201-0.38-0.381-0.627-0.538-0.741c-0.215-0.149-0.457-0.223-0.729-0.223h-0.263v3.905H196.897z M199.884,334.883h1.254 c0.136,0,0.398-0.043,0.787-0.131c0.197-0.04,0.358-0.14,0.482-0.302c0.125-0.162,0.188-0.348,0.188-0.558 c0-0.311-0.099-0.549-0.296-0.715c-0.196-0.167-0.566-0.25-1.108-0.25h-1.307L199.884,334.883L199.884,334.883z"/><path style="fill:#2126FF" d="M170.906,283.52c-0.009,0.007,0.091,0.13,0.079,0.468c0.002,0.184-0.043,0.347-0.119,0.56	c-0.038,0.103-0.078,0.227-0.135,0.338c-0.062,0.1-0.143,0.195-0.225,0.302c-0.165,0.202-0.366,0.482-0.614,0.604	c-0.241,0.159-0.507,0.336-0.805,0.469c-0.292,0.119-0.575,0.202-0.888,0.253c-0.306,0.048-0.629,0.123-0.934,0.142	c-0.297-0.027-0.594-0.053-0.886-0.08c-0.292-0.018-0.574-0.102-0.846-0.149c-0.279-0.029-0.512-0.175-0.744-0.273	c-0.231-0.096-0.442-0.22-0.635-0.334c-0.776-0.444-1.208-0.954-1.208-0.954l-0.029-0.034c-0.025-0.029-0.021-0.072,0.008-0.097	c0.016-0.013,0.036-0.018,0.054-0.016c0,0,0.53,0.077,1.325,0.193c0.198,0.033,0.412,0.068,0.638,0.105	c0.227,0.031,0.464,0.095,0.714,0.088c0.498,0.016,1.029,0.033,1.56,0.051c0.264-0.004,0.523-0.054,0.781-0.077	c0.255-0.039,0.518-0.039,0.752-0.106c0.231-0.08,0.454-0.157,0.666-0.23c0.226-0.05,0.377-0.204,0.544-0.302	c0.168-0.1,0.31-0.204,0.402-0.332c0.1-0.117,0.212-0.21,0.25-0.311c0.113-0.183,0.147-0.319,0.147-0.319l0.012-0.049	c0.011-0.045,0.057-0.072,0.102-0.061s0.072,0.057,0.061,0.102C170.931,283.493,170.92,283.509,170.906,283.52z"/><path style="fill:#2126FF" d="M170.893,289.547c0,0-0.005,0.188-0.107,0.492c-0.106,0.295-0.318,0.706-0.701,1.097	c-0.377,0.392-0.927,0.755-1.575,0.982c-0.323,0.082-0.668,0.222-1.019,0.229c-0.35,0.022-0.712,0.053-1.058,0.019	c-0.699-0.077-1.369-0.245-1.927-0.532c-0.576-0.252-1.038-0.606-1.407-0.937c-0.374-0.318-0.616-0.681-0.789-0.92	c-0.166-0.25-0.245-0.41-0.245-0.41l-0.018-0.038c-0.017-0.034-0.003-0.076,0.032-0.093c0.02-0.01,0.042-0.009,0.06,0	c0,0,0.133,0.063,0.366,0.174c0.235,0.105,0.559,0.281,0.966,0.446c0.204,0.082,0.425,0.17,0.659,0.264	c0.23,0.104,0.492,0.156,0.752,0.241c0.26,0.088,0.536,0.147,0.818,0.195c0.28,0.065,0.568,0.099,0.857,0.115	c0.288,0.043,0.577,0.032,0.862,0.03c0.285,0,0.561-0.053,0.829-0.087c0.531-0.107,1.007-0.285,1.39-0.485	c0.376-0.213,0.672-0.422,0.86-0.591c0.187-0.172,0.275-0.282,0.275-0.282c0.023-0.029,0.066-0.034,0.095-0.01	c0.017,0.014,0.026,0.034,0.025,0.054L170.893,289.547z"/><path style="fill:#2126FF" d="M172.47,298.853c0,0,0.003,0.057-0.025,0.189c-0.03,0.12-0.073,0.307-0.193,0.51	c-0.117,0.2-0.28,0.451-0.521,0.668c-0.231,0.236-0.527,0.464-0.872,0.652c-0.172,0.092-0.355,0.197-0.546,0.289	c-0.191,0.079-0.396,0.144-0.606,0.219c-0.421,0.143-0.864,0.245-1.332,0.315c-0.456,0.031-0.945,0.14-1.421,0.106	c-0.474-0.023-0.971-0.009-1.443-0.067c-0.472-0.078-0.948-0.143-1.406-0.233c-0.456-0.09-0.893-0.244-1.319-0.357	c-0.431-0.102-0.816-0.298-1.193-0.445c-0.376-0.146-0.722-0.316-1.038-0.475c-1.253-0.673-1.999-1.33-1.999-1.33l-0.022-0.02	c-0.03-0.026-0.033-0.072-0.006-0.102c0.019-0.021,0.047-0.029,0.073-0.022c0,0,0.875,0.234,2.188,0.585	c0.331,0.077,0.689,0.16,1.068,0.248c0.38,0.081,0.775,0.195,1.194,0.261c0.833,0.159,1.723,0.31,2.621,0.399	c0.446,0.07,0.897,0.073,1.339,0.112c0.442,0.037,0.877,0.006,1.299,0.012c0.418-0.034,0.827-0.052,1.204-0.121	c0.38-0.061,0.734-0.139,1.05-0.248c0.315-0.103,0.601-0.219,0.833-0.353c0.239-0.125,0.424-0.27,0.568-0.395	c0.289-0.263,0.369-0.459,0.369-0.459c0.015-0.036,0.056-0.053,0.092-0.039c0.026,0.011,0.042,0.035,0.044,0.061L172.47,298.853z"/><path style="fill:#2126FF" d="M160.769,294.235c0,0-0.472,0.743-1.512,1.366c-0.255,0.168-0.545,0.317-0.862,0.455	c-0.318,0.126-0.655,0.285-1.021,0.363c-0.364,0.086-0.74,0.214-1.135,0.236c-0.392,0.054-0.794,0.072-1.196,0.087	c-0.403,0.001-0.802-0.064-1.196-0.094s-0.769-0.171-1.133-0.248c-0.365-0.081-0.698-0.252-1.015-0.378	c-0.321-0.113-0.598-0.303-0.855-0.459c-0.519-0.295-0.892-0.655-1.144-0.906c-0.251-0.255-0.378-0.419-0.378-0.419l-0.02-0.026	c-0.024-0.031-0.018-0.076,0.013-0.1c0.02-0.015,0.046-0.018,0.068-0.011c0,0,0.172,0.062,0.472,0.171	c0.15,0.054,0.332,0.121,0.54,0.197c0.206,0.084,0.454,0.131,0.713,0.214c0.263,0.072,0.543,0.171,0.851,0.223	c0.307,0.057,0.626,0.142,0.964,0.184c0.339,0.036,0.686,0.099,1.043,0.118c0.357,0.009,0.719,0.055,1.082,0.036	c1.451,0.018,2.902-0.21,3.945-0.526c1.054-0.292,1.706-0.614,1.706-0.614c0.035-0.017,0.077-0.003,0.094,0.032	c0.011,0.023,0.009,0.049-0.004,0.069L160.769,294.235z"/><path style="fill:#2126FF" d="M267.399,65.629c2.139,3.434,2.4,6.189,0.787,8.266c-0.645,0.828-1.581,1.56-2.811,2.192 l-2.582,1.34l-7.66-5.954l3.168-2.442l6.246,4.854c0.844-1.086,1.215-2.188,1.111-3.307c-0.102-0.98-0.604-2.188-1.506-3.623 L267.399,65.629z"/><path style="fill:#2126FF" d="M284.092,65.974l0.001,0C284.122,65.937,284.116,65.943,284.092,65.974z"/><path style="fill:#2126FF" d="M294.195,91.653l-1.891-3.439c-1.072-1.981-1.789-3.11-2.146-3.389l-0.293-0.181 c0.409-0.064,0.793-0.163,1.15-0.298c0.527-0.261,1.052-0.519,1.572-0.772c0.803-0.384,1.305-0.498,1.508-0.341 c0.303,0.236,0.42,1.267,0.352,3.092c-0.018,0.508-0.029,0.894-0.039,1.162l-0.131,0.793c1.344-0.942,2.157-1.594,2.438-1.955 c0.845-1.086,1.067-2.845,0.671-5.277c-0.099-0.705-0.291-1.166-0.57-1.384c-0.394-0.306-1.061-0.213-2.001,0.278l-2.503,1.24 c-2.598,1.282-5.609,1.915-9.035,1.895c0.74,0.3,1.278,0.58,1.615,0.843c1.28,0.994,2.854,3.638,4.721,7.931 c-0.449-0.211-0.897-0.354-1.345-0.426c-0.277-0.061-0.741-0.124-1.393-0.188l-10.489-8.152l-0.058,0.075 c-0.734-0.547-1.321-1.004-1.748-1.365c-0.682-0.606-1.12-1.121-1.312-1.545c-0.017-0.258,0.831-1.51,2.54-3.756 c1.214-1.608,2.877-3.724,4.987-6.346c2.056-2.606,3.15-3.991,3.297-4.174l-4.915,0.349l-10.184,13.103 c-0.489,0.629-0.747,1.109-0.77,1.441c-0.048,0.482,0.262,0.983,0.936,1.506l4.85,3.77l0,0l9.496,7.381 c0.617,0.478,1.112,0.711,1.486,0.695l1.033-0.044c2.161-0.093,4.375,0.741,6.643,2.503c0.797,0.619,1.62,1.435,2.472,2.449 l4.114-1.09C297.434,96.625,295.749,94.497,294.195,91.653z"/><polygon style="fill:#2126FF" points="293.768,74.547 294.356,76.815 297.391,76.836 296.512,73.172 294.007,73.06 293.481,70.817 290.507,70.752 291.36,74.486"/><path style="fill:#2126FF" d="M320.762,102.195l-0.407,0.142l-3.182,0.827c-0.768,0.199-1.912,0.387-3.436,0.562l-0.469,0.048 l-0.029,5.249c-0.003,0.654-0.176,1.199-0.516,1.638c-0.281,0.362-0.82,0.753-1.615,1.175l-2.363,1.303l-10.49-8.152l0.451-0.337 l3.149-2.802c1.636,0.051,3.104,0.061,4.405,0.031c1.497-0.027,2.848-0.131,4.051-0.312l-0.527-3.526 c-0.146-1.016-0.444-2.186-0.891-3.512c-0.58,0.283-1.037,0.294-1.375,0.031c-0.258-0.2-0.422-0.464-0.49-0.793 c-0.326-1.781-0.234-3,0.276-3.658c0.318-0.409,1.071-0.833,2.257-1.271c0.846-0.275,1.419-0.296,1.723-0.062 c0.324,0.254,0.562,0.736,0.711,1.447c0.314,1.451,0.559,2.979,0.734,4.582c0.121,1.164,0.236,3.056,0.343,5.675l-0.009,0.567 c2.488-0.42,4.611-1.185,6.372-2.291c-0.189-0.637-0.178-1.093,0.037-1.369c0.185-0.238,0.421-0.367,0.708-0.389l1.252-0.082 l2.705-0.076l-0.506,0.479c-0.305,0.391-0.307,1.054-0.006,1.988l1.027,3.092l-3.591,0.693L320.762,102.195z M310.614,103.957 l-3.337,0.158l-3.438-0.061l-0.262,0.164l6.785,5.273l0.29-0.232c0.118-0.152,0.176-0.354,0.17-0.602L310.614,103.957z"/><path style="fill:#2126FF" d="M314.765,119.536c0.318-0.409,0.916-1.075,1.795-1.997c0.781-0.844,1.357-1.527,1.727-2.049 c2.849-4.036,4.377-6.188,4.584-6.454c0.756-0.972,1.848-2.712,3.277-5.224l5.562-0.832l-2.264,4.406l-1.212,0.135l-0.278,0.426 c-1.577,2.518-2.966,4.547-4.165,6.09c-1.177,1.516-2.425,2.715-3.743,3.601C319.094,118.286,317.332,118.919,314.765,119.536z"/><g><polygon style="fill:#2126FF" points="120.999,126.416 118.621,125.9 118.335,128.809 121.077,129.365 121.325,126.895 123.703,127.391 123.999,124.515 121.237,123.915"/><polygon style="fill:#2126FF" points="126.333,87.959 123.583,87.369 123.286,90.265 126.038,90.834"/><path style="fill:#2126FF" d="M133.089,91.022c-1.586-0.358-2.981-0.09-4.182,0.804c-0.778,0.578-1.489,1.795-2.137,3.651 c-0.192,0.547-0.655,2.161-1.389,4.841c-0.466,1.72-0.872,2.709-1.218,2.966c-0.51,0.379-1.163,0.034-1.958-1.036l-1.637-2.198 c0.057,0.858,0.118,1.72,0.18,2.586c0.134,0.865,0.478,1.672,1.034,2.419l-4.721,3.514l0.002,0.002l-3.702,2.755l1.109,4.067 c1.005-0.203,1.722-0.305,2.146-0.307c0.61,0.002,1.371,0.147,2.284,0.433c-0.716,1.668-1.617,2.906-2.7,3.712 c-1.202,0.894-2.38,1.303-3.533,1.224c-1.36-0.095-2.586-0.876-3.677-2.342c-0.617-0.83-1.474-2.385-2.573-4.666l0.34,2.871 c0.121,0.34,0.239,0.655,0.355,0.947c0.819,2.11,1.641,3.718,2.464,4.824c1.239,1.665,2.678,2.529,4.319,2.592 c1.371,0.056,2.744-0.428,4.123-1.454c1.214-0.903,2.445-2.413,3.693-4.526c-0.148-0.853-0.383-1.967-0.705-3.341 c-0.382-1.63-0.651-2.55-0.807-2.759c-0.119-0.16-0.399-0.297-0.838-0.411l0.526-0.392l2.804-2.087 c0.47-0.35,0.713-0.739,0.729-1.168c-0.09-0.584-0.173-1.167-0.25-1.747c0.664,0.549,1.256,0.81,1.779,0.785 c0.419-0.012,0.914-0.231,1.483-0.655l11.039-8.216l0.128-5.532C135.806,92.023,134.302,91.303,133.089,91.022z M127.62,100.711 c0.736-2.5,1.626-4.139,2.671-4.917c0.647-0.481,1.275-0.731,1.886-0.75c0.61-0.018,1.361,0.183,2.25,0.601L127.62,100.711z"/><path style="fill:#2126FF" d="M151.272,88.439c-0.582-2.144-1.353-3.862-2.312-5.152c-1.347-1.81-3.241-2.731-5.682-2.765 l1.636,3.957c0.998-0.078,2.02,0.281,3.068,1.076l-4.291,3.193l0,0l-0.754,0.561c-0.326,0.243-0.722,0.05-1.191-0.578 l-9.193-12.334l-0.078,4.394c1.174,1.17,2.507,2.756,3.997,4.758l3.255,4.374c1.422,1.91,2.358,3.01,2.809,3.3 c0.811,0.541,1.797,0.381,2.957-0.483l0.754-0.561l0-0.001L151.272,88.439z"/><polygon style="fill:#2126FF" points="151.671,90.877 151.422,93.366 149.044,92.87 148.759,95.758 151.511,96.326 151.749,93.845 154.126,94.34 154.421,91.465"/><path style="fill:#2126FF" d="M162.036,80.428l-0.686,0.51c1.521,4.062,1.537,6.647,0.049,7.755 c-1.567,1.167-3.832,1.335-6.795,0.502c1.156-0.205,2.008-0.513,2.557-0.921c1.534-1.142,2.391-3.182,2.568-6.119 c-1.283,0.198-2.337-0.257-3.162-1.365c-0.742-0.999-1.244-2.573-1.504-4.723c0.215,0.399,0.398,0.699,0.549,0.9 c0.928,1.249,1.953,1.455,3.076,0.619l0.794-0.591L162.036,80.428z"/><path style="fill:#2126FF" d="M158.461,62.291l0.203,1.724l5.705,7.666c0.78,1.047,1.259,3.027,1.438,5.94l-4.457,3.316 l-2.553-3.431l4.572-3.404l-6.312-8.483c-0.587-0.188-0.995-0.438-1.226-0.748c-0.399-0.536-0.757-2.19-1.071-4.963 c0.216,0.386,0.414,0.7,0.596,0.943c0.349,0.469,0.836,0.816,1.458,1.043C157.081,61.998,157.63,62.129,158.461,62.291z"/><path style="fill:#2126FF" d="M167.583,63.686c1.314,1.768,2.252,3.322,2.812,4.662c0.525,1.237,0.975,2.921,1.346,5.053 c-4.882-6.561-8.601-11.154-11.158-13.782l-0.045-4.067C163.251,58.311,165.599,61.022,167.583,63.686z"/></g><g><path style="fill:#2126FF" d="M176.514,171.98c0.731-0.773,1.426-1.462,2.084-2.068c2.444,1.431,3.781,2.146,4.01,2.146 c0.158,0,0.648-0.475,1.473-1.425c0.637-0.742,1.107-1.316,1.41-1.723l-4.011-2.288c-0.136,0.073-0.554,0.47-1.253,1.191 c-0.637,0.638-1.039,0.956-1.206,0.956c-0.282,0-0.89-0.277-1.825-0.83c-0.935-0.554-1.539-0.961-1.81-1.222 c-1.232,1.221-2.204,2.245-2.914,3.07c0.251,0.282,0.883,0.689,1.896,1.222C175.318,171.51,176.034,171.834,176.514,171.98z"/><path style="fill:#2126FF" d="M201.455,188.586c-0.324,0-1.316,1.039-2.976,3.117c0.041,0.303,0.561,0.844,1.559,1.622 c0.997,0.778,1.658,1.167,1.981,1.167c0.136,0,0.702-0.467,1.7-1.402c0.997-0.935,1.496-1.449,1.496-1.543 C205.215,191.39,203.961,190.403,201.455,188.586z"/><path style="fill:#2126FF" d="M220.52,172.67c0.178,0,0.705-0.492,1.582-1.473c0.7-0.783,1.207-1.395,1.52-1.833l-4.308-2.381 c-0.241,0.126-0.758,0.648-1.552,1.567c-0.23,0.293-0.736,0.919-1.52,1.88l2.116,1.143 C219.715,172.304,220.436,172.67,220.52,172.67z"/><path style="fill:#2126FF" d="M257.913,171.15c-0.408,0-1.76-0.794-4.057-2.381c-0.502-0.355-0.826-0.705-0.972-1.05 c-0.104-0.261-0.156-0.731-0.156-1.41c-0.46,0-1.53,1.629-3.212,4.888c0.481,0.481,0.925,0.872,1.333,1.175 c0.303,1.556,0.6,3.108,0.893,4.653c0.354,2.015,0.532,3.561,0.532,4.637c0,0.355-0.036,0.538-0.109,0.548h-4.543v0.001h-0.502 c0.178-0.428,0.428-0.935,0.752-1.52c0-0.888-0.682-2.005-2.045-3.353c-1.363-1.348-2.494-2.021-3.392-2.021 c-0.532,0-1.66,0.329-3.384,0.987c-1.388,0.554-2.521,1.045-3.399,1.473c-2.641,1.305-4.417,2.303-5.326,2.992 c0.627-2.078,0.94-3.415,0.94-4.011c0-0.741-0.074-1.613-0.22-2.616c0.668,0,1.285-0.464,1.849-1.394 c0.167-0.26,0.522-1.018,1.065-2.271c-2.1-0.992-3.382-1.882-3.846-2.671s-0.723-1.34-0.775-1.653 c-0.376,0.261-0.898,0.867-1.567,1.817c-0.721,0.992-1.081,1.671-1.081,2.036c0,0.387,0.126,0.721,0.376,1.005 c0.344,0.397,0.561,0.885,0.65,1.465c0.089,0.579,0.166,1.151,0.228,1.715l0.783,7.018c0,0.668-0.438,1.002-1.316,1.002h-0.439 v-0.002h-1.504c-0.574,0-1.089-0.204-1.543-0.611c-0.454-0.407-0.635-0.888-0.541-1.441c0.262-1.692,0.387-3.133,0.376-4.324 c0-0.072-0.01-0.172-0.031-0.297c0-0.104,0-0.188,0-0.25v-0.313c-0.083,0.073-0.585,0.66-1.504,1.762s-1.388,1.69-1.409,1.763 c-0.105,2.172-0.23,3.409-0.376,3.712h-5.671v-0.001h-8.725c0.396-0.209,0.799-0.392,1.206-0.548 c1.316-0.523,2.616-0.784,3.901-0.784c1.023-1.838,1.639-3.049,1.848-3.634h-1.018c-1.964,0-3.389-0.099-4.277-0.298 c-0.407-0.104-1.869-0.585-4.386-1.441c-1.89-0.638-3.342-0.956-4.355-0.956c-1.64,0-2.861,0.674-3.666,2.021 c-0.407,0.658-0.903,2.078-1.488,4.261c0.261-0.533,0.821-0.981,1.677-1.347c0.752-0.313,1.473-0.47,2.162-0.47 c0.376,0,1.289,0.21,2.741,0.627c1.451,0.417,2.297,0.715,2.538,0.893c-0.293,0.355-0.792,0.723-1.496,1.104 c-0.705,0.382-1.278,0.572-1.716,0.572h-7.441v0.003h-0.972c-0.595,0-1.122-0.308-1.582-0.924 c-0.355-0.502-0.621-1.087-0.799-1.755c-0.178-0.668-0.35-1.342-0.517-2.021c-0.304-0.637-0.856-0.956-1.661-0.956 c-1.17,0-2.36,0.82-3.571,2.459c-1.463,2.026-2.549,3.556-3.259,4.59c-1.253,1.639-2.523,2.459-3.807,2.459 c-0.71,0-1.395-1.165-2.052-3.494c-0.575-1.984-0.862-3.493-0.862-4.527c-0.209,0.523-0.412,0.935-0.61,1.24v1.112 c0,7.206,1.237,10.809,3.712,10.809c0.909,0,1.89-0.819,2.945-2.459l3.071-4.872c1.305-1.713,2.642-2.569,4.01-2.569 c0.178,0,0.454,0.475,0.83,1.425c0.46,1.212,0.914,2.105,1.363,2.679c0.752,0.94,1.671,1.41,2.757,1.41h1.975v-0.003h5.186 c0.511,0,0.976-0.162,1.394-0.486c0.062-0.073,0.418-0.438,1.065-1.096c0.804-0.857,1.285-1.348,1.441-1.473 c0.679-0.585,1.274-0.877,1.786-0.877c-0.031,0.784-0.047,1.353-0.047,1.708c0,0.721,0.073,1.463,0.219,2.225h10.48v-0.001h4.543 l1.645-2.867c0.303,0.95,0.647,1.64,1.034,2.068c0.501,0.533,1.195,0.799,2.083,0.799h1.207v0.033l24.642-0.031v-0.001h2.57 c0.909,0.177,1.483-0.225,1.724-1.206l0.563-2.397c0.22-0.972,0.329-1.713,0.329-2.225c-0.345-3.134-0.517-5.06-0.517-5.781 L257.913,171.15z M233.24,182.273c-0.564,0-0.909-0.01-1.034-0.031c2.852-2.047,5.384-3.071,7.598-3.071 c0.742,0,1.553,0.329,2.436,0.987c0.881,0.658,1.459,1.342,1.731,2.052L233.24,182.273z"/></g><path style="fill:#2126FF" d="M204.189,167.65c-0.216,0.626-0.581,1.17-0.983,1.687c-0.418,0.502-0.891,0.974-1.441,1.362	c-0.271,0.201-0.563,0.373-0.866,0.534c-0.305,0.154-0.622,0.298-0.954,0.405c-0.332,0.11-0.671,0.205-1.025,0.252	c-0.346,0.08-0.709,0.065-1.064,0.086l0.09-0.004l-0.3,0.038c-0.112,0.015-0.224,0.033-0.337,0.055	c-0.225,0.045-0.452,0.09-0.676,0.148c-0.449,0.115-0.89,0.258-1.321,0.436c-0.436,0.174-0.852,0.394-1.259,0.668	c-0.213,0.13-0.4,0.29-0.601,0.455c-0.21,0.159-0.38,0.356-0.596,0.545c0.042-0.266,0.058-0.565,0.165-0.825	c0.077-0.28,0.21-0.533,0.353-0.788c0.064-0.135,0.151-0.25,0.24-0.365c0.09-0.114,0.172-0.242,0.274-0.345	c0.191-0.225,0.404-0.432,0.634-0.616c0.228-0.186,0.472-0.356,0.724-0.505c0.254-0.148,0.515-0.284,0.785-0.397	c0.271-0.111,0.544-0.217,0.829-0.292c0.141-0.041,0.285-0.076,0.43-0.109c0.152-0.035,0.282-0.056,0.476-0.079l0.09-0.004	c0.257-0.032,0.514-0.017,0.771-0.068c0.258-0.03,0.514-0.083,0.774-0.141c0.256-0.067,0.52-0.13,0.777-0.221	c0.263-0.079,0.52-0.182,0.784-0.285c0.517-0.221,1.056-0.452,1.585-0.734C203.086,168.272,203.613,167.964,204.189,167.65z"/><path style="fill:#2126FF" d="M288.913,77.991c-0.329,0.303-0.728,0.492-1.133,0.632c-0.408,0.137-0.843,0.211-1.286,0.218	c-0.223-0.005-0.446-0.029-0.673-0.049c-0.224-0.029-0.449-0.106-0.67-0.176c-0.225-0.065-0.445-0.147-0.646-0.287	c-0.208-0.12-0.41-0.254-0.606-0.391l0.073,0.053c-0.059-0.033-0.19-0.127-0.298-0.182c-0.117-0.06-0.227-0.138-0.349-0.191	c-0.12-0.055-0.236-0.139-0.36-0.179c-0.121-0.051-0.247-0.126-0.372-0.17c-0.126-0.042-0.256-0.091-0.393-0.153	c-0.136-0.056-0.27-0.056-0.421-0.11l-0.232-0.066c-0.075-0.004-0.152-0.01-0.235-0.022c-0.162-0.014-0.343-0.043-0.539-0.07	c0.108-0.142,0.233-0.288,0.377-0.418c0.137-0.154,0.302-0.246,0.477-0.327c0.087-0.047,0.177-0.086,0.27-0.122	c0.092-0.032,0.187-0.085,0.281-0.098c0.189-0.046,0.386-0.077,0.586-0.102c0.2-0.025,0.39,0.001,0.59,0.006	c0.2,0.01,0.389,0.048,0.579,0.094c0.192,0.04,0.378,0.1,0.56,0.174c0.192,0.074,0.346,0.141,0.568,0.275l0.073,0.053	c0.268,0.119,0.458,0.335,0.751,0.442c0.141,0.055,0.261,0.16,0.413,0.209c0.149,0.06,0.3,0.117,0.453,0.193	c0.155,0.065,0.322,0.112,0.488,0.179c0.166,0.078,0.341,0.127,0.52,0.184c0.179,0.071,0.363,0.128,0.555,0.19L288.913,77.991z"/><g><path style="fill:#0D5BCE" d="M144.974,72.613c0.098,0.539,0.059,1.094-0.046,1.62c-0.055,0.265-0.115,0.532-0.211,0.788 c-0.101,0.252-0.174,0.524-0.319,0.759c-0.131,0.244-0.275,0.482-0.42,0.722c-0.166,0.224-0.352,0.44-0.542,0.651l-0.286,0.316 l-0.341,0.264c-0.226,0.178-0.463,0.343-0.698,0.508l0.061-0.041c-0.104,0.081-0.278,0.199-0.41,0.312 c-0.136,0.123-0.296,0.223-0.425,0.354c-0.13,0.127-0.296,0.234-0.414,0.37c-0.133,0.127-0.263,0.258-0.407,0.385 c-0.113,0.139-0.237,0.277-0.373,0.415c-0.155,0.134-0.21,0.3-0.342,0.453l-0.179,0.243c-0.07,0.082-0.086,0.173-0.141,0.263 c-0.084,0.183-0.192,0.377-0.303,0.59c-0.077-0.203-0.152-0.425-0.203-0.659c-0.022-0.115-0.073-0.243-0.056-0.355l0.014-0.353 c0.013-0.238,0.029-0.494,0.105-0.713c0.062-0.229,0.138-0.459,0.223-0.688c0.207-0.421,0.441-0.845,0.737-1.206 c0.141-0.19,0.301-0.36,0.465-0.529c0.173-0.172,0.323-0.32,0.551-0.493l0.062-0.041c0.166-0.132,0.331-0.264,0.506-0.382 c0.179-0.113,0.346-0.244,0.499-0.399c0.154-0.151,0.333-0.279,0.492-0.431c0.152-0.161,0.304-0.324,0.471-0.482 c0.174-0.151,0.302-0.344,0.467-0.513c0.17-0.168,0.326-0.35,0.474-0.542c0.165-0.184,0.326-0.374,0.481-0.575 C144.636,73.027,144.795,72.83,144.974,72.613z"/></g><path style="fill:#2126FF" d="M107.736,105.041c0.319,0.371,0.525,0.817,0.67,1.268c0.147,0.454,0.229,0.935,0.236,1.421	c-0.001,0.244-0.016,0.489-0.032,0.736c-0.039,0.243-0.096,0.488-0.16,0.73l-0.097,0.364l-0.162,0.345	c-0.106,0.232-0.228,0.456-0.348,0.68l0.036-0.064c-0.044,0.094-0.135,0.253-0.192,0.387c-0.056,0.145-0.144,0.281-0.193,0.429	c-0.135,0.29-0.23,0.58-0.357,0.882c-0.038,0.147-0.084,0.298-0.142,0.456c-0.074,0.162-0.057,0.308-0.108,0.476l-0.056,0.257	c-0.026,0.091-0.008,0.168-0.02,0.259c-0.003,0.175-0.021,0.372-0.034,0.587c-0.151-0.121-0.307-0.259-0.448-0.419	c-0.068-0.08-0.162-0.158-0.197-0.252l-0.141-0.28c-0.093-0.19-0.186-0.399-0.22-0.601c-0.049-0.205-0.087-0.416-0.115-0.631	c-0.014-0.414-0.006-0.843,0.078-1.246c0.033-0.206,0.088-0.405,0.149-0.603c0.067-0.206,0.122-0.38,0.235-0.613l0.036-0.064	c0.124-0.339,0.352-0.616,0.46-0.971c0.059-0.172,0.15-0.336,0.215-0.512c0.057-0.18,0.114-0.362,0.185-0.545	c0.079-0.181,0.109-0.377,0.176-0.57c0.072-0.194,0.13-0.394,0.177-0.599c0.064-0.206,0.124-0.415,0.176-0.631L107.736,105.041z"/><path style="fill:#2126FF" d="M170.885,305.556c0,0-0.033,0.182-0.168,0.463c-0.137,0.271-0.38,0.647-0.77,0.989	c-0.195,0.166-0.414,0.36-0.676,0.49c-0.256,0.153-0.538,0.301-0.848,0.389c-0.307,0.105-0.63,0.193-0.968,0.236	c-0.333,0.015-0.678,0.058-1.015,0.043c-0.334-0.049-0.676-0.066-0.991-0.15c-0.318-0.07-0.63-0.172-0.908-0.296	c-0.57-0.234-1.05-0.546-1.418-0.872c-0.385-0.291-0.629-0.653-0.805-0.882c-0.17-0.242-0.25-0.399-0.25-0.399l-0.019-0.038	c-0.017-0.034-0.004-0.076,0.03-0.093c0.019-0.01,0.041-0.01,0.059-0.002c0,0,0.132,0.058,0.363,0.159	c0.234,0.093,0.553,0.264,0.962,0.4c0.401,0.158,0.876,0.317,1.399,0.44c0.256,0.081,0.535,0.1,0.81,0.155	c0.275,0.06,0.562,0.053,0.845,0.081c0.567,0.036,1.138,0.01,1.661-0.088c0.528-0.08,0.997-0.254,1.391-0.413	c0.787-0.34,1.215-0.721,1.215-0.721c0.028-0.025,0.071-0.022,0.095,0.006c0.014,0.016,0.02,0.037,0.016,0.057L170.885,305.556z"/><path style="fill:#2126FF" d="M172.433,312.57c-0.006-0.005-0.025,0.134-0.129,0.328c-0.107,0.2-0.281,0.444-0.528,0.671	c-0.123,0.122-0.264,0.225-0.423,0.316c-0.158,0.094-0.328,0.215-0.515,0.257c-0.186,0.051-0.378,0.145-0.582,0.163	c-0.202,0.042-0.407,0.038-0.614,0.051c-0.205-0.02-0.411-0.04-0.613-0.06c-0.2-0.025-0.388-0.13-0.57-0.189	c-0.183-0.058-0.35-0.164-0.506-0.251c-0.16-0.07-0.287-0.219-0.408-0.329c-0.483-0.455-0.671-0.955-0.671-0.955l-0.021-0.056	c-0.012-0.033,0.004-0.069,0.037-0.082c0.012-0.004,0.024-0.005,0.036-0.003c0,0,0.343,0.076,0.847,0.205	c0.127,0.028,0.258,0.086,0.408,0.096c0.148,0.019,0.303,0.04,0.464,0.061c0.321,0.058,0.665,0.073,1.011,0.063	c0.346,0.031,0.689-0.011,1.013-0.033c0.322-0.029,0.619-0.095,0.873-0.147c0.507-0.116,0.829-0.242,0.829-0.242	c0.029-0.011,0.062,0.003,0.073,0.032c0.004,0.01,0.005,0.021,0.003,0.031L172.433,312.57z"/><path style="fill:#2126FF" d="M150.808,287.573c0,0-0.116,0.592-0.624,1.114c-0.244,0.277-0.586,0.524-0.992,0.711	c-0.207,0.073-0.419,0.195-0.655,0.221c-0.234,0.038-0.471,0.085-0.716,0.093c-0.244-0.005-0.488-0.03-0.727-0.07	c-0.241-0.017-0.465-0.136-0.68-0.211c-0.219-0.064-0.406-0.213-0.581-0.329c-0.18-0.105-0.324-0.257-0.447-0.4	c-0.26-0.263-0.402-0.564-0.485-0.779c-0.083-0.216-0.108-0.354-0.108-0.354l-0.01-0.057c-0.006-0.035,0.017-0.068,0.052-0.075	c0.015-0.003,0.029,0,0.041,0.006c0,0,0.086,0.044,0.236,0.122c0.148,0.082,0.362,0.189,0.632,0.289	c0.261,0.118,0.586,0.208,0.935,0.276c0.35,0.065,0.732,0.103,1.112,0.081c0.763,0.006,1.519-0.184,2.057-0.386	c0.546-0.192,0.881-0.383,0.881-0.383c0.03-0.017,0.068-0.007,0.085,0.023c0.008,0.013,0.01,0.029,0.007,0.043L150.808,287.573z"/><path style="fill:#2126FF" d="M146.014,280.075c0,0-0.007,0.158-0.087,0.401c-0.082,0.235-0.235,0.573-0.517,0.875	c-0.134,0.165-0.302,0.316-0.496,0.455c-0.196,0.13-0.407,0.29-0.655,0.369c-0.242,0.096-0.498,0.207-0.772,0.237	c-0.272,0.05-0.55,0.053-0.83,0.073c-0.274-0.038-0.55-0.07-0.812-0.126c-0.259-0.059-0.505-0.173-0.732-0.271	c-0.45-0.225-0.819-0.508-1.078-0.817c-0.28-0.274-0.428-0.604-0.536-0.818c-0.1-0.224-0.139-0.369-0.139-0.369l-0.014-0.051	c-0.009-0.035,0.012-0.071,0.047-0.081c0.016-0.004,0.033-0.002,0.047,0.005c0,0,0.097,0.05,0.268,0.137	c0.173,0.082,0.406,0.225,0.711,0.341c0.295,0.14,0.652,0.265,1.043,0.373c0.393,0.098,0.818,0.161,1.247,0.178	c0.427,0.005,0.858-0.009,1.249-0.106c0.394-0.079,0.748-0.215,1.038-0.354c0.589-0.274,0.914-0.56,0.914-0.56	c0.026-0.023,0.066-0.021,0.09,0.006c0.011,0.013,0.016,0.029,0.016,0.045L146.014,280.075z"/><path style="fill:#2126FF" d="M188.775,252.168c0.014-0.61-0.351-1.172-0.911-1.415c-0.189-0.082-4.615-2.073-4.227-7.695	c0.005-0.071,0.005-0.143,0-0.214l-0.471-6.354c-0.028-0.386-0.205-0.745-0.492-1.004c-0.044-0.04-4.278-3.872-6.546-7.725	l0.217-4.979c0.017-0.417-0.139-0.823-0.433-1.12c-0.293-0.297-0.674-0.458-1.115-0.444l-5.899,0.19	c-0.385-3.014-1.641-9.656-5.41-12.378c-0.611-0.441-1.453-0.362-1.969,0.186l-6,6.354c-0.243,0.258-0.387,0.593-0.407,0.947	c-0.003,0.058-0.364,5.862-3.844,9.659c-0.048,0.053-0.092,0.109-0.133,0.169c-0.051,0.074-5.147,7.469-12.113,10.785	c-0.329,0.157-0.59,0.429-0.734,0.764c-0.146,0.341-1.399,3.405-0.394,5.896c0.269,0.667,0.679,1.237,1.211,1.69	c-0.387,0.944-1.028,2.072-1.781,2.386c-0.386,0.16-0.686,0.474-0.831,0.866c-0.518,1.407-0.673,4.463,1.994,6.758	c-0.761,2.589-3.401,9.851-9.27,10.689c-0.311,0.045-0.6,0.186-0.827,0.404c-0.104,0.1-2.442,2.4-2.193,5.664	c-0.014,0.083-0.026,0.168-0.026,0.256c0,0.262,0.073,0.505,0.191,0.719c0.606,2.603,2.784,4.925,6.529,6.904l7.556,10.534	c0.027,0.038,0.056,0.074,0.086,0.109l10.544,12.148c0.419,2.049,2.258,5.378,6.947,6.361c2.187,2.707,11.591,14.151,15.58,15.794	c0.099,0.039,2.467,0.936,4.569,0.936c2.177,0,3.163-0.952,3.608-1.751c0.938-1.689,0.336-4.146-1.896-7.733	c-0.031-0.049-0.064-0.096-0.099-0.14c-0.227-0.287-5.498-7.099,0.89-14.31c0.361-0.408,0.471-0.984,0.29-1.498	c-0.07-0.199-1.682-4.917,1.626-7.49c0.365-0.284,0.579-0.721,0.579-1.184v-8.471c0-0.427-0.183-0.834-0.501-1.119l-5.793-5.172	c0.449-0.727,1.448-1.701,3.572-1.701c0.327,0,0.676,0.023,1.035,0.068c0.243,0.03,0.489,0.001,0.719-0.086	c0.322-0.123,7.865-3.127,6.382-15.127L188.775,252.168z M180.17,284.103v7.107c-3.38,3.132-2.743,7.634-2.281,9.512	c-6.78,8.367-1.211,16.496-0.521,17.437c2.276,3.675,1.794,4.632,1.789,4.641c-0.036,0.065-0.334,0.207-0.984,0.207	c-1.533,0-3.461-0.724-3.462-0.724c-2.653-1.091-10.422-9.974-14.694-15.315c-0.233-0.292-0.567-0.485-0.935-0.544	c-4.53-0.725-5.055-3.964-5.098-4.316c-0.031-0.308-0.157-0.6-0.36-0.834l-10.779-12.419l-7.725-10.769	c-0.139-0.194-0.323-0.353-0.536-0.461c-2.222-1.136-3.777-2.365-4.635-3.623h16.172c0.284,1.603,0.956,3.068,1.918,4.299	c1.368,5.328,6.788,9.207,6.788,9.207s0.839-0.117,1.42-1.341s1.226-4.095,1.226-4.095c4.321-0.534,6.171-2.905,6.93-5.225	c0.464-0.878,0.793-1.836,0.972-2.846h10.337c-1.253,1.026-1.897,2.334-2.094,3.221c-0.118,0.53,0.06,1.083,0.465,1.445	L180.17,284.103z M183.25,271.002h-17.81c-0.631-4.796-4.724-8.501-9.692-8.501s-9.061,3.705-9.692,8.501h-16.793	c0.189-0.868,0.644-1.57,0.941-1.947c8.713-1.711,11.347-13.332,11.457-13.836c0.133-0.61-0.125-1.238-0.648-1.578	c-1.8-1.17-1.899-2.642-1.806-3.395c2.193-1.446,3.051-4.648,3.15-5.043c0.18-0.718-0.191-1.459-0.873-1.746	c-0.323-0.136-1.081-0.455-0.966-2.152c0.046-0.674,0.217-1.319,0.352-1.74c7.047-3.587,12.039-10.52,12.68-11.438	c3.48-3.856,4.319-9.139,4.507-10.874l4.617-4.889c2.301,2.774,3.216,8.49,3.38,10.702c0.06,0.802,0.736,1.406,1.545,1.389	l5.677-0.183l-0.165,3.796c-0.011,0.276,0.054,0.551,0.188,0.793c2.037,3.666,5.65,7.242,6.919,8.441l0.419,5.662	c-0.326,5.392,2.806,8.688,5.116,10.071l-0.171,7.3c-0.001,0.075,0.003,0.15,0.012,0.225	C186.318,266.229,184.729,269.359,183.25,271.002z"/><path style="fill:#2126FF" d="M250.836,140.17c3.17-4.616,5.397-9.716,6.594-15.176c1.245-5.651,1.34-11.409,0.274-17.141	c-0.532-2.848-1.329-5.627-2.396-8.281c-0.293-0.729-0.607-1.464-0.939-2.169c-0.341-0.719-0.694-1.43-1.062-2.132	c-0.38-0.695-0.774-1.381-1.173-2.047s-0.825-1.315-1.256-1.943c-0.439-0.642-0.897-1.254-1.363-1.879	c-0.471-0.604-0.963-1.214-1.461-1.802c-0.498-0.588-1.022-1.161-1.56-1.725c-0.538-0.564-1.081-1.107-1.65-1.634	c-0.255-0.245-0.516-0.468-0.772-0.713c-3.207-2.872-6.814-5.233-10.741-7.041c-8.127-3.74-17.078-4.869-25.908-3.229	c-5.733,1.067-11.077,3.205-15.916,6.397c-4.66,3.067-8.637,6.972-11.807,11.588c-3.17,4.616-5.397,9.716-6.595,15.176	c-1.245,5.651-1.34,11.409-0.274,17.141c0.941,5.1,2.774,9.937,5.416,14.343c0.064,0.106,0.12,0.2,0.184,0.306	c2.198,3.604,4.905,6.849,8.067,9.676c3.207,2.872,6.814,5.233,10.741,7.041c8.127,3.74,17.078,4.869,25.907,3.229	c5.733-1.067,11.09-3.213,15.916-6.397C243.682,148.678,247.645,144.781,250.836,140.17z M249.373,95.259	c0.016,0.027,0.032,0.053,0.04,0.067c-2.741-2.971-6.015-5.532-9.729-7.557c-0.218-0.122-0.45-0.237-0.668-0.359	c-0.979-2.055-2.81-4.776-6.169-7.358C239.635,83.4,245.414,88.658,249.373,95.259z M186,88.821	c5.631-6.128,13.223-10.555,22.039-12.187c3.571-0.658,7.13-0.82,10.578-0.535c-1.129,0.713-2.405,1.877-4.376,4.235	c-5.586,0.346-11.18,2.037-16.387,4.978c-2.796,1.587-4.908,3.197-6.216,4.307C189.56,89.292,187.238,88.983,186,88.821z M193.073,93.881c2.932-3.623,7.537-5.968,11.76-7.56c1.59-0.61,3.217-1.097,4.889-1.448c0.911-0.202,1.845-0.365,2.777-0.471	c0.525-0.061,2.322-0.506,2.748-0.218l10.115,6.964l-3.593,21.086l-14.84,5.806l-17.27-12.282c-0.261-0.224,0.057-2.079,0.078-2.436	c0.064-0.799,0.179-1.573,0.294-2.348c0.24-1.501,0.624-2.944,1.285-4.318C191.807,95.635,192.399,94.72,193.073,93.881z M177.585,128.399c-0.588-1.765-1.061-3.58-1.407-5.454c-1.068-5.766-0.824-11.487,0.514-16.832	c0.191,2.311,0.704,4.645,1.204,6.535c-1.435,6.453-0.779,12.285,0.263,16.528C177.915,128.889,177.742,128.631,177.585,128.399z M192.801,142.601c-3.213-1.674-6.069-3.961-8.451-6.242c-0.49-0.937-1.211-2.441-1.902-4.379c-0.266-0.745-0.529-1.547-0.763-2.42	c-1.037-3.722-1.901-9.176-0.733-15.288c2.117-2.356,4.892-4.129,6.762-5.178l16.932,12.051l0.295,3.298l0.982,10.904	L192.801,142.601z M228.423,116.566l-2.864-3.386l3.593-21.176l8.307-1.001c4.312,2.3,13.915,12.937,13.915,12.937	c0.548,8.883-0.827,13.925-1.64,16.041l-14.901,4.195L228.423,116.566z M215.144,155.461c-6.672-0.016-13.083-1.709-18.734-4.762	c0.021-0.085-0.003-0.216-0.064-0.378c-0.524-1.296-0.944-3.144-1.221-4.571l13.435-7.424l15.111,3.46l4.057,9.059	C224.777,153.14,218.006,154.83,215.144,155.461z M231.176,149.048l-3.991-8.918l7.903-11.998l14.949-4.206	c0.63,2.228,1.439,5.146,1.949,6.993c-1.911,4.603-4.686,8.819-8.151,12.4C239.775,146.208,234.268,148.135,231.176,149.048z"/></svg>