<svg version="1.1" id="Layer_1" xmlns="http://www.w3.org/2000/svg" x="0px" y="0px" viewBox="0 0 946.625 1080" style="enable-background:new 0 0 946.625 1080" xml:space="preserve"><path d="M107.557,325.238c0-1.197,0-2.395,0-3.592c0.712-0.93,0.225-2.007,0.371-3.008c0-0.54,0.001-1.077,0.187-1.596 c0.317-1.855,0.097-3.724,0.163-5.587c0.539-15.806,2.721-31.442,4.958-47.063c3.702-25.844,8.725-51.444,15.167-76.743 c5.731-22.506,12.168-44.808,20.609-66.484c2.139-5.49,2.407-5.745,8.139-3.749c13.362,4.652,26.874,8.658,40.99,10.323 c30.398,3.586,58.307-2.277,82.653-21.708c9.022-7.202,15.693-16.354,21.595-26.145c1.165-1.933,2.146-4.022,3.957-5.499 c2.247-0.728,2.968,1.119,3.818,2.439c3.11,4.83,6.151,9.706,9.272,14.53c10.618,16.415,25.272,28.317,42.371,37.322 c24.903,13.114,51.673,19.961,79.481,23.267c11.414,1.358,22.905,2.079,34.335,1.904c31.94-0.489,63.172-5.09,92.577-18.539 c12.93-5.914,24.64-13.653,35.568-22.749c10.902-9.073,18.776-20.323,25.174-32.779c0.383-0.745,0.729-1.513,1.193-2.211 c1.642-2.474,2.765-2.675,4.751-0.482c3.695,4.078,7.132,8.386,10.739,12.543c13.557,15.63,29.367,28.161,49.229,34.831 c20.129,6.759,40.44,6.433,60.82,1.025c9.201-2.441,17.935-5.953,26.087-10.889c0.41-0.248,0.839-0.462,1.264-0.682 c4.704-2.423,5.288-2.181,7.349,2.76c17.264,41.417,28.593,84.519,36.614,128.576c3.002,16.494,5.228,33.09,6.882,49.757 c0.802,8.078,1.115,16.216,1.007,24.351c0,0.951,0.001,1.902,0,2.851c-0.001,0.752,0.007,1.504-0.011,2.256 c-1.21,4.481-4.35,7.921-6.495,11.899c-9.023,16.737-14.718,34.533-17.277,53.332c-0.885,6.507-1.575,13.058-1.492,19.649 c0.288,22.971,5.511,44.794,15.298,65.547c0.715,1.516,1.276,3.17,2.283,4.469c4.19,5.412,3.789,11.571,3.105,17.775 c-5.211,47.276-15.348,93.484-29.915,138.752c-9.327,28.984-20.439,57.23-33.487,84.748 c-18.853,39.76-41.682,77.015-69.265,111.314c-12.909,16.054-26.621,31.415-41.581,45.581 c-28.626,27.109-59.907,50.643-94.565,69.603c-26.966,14.753-55.031,26.887-84.291,36.29c-2.735,0.878-5.628,1.03-8.297,2.104 c-0.24,0-0.479,0-0.718,0c-12.539-3.703-24.338-9.271-36.204-14.62c-27.562-12.424-53.804-27.256-78.817-44.229 c-18.142-12.31-35.417-25.746-51.917-40.207c-11.808-10.349-23.065-21.267-33.817-32.663 c-17.098-18.122-32.813-37.422-47.163-57.821c-18.09-25.717-33.826-52.8-47.514-81.09c-16.42-33.936-29.342-69.185-39.459-105.477 c-8.696-31.195-14.894-62.894-18.553-95.065c-0.918-8.062-1.832-16.159-1.668-24.321c0.054-2.701,0.558-5.171,1.786-7.588 c8.579-16.89,14.516-34.644,17.19-53.432c4.174-29.313,0.361-57.437-12.477-84.255C116.231,337.82,112.202,331.352,107.557,325.238 z" id="Layer_66"/><path style="fill:#BAB6B6" d="M107.557,315.178c1.211-0.922,0.246-2.648,1.337-3.615c0.208,1.97,0.204,3.922-0.516,5.809 c-0.291,0.369-0.565,0.356-0.82-0.038C107.557,316.616,107.557,315.897,107.557,315.178z" id="Layer_65"/><path style="fill:#E0DEDE" d="M834.645,319.471c0.203-0.029,0.404-0.022,0.604,0.018c0,0.959,0,1.916,0,2.873 c-0.208,0.325-0.404,0.319-0.587-0.021C834.656,321.386,834.651,320.428,834.645,319.471z" id="Layer_64"/><path style="fill:#898585" d="M108.291,318.778c0.186,1.065,0.232,2.096-0.733,2.867c0-0.959,0-1.916,0-2.873 C107.805,318.454,108.05,318.441,108.291,318.778z" id="Layer_63"/><path style="fill:#C0C1C1" d="M834.663,322.342c0.196-0.012,0.392-0.004,0.587,0.021c0,0.719,0,1.437,0,2.156 c-0.207,0.032-0.413,0.042-0.622,0.033C834.639,323.815,834.651,323.079,834.663,322.342z" id="Layer_62"/><path style="fill:#B6B4B4" d="M108.291,318.778c-0.245-0.003-0.49-0.004-0.733-0.007c0-0.479,0-0.959,0-1.437 c0.274,0.013,0.546,0.025,0.82,0.038C108.349,317.841,108.32,318.31,108.291,318.778z" id="Layer_61"/><path style="fill:#FFE600" d="M636.153,120.428c13.739,13.022,29.354,23.237,47.869,29.914 C511.093,306.544,338.432,462.506,165.625,618.6c-1.271-1.721-1.451-3.526-1.937-5.167c-8.113-27.444-14.362-55.31-18.602-83.613 c-1.703-11.36-3.093-22.764-3.856-34.237c-0.13-1.966,0.179-3.724,1.036-5.527c8.582-18.043,14.676-36.897,17.435-56.7 c5.676-40.738-1.129-79.11-22.525-114.55c-1.121-1.857-1.447-3.573-1.259-5.723c1.035-11.803,2.286-23.578,3.816-35.328 c2.441-18.752,5.689-37.364,9.617-55.853c4.847-22.816,10.652-45.389,17.758-67.616c0.146-0.456,0.273-0.918,0.428-1.37 c0.82-2.376,0.828-2.398,3.197-1.816c7.087,1.741,14.221,3.254,21.462,4.201c37.055,4.841,71.471-1.525,102.049-24.11 c3.76-2.777,7.33-5.791,10.688-9.039c1.105-1.068,1.799-1.115,2.872,0.062c23.475,25.768,53.583,39.956,86.433,49.221 c18.703,5.275,37.78,8.425,57.212,9.547c16.279,0.94,32.541,1.119,48.789-0.204c31.676-2.58,62.037-9.994,90.23-25.104 c16.483-8.835,31.275-19.898,43.894-33.773c0.323-0.354,0.643-0.711,0.994-1.035C635.526,120.714,635.761,120.64,636.153,120.428z" id="Layer_60"/><path style="fill:#FFE600" d="M217.064,738.946c-5.961-10.202-11.262-20.243-16.303-30.423 c-10.196-20.594-19.073-41.747-26.779-63.394c-0.321-0.901-0.616-1.812-0.967-2.701c-0.456-1.158-0.22-2.079,0.788-2.83 c0.478-0.357,0.897-0.79,1.342-1.192c78.707-71.095,157.412-142.191,236.119-213.285 c98.428-88.908,196.858-177.813,295.273-266.734c1.372-1.239,2.597-2.125,4.709-1.862c18.549,2.32,36.751,0.362,54.664-4.759 c1.608-0.46,3.189-1.011,4.791-1.496c2.42-0.734,2.516-0.756,3.307,1.657c2.721,8.29,5.474,16.571,8.021,24.916 c3.978,13.035,7.328,26.242,10.544,39.487c0.627,2.582,0.054,4.107-1.888,5.852c-37.222,33.443-74.374,66.96-111.546,100.458 c-49.442,44.557-98.889,89.111-148.334,133.667c-69.631,62.748-139.261,125.496-208.892,188.243 c-33.971,30.613-67.941,61.224-101.914,91.834C219.117,737.175,218.21,737.944,217.064,738.946z" id="Layer_59"/><path style="fill:#FFE600" d="M666.147,362.774c0.651,1.551,0.395,2.75,0.395,3.912c0.014,151.693,0.007,303.386,0.066,455.078 c0.001,2.697-0.748,4.698-2.517,6.715c-18.849,21.475-39.445,41.09-62.022,58.613c-0.84,0.653-1.72,1.256-2.564,1.871 c-1.098-0.576-0.545-1.514-0.636-2.261c-0.086-0.708-0.018-1.434-0.018-2.153c0-152.291,0.011-304.583-0.068-456.874 c-0.001-3.163,0.964-5.23,3.299-7.315c20.444-18.261,40.776-36.648,61.144-54.996C664.106,364.57,664.999,363.791,666.147,362.774z" id="Layer_58"/><path style="fill:#FFE600" d="M547.848,470.085c0,1.57,0,2.884,0,4.198c0,148.01-0.01,296.02,0.07,444.029 c0.001,3.245-0.861,5.045-3.836,6.617c-18.74,9.903-38.011,18.583-57.932,25.815c-1.184,0.431-2.327,1.276-3.791,0.909 c-0.597-1.122-0.316-2.329-0.316-3.482c-0.014-138.669-0.011-277.339-0.038-416.008c0-2.25,0.386-3.972,2.249-5.636 c20.269-18.107,40.43-36.332,60.637-54.507C545.661,471.331,546.261,470.359,547.848,470.085z" id="Layer_57"/><path style="fill:#FFE600" d="M717.499,752.706c0-1.164,0-2.328,0-3.492c0-142.857,0.009-285.714-0.063-428.571 c-0.001-3.009,0.827-5.009,3.109-7.044c19.481-17.369,38.83-34.887,58.235-52.342c0.839-0.755,1.489-1.846,3.192-2.081 c0,1.266,0,2.412,0,3.559c0,111.363-0.001,222.728,0.011,334.091c0,1.804-0.124,3.558-0.619,5.313 c-14.577,51.801-34.493,101.38-61.53,147.998c-0.536,0.924-1.11,1.825-1.667,2.738 C717.945,752.818,717.721,752.761,717.499,752.706z" id="Layer_56"/><path style="fill:#FFE600" d="M430.791,939.39c-2.647-1.292-5.009-2.395-7.328-3.583c-19.289-9.886-37.925-20.872-55.878-33.029 c-2.106-1.426-2.977-2.881-2.975-5.474c0.07-86.575,0.063-173.15,0.025-259.725c-0.001-2.029,0.373-3.549,1.996-5.004 c20.684-18.539,41.295-37.157,61.937-55.743c0.587-0.529,1.081-1.251,2.224-1.372C430.791,696.602,430.791,817.694,430.791,939.39z" id="Layer_55"/><path style="fill:#FFE600" d="M313.549,681.153c0,59.481,0,118.778,0,178.146c-1.26-0.084-1.755-0.999-2.415-1.609 c-22.31-20.599-42.412-43.179-60.568-67.51c-1.126-1.509-1.659-3.006-1.65-4.917c0.068-14.603,0.057-29.205,0.012-43.808 c-0.005-1.765,0.321-3.112,1.747-4.39c20.314-18.216,40.568-36.5,60.845-54.757C312.029,681.85,312.456,681.22,313.549,681.153z" id="Layer_54"/><path d="M372.629,310.103c1.87-1.743,3.156-2.943,4.106-3.828c13.084,13.084,26.118,26.118,38.991,38.991 c-67.797,1.213-136.152-0.129-204.621,0.252c1.078-2.448,32.259-37.696,36.448-41.281c9.577,10.134,19.167,20.279,28.957,30.639 c6.457-7.946,12.693-15.62,19.163-23.582c3.091,3.023,6.034,5.901,9.263,9.06c0.585-1.568,0.365-2.862,0.366-4.097 c0.014-39.386,0.007-78.773,0.02-118.158c0.001-5.012-0.577-4.363,4.388-4.393c5.026-0.032,10.054,0.011,15.081-0.014 c2.869-0.014,2.901-0.045,2.917-3.013c0.026-5.028,0.026-10.055-0.003-15.084c-0.009-1.679,0.363-2.891,1.658-4.307 c2.643-2.892,4.667-6.349,6.952-9.57c0.894-1.26,1.804-2.51,2.881-4.006c2.56,3.656,4.951,7.069,7.341,10.483 c0.549,0.784,0.939,1.779,1.667,2.32c2.299,1.709,2.374,4.016,2.31,6.559c-0.122,4.785,0.021,9.577-0.065,14.364 c-0.03,1.7,0.512,2.315,2.252,2.289c5.504-0.084,11.011-0.032,16.517-0.03c3.789,0.001,3.408-0.219,3.408,3.554 c0.005,36.034,0.003,72.068,0.003,108.101C372.629,306.667,372.629,307.98,372.629,310.103z" id="Layer_53"/><path d="M259.707,379.937c0.067,4.189,0.082,8.38,0.225,12.567c0.058,1.722-0.261,2.675-2.31,2.526 c-2.382-0.173-4.788-0.107-7.179-0.017c-1.55,0.058-2.086-0.508-2.057-2.067c0.082-4.309,0.028-8.62,0.028-12.931 c0-7.305-0.016-14.608,0.008-21.912c0.009-2.682,0.05-2.698,2.79-2.735c2.035-0.028,4.084,0.142,6.101-0.047 c1.987-0.186,3.02,0.565,3.848,2.345c2.27,4.878,4.725,9.67,7.111,14.492c0.312,0.632,0.46,1.381,1.439,1.884 c2.524-5.096,5.202-10.119,7.503-15.307c1.2-2.705,2.819-3.798,5.711-3.4c2.445,0.336,5.577-1.019,7.218,0.647 c1.495,1.517,0.439,4.564,0.452,6.931c0.054,9.818,0.034,19.637,0.014,29.455c-0.005,2.552-0.053,2.578-2.524,2.618 c-2.274,0.037-4.554-0.084-6.823,0.037c-1.701,0.092-2.31-0.449-2.264-2.211c0.116-4.546-0.08-9.099,0.369-13.639 c0.042-0.774,1.027-1.88-0.711-2.031c-1.454,3.372-2.967,6.721-4.334,10.129c-0.565,1.408-1.334,1.932-2.894,1.967 c-5.782,0.129-5.781,0.198-8.228-5.256c-0.922-2.054-1.84-4.11-2.759-6.164C258.685,377.998,259.747,379.158,259.707,379.937z" id="Layer_52"/><path d="M293.676,394.988c1.325-3.345,2.414-6.113,3.517-8.877c3.765-9.435,7.589-18.847,11.255-28.319 c0.722-1.866,1.609-2.688,3.648-2.466c2.598,0.282,5.774-0.957,7.686,0.521c1.738,1.344,2.198,4.38,3.147,6.7 c3.936,9.622,7.85,19.255,11.757,28.89c0.439,1.08,1.177,2.082,1.023,3.55c-3.486,0-6.948-0.034-10.408,0.02 c-1.147,0.018-1.782-0.45-2.11-1.493c-0.179-0.569-0.408-1.123-0.618-1.683c-1.772-4.745-1.772-4.76-6.975-4.738 c-2.148,0.009-4.627-0.548-6.351,0.334c-1.797,0.919-1.786,3.724-2.506,5.715c-0.486,1.343-1.114,1.904-2.551,1.871 C300.849,394.934,297.506,394.988,293.676,394.988z" id="Layer_51"/><path d="M368.282,361.231c-1.043,0.739-2.131,1.43-3.129,2.232c-2.315,1.861-4.417,3.28-7.413,0.756 c-1.715-1.445-4.267-1.405-6.57-0.942c-1.499,0.302-2.743,1.018-3.002,2.663c-0.277,1.753,0.914,2.567,2.308,3.183 c1.657,0.732,3.425,1.022,5.184,1.356c2.703,0.512,5.4,1.077,7.863,2.358c7.61,3.957,8.423,13.404,1.624,18.651 c-7.736,5.971-20.061,5.399-27.16-1.259c-1.845-1.73-1.845-1.73,0.183-3.48c0.362-0.312,0.773-0.575,1.097-0.922 c2.277-2.434,4.381-3.682,7.739-1.136c2.324,1.762,5.541,2.141,8.602,1.134c1.314-0.433,2.528-1.028,2.577-2.594 c0.045-1.433-1.173-1.998-2.24-2.514c-1.85-0.895-3.879-1.18-5.885-1.489c-2.868-0.442-5.537-1.36-8.034-2.868 c-6.837-4.127-7.847-14.488,0.479-19.093C349.986,353.127,362.745,353.903,368.282,361.231z" id="Layer_50"/><path d="M287.653,421.536c-1.696,0.406-3.1,1.113-4.671,1.218c-4.875,0.327-9.422-2.79-10.294-7.09 c-1.242-6.134,0.992-10.502,6.359-12.336c3.029-1.035,6.143-0.994,9.177-0.179c4.658,1.25,7.187,4.55,7.31,9.401 c0.093,3.7,0.087,7.407,0.003,11.109c-0.107,4.705-2.434,7.808-6.882,9.421c-5.095,1.848-11.208,0.527-14.2-3.068 c-1.323-1.589-1.302-1.838,0.377-3.021c0.78-0.549,1.616-1.019,2.397-1.568c0.956-0.672,1.794-1.019,2.721,0.134 c0.515,0.64,1.36,0.907,2.198,1.111C286.002,427.609,287.893,425.984,287.653,421.536z" id="Layer_49"/><path d="M345.781,408.256c-1.063,0.628-2.102,1.198-3.096,1.84c-1.275,0.823-2.493,1.417-3.746-0.041 c-0.217-0.253-0.608-0.382-0.943-0.504c-3.703-1.35-6.043,0.636-5.678,4.829c0.714,0.54,1.334-0.051,1.953-0.23 c5.863-1.692,11.773,1.061,12.876,6.375c1.298,6.252-0.768,11.087-7.568,12.925c-3.172,0.857-6.441,0.683-9.488-0.72 c-3.541-1.632-5.681-4.298-5.682-8.374c-0.001-4.07,0.008-8.139-0.007-12.21c-0.013-3.296,1.56-5.699,4.209-7.472 c5.312-3.553,13.079-2.532,16.537,2.164C345.421,407.209,345.538,407.697,345.781,408.256z" id="Layer_48"/><path style="fill:#010100" d="M318.413,411.682c0,1.915-0.016,3.828,0.005,5.743c0.017,1.491-0.439,3.276,2.049,3.279 c0.491,0,0.762,0.527,0.773,1.047c0.022,1.196-0.021,2.394,0.042,3.587c0.086,1.616-1.221,1.402-2.148,1.808 c-1.151,0.503-0.71,1.667-0.699,2.545c0.055,4.521-0.186,3.783-3.927,3.843c-0.478,0.008-0.963-0.046-1.434,0.008 c-1.668,0.191-2.291-0.433-2.329-2.198c-0.095-4.401-0.187-4.4-4.718-4.401c-1.435,0-2.875-0.063-4.305,0.017 c-1.35,0.076-2.191-0.431-2.896-1.607c-1.716-2.862-1.783-2.836,0.278-5.578c3.735-4.972,7.473-9.941,11.239-14.89 c0.623-0.818,1.026-1.982,2.348-1.97c1.67,0.014,3.354-0.057,5.001,0.147c0.873,0.108,0.693,1.125,0.703,1.8 c0.03,2.273,0.012,4.546,0.012,6.819C318.409,411.682,318.411,411.682,318.413,411.682z" id="Layer_47"/><path style="fill:#020100" d="M261.94,413.148c-3.661,3.367-4.878-0.092-7.062-1.437c2.262-3.104,4.996-5.576,7.642-8.091 c1.632-1.551,3.861-0.576,5.828-0.614c0.541-0.011,0.724,0.543,0.741,1.036c0.033,0.953,0.037,1.908,0.038,2.862 c0.003,7.995,0.018,15.989-0.008,23.984c-0.008,2.561-0.061,2.561-2.542,2.644c-0.119,0.004-0.238,0.001-0.358,0 c-4.857-0.053-4.249,0.478-4.273-4.127C261.919,424.279,261.94,419.15,261.94,413.148z" id="Layer_46"/><path style="fill:#898600" d="M259.707,379.937c-0.815-1.131-0.624-2.393-0.504-3.861c0.906,0.344,1.214,0.93,1.239,1.74 C259.652,378.333,260.077,379.273,259.707,379.937z" id="Layer_45"/><path style="fill:#676500" d="M278.655,377.14c-0.038-0.518,0.17-1.014,0.622-1.142c0.668-0.19,0.694,0.417,0.687,0.856 c-0.013,0.812,0.047,1.661-0.598,2.316C279.024,378.53,279.418,377.632,278.655,377.14z" id="Layer_44"/><path d="M640.254,316.437c1.105-0.886,2.202-0.964,3.226-1.234c1.161-0.305,2.279-0.699,3.314-1.325 c3.702-2.24,4.169-4.569,1.347-7.856c-3.977-4.631-8.064-9.171-12.115-13.737c-3.525-3.976-3.536-3.97-0.865-8.596 c1.073-1.858,2.161-3.708,3.374-5.788c1.467,0.866,2.274,2.175,3.258,3.268c2.642,2.937,5.246,5.907,7.848,8.881 c0.695,0.795,1.283,1.305,2.32,0.356c3.258-2.979,6.584-5.885,10.171-9.074c-2.937-2.875-5.382-5.911-7.384-9.277 c-0.611-1.028-1.182-2.083-1.857-3.068c-1.064-1.557-0.814-2.653,0.669-3.918c5.186-4.425,10.248-8.994,15.556-13.686 c2.024,3.171,3.195,6.566,4.847,9.708c0.515,0.977,0.074,1.553-0.604,2.148c-1.981,1.736-3.968,3.466-5.907,5.246 c-0.712,0.653-1.971,1.121-0.968,2.549c1.221,1.738,2.698,2.599,4.106,2.114c1.151-0.398,2.099-1.146,3-1.938 c6.559-5.774,13.074-11.601,19.69-17.311c1.45-1.251,1.048-1.99-0.007-3.149c-3.38-3.716-6.666-7.521-9.932-11.226 c0.096-0.924,0.736-1.321,1.259-1.783c5.826-5.158,11.711-10.252,17.457-15.497c1.467-1.339,2.478-1.276,3.958-0.155 c3.445,2.607,6.757,5.338,9.633,8.583c1.647,1.859,1.715,1.844,3.635,0.178c2.441-2.117,4.858-4.264,7.261-6.426 c1.874-1.687,1.891-1.736,0.254-3.595c-5.934-6.74-11.893-13.457-17.841-20.183c-1.666-1.883-3.328-3.769-4.993-5.652 c-0.571-0.647-1.04-1.231-0.464-2.203c1.823-3.07,3.565-6.188,5.321-9.259c1.338,0.531,1.877,1.509,2.573,2.295 c8.263,9.314,16.508,18.644,24.749,27.978c0.791,0.895,1.588,1.801,2.255,2.789c2.844,4.217,2.75,8.596-0.349,12.646 c-1.011,1.321-2.212,2.519-3.446,3.644c-2.919,2.661-6.027,5.125-8.831,7.9c-2.094,2.071-5.265,2.498-7.075,4.591 c-1.782,2.058-3.209,4.439-5.294,6.277c-5.747,5.067-11.472,10.158-17.213,15.233c-11.659,10.308-23.324,20.611-34.986,30.917 c-0.358,0.317-0.683,0.683-1.077,0.949c-1.321,0.894-1.639,1.845-0.552,3.222c0.89,1.126,1.464,2.493,1.734,3.91 c0.524,2.761,0.502,5.56-0.856,8.067c-3.313,6.117-8.311,10.069-15.262,11.372c-1.373,0.258-2.215,0.092-2.623-1.499 C641.925,321.296,641.023,318.842,640.254,316.437z" id="Layer_43"/><path d="M332.899,516.094c2.74,3.091,5.275,5.946,7.805,8.806c6.342,7.168,12.684,14.334,19.018,21.507 c1.106,1.252,2.228,2.487,3.01,3.999c1.999,3.868,1.828,7.571-0.687,11.15c-1.039,1.479-2.304,2.748-3.645,3.944 c-2.945,2.628-5.686,5.556-8.909,7.787c-5.315,3.679-9.354,8.698-14.273,12.779c-4.878,4.045-9.518,8.375-14.268,12.573 c-2.15,1.901-4.244,3.877-6.488,5.661c-5.088,4.044-11.081,3.786-15.445-1.01c-8.372-9.2-16.522-18.602-24.796-27.892 c-0.922-1.035-1.209-1.858-0.296-3.109c1.899-2.602,3.641-5.319,5.441-7.977c1.354,0.151,1.776,1.26,2.443,2.011 c7.784,8.765,15.538,17.559,23.299,26.344c0.396,0.448,0.812,0.878,1.197,1.337c0.68,0.812,1.33,0.798,2.117,0.094 c3.289-2.946,6.609-5.859,10.129-8.972c-3.503-3.488-6.313-7.28-8.561-11.488c-2.078-3.891-1.675-3.192,0.96-5.533 c5.984-5.316,11.989-10.609,18.213-16.113c2.969,3.336,5.813,6.529,8.656,9.721c0.477,0.536,0.942,1.084,1.433,1.608 c1.775,1.894,1.796,1.912,3.654,0.296c2.436-2.12,4.853-4.261,7.251-6.424c1.938-1.749,1.944-1.788,0.112-3.869 c-7.118-8.078-14.264-16.13-21.374-24.214c-2.829-3.217-2.487-2.029-0.508-5.685c1.194-2.206,2.499-4.352,3.766-6.518 C332.269,516.705,332.471,516.553,332.899,516.094z" id="Layer_42"/><path d="M425.004,507.085c-1.688,0.569-2.566,2.179-4.273,3.017c-2.207-2.811-3.636-6.076-5.469-9.085 c-0.619-1.017,0.187-1.526,0.799-2.071c2.411-2.148,4.834-4.284,7.254-6.422c4.301-3.803,8.606-7.601,12.904-11.408 c2.597-2.301,2.297-1.963,0.18-4.393c-2.042-2.345-4.115-4.664-6.172-6.996c-0.636-0.722-1.338-1.408-0.689-2.511 c1.797-3.054,3.571-6.123,5.515-9.462c1.891,1.982,3.492,3.658,5.732,6.005c0-2.414-0.057-4.02,0.012-5.62 c0.146-3.387,1.463-6.21,4.055-8.471c5.498-4.796,10.992-9.6,16.382-14.516c1.354-1.234,2.295-1.129,3.653-0.149 c4.005,2.888,7.644,6.16,10.676,10.049c4.415,5.662,4.236,11.466-0.449,16.953c-1.003,1.176-2.173,2.223-3.333,3.251 c-11.545,10.236-23.071,20.494-34.696,30.638c-1.783,1.555-2.152,2.772-1.462,5.152c5.303,18.315-12.896,31.525-25.939,28.31 c-3.336-0.823-6.242-2.352-8.799-4.592c-4.268-3.74-6.77-8.589-8.65-13.831c-0.44-1.225-0.279-2.086,1.097-2.486 c0.456-0.132,0.874-0.387,1.321-0.554c2.116-0.794,4.415-2.484,6.305-2.111c1.927,0.381,1.526,3.698,2.73,5.457 c0.809,1.181,1.471,2.485,2.409,3.549c3.116,3.536,7.031,4.438,11.383,2.829c4.321-1.597,7.315-4.472,7.747-9.364 C425.252,507.917,425.099,507.566,425.004,507.085z" id="Layer_41"/><path d="M245.997,665.038c-1.164,0.949-2.428,1.982-4.086,3.334c-1.824-3.214-3.555-6.3-5.321-9.365 c-0.737-1.28,0.396-1.713,1.032-2.287c3.287-2.964,6.618-5.878,9.933-8.812c3.404-3.012,6.823-6.007,10.203-9.047 c1.999-1.796,1.99-1.845,0.175-3.927c-2.121-2.435-4.268-4.849-6.431-7.247c-0.774-0.857-1.248-1.591-0.508-2.817 c1.713-2.839,3.27-5.773,5.134-9.106c2.302,2.58,4.347,4.863,6.383,7.153c1.668,1.878,3.301,3.789,5.007,5.632 c0.586,0.633,1.046,1.894,2.243,1.169c1.167-0.706,1.992-1.754,1.643-3.286c-0.277-1.209-1.064-2.133-1.842-3.035 c-1.875-2.174-3.72-4.38-5.715-6.441c-1.132-1.169-1.131-2.106-0.307-3.44c1.675-2.713,3.184-5.527,5.003-8.721 c3.912,4.501,7.507,8.617,11.075,12.758c0.757,0.878,1.206,2.186,2.769,1.001c1.84-1.397,2.351-2.642,1.123-4.141 c-2.27-2.776-4.633-5.486-7.099-8.088c-1.284-1.355-1.409-2.455-0.37-4.011c1.705-2.556,2.834-5.477,4.887-8.184 c3.695,4.194,7.307,8.151,10.761,12.243c6.801,8.052,4.019,14.948-3.079,20.144c-1.772,1.298-4.24,1.341-5.777,2.677 c-1.538,1.338-1.666,3.895-3.121,5.529c-2.235,2.509-4.687,4.775-7.534,6.584c-0.6,0.382-1.446,0.57-1.812,1.101 c-3.254,4.71-8.016,7.839-12.157,11.601c-1.661,1.508-1.95,2.688-1.319,4.863c5.291,18.265-12.214,31.118-25.064,28.608 c-3.765-0.735-6.989-2.378-9.801-4.9c-4.221-3.782-6.709-8.638-8.538-13.901c-0.313-0.902-0.398-1.625,0.653-2.048 c2.438-0.98,4.871-1.969,7.311-2.945c0.999-0.399,1.517-0.036,1.816,1.001c0.664,2.303,1.551,4.525,2.906,6.524 c2.945,4.339,6.898,5.897,11.761,4.651c4.824-1.235,8.168-4.984,8.727-9.788C246.699,665.718,246.612,665.391,245.997,665.038z" id="Layer_40"/><path d="M527.222,425.701c-0.727-2.493-1.454-4.984-2.164-7.423c0.869-0.814,1.866-0.807,2.761-1.088 c1.134-0.356,2.302-0.682,3.343-1.233c4.156-2.198,4.662-4.658,1.585-8.226c-4.293-4.982-8.702-9.861-13.049-14.796 c-2.813-3.195-2.623-2.34-0.537-6.03c1.176-2.081,2.39-4.139,3.592-6.202c0.119-0.203,0.284-0.378,0.436-0.577 c1.081-0.234,1.402,0.726,1.913,1.294c3.034,3.382,6.09,6.748,9.01,10.227c1.147,1.367,1.94,1.312,3.166,0.153 c2.344-2.216,4.805-4.31,7.233-6.437c2.345-2.054,2.366-1.811,0.337-4.105c-6.574-7.434-13.162-14.857-19.693-22.327 c-1.316-1.505-3.586-2.775-3.527-4.727c0.051-1.697,1.654-3.355,2.597-5.016c0.938-1.654,1.907-3.291,2.879-4.962 c1.168,0.252,1.589,1.165,2.175,1.826c8.408,9.483,16.795,18.985,25.183,28.486c0.632,0.716,1.284,1.425,1.844,2.197 c3.292,4.547,3.225,9.077-0.25,13.503c-0.881,1.121-1.904,2.146-2.955,3.114c-2.11,1.944-4.303,3.796-6.425,5.73 c-1.047,0.955-2.613,1.612-2.952,3.002c-0.317,1.298,1.075,2.283,1.595,3.47c1.372,3.128,1.413,6.248,0.286,9.425 c-1.829,5.158-9.909,12.772-17.875,12.26c-0.096-0.101-0.194-0.203-0.291-0.304C527.322,426.532,527.371,426.099,527.222,425.701z" id="Layer_39"/><path d="M462.94,401.837c9.356,10.565,18.453,20.838,27.655,31.229c4.905-4.41,9.512-8.587,14.167-12.708 c1.057-0.936,1.035-1.65,0.109-2.659c-2.348-2.556-4.564-5.233-6.937-7.763c-1.081-1.152-1.214-2.085-0.354-3.451 c1.708-2.718,3.235-5.548,4.925-8.486c1.115,0.402,1.58,1.268,2.173,1.932c3.347,3.75,6.722,7.478,9.986,11.301 c4.66,5.458,4.654,10.884-0.359,15.988c-5.282,5.377-10.917,10.416-16.781,15.152c-5.103,4.12-10.988,3.612-15.407-1.28 c-8.265-9.147-16.342-18.462-24.555-27.656c-1.076-1.204-1.18-2.087-0.216-3.399C459.183,407.534,460.858,404.911,462.94,401.837z" id="Layer_38"/><path d="M590.481,327.884c1.006,1.426,1.039,2.914,1.551,4.232c0.565,1.454,1.161,2.889,2.302,4.006 c1.563,1.529,2.947,1.729,4.843,0.629c0.718-0.416,1.38-0.947,2.004-1.497c6.098-5.373,12.182-10.761,18.271-16.145 c0.448-0.396,0.913-0.777,1.067-1.634c-2.502-2.848-5.029-5.872-7.729-8.732c-1.205-1.277-1.279-2.266-0.357-3.72 c1.661-2.617,3.129-5.356,4.65-7.995c1.169-0.273,1.508,0.666,2.016,1.235c3.425,3.832,6.854,7.661,10.211,11.551 c4.924,5.706,4.958,11.3-0.533,16.469c-7.219,6.795-14.671,13.363-22.31,19.682c-5.888,4.871-12.14,4.336-17.777-0.844 c-3.523-3.237-5.901-7.153-7.021-11.835c-0.4-1.674-0.101-2.664,1.77-3.137C585.84,329.545,588.167,328.644,590.481,327.884z" id="Layer_37"/><path d="M723.81,171.019c8.345,9.44,16.253,18.386,24.16,27.333c2.294,2.596,4.569,5.208,6.887,7.783 c0.714,0.793,1.427,1.904,2.335,2.146c2.493,0.665,2.274,2.235,1.846,4.081c-0.486,2.091-1.035,4.18-1.327,6.301 c-0.234,1.703-1.151,1.896-2.491,1.574c-2.858-0.686-5.319-2.035-7.291-4.269c-9.563-10.839-19.127-21.675-28.742-32.468 c-1.113-1.248-1.42-2.229-0.446-3.748C720.462,177.067,721.959,174.24,723.81,171.019z" id="Layer_36"/><path d="M542.089,331.74c1.724,1.932,3.071,3.429,4.405,4.937c8.785,9.936,17.566,19.876,26.353,29.809 c0.868,0.98,1.585,2.29,2.859,2.646c2.299,0.641,2.027,2.091,1.616,3.791c-0.506,2.087-1.027,4.181-1.331,6.301 c-0.263,1.832-1.101,2.04-2.711,1.621c-2.744-0.714-5.107-1.981-6.984-4.106c-9.575-10.832-19.118-21.694-28.743-32.481 c-1.23-1.379-1.47-2.436-0.445-4.024C538.776,337.644,540.24,334.919,542.089,331.74z" id="Layer_35"/><path d="M347.248,504.171c1.387,0.485,1.901,1.478,2.585,2.249c9.43,10.641,18.836,21.303,28.26,31.948 c0.789,0.89,1.53,2.2,2.522,2.465c3.16,0.844,2.435,2.885,1.946,4.984c-0.407,1.742-0.762,3.498-1.183,5.237 c-0.503,2.085-0.843,2.332-2.898,1.811c-2.726-0.693-5.041-2.094-6.921-4.226c-9.566-10.84-19.127-21.683-28.752-32.469 c-1.154-1.293-1.306-2.278-0.371-3.749C344.145,509.731,345.66,506.918,347.248,504.171z" id="Layer_34"/><path style="fill:#030200" d="M520.568,437.282c-0.199,0.866,0.311,1.618,0.391,2.438c0.266,2.718-1.345,5.324-3.821,6.221 c-2.403,0.87-4.847,0.205-6.445-1.754c-1.763-2.162-1.878-4.689-0.316-6.924c1.604-2.295,4.259-3.154,6.902-2.198 c0.665,0.241,1.293,0.583,1.938,0.88c0,0,0.279,0.063,0.281,0.061c0.176,0.08,0.332,0.191,0.473,0.325 c0.003-0.004,0.199,0.207,0.203,0.204c0.137,0.137,0.246,0.295,0.336,0.467C520.511,436.998,520.568,437.282,520.568,437.282z" id="Layer_33"/><path style="fill:#030200" d="M631.827,342.687c-0.068,3.229-2.723,5.755-6.036,5.745c-2.985-0.009-5.806-2.729-5.817-5.61 c-0.011-3.163,3.091-6.129,6.297-6.021C629.218,336.901,631.89,339.732,631.827,342.687z" id="Layer_32"/><path style="fill:#030200" d="M257.559,690.38c-0.024,1.979-0.614,3.742-2.079,5.12c-1.879,1.766-4.797,2.04-6.906,0.701 c-2.383-1.514-3.382-4.226-2.494-6.771c0.88-2.522,3.513-4.371,6.027-4.08c0.919,0.107,1.797,0.564,2.694,0.861 c0.462-0.07,0.847,0.116,1.213,0.366c0.237,0.171,0.45,0.369,0.653,0.579c0.204,0.211,0.378,0.446,0.536,0.693 c0.136,0.262,0.203,0.543,0.208,0.838C257.306,689.264,257.324,689.831,257.559,690.38z" id="Layer_31"/><path style="fill:#020200" d="M657.868,248.198c0.004,3.191-2.652,5.863-5.878,5.911c-3.074,0.047-5.686-2.468-5.768-5.554 c-0.091-3.437,2.572-6.113,6.03-6.06C655.351,242.541,657.864,245.092,657.868,248.198z" id="Layer_30"/><path style="fill:#020200" d="M314.317,552.095c-0.079,3.16-2.967,5.914-6.119,5.835c-3.037-0.076-5.627-2.825-5.566-5.909 c0.065-3.278,2.79-5.869,6.076-5.778C311.784,546.328,314.393,549.05,314.317,552.095z" id="Layer_29"/><path style="fill:#030300" d="M435.685,530.72c0.752,4.43-0.478,7.024-3.829,8.074c-2.439,0.764-4.689-0.017-6.292-2.185 c-1.463-1.978-1.558-4.328-0.259-6.371c1.322-2.078,3.964-3.301,6.154-2.738c1.028,0.265,2.002,0.74,3,1.121 c0.117,0.078,0.236,0.154,0.356,0.229C435.288,529.388,435.701,529.955,435.685,530.72z" id="Layer_28"/><path style="fill:#030200" d="M433.419,447.099c-2.939-0.134-5.566-3-5.466-5.964c0.107-3.146,2.97-5.907,6.05-5.834 c3.193,0.075,5.745,2.887,5.587,6.154C439.434,444.636,436.585,447.243,433.419,447.099z" id="Layer_27"/><path style="fill:#020200" d="M254.894,684.408c-0.288-2.144,0.315-3.987,1.894-5.478c1.862-1.757,4.419-2.132,6.554-0.993 c2.364,1.262,3.529,3.625,3.07,6.227c-0.445,2.522-2.49,4.471-5.076,4.706c-0.931,0.084-1.886-0.076-2.829-0.125 c-0.474-0.332-1.193-0.113-1.555-0.694l0.053,0.054c-0.253-0.263-0.511-0.521-0.777-0.773l0.057,0.059 C255.517,686.537,255.282,685.436,254.894,684.408z" id="Layer_26"/><path style="fill:#020200" d="M434.459,528.621c-1.439-4.103-0.967-6.37,1.72-8.228c2.056-1.422,4.334-1.481,6.334-0.165 c2.094,1.378,3.209,3.869,2.584,6.163c-0.64,2.348-2.127,3.936-4.604,4.439c-1.072,0.217-2.129,0.097-3.185-0.103 c-0.275-0.263-0.641-0.363-0.967-0.537c-0.219-0.115-0.423-0.252-0.616-0.403c-0.096-0.075-0.188-0.157-0.284-0.232 c-0.183-0.159-0.361-0.325-0.537-0.494c-0.175-0.167-0.348-0.337-0.518-0.511L434.459,528.621z" id="Layer_25"/><path style="fill:#020100" d="M527.733,427.239c0.345,0.479,0.707,0.947,1.034,1.439c1.682,2.535,1.729,5.134,0.141,7.226 c-1.508,1.987-3.97,2.736-6.7,2.003c-0.562-0.151-1.094-0.413-1.639-0.624l0.091,0.08c-0.249-0.284-0.536-0.529-0.803-0.795 l0.063,0.068c-0.182-0.205-0.303-0.441-0.357-0.711c-0.046-0.516,0.079-1.092-0.49-1.429l0.032,0.042 c-0.408-1.475-0.495-2.944,0.063-4.406c1.329-3.225,3.899-3.89,7.025-3.412c0.55,0.17,1.225-0.017,1.632,0.566L527.733,427.239z" id="Layer_24"/><path style="fill:#929A00" d="M434.387,528.55c0.248,0.008,0.494,0.016,0.741,0.025c0.194,0.284,0.491,0.469,0.707,0.733 l-0.007-0.005c0.208,0.22,0.445,0.404,0.706,0.558c0.258,0.288,0.515,0.577,0.773,0.867c-0.54-0.003-1.081-0.004-1.622-0.007 C434.933,530.186,434.361,529.548,434.387,528.55z" id="Layer_23"/><path style="fill:#030200" d="M519.167,430.132c-0.021,1.468-0.042,2.937-0.063,4.406 C518.071,433.054,518.174,431.587,519.167,430.132z" id="Layer_22"/><path style="fill:#A29700" d="M254.894,684.408c0.702,0.884,1.293,1.817,1.389,2.983c-0.701-0.133-1.171-0.557-1.481-1.18 C254.832,685.61,254.862,685.008,254.894,684.408z" id="Layer_21"/><path style="fill:#B6B800" d="M256.95,688.051c0.718-0.216,1.173,0.157,1.555,0.694c-0.722,0.311-0.712,1.043-0.946,1.635 C257.026,689.69,256.682,688.951,256.95,688.051z" id="Layer_20"/><path style="fill:#B39A00" d="M527.824,427.287c-0.678,0.199-1.227,0.024-1.632-0.566c0.344-0.34,0.686-0.681,1.03-1.021 C527.82,426.079,527.848,426.673,527.824,427.287z" id="Layer_19"/><path style="fill:#030200" d="M519.072,434.496c0.623,0.187,0.791,0.683,0.851,1.254c-0.216,0.334-0.478,0.361-0.781,0.118 l0.075,0.076C519.17,435.462,519.121,434.978,519.072,434.496z" id="Layer_18"/><path style="fill:#FFE600" d="M314.443,266.514c0-19.63,0-39.26,0-58.891c0-0.718-0.013-1.437,0.003-2.154 c0.059-2.606,0.063-2.682,2.503-2.686c14.72-0.025,29.439,0.016,44.159-0.046c1.887-0.008,2.627,0.618,2.403,2.466 c-0.071,0.59-0.009,1.196-0.009,1.794c0,36.267-0.028,72.536,0.057,108.803c0.007,2.614-0.701,4.464-2.603,6.258 c-4.44,4.185-8.702,8.56-12.96,12.933c-1.172,1.204-2.385,1.742-4.084,1.721c-6.82-0.08-13.643-0.088-20.462,0.005 c-1.724,0.024-2.797-0.757-4.077-1.738c-3.936-3.017-5.136-6.732-5.053-11.73C314.629,304.34,314.443,285.425,314.443,266.514z" id="Layer_17"/><path style="fill:#FDE400" d="M345.708,185.434c0,2.035-0.037,4.069,0.012,6.102c0.034,1.412-0.308,2.241-1.983,2.191 c-3.108-0.095-6.221-0.063-9.33-0.011c-1.368,0.024-1.92-0.499-1.904-1.884c0.047-4.307,0.058-8.615-0.004-12.922 c-0.021-1.476,0.672-1.833,1.967-1.816c3.11,0.041,6.221,0.053,9.331-0.004c1.372-0.025,1.948,0.51,1.917,1.883 c-0.049,2.153-0.013,4.307-0.013,6.46C345.704,185.434,345.705,185.434,345.708,185.434z" id="Layer_16"/><path style="fill:#F0D700" d="M314.685,366.752c1.715,3.815,2.153,7.456,3.405,11.129c-2.219,0.615-4.169,0.319-6.393,0.259 C312.179,374.244,313.636,370.798,314.685,366.752z" id="Layer_15"/><path style="fill:#F5DD00" d="M287.877,412.791c0.036,2.406-1.132,3.54-3.739,3.628c-2.729,0.094-4.168-1.172-4.131-3.629 c0.034-2.322,1.325-3.446,3.947-3.44C286.579,409.356,287.843,410.465,287.877,412.791z" id="Layer_14"/><path style="fill:#F9E100" d="M339.713,423.393c0.02,2.469-1.125,3.64-3.646,3.731c-2.726,0.097-4.072-1.142-4.048-3.724 c0.022-2.435,1.142-3.429,3.87-3.438C338.618,419.952,339.694,420.918,339.713,423.393z" id="Layer_13"/><path style="fill:#DEC700" d="M305.964,420.722c1.771-2.759,3.205-4.846,5.259-7.186c0.515,2.257,0.125,4.102,0.17,5.906 c0.021,0.841-0.532,1.271-1.374,1.277C308.953,420.727,307.888,420.722,305.964,420.722z" id="Layer_12"/><path style="fill:#F8E000" d="M703.37,244.594c-1.335-1.534-2.497-2.868-3.75-4.309c1.003-1.476,2.374-2.406,3.611-3.429 c0.795-0.657,1.413-2.169,2.915-1.06c1.633,1.205,2.249,3.043,1.409,4.641C706.653,242.15,705.281,243.439,703.37,244.594z" id="Layer_11"/><path style="fill:#F8E000" d="M322.633,573.557c0.697-1.142,1.815-1.87,2.813-2.698c0.892-0.739,1.667-2.322,2.801-1.919 c1.534,0.546,2.427,2.187,3.388,3.542c0.333,0.47,0.041,0.91-0.237,1.304C328.702,577.601,325.24,577.515,322.633,573.557z" id="Layer_10"/><path style="fill:#FCE400" d="M452.459,466.757c-0.362-5.321-0.074-9.612,4.278-12.63c1.848-1.281,3.478-2.898,5.099-4.475 c1.151-1.119,1.912-0.873,2.917,0.204c2.372,2.543,2.506,3.687,0.034,5.956C460.879,459.401,456.856,462.864,452.459,466.757z" id="Layer_9"/><path style="fill:#FFE600" d="M519.856,436.568c0.445,0.087,0.724,0.34,0.803,0.795 C520.098,437.395,519.961,436.997,519.856,436.568z" id="Layer_8"/><path style="fill:#ADA000" d="M519.142,435.867c0.261-0.04,0.52-0.078,0.781-0.117c-0.001,0.295-0.003,0.591-0.005,0.886 C519.403,436.64,519.156,436.37,519.142,435.867z" id="Layer_7"/><path style="fill:#AAA700" d="M256.225,687.331c0.521-0.005,0.803,0.229,0.777,0.773 C256.427,688.163,256.266,687.808,256.225,687.331z" id="Layer_6"/><path style="fill:#030300" d="M435.834,529.307c-0.388-0.097-0.631-0.336-0.707-0.734 C435.363,528.818,435.598,529.063,435.834,529.307z" id="Layer_5"/><path style="fill:#030300" d="M436.535,529.86c-0.383,0.001-0.61-0.198-0.706-0.558 C436.063,529.488,436.299,529.674,436.535,529.86z" id="Layer_4"/><path d="M346.826,289.867c-0.001,3.104-0.047,6.208,0.02,9.31c0.03,1.397-0.514,1.892-1.879,1.87 c-3.461-0.055-6.921-0.049-10.382-0.007c-1.227,0.014-1.688-0.47-1.682-1.691c0.032-6.326,0.022-12.654,0.008-18.98 c-0.003-1.172,0.461-1.73,1.691-1.717c3.461,0.036,6.923,0.051,10.382-0.009c1.41-0.025,1.884,0.56,1.861,1.912 C346.79,283.659,346.826,286.763,346.826,289.867z" id="Layer_3"/><path d="M346.827,232.743c0,4.656-0.055,9.314,0.029,13.969c0.03,1.691-0.503,2.339-2.249,2.277 c-3.22-0.113-6.446-0.092-9.667-0.009c-1.589,0.041-2.053-0.629-2.048-2.117c0.036-9.433,0.046-18.865-0.009-28.296 c-0.009-1.571,0.539-2.086,2.077-2.046c3.221,0.084,6.449,0.104,9.667-0.007c1.732-0.059,2.269,0.55,2.233,2.261 C346.764,223.428,346.827,228.086,346.827,232.743z" id="Layer_2_00000043434869488237184280000002892580527570931083_"/></svg>