<svg version="1.1" id="Layer_1" xmlns="http://www.w3.org/2000/svg" x="0px" y="0px" viewBox="0 0 265 456" style="enable-background:new 0 0 265 456" xml:space="preserve"><style>.st1{fill:#FFFFFF}.st2{fill:#08813E}.st3{fill:#E8261E}</style><path d="M243.9,93.1c0,35,0,175.4,0,175.4c0,7.5-0.9,14.9-2.5,22.2L21.1,93.1c0,0,0,0,0-0.1H21H8.4v8.5v166.9 C8.4,362.6,132.5,446,132.5,446s124.1-83.4,124.1-177.5V93.1H243.9z M132.5,424.5c-25.5-18.9-111.4-82.3-111.4-156 c0,0,0-104.3,0-155.6l215.6,193.4C215.5,363.2,153.5,409,132.5,424.5z" style="fill:#015FAE"/><path class="st1" d="M21.1,113c0,51.2,0,155.6,0,155.6c0,73.8,85.9,137.1,111.4,156c21-15.6,83-61.3,104.2-118.2L21.1,113z"/><polygon class="st2" points="210.5,263 214,266.2 214,146.7 231.3,146.7 231.3,143.2 193.2,143.2 193.2,146.7 210.5,146.7"/><path class="st2" d="M145.9,205.1c0-3.2,0-7.4,0-11.9l31.1,27.9c0,4.4,0,8.4,0,11.9l3.5,3.1v-86.2l-0.8-0.5 c-0.4-0.3-10.3-6.1-19.3-6.1c-9.1,0-16.9,6-17.2,6.3l-0.7,0.5v51.9L145.9,205.1z M145.9,151.8c1.9-1.3,7.8-5,14.4-5 c6.7,0,14.3,3.8,16.7,5.2c0,1.3,0,37.4,0,64.4l-31.1-27.9C145.9,172,145.9,152.8,145.9,151.8z"/><path class="st2" d="M92.1,156.8c0-2.6,0-5.5,0-7.6c4.1,3.7,16.1,14.5,16.1,14.5s15.8-11.8,20-14.9c0,4.3,0,27.3,0,40.4l3.5,3.1 v-49.2h-1.8c-5.2,3.8-19.8,14.7-21.5,16c-1.5-1.3-13.1-11.8-17.8-16h-2v10.5L92.1,156.8z"/><path class="st2" d="M127,109.7c0,0,0,8.3,0,10.9c-3.2,0-63.8,0-67,0c0-2.6,0-10.9,0-10.9h-3.5v14.4h74v-14.4H127z"/><rect x="161" y="103" class="st2" width="3.5" height="31.3"/><path class="st2" d="M202.6,101.3c0,0,0,16.5,0,19.4c-2.5,0-9.1,0-9.1,0v13.6h3.5c0,0,0-7.6,0-10.1c3.1,0,33.7,0,33.7,0v-22.9 H202.6z M227.2,104.8c0,2.6,0,13.3,0,15.9c-2.1,0-11.9,0-21.1,0c0-2.6,0-13.3,0-15.9C208.9,104.8,224.4,104.8,227.2,104.8z"/><circle class="st2" cx="85.9" cy="104.6" r="4.4"/><circle class="st2" cx="101" cy="104.6" r="4.4"/><path class="st3" d="M80.4,166.1v214.7c0,0,0,0,0,0c-1.6-1.6-3.3-3.3-4.9-4.9c0,0-0.1-0.1-0.1-0.1c-1.6-1.7-3.3-3.4-4.9-5.1 c0,0,0,0,0-0.1c-9.8-10.6-19.3-22.3-27.3-34.9c0,0,0,0,0,0v-203L80.4,166.1z M221.9,293.1l-37.2-33.4v121.2 c0.1-0.1,0.1-0.1,0.2-0.2c1.4-1.4,2.9-2.9,4.3-4.3c0.5-0.5,0.9-1,1.4-1.5c1.1-1.1,2.1-2.2,3.2-3.3c0.5-0.5,1-1.1,1.5-1.7 c1.1-1.2,2.2-2.5,3.4-3.7c0.4-0.4,0.8-0.8,1.1-1.3c1.4-1.6,2.9-3.3,4.3-5c0.4-0.5,0.8-0.9,1.1-1.4c1.1-1.3,2.1-2.5,3.1-3.8 c0.5-0.6,1-1.2,1.5-1.9c1-1.2,1.9-2.5,2.8-3.7c0.4-0.6,0.9-1.2,1.3-1.8c1.3-1.7,2.5-3.5,3.7-5.2c0.1-0.2,0.2-0.3,0.3-0.5 c1.2-1.8,2.4-3.6,3.6-5.4c0.1-0.2,0.3-0.4,0.4-0.7V293.1z M136.4,421.7c0.5-0.4,1.1-0.8,1.6-1.2c0.2-0.2,0.4-0.3,0.6-0.5 c0.6-0.4,1.1-0.9,1.7-1.3c0.2-0.2,0.5-0.4,0.7-0.6c0.6-0.4,1.2-0.9,1.8-1.4c0.3-0.2,0.5-0.4,0.8-0.6c0.6-0.5,1.3-1,1.9-1.5 c0.2-0.2,0.5-0.4,0.7-0.6c1.6-1.2,3.2-2.5,4.9-3.8V229.6l-37.2-33.4v214.1c6.6,5.2,12.3,9.5,16.7,12.8c0.1,0.1,0.2,0.2,0.3,0.2 c0.6,0.4,1.1,0.8,1.6,1.2c1-0.7,2.1-1.5,3.2-2.4C135.9,422,136.1,421.8,136.4,421.7z"/><g><circle cx="132.5" cy="342" r="48.8"/><path class="st1" d="M149.9,298.1c10,4,18.3,11.3,23.6,20.5l-4.8,18.8l-0.2,0l-17.2-0.6l-1.2,0l-17.6-12.4v-12.6l0-0.6 L149.9,298.1z M168.9,339l-0.4,0l-17.2-0.6l-0.3,0l-9.1,20.9l0.3,0.3l10.3,12.6l0.4,0.4l16.6-1.2c3.6-4.5,6.4-9.6,8.1-15.1 L168.9,339z M122,359.2l-6.8-19.4l-0.3,0L98.9,340h-0.5l-10.8,16.6c1.7,5.2,4.2,10,7.6,14.3l16.9,1.6l0.3-0.4l9.4-12.5L122,359.2z M98.3,338.4h0.6l16-0.2l1-0.1l15.1-13.6c0-6.3,0-12.7,0-12.7l0-0.6l-16.4-13c-5.7,2.3-11,5.8-15.5,10.3 c-4.8,4.8-8.4,10.5-10.8,16.6L98.3,338.4z M151.4,373.5l-0.2-0.2l-10.3-12.6c0,0-0.2-0.2-0.4-0.5h-17.2c-0.2,0.3-0.3,0.5-0.3,0.5 l-9.3,12.4l-0.3,0.4l6.3,14c4.2,1.2,8.5,1.8,12.9,1.8c3.6,0,7.1-0.4,10.6-1.2L151.4,373.5z"/></g><path class="st2" d="M122.4,42.2c-12.8,0-32.5,0-32.5,0s15.9,11.6,26.3,19.1c-4,12.2-10.1,30.9-10.1,30.9s15.9-11.6,26.3-19.1 c10.4,7.5,26.3,19.1,26.3,19.1s-6.1-18.7-10.1-30.9c10.4-7.6,26.3-19.1,26.3-19.1s-19.7,0-32.5,0c-4-12.2-10.1-30.9-10.1-30.9 S126.4,29.9,122.4,42.2z M132.5,21.5c0.8,2.5,3.7,11.2,6.7,20.7c-6.5,0-6.9,0-13.4,0C128.9,32.7,131.7,24,132.5,21.5z M121.4,45.3 c-2,6.2-2.1,6.6-4.2,12.8c-8-5.8-15.5-11.2-17.6-12.8C102.3,45.3,111.5,45.3,121.4,45.3z M118.9,63.2c5.3,3.8,5.6,4.1,10.9,7.9 c-8,5.8-15.5,11.2-17.6,12.8C113,81.4,115.9,72.7,118.9,63.2z M140.3,45.3c2.3,7.1,2.5,7.7,4.8,14.7c-6,4.4-6.5,4.7-12.5,9.1 c-6-4.4-6.5-4.7-12.5-9.1c2.3-7.1,2.5-7.7,4.8-14.7C132.2,45.3,132.8,45.3,140.3,45.3z M165.3,45.3c-2.1,1.5-9.6,6.9-17.6,12.8 c-2-6.2-2.1-6.6-4.2-12.8C153.5,45.3,162.7,45.3,165.3,45.3z M146.1,63.2c3.1,9.4,5.9,18.2,6.7,20.7c-2.1-1.5-9.6-6.9-17.6-12.8 C140.5,67.3,140.8,67.1,146.1,63.2z"/><g><path class="st3" d="M71.9,49.1c0-18.6,12.4-34.4,29.3-39.5c-3.8-1.1-7.8-1.7-11.9-1.7c-22.8,0-41.2,18.4-41.2,41.2 c0,22.8,18.4,41.2,41.2,41.2c4.1,0,8.1-0.6,11.9-1.7C84.3,83.5,71.9,67.8,71.9,49.1z"/><path class="st1" d="M61.3,47.5c0-8.6,4.9-16.1,12.1-19.8c-0.3,0-0.7-0.1-1-0.1c-10.9,0-19.8,8.9-19.8,19.8 c0,10.9,8.9,19.8,19.8,19.8c0.3,0,0.7,0,1-0.1C66.2,63.6,61.3,56.2,61.3,47.5z"/></g><g><path class="st3" d="M19.6,57.8c0-9.1,6.1-16.8,14.4-19.3c-1.8-0.6-3.8-0.9-5.8-0.9C17,37.6,8,46.6,8,57.8C8,68.9,17,78,28.2,78 c2,0,4-0.3,5.8-0.9C25.7,74.6,19.6,66.9,19.6,57.8z"/><path class="st1" d="M14.5,57c0-4.2,2.4-7.9,5.9-9.7c-0.2,0-0.3,0-0.5,0c-5.4,0-9.7,4.3-9.7,9.7c0,5.4,4.3,9.7,9.7,9.7 c0.2,0,0.3,0,0.5,0C16.9,64.9,14.5,61.2,14.5,57z"/></g><g><path class="st3" d="M193.1,49.1c0-18.6-12.4-34.4-29.3-39.5c3.8-1.1,7.8-1.7,11.9-1.7c22.8,0,41.2,18.4,41.2,41.2 c0,22.8-18.4,41.2-41.2,41.2c-4.1,0-8.1-0.6-11.9-1.7C180.7,83.5,193.1,67.8,193.1,49.1z"/><path class="st1" d="M203.7,47.5c0-8.6-4.9-16.1-12.1-19.8c0.3,0,0.7-0.1,1-0.1c10.9,0,19.8,8.9,19.8,19.8 c0,10.9-8.9,19.8-19.8,19.8c-0.3,0-0.7,0-1-0.1C198.8,63.6,203.7,56.2,203.7,47.5z"/></g><g><path class="st3" d="M245.4,57.8c0-9.1-6.1-16.8-14.4-19.3c1.8-0.6,3.8-0.9,5.8-0.9c11.2,0,20.2,9,20.2,20.2 c0,11.2-9,20.2-20.2,20.2c-2,0-4-0.3-5.8-0.9C239.3,74.6,245.4,66.9,245.4,57.8z"/><path class="st1" d="M250.5,57c0-4.2-2.4-7.9-5.9-9.7c0.2,0,0.3,0,0.5,0c5.4,0,9.7,4.3,9.7,9.7c0,5.4-4.3,9.7-9.7,9.7 c-0.2,0-0.3,0-0.5,0C248.1,64.9,250.5,61.2,250.5,57z"/></g></svg>