<svg xmlns="http://www.w3.org/2000/svg" viewBox="0 0 1582.41 1642.79"><defs><style>.cls-3,.cls-4,.cls-5,.cls-6{fill:#018400}.cls-4,.cls-5,.cls-6{stroke:#018400}.cls-5{stroke-linecap:round}.cls-4,.cls-5,.cls-6{stroke-miterlimit:5.29}.cls-4,.cls-5{stroke-width:0.53px}.cls-5{isolation:isolate;opacity:0.73}.cls-6{stroke-width:0.73px}.cls-6{fill-rule:evenodd}</style></defs><g id="Layer_2" data-name="Layer 2"><g id="Layer_1-2" data-name="Layer 1"><g id="g4303"><path id="path4138" d="M689.62,309.45,789.81.33l99.07,312.23c136.47,20,285.95,132,352.82,261h340.38l-277,196.77c30,195.58-69.78,360.12-129.81,426l105,310L1020,1313.67c-67.66,36.84-262.23,104-474-1.89L297.87,1506.3l99.3-301.5C251.26,1044.79,246,869.09,263.72,763L.33,573.51H327c44.83-100.66,178-226.8,362.66-264.06Z" style="stroke-width:0.66px;stroke-linejoin:round;stroke-linecap:round;stroke:#018400;fill:#018400"/><path id="path4141" d="M783.76,320.08c-283.92,0-514.35,230.43-514.35,514.35s230.43,514.34,514.35,514.34,514.34-230.43,514.34-514.34S1067.67,320.08,783.76,320.08ZM629.91,984.44C491.74,893.79,409.76,716.86,500,436a487,487,0,0,1,144.09-70.39c-47.54,160.42-100.76,380.47,89.63,481.7-34.62,60.34-69.23,103.57-103.85,137.12Zm42.38-421c3.1-101.56,58-215.21,65.71-215.92q22.59-2.1,45.76-2.11c196.59,0,366,115.8,443.64,283,3.31,5.71,3.27,13.66-6.89,4.45-123-108.16-306.29-178.71-548.22-69.39Zm599,232.34c.06,12.78,1.5,25.62,1.5,38.62a491,491,0,0,1-12.81,111.75C1200.56,883.53,1006.72,755,790.35,791.75c-51.65-38.2-105.27-74.85-110-149.58C906.45,539.59,1094,576.55,1271.24,795.81ZM1057,907.44c101.54,40.12,151.7,100.49,171.82,129.9-77,168.84-247.27,286.07-445.07,286.07a494.73,494.73,0,0,1-57.56-3.34C848.11,1279,1029.93,1170.88,1057,907.44ZM575.18,1276.88a489.34,489.34,0,0,1-120.52-80.67C558.7,1202,745.14,1014.34,817,862.07c21.1-4.08,97.1-6,165.39,18.43-15.37,165.27-115.84,352.22-407.2,396.38Zm-187.13-155A489.55,489.55,0,0,1,388.78,546c-12.68,195.76,18,366.19,187.28,499.37C546.44,1080.47,459.52,1135.09,388.05,1121.88Z" style="fill:#fff;stroke:#fff;stroke-width:1.32px;stroke-linejoin:round;stroke-linecap:round"/><path id="path4150" class="cls-3" d="M194,982.85H167.67V812.21L112.6,928.32H96.91L42.25,812.21V982.85H17.64v-198H53.55l52.8,110.26,51.07-110.26H194Z"/><path id="path4152" class="cls-3" d="M868.73,1624.84q-7.32,3.18-13.3,6a126.33,126.33,0,0,1-15.43,5.85,146.26,146.26,0,0,1-17.69,4.26,108.23,108.23,0,0,1-20.88,1.86,121.83,121.83,0,0,1-39.23-6,80.62,80.62,0,0,1-30.59-19q-12.78-12.64-20-32.06t-7.19-45.35q0-24.47,6.92-43.76a88.52,88.52,0,0,1,20-32.58,83.62,83.62,0,0,1,30.46-19.68q18-6.79,39.76-6.79a133.9,133.9,0,0,1,31.79,3.86q16,3.85,35.38,13.57v31.25h-2q-16.35-13.7-32.45-20a94.23,94.23,0,0,0-34.44-6.25A71.51,71.51,0,0,0,772.7,1465a58.54,58.54,0,0,0-21.41,15q-9.18,10-14.36,25.27t-5.06,35.11q0,20.88,5.59,35.91t14.63,24.47a58.61,58.61,0,0,0,21.68,14.63,74.67,74.67,0,0,0,26.33,4.66,96.74,96.74,0,0,0,35.65-6.52A102.33,102.33,0,0,0,866.87,1594h1.86v30.86Z"/><path id="path4154" class="cls-3" d="M1539.49,803.43q12.1,13.3,18.48,32.59t6.52,43.75q0,24.48-6.65,43.89t-18.35,32.19a78.8,78.8,0,0,1-29,20.22q-16.62,6.78-38,6.78a100.82,100.82,0,0,1-38-6.92,78.56,78.56,0,0,1-29-20.08q-12-13.17-18.48-32.32t-6.39-43.76q0-24.19,6.39-43.35a92.24,92.24,0,0,1,18.62-33,76.4,76.4,0,0,1,29-19.95,101.84,101.84,0,0,1,37.9-6.91q21.29,0,38.18,7a78.81,78.81,0,0,1,28.86,19.81Zm-2.4,76.34q0-38.57-17.29-59.45t-47.21-21q-30.19,0-47.48,21T1408,879.77q0,39,17.56,59.72t47.08,20.62q29.52,0,47-20.62t17.55-59.72Z"/><path id="path4174" class="cls-4" d="M1280,392.38c1.48-.12,2.9-.2,4.25-.26,11.87-.53,24.68,2.9,33.41,9.52,4.91,3.83,8.51,9.21,10.43,17.79,2.53,21.35-10.4,28-13.92,33.36-.32.47-.61,1.57.86,3.4,5.35,7.27,8.56,8.59,11.88,9.73,4.42,1.51,11.27-1.27,16.24-3.83,15.32-7.91,27.87-15.89,41.22-24.67,2.6-2.16,3.08-5.09,3.16-8.05.31-2,7.17-8.73,10.82-9.33,3.9-1.1,9.14,1.55,11.89,5.62,3.61,7.14-2.64,12.89-6.82,15.86a734.73,734.73,0,0,1-66.23,39.2c-13.52,5.55-24.86-1.88-33.73-14.31l-3.67-7.4c-14.38-23.74-29.6-29.22-25.45-50.14Zm8.43,31.21a23.42,23.42,0,0,0,9,9.4c4.19,1.41,8.7.69,11.45-2.61,12.62-16.5-1.54-30.63-19.25-27.84-4.62.45-5.33,2.12-5.58,5.84a34.54,34.54,0,0,0,4.33,15.21Z"/><path id="path4176" class="cls-4" d="M1208,309.34c-1.21,4.66-1,6.61.19,7.79l-4.4,15.07c-2.87-2-5.57-3-8.41.14-52,54.94-138.69,4.53-155.18-22.75l1.84-2.82c37.3,41.46,113.22,60.35,143.7,21a39.73,39.73,0,0,0,4.68-6.58c-22.45-8.84-27.49-20.8-23.62-32.8a18.43,18.43,0,0,1,12.18-12c14.06-4.08,25.9,3.46,28.91,14.11,1.8,6,.86,17,.11,18.83Zm-21.94-21.71c-2.91-.23-7.23.42-9.41,3.43-4.1,8.2,3,15.17,11,14.49,6.6-.72,9-4.24,8.61-8C1195.9,291.51,1189.63,288.1,1186.06,287.63Z"/><path id="path4180" class="cls-4" d="M1148.53,181.84l6.46,6.72c1.83,2.17,2.18,2.95,1.91,3.78l-.74,2.4c-.59,2-1.61,2-2.61,2-15.57.54-24.89,10.38-26.24,21.76-1.94,16.36,8.3,38.79,31.16,58.13l-7.5,9.51c-20.52-12.49-36.27-27.27-63.25-35.63-5.06-1.43-7.71-5.49-8.41-10.15-.71-8.67,6.8-11.46,12.48-6.71,12.57,10.28,29,19.58,42.09,27.94-4.48-5.05-14.5-22.28-15.78-42.28-.94-14.84,7-32.9,26.06-38.1,2.63-.68,3.65-.09,4.37.61Z"/><path id="path4184" class="cls-4" d="M961.75,157.84c-3.51-2.24-19.71-6.12-31.45-6.64a13.33,13.33,0,0,0-8.92,1.88c-6.39,4.3-11.76,15.5,4.22,23.52,7.15,2.88,25,10.63,40.24,8.42-1.37-5.65-2.73-17-4.09-27.18Zm17.39,32.65c1.58,1.45,20.2,3.37,29.93,6.77l-8.2,10.88c-5.4-2-14.42-3.87-16.81-1.15.55,3,3,6.77,5.08,9.65,4.65,5.8.73,8.13-5.41,2.49-9.75-7.95-11-12.06-13.69-16.92-14.06-4.5-36.59-7.18-53.89-17.32-9.34-5.29-13.59-10.32-14.62-20.13-.4-10.33,4.43-18.27,19.49-21.54,15.72-1.74,34.5,3.14,40.07,5.1l.78-38.17c.62-5-2.72-9.71-5.86-13.06-3.39-2.61-2.71-8.87-.15-10.63,8.75-5.92,17.22.89,18.08,10l.76,54.21a50.47,50.47,0,0,0,28.83.47c4.26-.47,3.27,2.5-.25,4.89-4.7,3.84-14.84,2.76-23,1.91-4.46-1.17-6,3.45-5.18,7Z"/><path id="path4168" class="cls-4" d="M1337.11,527.65c-3.33-4.45-1.14-9.95.38-13.21,2.51-4.48,6.6-6.57,12.58-9.55a174.25,174.25,0,0,0,18.31-9.4q11.63-6.53,24-14.13c7.78-4.69,14.39-8.91,21.54-13.32,3.7-2.09,3.85-4,3.19-6.4-.21-1.4-.58-2.15.69-3.94,3.09-3.29,7-4.53,9.22-2.52,3.51,4.45,7.31,13.82-3.36,20-4.56,3-13,7.07-21,12.11s-15.28,9.51-21.86,13.23c-8.17,4.67-15.1,8.77-19.5,10.6-4.4,2.3-12.44,5.22-15.33,15.21a4.05,4.05,0,0,1-2.74,3.51c-2.1.66-5.06-1-6.12-2.19Z"/><path id="path4178" class="cls-5" d="M1029.67,245.4c-1.24,4.23-6.77,6.16-12.35,4.32s-9.1-6.77-7.86-11,6.76-6.16,12.35-4.31S1030.91,241.18,1029.67,245.4Z"/><path id="path4178-5" class="cls-5" d="M1061.55,255.77c-1.24,4.23-6.77,6.16-12.35,4.31s-9.1-6.76-7.86-11h0c1.23-4.23,6.76-6.16,12.35-4.31s9.1,6.76,7.86,11Z"/><path id="path4222" class="cls-4" d="M267.15,302.13l8-4.8c2.53-1.3,3.36-1.47,4.11-1l2.17,1.26c1.78,1,1.58,2,1.39,3-2.94,15.29,4.57,26.58,15.36,30.43,15,5.36,38,.9,61.12-15.58,14.47-10.81,29.43-24.19,46.59-34.55L464,245.79c4.91-2.56,3.26-2.34-.72-2.45-18.2-.7-30.68-3.88-39.08-9.16-5.47-4-9.69-6.65-15.75-6.37-25,1.29-58.77,34-30.11,48.53,5.54,3,2.74,7.08-5.16,6.84-13.16-1.74-23.63-15.17-4.73-42,18.54-24,41-24.8,53.88-20.15,4.7,1.62,9.19,6.23,12.12,7.39,12,7.19,29.71,8.75,50,5.28A143.41,143.41,0,0,1,498.36,230c4.42-1.45,7.7,7.71.84,11.17-21.93,12.29-43.44,24.62-65.75,36.84s-44.21,25.5-64.07,45c-16.76,17.21-34.68,29.26-48.84,53.7-2.53,4.61-7.07,6.29-11.77,5.93-8.61-1.25-9.66-9.19-3.76-13.66,12.83-10,25.55-23.86,36.63-34.79-5.92,3.24-25,9.16-44.73,5.94-14.68-2.39-30.51-14.17-31.33-33.9-.08-2.71.72-3.58,1.57-4.13Z"/><path id="path4224" class="cls-4" d="M242.7,441.31l30.1-48.58c5.4-7,4.66-11.07.83-16.65-6.24-8.9-19.15-9.65-29.1-1.72-3.67,2.94-4.49,2.44-6.79-1-3.3-7,1.24-15.6,11-16.76,13.76-1.45,33.32,9.21,38.11,27,1.57,7.25-.25,10.44-3.15,15.79l-32.26,52.37Z"/><path id="path4228" class="cls-4" d="M671.48,200.43c-5.08,2.25-10-1.11-12.79-3.31-3.8-3.45-4.93-7.91-6.5-14.4a173.57,173.57,0,0,0-5.08-19.95q-3.76-12.78-8.41-26.56c-2.83-8.64-5.48-16-8.17-24-1.22-4.08-3-4.64-5.53-4.54-1.41-.1-2.23.09-3.69-1.55-2.52-3.75-2.84-7.86-.4-9.55,5.13-2.43,15.1-4,18.75,7.73,1.94,5.13,4,14.25,7.11,23.19s5.86,17,8,24.27c2.73,9,5.18,16.68,6,21.38,1.26,4.8,2.31,13.28,11.41,18.33A4.07,4.07,0,0,1,675,195c.17,2.2-2.07,4.72-3.51,5.48Z"/><path id="path4218-2" class="cls-4" d="M563.62,237.54c-5.25,78.33-105.27,89.51-136.08,83.23l-.43-3.34c58.64,7.85,143.33-33.05,122.71-88.58a45.46,45.46,0,0,1-9.22,4.43c-13.78,2.17-22.33-1.53-25.31-9.53a18.42,18.42,0,0,1,1.5-17c8.07-12.22,21.15-12.8,30.34-6.65,6.06,4.06,10.88,11,14,17.85l1.06,2.79c13-5.77,38.45-10.23,46.84-24.07,2.45-4,1.27-11.27-.11-16.69-4.29-16.69-9.27-30.71-14.86-45.68-1.52-3-4.27-4.14-7.14-4.88-1.85-.74-6.9-8.94-6.67-12.63-.21-4,3.55-8.56,8.12-10.33,7.77-1.93,12,5.44,13.94,10.18a734.88,734.88,0,0,1,23.44,73.32c2.39,14.41-7.38,23.8-21.48,29.68L563.58,234ZM544.36,213c-6.46-4.32-11.25-5.72-17.38-2.19-2.37,1.72-3.9,3.88-4.05,6.3.24,5.28,4.6,7.3,8.78,8.89,7.31,1.82,11.81-.2,14.41-4.21a6.79,6.79,0,0,0-1.76-8.79Z"/><path id="path4208" class="cls-4" d="M1003.53,151.17c4.26-.47,3.27,2.5-.25,4.89m5.79,41.2,46.6,17c8,3.7,11.83,2.07,16.42-2.91,7.28-8.07,5.13-20.81-4.82-28.75-3.69-2.92-3.38-3.83-.52-6.84,6.07-4.78,15.48-2.28,18.8,7,4.48,13.09-1.54,34.53-17.81,43.17-6.72,3.15-10.24,2.08-16.1.46l-50.77-18.24Z"/><path id="path4210" class="cls-4" d="M1208.19,317.13c4.74,3.42,9.46,5,14.54,2.6,13-6.27,31.57-30.29,42.83-46l0-8.18c-1.07-6.83,1.3-8.38,6.4-11.4,4.17-2,8.84-1.63,12,3.31,5.79,11.27-5.18,15.5-9.09,20.9-14.36,17.56-28.31,36-43.59,48.79-10.86,8.25-17.1,13.13-27.49,5"/><path id="path4212" class="cls-4" d="M1274.29,408.87c-4.91-5.57-7-6.42-14-9.35-4.85-2-8.68-4.91-10.61-7.62l-.63-.72c-68.73,37.93-132.22-40.15-143.6-69.47l2.57-2.16c25.11,53.57,105.31,102.7,140.87,55.33a46.65,46.65,0,0,1-8.71-5.36c-9.38-8.25-10.93-16.75-5.66-26.45a18.42,18.42,0,0,1,15.12-7.94c14.65.18,22.21,10.87,22,21.93-.14,7.28-3.4,15.12-7.44,21.43l-2.6,4c4.42,4.09,13.65,7.69,18.32,9.92m-20.67-30.65c.14-7.77-1.28-12.56-7.56-15.81-2.72-1.07-5.37-1.18-7.49,0-4.31,3.05-3.65,7.81-2.73,12.19,2.42,7.13,6.56,9.82,11.34,9.84a6.8,6.8,0,0,0,6.44-6.23Z"/><path id="path4216" class="cls-4" d="M193.7,478.65c-3,2.92-10.35,17.85-13.48,29.17a13.35,13.35,0,0,0-.16,9.12c2.77,7.19,12.48,14.92,23.87,1.14,4.4-6.33,15.95-22,17.19-37.35-5.87-.38-15.71-.18-27.42-2.08ZM229.41,469c1.77-1.21,7.8-18.94,13.29-27.67l8.77,10.43c-3.17,4.81-7,13.19-4.88,16.13,3.07.13,7.27-1.43,10.54-2.8,6.7-3.24,8.1,1.1,1.23,5.83-9.92,7.73-14.21,8-19.55,9.57-7.52,12.7-15.16,34.06-28.91,48.66-7.24,7.93-13.09,11-22.89,9.76-10.16-1.91-16.82-8.39-16.64-23.81,1.81-15.71,10.76-32.92,13.92-37.92l-37-9.27c-4.73-1.71-10.07.48-14,2.8-3.3,2.72-9.25.66-10.4-2.23-3.81-9.85,4.72-16.58,13.82-15.38l53,11.36a50.54,50.54,0,0,0,6.88-28c.5-4.26,3.18-2.63,4.72,1.33,2.7,5.45-.62,15.09-3.27,22.82-1.37,2.63-.15,4.63,1.87,5.71,3.89,2,20.49,2.93,29.57,2.69Z"/><path id="path4229" class="cls-6" d="M161.69,486.61c.27,10-10.23,16.42-16.31,11.05C136.71,487.44,159.73,471.09,161.69,486.61Z"/><path id="path4229-8" class="cls-6" d="M152.21,514.53c.26,10-10.24,16.42-16.32,11.05C127.22,515.36,150.24,499,152.21,514.53Z"/><path id="path4229-82" class="cls-6" d="M319.2,401.38c.27,10-10.23,16.43-16.32,11.05C294.22,402.22,317.24,385.87,319.2,401.38Z"/><path id="path4229-6" class="cls-6" d="M302.32,430.29c.26,10-10.24,16.43-16.32,11C277.33,431.13,300.35,414.78,302.32,430.29Z"/><path id="path4229-3" d="M456.14,293.23c1.87,9.53-10.38,17.84-18.87,13.9C424.77,299.07,451.28,278.72,456.14,293.23Z" style="stroke-width:0.82px;fill-rule:evenodd;stroke-miterlimit:5.29;stroke:#018400;fill:#018400"/><path id="path4229-0" class="cls-6" d="M946.69,128.79c-9.34,3.52-18.87-4.29-15.78-11.8C937.72,105.46,960.71,121.86,946.69,128.79Z"/><path id="path4229-0-2" class="cls-6" d="M919.41,125.79c-9.34,3.52-18.87-4.29-15.78-11.8C910.44,102.46,933.43,118.86,919.41,125.79Z"/><path id="path4229-0-5" class="cls-6" d="M1057.92,259.68c-9.35,3.51-18.87-4.3-15.79-11.8C1049,236.34,1071.94,252.74,1057.92,259.68Z"/><path id="path4229-0-2-2" class="cls-6" d="M1025.21,249.58c-9.35,3.51-18.87-4.29-15.78-11.8C1016.24,226.24,1039.23,242.64,1025.21,249.58Z"/></g></g></g></svg>