<svg version="1.1" id="Layer_1" xmlns="http://www.w3.org/2000/svg" xmlns:xlink="http://www.w3.org/1999/xlink" x="0px" y="0px" viewBox="0 0 432.401 427.963" style="enable-background:new 0 0 432.401 427.963" xml:space="preserve"><g id="Layer_3"><rect x="177.897" y="313.678" style="fill:#ED2D30" width="70.608" height="63.49"/><circle style="fill:#ED2D30" cx="213.401" cy="257.502" r="149"/><path style="fill:none;stroke:#ED2D30;stroke-width:3;stroke-miterlimit:10" d="M237.703,405.211c0,0-21.684,29.79-49.006,0 C188.698,405.211,210.26,377.115,237.703,405.211z"/><path style="fill:#FFFFFF" d="M213.401,400.002c-78.575,0-142.5-63.925-142.5-142.5s63.925-142.5,142.5-142.5 s142.5,63.925,142.5,142.5S291.976,400.002,213.401,400.002z M213.401,118.002c-76.92,0-139.5,62.58-139.5,139.5 s62.58,139.5,139.5,139.5c76.921,0,139.5-62.58,139.5-139.5S290.322,118.002,213.401,118.002z"/><path style="fill:#FFFFFF" d="M213.401,346.837c-49.26,0-89.335-40.076-89.335-89.335s40.076-89.335,89.335-89.335 s89.335,40.076,89.335,89.335S262.661,346.837,213.401,346.837z M213.401,171.166c-47.605,0-86.335,38.73-86.335,86.335 s38.73,86.335,86.335,86.335s86.335-38.73,86.335-86.335S261.007,171.166,213.401,171.166z"/><path style="fill:#FFFFFF" d="M213.401,353.337c-52.844,0-95.835-42.992-95.835-95.835s42.992-95.835,95.835-95.835 s95.835,42.992,95.835,95.835S266.245,353.337,213.401,353.337z M213.401,163.666c-51.741,0-93.835,42.094-93.835,93.835 s42.094,93.835,93.835,93.835s93.835-42.094,93.835-93.835S265.142,163.666,213.401,163.666z"/><path style="fill-rule:evenodd;clip-rule:evenodd;fill:#325293" d="M287.483,221.854c-0.015,0.025-62.012-33.144-124.924,27.069 c0.707-1.166,32.694,9.725,92.545-15.883c0,0-53.572,28.699-93.604,17.661l-3.532-1.177c0,0,62.991-66.818,129.515-29.435 c0,0-17.956-31.496-80.064-9.419c0,0-21.782-10.302-37.088-7.064c0,0,25.02,2.355,31.201,10.008c0,0-31.201,12.951-48.863,34.734 c0,0-3.827,0.883-12.952-3.532c0,0,3.827,4.121,10.597,5.298c0,0-7.948,9.714-9.419,15.306c0,0,11.234-13.099,15.895-14.129 c0,0,1.99,0.33,1.177,1.177c-3.39,3.236-9.538,8.417-15.306,14.718c0,0,22.076,57.104,88.895,44.742 C231.556,311.926,298.374,295.737,287.483,221.854z M271.401,226.335c-1.852,0-3.353-1.501-3.353-3.353s1.501-3.353,3.353-3.353 s3.353,1.501,3.353,3.353S273.253,226.335,271.401,226.335z"/><path style="fill-rule:evenodd;clip-rule:evenodd;fill:#FFFFFF" d="M220.301,63.774c-0.17-0.116-0.367-0.175-0.565-0.175 c-0.149,0-0.3,0.034-0.439,0.102c-0.323,0.158-0.537,0.479-0.559,0.838l-0.069,1.147l-2.489-1.768l-0.504-7.501 c1.448-0.338,4.213-1.328,6.294-4.137c0.365-0.433,0.712-0.92,1.022-1.44l7.571,2.488l0.774,3.737l-1.747-0.424 c-0.079-0.019-0.158-0.028-0.236-0.028c-0.274,0-0.541,0.113-0.733,0.32c-0.246,0.265-0.329,0.643-0.218,0.988l4.737,14.653 L220.301,63.774z M197.565,57.293c0.099-0.347,0.003-0.719-0.251-0.976c-0.19-0.192-0.447-0.297-0.711-0.297 c-0.087,0-0.175,0.011-0.261,0.035l-1.12,0.303l0.884-2.928l6.983-2.882c0.299,0.48,0.749,1.112,1.372,1.767 c1.593,1.926,3.813,3.274,6.289,3.815l0.062,7.548l-3.315,1.935l-0.158-1.797c-0.031-0.36-0.256-0.676-0.585-0.824 c-0.132-0.059-0.271-0.088-0.411-0.088c-0.211,0-0.419,0.066-0.595,0.196l-12.431,9.191L197.565,57.293z M224.498,46.53 c0.069-0.51,0.104-1.024,0.104-1.536c0-2.746-0.964-5.343-2.732-7.406l4.729-5.778h3.08l-0.619,0.992 c-0.191,0.306-0.203,0.69-0.031,1.007c0.172,0.316,0.502,0.516,0.862,0.522l15.664,0.265l-12.463,9.28 c-0.29,0.216-0.44,0.573-0.394,0.932s0.284,0.665,0.62,0.799l1.686,0.674l-2.832,2.629L224.498,46.53z M191.397,46.282 l1.686-0.674c0.336-0.135,0.573-0.44,0.62-0.799s-0.104-0.715-0.394-0.932l-12.463-9.28l15.664-0.265 c0.36-0.006,0.69-0.206,0.862-0.522c0.172-0.317,0.16-0.702-0.031-1.007l-0.619-0.992h3.081l4.728,5.778 c-1.769,2.063-2.732,4.66-2.732,7.406c0,0.512,0.035,1.025,0.104,1.536l-7.675,2.381L191.397,46.282z M218.046,34.674 c-1.51-0.709-3.168-1.082-4.845-1.082c-1.574,0-3.137,0.328-4.57,0.954l-4.023-6.307l0.962-2.927l0.748,0.898 c0.192,0.23,0.475,0.36,0.769,0.36c0.06,0,0.119-0.005,0.18-0.016c0.354-0.065,0.646-0.315,0.765-0.656l5.139-14.8l4.93,14.735 c0.115,0.343,0.406,0.598,0.762,0.665c0.062,0.012,0.125,0.018,0.187,0.018c0.293,0,0.574-0.128,0.767-0.357l1.166-1.392 l1.615,3.511L218.046,34.674z"/><path style="fill:#ED2D30" d="M213.151,14.199l3.999,11.953c0.23,0.687,0.813,1.195,1.524,1.33 c0.124,0.024,0.249,0.035,0.373,0.035c0.585,0,1.149-0.257,1.532-0.715l0.152-0.181l0.713,1.55l-3.745,5.267 c-1.428-0.556-2.956-0.845-4.498-0.845c-1.423,0-2.837,0.247-4.17,0.721l-3.325-5.212l0.282-0.859 c0.325,0.213,0.706,0.328,1.098,0.328c0.119,0,0.239-0.011,0.359-0.033c0.709-0.129,1.294-0.63,1.531-1.312L213.151,14.199 M227.976,32.81c-0.132,0.489-0.075,1.018,0.173,1.476c0.344,0.634,1.003,1.033,1.724,1.045l12.731,0.216l-10.109,7.528 c-0.581,0.432-0.882,1.145-0.789,1.863c0.094,0.718,0.568,1.329,1.24,1.598l0.219,0.088l-1.25,1.161l-6.341-1.968 c0.018-0.274,0.028-0.549,0.028-0.822c0-2.702-0.858-5.272-2.446-7.399l3.916-4.786H227.976 M199.329,32.81l3.916,4.786 c-1.588,2.127-2.446,4.697-2.446,7.399c0,0.274,0.009,0.548,0.028,0.822l-6.341,1.968l-1.25-1.161l0.219-0.088 c0.672-0.269,1.147-0.88,1.24-1.598c0.094-0.718-0.208-1.43-0.789-1.863l-10.109-7.528l12.731-0.216 c0.721-0.012,1.379-0.411,1.724-1.045c0.249-0.458,0.305-0.987,0.173-1.476H199.329 M202.717,51.783 c0.266,0.365,0.589,0.763,0.973,1.172c1.599,1.908,3.709,3.276,6.066,3.955l0.051,6.197l-1.453,0.848l-0.02-0.227 c-0.063-0.721-0.511-1.351-1.171-1.648c-0.263-0.118-0.543-0.176-0.821-0.176c-0.421,0-0.839,0.133-1.189,0.392l-10.075,7.45 l3.45-12.179c0.196-0.693,0.005-1.438-0.502-1.951c-0.365-0.369-0.852-0.576-1.356-0.593l0.256-0.848L202.717,51.783 M223.413,52.03l6.288,2.066l0.336,1.623l-0.212-0.052c-0.156-0.038-0.315-0.056-0.472-0.056c-0.549,0-1.083,0.227-1.466,0.64 c-0.493,0.531-0.66,1.287-0.437,1.976l3.836,11.863l-10.42-7.14c-0.339-0.232-0.734-0.35-1.131-0.35 c-0.299,0-0.6,0.067-0.878,0.203c-0.463,0.226-0.813,0.618-0.991,1.086l-0.721-0.512l-0.418-6.219 c1.672-0.527,4.105-1.691,6.008-4.234C222.974,52.636,223.201,52.338,223.413,52.03 M213.186,8l-6.101,17.571l-1.904-2.284 l-1.672,5.091l4.757,7.457c1.468-0.792,3.148-1.243,4.934-1.243c1.877,0,3.637,0.5,5.157,1.37l5.387-7.576l-2.517-5.471 l-2.181,2.602L213.186,8L213.186,8z M231.483,30.81h-5.359l-5.579,6.819c1.889,1.883,3.057,4.488,3.057,7.366 c0,0.765-0.085,1.511-0.242,2.229l9.068,2.814l4.413-4.098l-3.152-1.261l14.815-11.033l-18.598-0.315L231.483,30.81 L231.483,30.81z M200.277,30.81h-5.359l1.576,2.522l-18.598,0.315l14.815,11.033l-3.152,1.261l4.413,4.098l9.068-2.814 c-0.157-0.718-0.242-1.464-0.242-2.229c0-2.878,1.169-5.482,3.057-7.366L200.277,30.81L200.277,30.81z M203.533,49.283 l-8.247,3.404l-1.541,5.107l2.859-0.774l-5.047,17.815l14.785-10.932l0.297,3.368l5.178-3.022l-0.074-8.957 c-2.628-0.369-4.942-1.717-6.557-3.667C204.019,50.401,203.533,49.283,203.533,49.283L203.533,49.283z M222.513,49.629 c-0.369,0.739-0.822,1.428-1.348,2.055c-2.651,3.579-6.548,3.905-6.548,3.905l0.596,8.869l4.344,3.086l0.178-2.945l15.258,10.456 l-5.64-17.443l3.283,0.797l-1.211-5.851L222.513,49.629L222.513,49.629z"/><path style="fill:#ED2D30" d="M213.068,32.921c-6.763,0-12.297,5.534-12.297,12.297s5.534,12.297,12.297,12.297 s12.297-5.534,12.297-12.297C225.365,38.454,219.831,32.921,213.068,32.921z M221.382,51.714l-0.218-1.475l-3.792,0.819 l-2.049,3.382l1.4,0.67c-1.14,0.421-2.367,0.662-3.654,0.662s-2.515-0.24-3.654-0.662l1.4-0.67l-2.049-3.382l-3.791-0.819 l-0.218,1.475c-1.4-1.79-2.241-4.041-2.241-6.497c0-0.116,0.013-0.228,0.017-0.342l1.008,1.06l2.664-2.972l-0.41-3.894 l-1.501,0.278c1.378-2.061,3.467-3.597,5.916-4.282l-0.725,1.341l3.587,1.537l3.587-1.537l-0.727-1.341 c2.45,0.686,4.54,2.222,5.917,4.284l-1.501-0.279l-0.409,3.894l2.664,2.972l1.008-1.061c0.003,0.115,0.017,0.228,0.017,0.343 C223.623,47.673,222.781,49.924,221.382,51.714z M213.068,41.119l4.304,3.177l-1.64,5.021h-5.328l-1.64-5.021L213.068,41.119z"/><path style="fill:#FFFFFF" d="M303.119,193.765c-0.947-0.209-1.42-0.308-2.365-0.492c-0.044,0.954-0.073,1.428-0.143,2.369 c0.876,0.174,1.315,0.266,2.193,0.461c-0.081,0.909-0.127,1.36-0.23,2.257c0.914,0.227,1.371,0.346,2.286,0.597 c0.127-0.947,0.184-1.424,0.286-2.385c-0.897-0.229-1.345-0.338-2.24-0.544C303.003,195.129,303.045,194.676,303.119,193.765z"/><path style="fill:#FFFFFF" d="M325.051,194.886c-1.012-0.435-1.519-0.646-2.534-1.053c-0.11,1.082-0.172,1.62-0.309,2.688 c0.993,0.418,1.489,0.634,2.479,1.079C324.846,196.522,324.919,195.979,325.051,194.886z"/><path style="fill:#FFFFFF" d="M326.856,215.676c-0.108,0.158-0.228,0.323-0.359,0.493c-0.131,0.17-0.266,0.318-0.407,0.444 c-0.141,0.126-0.285,0.215-0.431,0.267c-0.139,0.05-0.309,0.04-0.406-0.043c-0.43-0.369-0.661-1.092-0.684-1.72 c-0.023-0.628,0.574-2.021,0.583-2.018c0,0-0.094,0.059-0.247,0.008c-0.153-0.051-0.343-0.156-0.569-0.313 c-0.227-0.157-0.477-0.37-0.751-0.638c-0.275-0.268-0.546-0.598-0.818-0.989c-0.271-0.392-0.526-0.844-0.768-1.359 c-0.241-0.515-0.701-1.605-0.606-1.744c0.04-0.058,0.705-0.091,0.942-0.125c0.238-0.034,0.418-0.064,0.542-0.089 c0.123-0.025,0.197-0.046,0.222-0.062c0.025-0.016,0.02-0.029-0.013-0.04c-0.757-0.255-1.426-0.663-2.014-1.224 c-0.588-0.561-1.073-1.221-1.461-1.986c-0.159-0.312-0.264-0.518-0.391-0.763c0,0,0,0,0,0c-0.299-0.577-0.45-0.864-0.758-1.437 c0.59-0.227,1.123-0.556,1.596-0.995c0.473-0.439,0.86-1.05,1.147-1.84c0.056-0.154,0.097-0.323,0.12-0.506 c0.023-0.184,0.033-0.361,0.031-0.531c-0.003-0.17-0.019-0.326-0.047-0.468c-0.029-0.141-0.064-0.249-0.105-0.321 c-0.166-0.29-0.391-0.537-0.676-0.737c-0.285-0.201-0.605-0.358-0.958-0.473c-0.354-0.114-0.727-0.187-1.121-0.22 c-0.393-0.033-0.778-0.023-1.152,0.027c-0.374,0.05-0.728,0.136-1.061,0.254c-0.333,0.119-0.618,0.27-0.854,0.453 c-0.291-0.474-0.473-0.767-0.72-1.156c0.001-0.001,0.002-0.001,0.003-0.002c-1.413-2.236-2.157-3.338-3.72-5.504 c-0.959,0.216-1.437,0.328-2.39,0.559c0.13,0.21,0.257,0.438,0.379,0.683c0.122,0.246,0.225,0.494,0.309,0.746 c0.084,0.252,0.139,0.503,0.169,0.752c0.029,0.25,0.006,0.684-0.044,0.708c-0.103,0.049-1.245-0.602-1.851-0.993 c-0.606-0.391-1.175-0.817-1.71-1.282c-0.536-0.464-1.023-0.948-1.465-1.453c-0.441-0.506-0.809-1.006-1.101-1.504 c-0.293-0.498-0.497-0.981-0.612-1.45c-0.115-0.468-0.111-0.893,0.015-1.273s0.391-0.704,0.8-0.968 c0.407-0.265,1.04-0.501,1.733-0.516c0.558-0.012,1.051,0.051,1.339,0.042c0.287-0.008,0.452-0.031,0.494-0.072 c0.042-0.04-0.02-0.09-0.188-0.15c-0.168-0.059-0.399-0.117-0.693-0.171c-0.295-0.054-0.637-0.096-1.027-0.125 c-0.39-0.029-0.791-0.038-1.2-0.028c-0.587,0.014-1.12,0.121-1.599,0.322c-0.478,0.2-0.878,0.471-1.204,0.812 c-0.326,0.34-0.569,0.736-0.734,1.187c-0.164,0.45-0.232,0.934-0.205,1.451c0.026,0.518,0.155,1.058,0.383,1.625 c0.228,0.567,0.575,1.138,1.04,1.719c0.281,0.351,0.642,0.72,1.085,1.111c0.442,0.392,0.926,0.777,1.453,1.157 c0.526,0.381,1.076,0.741,1.653,1.083c0.577,0.342,1.146,0.636,1.709,0.881s1.098,0.426,1.608,0.539 c0.51,0.113,0.963,0.126,1.358,0.033c0.414-0.1,0.621-0.149,1.036-0.246c0.349,0.531,0.561,0.857,0.847,1.309c0,0,0,0,0,0 c1.987,3.117,2.928,4.752,4.579,7.933c0.303,0.582,0.487,0.941,0.805,1.581c0.129,0.187,0.246,0.337,0.352,0.449 c0.106,0.113,0.204,0.21,0.294,0.291c0.09,0.081,0.173,0.16,0.249,0.235s0.184,0.184,0.218,0.283 c0.057,0.165,0.067,0.483,0.121,0.788s0.129,0.631,0.225,0.978s0.214,0.706,0.355,1.079c0.141,0.372,0.32,0.738,0.535,1.098 c0.215,0.361,0.474,0.707,0.779,1.04c0.304,0.333,0.983,0.704,1.074,0.914c0.114,0.262-0.114,1.22-0.03,1.733 c0.084,0.513,0.239,0.964,0.466,1.355c0.228,0.391,0.513,0.719,0.855,0.986c0.344,0.266,0.719,0.477,1.128,0.631 c0.41,0.154,0.842,0.247,1.297,0.279c0.454,0.032,0.904,0.001,1.346-0.093c0.442-0.094,0.867-0.252,1.274-0.474 c0.406-0.222,0.764-0.513,1.07-0.877C328.34,216.465,327.846,216.197,326.856,215.676z M317.286,198.689 c0.048-0.238,0.13-0.427,0.247-0.566c0.118-0.139,0.241-0.221,0.363-0.234c0.126-0.013,0.264,0.018,0.403,0.083 c0.14,0.066,0.262,0.162,0.366,0.291c0.157,0.192,0.242,0.386,0.256,0.58c0.013,0.194-0.013,0.379-0.08,0.557 c-0.067,0.178-0.163,0.343-0.288,0.497c-0.125,0.154-0.247,0.287-0.365,0.399c-0.119,0.113-0.225,0.199-0.317,0.26 c-0.091,0.06-0.139,0.087-0.143,0.08c-0.227-0.405-0.37-0.77-0.428-1.098C317.242,199.21,317.237,198.927,317.286,198.689z"/><path style="fill:#FFFFFF" d="M332.695,218.663c0.09-0.037,0.241,0.015,0.452,0.159s0.448,0.333,0.71,0.568 c0.261,0.236,0.53,0.488,0.806,0.758c0.276,0.27,0.525,0.514,0.749,0.73c-2.191,0.596-3.286,0.896-5.476,1.495 c-0.509,0.172-1.05,0.285-1.624,0.341c-0.573,0.055-1.13,0.062-1.671,0.023c-0.541-0.04-1.046-0.117-1.518-0.233 c-0.471-0.116-0.859-0.264-1.167-0.449C327.458,220.719,329.206,220.04,332.695,218.663z M336.42,220.906 c-0.224-0.689-0.523-1.351-0.894-1.98c-0.372-0.629-1.335-1.575-1.335-1.575c0.007-0.021,0.579,0.025,0.795,0.138 c0.216,0.114,0.691,0.593,0.691,0.593c0.008-0.002,0.025-0.18,0.032-0.286c0.008-0.105,0.022-0.207,0.042-0.303 s0.052-0.181,0.096-0.254c0.045-0.073,0.112-0.116,0.191-0.136c0.219-0.054,0.482-0.056,0.772,0.024s0.575,0.204,0.854,0.371 c0.28,0.168,0.539,0.366,0.777,0.594c0.239,0.228,0.424,0.456,0.555,0.682c0.131,0.226,0.188,0.437,0.172,0.634 s-0.138,0.349-0.362,0.46c-0.369-0.089-0.553-0.133-0.922-0.219c0.043-0.22,0.033-0.444-0.031-0.669s-0.44-0.717-0.524-0.71 c-0.027,0.002-0.097,0.165-0.113,0.278c-0.016,0.113-0.008,0.274,0.024,0.48c0.031,0.206,0.093,0.481,0.183,0.823 s0.212,0.782,0.363,1.321C337.239,221.064,336.966,221.011,336.42,220.906z"/><path style="fill:#FFFFFF" d="M332.714,236.544c-0.107-0.209-0.206-0.402-0.296-0.577c-0.09-0.175-0.178-0.35-0.255-0.521 c-0.043-0.096-0.202-0.152-0.236-0.118c-0.079,0.08-0.035,0.611,0.027,0.966c0.061,0.355,0.155,0.715,0.28,1.082 c0.126,0.367,0.277,0.726,0.455,1.079c0.179,0.353,0.367,0.668,0.568,0.944c0.201,0.275,0.405,0.501,0.615,0.673 c0.21,0.173,0.409,0.266,0.599,0.276c0.19,0.009,0.362-0.079,0.516-0.268s0.268-0.516,0.353-0.962 c0.063-0.333,0.115-0.601,0.142-0.794c0.027-0.192,0.075-0.293,0.146-0.303c0.103-0.014,0.211,0.052,0.325,0.198 s0.225,0.321,0.333,0.527c0.107,0.205,0.206,0.416,0.294,0.633c0.088,0.217,0.15,0.442,0.213,0.515 c0.168,0.194,0.591,0.36,0.828,0.496c0.237,0.137,0.571,0.319,0.59,0.305c0.002-0.002-0.131-0.65-0.293-1.005 c-0.158-0.353-0.356-0.698-0.591-1.036c-0.235-0.338-0.497-0.657-0.786-0.958c-0.29-0.301-0.58-0.56-0.869-0.778 c-0.29-0.218-0.567-0.385-0.829-0.502c-0.264-0.116-0.488-0.159-0.673-0.131c-0.134,0.02-0.243,0.103-0.325,0.245 c-0.083,0.143-0.149,0.309-0.196,0.499s-0.081,0.39-0.104,0.599c-0.023,0.209-0.065,0.549-0.071,0.55 c0,0-0.292-0.658-0.415-0.923C332.936,236.99,332.821,236.753,332.714,236.544z"/><path style="fill:#FFFFFF" d="M324.368,254.061c0.619,0.716,0.925,1.079,1.531,1.817c0.652-0.705,0.974-1.063,1.613-1.79 c-0.603-0.707-0.908-1.055-1.523-1.739c0.604-0.678,0.904-1.022,1.496-1.72c-0.651-0.717-0.979-1.07-1.641-1.764 c-0.594,0.747-0.895,1.115-1.502,1.841c0.614,0.648,0.918,0.977,1.521,1.644C325.271,253.044,324.972,253.387,324.368,254.061z"/><path style="fill:#FFFFFF" d="M327.082,259.946c-0.645-0.848-0.971-1.265-1.634-2.085c-0.726,0.757-1.092,1.128-1.832,1.858 c0.639,0.819,0.954,1.236,1.576,2.081C325.955,261.073,326.333,260.702,327.082,259.946z"/><path style="fill:#FFFFFF" d="M338.444,268.408c-0.15-0.176-0.321-0.373-0.515-0.591c-0.194-0.218-0.431-0.594-0.591-0.664 c-0.092-0.041-0.418,0.007-0.725,0.01c-0.306,0.003-0.655,0.004-1.046,0c-0.39-0.004-0.812-0.008-1.264-0.012 c-0.452-0.005-0.908-0.014-1.366-0.028c-0.458-0.015-0.911-0.033-1.358-0.055c-0.447-0.021-0.861-0.049-1.241-0.083 c-0.007-0.001-0.011-0.002-0.019-0.003c0.128-0.994,0.186-1.491,0.291-2.487c-0.001,0-0.001,0-0.002,0 c0.05-0.469,0.084-0.81,0.135-1.369c0.062-0.373,0.092-0.56,0.15-0.934c0.364,0.147,0.678,0.257,0.942,0.327 c0.263,0.069,0.477,0.114,0.64,0.132c0.164,0.018,0.28,0.018,0.346,0c0.067-0.019,0.081-0.04,0.055-0.067 c-0.19-0.194-0.388-0.501-0.599-0.833c-0.211-0.332-0.405-0.689-0.582-1.069c-0.178-0.381-0.324-0.776-0.44-1.188 c-0.115-0.411-0.173-0.81-0.174-1.199c0.033-0.682,0.048-1.078,0.067-1.686c0.001,0,0.001,0,0.002,0 c0.022-0.698,0.03-1.047,0.041-1.745c0.033-0.376,0.048-0.565,0.078-0.942c0.374,0.119,0.696,0.204,0.964,0.254 c0.268,0.049,0.485,0.077,0.649,0.083c0.165,0.006,0.28-0.003,0.345-0.026c0.064-0.024,0.077-0.046,0.049-0.071 c-0.204-0.179-0.425-0.47-0.661-0.784c-0.236-0.315-0.456-0.656-0.662-1.021c-0.207-0.365-0.383-0.748-0.53-1.15 c-0.146-0.401-0.234-0.794-0.265-1.182c-0.018-0.652-0.033-1.043-0.058-1.606c0.007,0,0.012,0,0.018-0.001 c-0.028-0.646-0.045-0.969-0.083-1.615c3.49-0.268,5.235-0.404,8.725-0.682c-0.171-0.241-0.358-0.525-0.565-0.85 c-0.207-0.326-0.414-0.628-0.62-0.908c-0.206-0.28-0.398-0.514-0.572-0.703c-0.175-0.19-0.311-0.27-0.405-0.246 c-0.151,0.039-0.361,0.071-0.628,0.106c-0.267,0.035-0.572,0.071-0.916,0.109c-0.344,0.037-0.717,0.077-1.119,0.119 c-0.402,0.042-0.814,0.087-1.235,0.135c-0.421,0.048-0.845,0.099-1.272,0.155c-0.428,0.056-1.139,0.246-1.227,0.18 c-0.057-0.043-0.108-0.747-0.207-1.242s-0.209-1.041-0.334-1.637c-0.124-0.597-0.255-1.223-0.395-1.878 c-0.139-0.655-0.266-1.305-0.381-1.951s-0.206-1.276-0.275-1.89c-0.069-0.614-0.097-1.173-0.079-1.679 c0.016-0.506,0.091-0.946,0.225-1.323c0.135-0.377,0.348-0.655,0.642-0.835c0.293-0.179,0.681-0.24,1.161-0.178 c0.481,0.063,1.252,0.573,1.778,0.653c0.059,0.009,0.058-0.09-0.096-0.216c-0.153-0.127-0.381-0.271-0.687-0.432 c-0.304-0.161-0.668-0.312-1.09-0.454c-0.421-0.142-0.854-0.238-1.298-0.29c-0.444-0.052-0.878-0.037-1.305,0.041 c-0.426,0.078-0.801,0.258-1.127,0.534s-0.58,0.668-0.767,1.171c-0.187,0.504-0.261,1.162-0.235,1.971 c0.02,0.649,0.069,1.279,0.154,1.886c0.085,0.606,0.186,1.201,0.306,1.783c0.119,0.582,0.25,1.16,0.391,1.733 s0.271,1.149,0.39,1.727c0.118,0.577,0.221,1.164,0.309,1.757c0.088,0.593,0.139,1.206,0.154,1.836 c0.097,1.288,0.135,1.933,0.192,3.223c0,0,0.001,0,0.001,0c0.032,0.704,0.048,1.171,0.068,1.967 c0.022,0.379,0.071,0.726,0.147,1.044c0.076,0.317,0.318,0.735,0.311,0.908c-0.005,0.14-0.227,0.486-0.298,0.77 c-0.072,0.284-0.115,0.604-0.131,0.96c-0.008,0.849-0.018,1.331-0.042,2.103c0,0,0,0,0,0c-0.027,0.918-0.046,1.377-0.093,2.295 c-0.007,0.379,0.015,0.729,0.067,1.052s0.261,0.758,0.241,0.93c-0.016,0.139-0.263,0.467-0.356,0.745 c-0.093,0.278-0.161,0.594-0.204,0.948c-0.081,0.938-0.127,1.407-0.229,2.344c0.001,0,0.002,0,0.003,0 c-0.126,1.171-0.213,1.87-0.391,3.143c-0.011,0.167-0.055,0.345-0.135,0.533c-0.08,0.187-0.172,0.369-0.277,0.545 c-0.105,0.176-0.214,0.342-0.326,0.496c-0.112,0.154-0.209,0.284-0.287,0.39c-0.079,0.105-0.13,0.179-0.154,0.221 c-0.022,0.042,0.037,0.001,0.084,0.002c0.035,0.001,0.18,0.121,0.359,0.266c0.179,0.144,0.37,0.301,0.571,0.47 c0.2,0.169,0.39,0.326,0.569,0.469c0.179,0.143,0.299,0.23,0.36,0.255c0.071,0.029,0.17-0.012,0.291-0.12 c0.12-0.109,0.25-0.253,0.388-0.434c0.138-0.18,0.281-0.382,0.429-0.606c0.146-0.223,0.287-0.432,0.421-0.623 c0.134-0.192,0.258-0.35,0.371-0.475c0.113-0.125,0.209-0.176,0.284-0.159c0.426,0.096,0.863,0.151,1.276,0.188 c0.414,0.037,0.805,0.07,1.177,0.101c0.372,0.03,0.721,0.067,1.048,0.111c0.327,0.043,0.841,0.137,0.897,0.236 c0.007,0.013,0.02,0.106,0.079,0.197c0.059,0.091,0.134,0.195,0.228,0.313c0.094,0.117,0.199,0.241,0.316,0.371 c0.118,0.13,0.229,0.246,0.334,0.351c0.105,0.104,0.199,0.191,0.283,0.263c0.084,0.072,0.141,0.11,0.173,0.115 c0.026,0.004,0.105-0.042,0.234-0.139c0.129-0.097,0.284-0.222,0.465-0.374c0.18-0.153,0.375-0.319,0.581-0.499 s0.396-0.349,0.569-0.506c0.172-0.157,0.502-0.371,0.597-0.557c0.015-0.03-0.035-0.141-0.123-0.27 C338.713,268.737,338.593,268.584,338.444,268.408z"/><path style="fill:#FFFFFF" d="M321.864,273.346c-0.023-0.233,0.02-0.512,0.133-0.833c0.112-0.322,0.257-0.658,0.434-1.009 c0.177-0.352,0.371-0.699,0.581-1.044c0.211-0.344,0.405-0.651,0.582-0.919c0.178-0.267,0.329-0.481,0.451-0.64 c0.123-0.159,0.18-0.223,0.178-0.196c-0.031,0.3-0.055,0.653-0.115,1.004c-0.061,0.352-0.11,0.73-0.148,1.135 c-0.038,0.404-0.044,0.84-0.017,1.307c0.027,0.468,0.122,0.977,0.283,1.534c0.161,0.556,0.406,1.164,0.734,1.829 c0.327,0.665,1.33,2.208,1.33,2.208c0.003-0.001-0.149-0.661-0.132-1.06c0.018-0.398,0.089-0.786,0.214-1.164 s0.297-0.72,0.514-1.025c0.218-0.306,0.479-0.522,0.78-0.65c0.274-0.117,0.595-0.149,0.963-0.093s0.742,0.176,1.12,0.363 c0.378,0.186,0.746,0.428,1.102,0.726c0.356,0.297,0.662,0.625,0.918,0.981s0.445,0.733,0.568,1.131 c0.121,0.398,0.14,0.783,0.056,1.154c-0.016,0.071-0.065,0.155-0.148,0.252c-0.082,0.097-0.181,0.203-0.297,0.316 c-0.117,0.113-0.243,0.228-0.381,0.344c-0.137,0.116-0.271,0.236-0.399,0.351c-0.274,0.246-0.622,0.427-1.028,0.542 c-0.406,0.116-0.845,0.166-1.319,0.15c-0.473-0.015-0.967-0.094-1.482-0.235c-0.515-0.14-1.018-0.344-1.512-0.607 c-0.493-0.264-0.964-0.585-1.414-0.961s-0.851-0.809-1.207-1.299c-0.355-0.489-0.65-1.033-0.888-1.63 C322.08,274.709,321.933,274.053,321.864,273.346z M328.658,277.914c0,0.024,0.051,0.022,0.151-0.007 c0.099-0.029,0.212-0.071,0.338-0.126c0.125-0.055,0.25-0.117,0.372-0.186c0.121-0.069,0.202-0.128,0.239-0.175 c0.182-0.239,0.276-0.475,0.285-0.694c0.009-0.22-0.034-0.4-0.131-0.537c-0.096-0.138-0.223-0.225-0.38-0.263 c-0.158-0.038-0.306,0.005-0.444,0.127c-0.139,0.121-0.253,0.33-0.342,0.626C328.658,276.973,328.629,277.384,328.658,277.914z"/><path style="fill:#FFFFFF" d="M334.013,283.204c0.095,0.018,0.194,0.143,0.294,0.378s0.197,0.522,0.29,0.861 c0.092,0.339,0.182,0.697,0.268,1.073s0.164,0.716,0.235,1.02c-2.165-0.685-3.247-1.027-5.413-1.709 c-0.521-0.131-1.037-0.329-1.55-0.593c-0.512-0.264-0.984-0.56-1.418-0.886c-0.434-0.327-0.816-0.666-1.151-1.018 c-0.333-0.352-0.58-0.687-0.739-1.009C328.499,282.094,330.335,282.471,334.013,283.204z M335.933,287.105 c0.184-0.701,0.291-1.42,0.319-2.149c0.027-0.73-0.272-2.044-0.272-2.044c0.017-0.014,0.473,0.334,0.594,0.546 c0.12,0.212,0.261,0.871,0.261,0.871c0.008,0.002,0.119-0.138,0.181-0.222c0.063-0.084,0.13-0.162,0.199-0.231 c0.069-0.07,0.141-0.124,0.218-0.16c0.078-0.037,0.157-0.037,0.234-0.01c0.213,0.073,0.435,0.214,0.636,0.438 s0.374,0.482,0.518,0.774s0.256,0.599,0.333,0.92c0.078,0.321,0.11,0.613,0.099,0.874s-0.078,0.47-0.198,0.626 s-0.305,0.219-0.553,0.191c-0.262-0.275-0.393-0.412-0.657-0.684c0.156-0.162,0.268-0.355,0.336-0.579s0.017-0.84-0.057-0.88 c-0.024-0.012-0.17,0.086-0.245,0.172c-0.074,0.087-0.154,0.226-0.24,0.416c-0.085,0.19-0.182,0.454-0.291,0.79 s-0.245,0.773-0.41,1.309C336.536,287.682,336.336,287.489,335.933,287.105z"/><path style="fill:#FFFFFF" d="M314.28,295.456c-0.878,0.385-1.317,0.571-2.198,0.931c-0.246-0.911-0.375-1.362-0.642-2.257 c0.824-0.352,1.236-0.533,2.057-0.908c-0.277-0.845-0.421-1.265-0.717-2.095c0.844-0.396,1.265-0.6,2.106-1.021 c0.322,0.891,0.477,1.341,0.778,2.249c-0.819,0.378-1.23,0.562-2.052,0.918C313.889,294.139,314.023,294.575,314.28,295.456z M316.427,303.74c-0.266-0.306-0.47-0.714-0.61-1.219s-0.23-1.063-0.274-1.673c-0.044-0.61-0.05-1.247-0.017-1.912 c0.032-0.665,0.092-1.316,0.18-1.952c0.088-0.636,0.2-1.234,0.338-1.794c0.138-0.561,0.294-1.045,0.473-1.454 c0.295-0.675,0.632-1.238,1.019-1.69c0.387-0.452,0.8-0.804,1.24-1.057c0.442-0.252,0.897-0.407,1.371-0.464 c0.472-0.056,0.932-0.019,1.38,0.116c0.447,0.134,0.873,0.361,1.276,0.682c0.403,0.322,0.75,0.734,1.039,1.235 c0.202,0.351,0.383,0.703,0.54,1.058c0.158,0.354,0.282,0.672,0.373,0.951c0.092,0.28,0.151,0.506,0.178,0.679 c0.026,0.172,0.012,0.247-0.042,0.225c-0.048-0.02-0.142-0.154-0.285-0.399c-0.143-0.246-0.317-0.707-0.586-1.178 c-0.341-0.597-0.855-1.039-1.278-1.271c-0.423-0.231-0.833-0.316-1.229-0.259s-0.77,0.24-1.126,0.545 c-0.356,0.305-0.682,0.697-0.982,1.175c-0.299,0.479-0.567,1.024-0.806,1.637c-0.24,0.613-0.436,1.258-0.592,1.936 c-0.155,0.678-0.265,1.372-0.329,2.083s-0.113,1.997-0.009,2.077c0.037,0.029,0.345-0.117,0.503-0.256 c0.159-0.139,0.317-0.306,0.472-0.5c0.156-0.194,0.311-0.4,0.466-0.617c0.154-0.217,0.315-0.423,0.482-0.617 c0.166-0.194,0.343-0.363,0.529-0.505s0.389-0.232,0.606-0.269c0.218-0.037,0.455-0.009,0.711,0.086 c0.256,0.094,0.62,0.284,0.852,0.56c0.229,0.273,0.454,0.759,0.703,1.22c0.248,0.462,0.458,0.968,0.626,1.519 c0.168,0.55,0.269,1.147,0.302,1.788s-0.06,1.324-0.266,2.036c-0.093,0.32-0.221,0.55-0.389,0.684 c-0.168,0.133-0.355,0.201-0.559,0.204c-0.204,0.003-0.414-0.045-0.628-0.144c-0.215-0.099-0.421-0.219-0.617-0.359 s-0.371-0.28-0.527-0.421c-0.155-0.141-0.351-0.336-0.349-0.344c0.015-0.058,0.555-0.291,0.721-0.518 c0.166-0.228,0.282-0.48,0.347-0.755c0.065-0.276,0.09-0.565,0.074-0.867s-0.048-0.584-0.096-0.844 c-0.048-0.261-0.097-0.492-0.145-0.692c-0.048-0.2-0.081-0.413-0.081-0.413c-0.033-0.008-0.725,1.016-1.142,1.453 c-0.416,0.437-0.847,0.767-1.289,0.988c-0.442,0.222-0.883,0.305-1.322,0.25C317.213,304.428,316.806,304.176,316.427,303.74z"/><path style="fill:#FFFFFF" d="M315.047,311.551c0.094,0.115,1.019,0.028,1.397-0.02s0.705-0.111,0.981-0.187 c0.276-0.076,0.515-0.147,0.719-0.212c0.203-0.065,0.402-0.096,0.597-0.094c0.352,1.025,0.522,1.543,0.851,2.586 c-0.311,0.094-0.672,0.192-1.077,0.292s-0.832,0.173-1.278,0.217s-0.897,0.047-1.353,0.009 c-0.455-0.038-0.888-0.145-1.297-0.319s-0.781-0.434-1.12-0.777c-0.338-0.343-0.618-0.79-0.836-1.336 c-0.149-0.373-0.192-0.789-0.135-1.241c0.058-0.453,0.173-0.912,0.345-1.38c0.172-0.469,0.377-0.928,0.614-1.38 s0.464-0.864,0.683-1.234c0.239-0.404,0.466-0.703,0.686-0.897s0.437-0.316,0.651-0.365c0.213-0.05,0.424-0.035,0.632,0.046 c0.207,0.08,0.413,0.192,0.618,0.335c0.205,0.143,0.408,0.31,0.609,0.501c0.2,0.191,0.61,0.546,0.61,0.546 c-0.002,0.004-0.268,0.037-0.443,0.178c-0.174,0.141-0.359,0.338-0.555,0.591c-0.196,0.253-0.397,0.547-0.603,0.882 c-0.207,0.335-0.399,0.686-0.574,1.056c-0.176,0.369-0.329,0.744-0.457,1.125C315.181,310.855,315.004,311.498,315.047,311.551z"/><g><path style="fill:#FFFFFF" d="M317.684,318.23c-0.168-0.081-0.407-0.227-0.714-0.424c-0.308-0.198-0.655-0.426-1.043-0.684 s-0.804-0.535-1.25-0.828c-0.446-0.293-0.893-0.582-1.343-0.864c-0.45-0.282-0.889-0.545-1.319-0.79 c-0.429-0.244-0.82-0.441-1.174-0.59c-0.353-0.149-0.656-0.244-0.908-0.285c-0.251-0.041-0.428,0.004-0.529,0.136 c-0.82,1.155-1.283,1.785-2.075,2.823c0,0-0.001-0.001-0.001-0.001c-1.674,2.2-2.552,3.28-4.39,5.39 c0.264,0.561,0.575,1.086,0.933,1.57c0.357,0.484,0.77,0.894,1.241,1.225c0.471,0.332,1.008,0.567,1.612,0.701 c0.604,0.134,1.292,0.132,2.06-0.013c-0.151-1.127-0.234-1.687-0.414-2.799c-0.084,0.04-0.221,0.068-0.411,0.085 c-0.19,0.017-0.403,0.015-0.636-0.007c-0.233-0.022-0.478-0.064-0.731-0.124c-0.252-0.061-0.482-0.146-0.686-0.254 c1.416-1.678,2.099-2.53,3.415-4.26c-0.008-0.006-0.014-0.011-0.022-0.017c0.385-0.504,0.652-0.862,1.089-1.457 c2.86,2.019,4.292,3.027,7.158,5.038c0.03-0.305,0.075-0.655,0.132-1.05s0.101-0.771,0.131-1.127 c0.03-0.357,0.04-0.667,0.031-0.931C317.832,318.429,317.777,318.275,317.684,318.23z"/><path style="fill:#FFFFFF" d="M310.352,326.315c1.072-0.248,1.609-0.379,2.683-0.654c0.049-1.107,0.066-1.657,0.084-2.752 c-1.052,0.288-1.578,0.425-2.63,0.686C310.449,324.677,310.422,325.221,310.352,326.315z"/></g><g><path style="fill:#FFFFFF" d="M120.403,329.371c-0.87,0.72-1.757,1.141-2.66,1.241c-0.668,0.074-1.382,0-2.133-0.223 s-1.45-0.576-2.091-1.051c-0.853-0.633-1.684-1.49-2.466-2.569c-1.417-1.954-2.075-3.841-2.007-5.584s0.897-3.081,2.424-4.044 c1.514-0.955,3.052-1.131,4.618-0.588c1.565,0.544,2.946,1.691,4.227,3.46c1.297,1.79,1.981,3.485,2.026,5.155 C122.387,326.836,121.762,328.246,120.403,329.371z M118.288,326.863c0.989-0.773,1.486-1.68,1.514-2.709 s-0.317-2.026-1.031-3.011s-1.544-1.615-2.518-1.899c-0.973-0.283-1.994-0.078-3.063,0.638 c-1.056,0.707-1.626,1.562-1.689,2.576c-0.063,1.014,0.294,2.077,1.082,3.163c0.788,1.087,1.697,1.767,2.698,2.032 C116.28,327.918,117.283,327.648,118.288,326.863z"/><path style="fill:#FFFFFF" d="M115.472,313.112c-3.778,2.323-5.667,3.485-9.445,5.808c-0.65-1.055-0.968-1.586-1.589-2.654 c3.835-2.228,5.752-3.342,9.587-5.569C114.592,311.668,114.881,312.152,115.472,313.112z"/><path style="fill:#FFFFFF" d="M106.799,314.243c-0.639-1.11-0.95-1.669-1.558-2.792c1.492-2.038,2.256-3.036,3.817-4.992 c-2.489,0.143-3.74,0.19-6.253,0.236c-0.539-1.113-0.801-1.671-1.309-2.794c3.472,0.172,5.2,0.207,8.634,0.178 c0.62-0.009,0.93-0.015,1.548-0.03c0.528,0.007,0.951,0.05,1.27,0.132s0.611,0.212,0.877,0.392 c0.266,0.179,0.531,0.43,0.799,0.752c0.267,0.322,0.523,0.709,0.771,1.162c0.251,0.459,0.462,0.928,0.636,1.41 c-0.532,0.411-0.798,0.618-1.328,1.031c-0.157-0.409-0.319-0.766-0.487-1.07c-0.311-0.562-0.664-0.91-1.066-1.046 c-0.401-0.135-0.839-0.172-1.313-0.109C109.738,309.628,108.729,311.138,106.799,314.243z"/><path style="fill:#FFFFFF" d="M101.251,303.354c-0.447-1.001-0.665-1.504-1.089-2.513c0.405-0.17,0.607-0.255,1.011-0.424 c-1.161-0.564-1.999-1.489-2.485-2.748c-0.258-0.669-0.377-1.29-0.36-1.856c0.017-0.567,0.493-1.429,0.465-1.537 c-0.043-0.17-1.043-0.707-1.426-1.174s-0.676-1.01-0.875-1.623c-0.253-0.78-0.344-1.478-0.281-2.088 c0.064-0.61,0.282-1.117,0.649-1.51c0.27-0.289,0.777-0.54,1.513-0.754c1.972-0.575,2.958-0.862,4.93-1.437 c0.307,1.055,0.467,1.58,0.8,2.629c-1.75,0.557-2.625,0.835-4.375,1.392c-0.759,0.242-1.223,0.493-1.38,0.753 c-0.207,0.343-0.223,0.79-0.046,1.321c0.129,0.387,0.338,0.722,0.626,1.002c0.288,0.281,0.624,0.437,1.007,0.469 c0.383,0.033,0.931-0.078,1.644-0.329c1.455-0.514,2.183-0.77,3.638-1.284c0.367,1.04,0.557,1.558,0.95,2.59 c-1.646,0.627-2.468,0.94-4.114,1.567c-0.73,0.278-1.183,0.506-1.358,0.684c-0.175,0.178-0.275,0.389-0.3,0.632 c-0.025,0.243,0.031,0.541,0.169,0.889c0.166,0.42,0.4,0.764,0.699,1.031c0.3,0.267,0.634,0.409,1.001,0.424 c0.367,0.016,0.906-0.126,1.618-0.423c1.441-0.601,2.161-0.902,3.602-1.504c0.427,1.022,0.647,1.531,1.1,2.545 C105.651,301.389,104.185,302.044,101.251,303.354z"/><path style="fill:#FFFFFF" d="M95.109,286.228c-0.291-1.057-0.43-1.587-0.696-2.649c0.458-0.115,0.687-0.172,1.144-0.288 c-0.477-0.242-0.91-0.628-1.295-1.158c-0.385-0.529-0.66-1.157-0.819-1.878c-0.277-1.258-0.135-2.407,0.415-3.418 c0.55-1.012,1.477-1.623,2.762-1.856c1.32-0.239,2.42,0.002,3.311,0.695c0.891,0.694,1.456,1.615,1.714,2.786 c0.123,0.557,0.152,1.08,0.087,1.573c-0.066,0.493-0.244,1.04-0.535,1.646c1.57-0.392,2.356-0.588,3.926-0.98 c0.258,1.034,0.393,1.55,0.676,2.58C101.523,284.461,99.385,285.05,95.109,286.228z M98.137,282.477 c0.876-0.219,1.464-0.611,1.773-1.17s0.386-1.161,0.238-1.815c-0.143-0.629-0.449-1.11-0.926-1.448 c-0.476-0.338-1.155-0.419-2.039-0.237c-0.824,0.17-1.392,0.52-1.696,1.052c-0.304,0.533-0.383,1.135-0.232,1.798 c0.157,0.69,0.488,1.216,0.988,1.573C96.742,282.589,97.374,282.668,98.137,282.477z"/><path style="fill:#FFFFFF" d="M91.423,274.635c-0.775,0.132-1.163,0.198-1.939,0.33c-0.201-1.183-0.294-1.775-0.466-2.962 c0.778-0.113,1.168-0.17,1.946-0.283C91.134,272.888,91.225,273.471,91.423,274.635z M100.414,273.103 c-3.167,0.54-4.751,0.809-7.918,1.349c-0.196-1.154-0.287-1.732-0.455-2.889c3.179-0.462,4.769-0.694,7.948-1.156 C100.147,271.487,100.231,272.026,100.414,273.103z"/><path style="fill:#FFFFFF" d="M93.305,259.955c0.206,1.119,0.315,1.677,0.547,2.787c-0.411,0.125-0.71,0.363-0.894,0.716 c-0.185,0.353-0.255,0.801-0.207,1.339c0.064,0.716,0.303,1.269,0.71,1.655c0.408,0.385,1.039,0.529,1.891,0.436 c0.947-0.104,1.593-0.387,1.941-0.844c0.348-0.456,0.488-1.031,0.427-1.73c-0.046-0.522-0.195-0.94-0.45-1.256 c-0.254-0.317-0.665-0.525-1.233-0.624c0.064-1.107,0.102-1.659,0.192-2.76c0.97,0.239,1.719,0.741,2.255,1.502 c0.537,0.761,0.853,1.793,0.971,3.111c0.134,1.498-0.099,2.726-0.725,3.713s-1.579,1.58-2.878,1.755 c-1.314,0.177-2.403-0.15-3.252-1.01c-0.849-0.859-1.365-2.12-1.511-3.758c-0.12-1.34,0.017-2.425,0.388-3.24 C91.848,260.933,92.46,260.336,93.305,259.955z"/><path style="fill:#FFFFFF" d="M95.139,244.655c0.369-1.127,0.56-1.687,0.956-2.798c1.156,0.566,1.975,1.374,2.473,2.419 c0.498,1.047,0.693,2.317,0.61,3.838c-0.102,1.881-0.643,3.405-1.665,4.621c-1.021,1.215-2.39,1.851-4.134,1.856 c-1.845,0.006-3.286-0.637-4.289-1.976c-1.004-1.34-1.471-3.13-1.349-5.316c0.107-1.909,0.639-3.432,1.544-4.536 c0.538-0.655,1.27-1.11,2.188-1.36c0.081,1.234,0.13,1.849,0.243,3.074c-0.587,0.132-1.07,0.471-1.443,1.021 s-0.586,1.241-0.631,2.065c-0.062,1.14,0.197,2.079,0.765,2.803c0.567,0.724,1.516,1.093,2.837,1.124 c1.402,0.032,2.406-0.28,3.021-0.922c0.616-0.641,0.945-1.48,1.002-2.528c0.042-0.773-0.103-1.448-0.441-2.035 C96.488,245.419,95.928,244.969,95.139,244.655z"/><path style="fill:#FFFFFF" d="M99.627,240.776c-4.403-0.53-6.605-0.796-11.007-1.326c0.143-1.19,0.221-1.784,0.393-2.97 c4.389,0.637,6.583,0.956,10.972,1.593C99.829,239.153,99.757,239.693,99.627,240.776z"/><path style="fill:#FFFFFF" d="M101.541,229.616c-0.469-0.105-0.704-0.158-1.174-0.263c0.335,0.465,0.558,1.024,0.674,1.675 c0.116,0.652,0.109,1.309-0.019,1.976c-0.131,0.68-0.358,1.269-0.686,1.772c-0.328,0.502-0.722,0.842-1.185,1.018 c-0.463,0.176-1.067,0.206-1.814,0.085c-2.007-0.323-3.011-0.485-5.018-0.808c0.185-1.155,0.285-1.732,0.499-2.883 c1.451,0.27,2.177,0.405,3.628,0.675c1.11,0.207,1.8,0.283,2.069,0.229s0.502-0.199,0.698-0.436 c0.197-0.237,0.335-0.557,0.417-0.963c0.093-0.463,0.083-0.898-0.034-1.307c-0.117-0.409-0.303-0.714-0.561-0.913 c-0.258-0.199-0.948-0.425-2.07-0.674c-1.323-0.294-1.985-0.442-3.308-0.736c0.254-1.145,0.388-1.716,0.67-2.856 c3.118,0.774,4.677,1.161,7.796,1.935C101.879,228.129,101.763,228.624,101.541,229.616z"/><path style="fill:#FFFFFF" d="M102.551,225.473c-4.288-1.134-6.432-1.701-10.719-2.835c0.308-1.165,0.469-1.746,0.805-2.905 c1.534,0.446,2.301,0.669,3.835,1.115c-0.466-1.073-0.512-2.217-0.132-3.404c0.414-1.294,1.115-2.249,2.075-2.848 c0.961-0.598,2.068-0.658,3.314-0.205c1.289,0.469,2.13,1.239,2.547,2.29s0.439,2.137,0.071,3.285 c-0.181,0.565-0.464,1.087-0.851,1.574c-0.387,0.486-0.853,0.869-1.4,1.149c0.453,0.131,0.68,0.196,1.133,0.327 C102.947,223.997,102.811,224.488,102.551,225.473z M99.255,221.678c0.799,0.232,1.438,0.235,1.918,0.017 c0.677-0.307,1.132-0.836,1.372-1.599c0.184-0.586,0.154-1.145-0.09-1.685c-0.245-0.539-0.773-0.948-1.59-1.223 c-0.87-0.292-1.57-0.29-2.097,0.014c-0.527,0.305-0.901,0.798-1.113,1.478c-0.208,0.665-0.186,1.279,0.063,1.832 C97.965,221.067,98.48,221.453,99.255,221.678z"/><path style="fill:#FFFFFF" d="M104.095,209.668c0.372-1.114,0.565-1.671,0.967-2.78c0.74,0.136,1.375,0.031,1.909-0.312 c0.534-0.344,0.991-0.922,1.383-1.738c0.415-0.864,0.601-1.578,0.549-2.152c-0.052-0.574-0.257-0.956-0.62-1.142 c-0.233-0.119-0.479-0.129-0.738-0.026s-0.57,0.357-0.922,0.764c-0.241,0.278-0.748,0.937-1.501,1.99 c-0.967,1.356-1.764,2.263-2.427,2.699c-0.933,0.614-1.8,0.763-2.608,0.423c-0.52-0.219-0.921-0.631-1.194-1.241 c-0.273-0.611-0.356-1.365-0.238-2.258c0.117-0.893,0.436-1.899,0.966-3.007c0.865-1.809,1.834-3.021,2.843-3.632 c1.009-0.612,1.978-0.685,2.898-0.245c-0.566,1.129-0.841,1.697-1.375,2.836c-0.569-0.137-1.067-0.063-1.489,0.226 c-0.423,0.288-0.833,0.836-1.219,1.644c-0.398,0.833-0.579,1.546-0.552,2.129c0.017,0.376,0.158,0.622,0.42,0.74 c0.239,0.108,0.507,0.058,0.805-0.146c0.379-0.261,0.998-1.028,1.891-2.279c0.892-1.251,1.642-2.125,2.22-2.64 s1.176-0.837,1.788-0.968s1.226-0.025,1.841,0.31c0.558,0.304,0.965,0.798,1.231,1.475c0.266,0.677,0.319,1.453,0.17,2.331 c-0.15,0.879-0.503,1.879-1.048,3.015c-0.793,1.652-1.656,2.799-2.643,3.446C106.415,209.777,105.316,209.963,104.095,209.668z"/><path style="fill:#FFFFFF" d="M109.46,194.502c-0.663,0.853-0.989,1.284-1.632,2.152c-0.532-0.641-0.778-1.379-0.729-2.213 s0.45-1.895,1.226-3.162c0.705-1.151,1.345-1.94,1.893-2.373c0.547-0.433,1.042-0.663,1.478-0.695 c0.436-0.032,1.037,0.209,1.805,0.722c0.818,0.562,1.227,0.842,2.046,1.403c0.587,0.392,1.045,0.643,1.375,0.753 c0.33,0.111,0.723,0.168,1.181,0.177c-0.63,0.931-0.938,1.399-1.543,2.341c-0.159-0.014-0.387-0.049-0.676-0.108 c-0.131-0.027-0.26-0.054-0.265-0.049c-0.103,0.099-0.014,1.178-0.152,1.738c-0.139,0.56-0.366,1.104-0.683,1.637 c-0.56,0.94-1.18,1.572-1.882,1.902c-0.702,0.33-1.351,0.335-1.951,0.003c-0.397-0.22-0.681-0.543-0.847-0.974 c-0.167-0.43-0.201-0.926-0.098-1.485c0.102-0.559,0.347-1.314,0.749-2.256c0.543-1.271,0.909-2.173,1.058-2.71 c-0.072-0.045-0.107-0.068-0.179-0.113c-0.345-0.218-0.666-0.255-0.964-0.108s-0.657,0.555-1.067,1.226 c-0.276,0.453-0.425,0.847-0.449,1.177C109.127,193.817,109.23,194.156,109.46,194.502z M112.979,192.044 c-0.123,0.365-0.348,0.923-0.662,1.677s-0.48,1.273-0.498,1.544c-0.029,0.419,0.097,0.713,0.358,0.866 c0.257,0.151,0.554,0.151,0.892,0.006c0.338-0.146,0.625-0.415,0.864-0.809c0.266-0.439,0.419-0.926,0.45-1.454 c0.023-0.393-0.059-0.715-0.231-0.955c-0.113-0.158-0.385-0.377-0.815-0.649C113.194,192.18,113.123,192.135,112.979,192.044z"/><path style="fill:#FFFFFF" d="M111.432,186.789c0.379-0.559,0.57-0.838,0.957-1.394c-0.199-0.138-0.298-0.207-0.497-0.346 c-0.554-0.386-0.909-0.759-1.061-1.122c-0.152-0.363-0.151-0.836,0.009-1.42s0.498-1.23,1.018-1.931 c0.534-0.719,1.138-1.365,1.808-1.934c0.364,0.498,0.547,0.746,0.915,1.241c-0.366,0.343-0.686,0.698-0.961,1.063 c-0.27,0.36-0.405,0.662-0.404,0.904c0,0.242,0.164,0.484,0.494,0.726c0.183,0.134,0.274,0.201,0.457,0.336 c0.542-0.738,0.818-1.104,1.376-1.834c0.531,0.406,0.797,0.609,1.328,1.015c-0.55,0.719-0.822,1.081-1.357,1.808 c2.05,1.506,3.075,2.259,5.126,3.765c-0.677,0.921-1.009,1.385-1.66,2.318c-2.088-1.454-3.132-2.181-5.22-3.634 c-0.382,0.548-0.571,0.822-0.944,1.374C112.263,187.35,111.986,187.163,111.432,186.789z M115.639,179.177 c-0.619-0.486-0.928-0.729-1.547-1.214c0.78-0.993,1.178-1.486,1.987-2.464c0.606,0.501,0.909,0.752,1.515,1.253 C116.798,177.714,116.407,178.199,115.639,179.177z M122.813,184.808c-2.527-1.984-3.791-2.975-6.318-4.959 c0.761-0.969,1.148-1.449,1.937-2.403c2.475,2.048,3.713,3.072,6.188,5.119C123.885,183.455,123.523,183.904,122.813,184.808z"/></g><g><defs><circle id="SVGID_00000010286194845560853120000007102854116470375096_" cx="213.401" cy="257.502" r="149"/></defs><clipPath id="SVGID_00000037688802433504891840000015502023195759328658_"><use xlink:href="#SVGID_00000010286194845560853120000007102854116470375096_" style="overflow:visible"/></clipPath><polygon style="clip-path:url(#SVGID_00000037688802433504891840000015502023195759328658_);fill:#FFFFFF" points="334.141,363.998 285.92,363.998 285.92,353.827 268.591,353.827 268.591,363.998 261.433,363.998 261.433,353.827 245.988,353.827 245.988,362.491 240.337,362.491 240.337,319.922 225.268,319.922 225.268,329.34 219.994,329.34 219.994,319.922 206.055,319.922 206.055,329.716 199.651,329.716 199.651,319.922 185.335,319.922 185.335,363.998 180.438,363.998 180.438,354.203 165.369,354.203 165.369,363.998 157.835,363.998 157.835,353.827 141.636,353.827 141.636,363.998 90.401,363.998 90.401,409.582 336.401,409.582"/><defs><circle id="SVGID_00000157272594275122703070000006840484887103888002_" cx="213.401" cy="257.502" r="149"/></defs><clipPath id="SVGID_00000062875207366310490240000000496646960380639122_"><use xlink:href="#SVGID_00000157272594275122703070000006840484887103888002_" style="overflow:visible"/></clipPath><polygon style="clip-path:url(#SVGID_00000062875207366310490240000000496646960380639122_);fill:none;stroke:#FFFFFF;stroke-width:4;stroke-linecap:square;stroke-miterlimit:10" points="334.141,363.998 285.92,363.998 285.92,353.827 268.591,353.827 268.591,363.998 261.433,363.998 261.433,353.827 245.988,353.827 245.988,362.491 240.337,362.491 240.337,319.922 225.268,319.922 225.268,329.34 219.994,329.34 219.994,319.922 206.055,319.922 206.055,329.716 199.651,329.716 199.651,319.922 185.335,319.922 185.335,363.998 180.438,363.998 180.438,354.203 165.369,354.203 165.369,363.998 157.835,363.998 157.835,353.827 141.636,353.827 141.636,363.998 90.401,363.998 90.401,409.582 336.401,409.582"/><g><defs><circle id="SVGID_00000066514817848147161380000010969911538047390609_" cx="213.401" cy="257.502" r="149"/></defs><clipPath id="SVGID_00000134227391534306971640000000070546762974046881_"><use xlink:href="#SVGID_00000066514817848147161380000010969911538047390609_" style="overflow:visible"/></clipPath><g style="clip-path:url(#SVGID_00000134227391534306971640000000070546762974046881_)"><path style="fill:#ED2D30" d="M238.337,321.922v40.57v2h2h5.651h2v-2v-6.665h11.446v8.171v2h2h7.158h2v-2v-8.171h13.329v8.171 v2h2h46.317l2.062,41.583H92.401v-41.583h49.234h2v-2v-8.171h12.199v8.171v2h2h7.534h2v-2v-7.795h11.069v7.795v2h2h4.897h2v-2 v-42.077h10.315v7.795v2h2h6.404h2v-2v-7.795h9.939v7.418v2h2h5.274h2v-2v-7.418h11.071 M240.337,319.922h-15.069v9.418h-5.274 v-9.418h-13.939v9.795h-6.404v-9.795h-14.315v44.077h-4.897v-9.795H165.37v9.795h-7.534v-10.171h-16.199v10.171H90.401v45.583 h246l-2.26-45.583H285.92v-10.171h-17.329v10.171h-7.158v-10.171h-15.446v8.665h-5.651L240.337,319.922L240.337,319.922z"/></g></g><g><circle id="SVGID_1_" style="fill:none;stroke:#ED2D30;stroke-width:3;stroke-miterlimit:10" cx="213.401" cy="257.502" r="149"/></g></g><path style="fill:#FFFFFF" d="M237.703,403.027c0,0-21.684,31.736-49.006,0C188.698,403.027,210.26,373.095,237.703,403.027z"/><path style="fill-rule:evenodd;clip-rule:evenodd;fill:#ED2D30" d="M324.401,145.199V75.578H99.236v69.781l47.327,27.4 c0,0,66.505-49.059,131.187,0C324.401,145.199,324.401,145.199,324.401,145.199z"/><g><path style="fill:#FFFFFF" d="M273.3,170.733l-0.535-0.406c-17.63-13.372-37.139-20.152-57.984-20.152 c-35.545,0-63.016,19.958-63.289,20.16l-0.507,0.374l-49.205-26.157V77.806h220.078v66.996h-0.93 c-0.524,0.11-6.801,1.813-47.05,25.589L273.3,170.733z M103.78,143.35l47.044,25.008c3.993-2.767,30.468-20.184,63.957-20.184 c21.08,0,40.812,6.781,58.656,20.154c33.872-19.993,43.669-24.34,46.421-25.275V79.806H103.78V143.35z"/></g><g><path style="fill:#325293" d="M124.608,115.059c0-7.168,1.996-12.749,5.99-16.743c3.993-3.994,9.554-5.99,16.683-5.99 c7.308,0,12.939,1.961,16.893,5.885c3.953,3.924,5.93,9.42,5.93,16.488c0,5.132-0.863,9.34-2.59,12.625 c-1.728,3.285-4.224,5.84-7.488,7.667c-3.265,1.827-7.333,2.741-12.206,2.741c-4.952,0-9.05-0.789-12.295-2.366 s-5.875-4.074-7.892-7.488C125.616,124.463,124.608,120.191,124.608,115.059z M138.176,115.119c0,4.433,0.824,7.618,2.471,9.554 c1.647,1.937,3.889,2.905,6.724,2.905c2.915,0,5.171-0.948,6.769-2.845c1.597-1.897,2.396-5.301,2.396-10.213 c0-4.133-0.834-7.153-2.501-9.061c-1.667-1.906-3.929-2.86-6.784-2.86c-2.736,0-4.932,0.969-6.589,2.905 C139.004,107.441,138.176,110.646,138.176,115.119z"/><path style="fill:#325293" d="M175.046,124.763h13.029v12.22h-13.029V124.763z"/><path style="fill:#325293" d="M225.484,119.012l11.891,3.594c-0.799,3.335-2.058,6.12-3.774,8.356 c-1.718,2.236-3.849,3.923-6.395,5.062s-5.786,1.708-9.719,1.708c-4.772,0-8.671-0.694-11.696-2.081s-5.636-3.826-7.832-7.318 c-2.197-3.492-3.295-7.962-3.295-13.41c0-7.263,1.932-12.845,5.796-16.747c3.863-3.901,9.329-5.852,16.398-5.852 c5.53,0,9.878,1.118,13.043,3.354s5.517,5.671,7.054,10.303l-11.98,2.666c-0.419-1.337-0.858-2.316-1.317-2.935 c-0.76-1.038-1.688-1.837-2.786-2.396c-1.098-0.559-2.326-0.839-3.684-0.839c-3.075,0-5.432,1.237-7.068,3.71 c-1.238,1.835-1.857,4.717-1.857,8.645c0,4.867,0.738,8.202,2.217,10.007c1.478,1.805,3.554,2.708,6.229,2.708 c2.596,0,4.558-0.729,5.886-2.187C223.921,123.904,224.885,121.788,225.484,119.012z"/><path style="fill:#325293" d="M244.233,124.763h13.029v12.22h-13.029L244.233,124.763L244.233,124.763z"/><path style="fill:#325293" d="M263.073,122.457l12.908-0.809c0.279,2.097,0.849,3.694,1.708,4.792 c1.397,1.777,3.394,2.666,5.99,2.666c1.937,0,3.429-0.454,4.478-1.363c1.048-0.909,1.572-1.962,1.572-3.16 c0-1.138-0.499-2.156-1.498-3.055c-0.998-0.898-3.314-1.747-6.948-2.545c-5.95-1.338-10.193-3.115-12.729-5.332 c-2.556-2.216-3.834-5.042-3.834-8.476c0-2.256,0.654-4.388,1.962-6.395c1.308-2.006,3.274-3.583,5.9-4.732 c2.626-1.148,6.225-1.722,10.798-1.722c5.61,0,9.889,1.043,12.834,3.13c2.945,2.086,4.697,5.406,5.257,9.958l-12.789,0.749 c-0.34-1.977-1.054-3.415-2.142-4.313c-1.089-0.898-2.591-1.348-4.508-1.348c-1.578,0-2.766,0.334-3.564,1.003 c-0.799,0.669-1.198,1.483-1.198,2.441c0,0.699,0.33,1.328,0.988,1.887c0.639,0.58,2.157,1.119,4.553,1.618 c5.931,1.278,10.179,2.571,12.744,3.878c2.565,1.308,4.434,2.931,5.602,4.867c1.168,1.937,1.752,4.103,1.752,6.5 c0,2.815-0.779,5.411-2.336,7.787c-1.558,2.376-3.734,4.178-6.53,5.406c-2.795,1.228-6.319,1.842-10.572,1.842 c-7.468,0-12.64-1.438-15.515-4.313C265.079,130.544,263.452,126.889,263.073,122.457z"/></g></g></svg>