<svg version="1.1" id="Calque_1" xmlns="http://www.w3.org/2000/svg" x="0px" y="0px" viewBox="0 0 366.85 427.96" style="enable-background:new 0 0 366.85 427.96" xml:space="preserve"><style>.st0{fill:#00974A}.st1{fill:#FFC200}</style><path class="st0" d="M52.48,261.52l-2.02-6.81l7.64-6.86l-0.59-1.98l-8.89,2.63l-1.74-5.87l23.9-7.07l2.8,9.46 c0.75,2.53,0.58,4.74-0.5,6.64c-1.08,1.9-2.67,3.16-4.78,3.78c-1.5,0.44-2.89,0.44-4.18,0c-1.29-0.45-2.36-1.13-3.21-2.04 L52.48,261.52z M64.68,249.37c0.62,0.33,1.25,0.4,1.9,0.2s1.14-0.59,1.49-1.21c0.34-0.61,0.4-1.3,0.18-2.06l-0.98-3.32l-4.83,1.43 l0.98,3.32C63.63,248.5,64.06,249.04,64.68,249.37z"/><path class="st0" d="M64.03,285.11l-2.9-5.71l2.79-2.71l-3.46-6.84l-3.86,0.58l-2.9-5.71l26.33-3.18l2.14,4.21L64.03,285.11z M67.75,272.95l4.98-4.88l-6.94,1.01L67.75,272.95z"/><path class="st0" d="M82.13,295.39c-2.24,1.65-4.52,2.17-6.85,1.59c-2.33-0.59-4.25-1.91-5.76-3.95c-0.87-1.18-1.45-2.31-1.73-3.38 c-0.28-1.07-0.31-2.3-0.1-3.71l5.6,0.88c-0.18,1.17,0.03,2.17,0.62,2.97c0.59,0.81,1.29,1.28,2.1,1.41 c0.81,0.13,1.67-0.14,2.59-0.82l13.08-9.63l3.63,4.93L82.13,295.39z"/><path class="st0" d="M94.02,319.95l-4.56-4.5l1.78-3.45l-5.46-5.38l-3.48,1.78l-4.56-4.5l23.96-11.37l3.36,3.32L94.02,319.95z M93.69,307.23l3.18-6.21l-6.27,3.16L93.69,307.23z"/><path class="st0" d="M124.82,330.82c-1.76,2.05-3.72,3.22-5.88,3.52c-2.16,0.3-4.29-0.18-6.38-1.45c-2.4-1.45-3.9-3.43-4.51-5.92 c-0.21-0.83-0.29-1.65-0.24-2.44c0.04-0.79,0.25-1.63,0.63-2.52c0.38-0.89,0.72-1.63,1.04-2.23c0.32-0.6,0.83-1.47,1.53-2.63 c0.7-1.16,1.24-2.02,1.62-2.58c0.38-0.56,0.88-1.21,1.49-1.96c0.62-0.75,1.26-1.32,1.95-1.73c0.68-0.41,1.44-0.71,2.27-0.92 c2.5-0.61,4.95-0.2,7.34,1.25c2.1,1.27,3.51,2.93,4.24,4.98c0.73,2.05,0.6,4.33-0.4,6.84l-5.33-3.23c0.5-1.77,0.05-3.08-1.35-3.93 c-0.92-0.56-1.79-0.67-2.61-0.35c-0.5,0.19-1.02,0.59-1.57,1.2c-0.55,0.61-1.36,1.8-2.43,3.58c-1.08,1.78-1.76,3.05-2.04,3.82 c-0.29,0.77-0.4,1.41-0.34,1.94c0.1,0.88,0.6,1.59,1.52,2.15c1.4,0.85,2.76,0.64,4.1-0.63L124.82,330.82z"/><path class="st0" d="M141.37,346.14l-15.4-6.16l9.25-23.14l5.69,2.27l-7.23,18.07l9.72,3.89L141.37,346.14z"/><path class="st0" d="M166.32,343.08c-0.57,2.6-1.92,4.51-4.07,5.74c-2.14,1.23-4.51,1.56-7.11,0.99s-4.6-1.85-6.02-3.86 c-1.41-2-1.83-4.31-1.27-6.9l3.46-15.8l5.98,1.31l-3.43,15.66c-0.24,1.12-0.15,2.05,0.28,2.8c0.43,0.75,1.15,1.24,2.15,1.46 c1,0.22,1.87,0.08,2.6-0.42c0.73-0.5,1.22-1.3,1.46-2.42l3.43-15.66l5.98,1.31L166.32,343.08z"/><path class="st0" d="M190.68,345.8c-0.08,2.31-0.87,4.08-2.36,5.33c-1.49,1.24-3.38,1.83-5.66,1.75l-10.84-0.38l0.86-24.91 l10.32,0.36c2.54,0.09,4.48,0.81,5.81,2.16c1.33,1.35,1.96,3.13,1.88,5.32c-0.07,2.05-1.04,3.66-2.9,4.84 c0.37,0.25,0.67,0.47,0.92,0.68c0.25,0.21,0.55,0.53,0.91,0.98c0.36,0.44,0.63,1,0.82,1.66S190.7,344.98,190.68,345.8z M183.97,346.77c0.38-0.42,0.58-0.93,0.6-1.54c0.02-0.61-0.14-1.13-0.49-1.56c-0.35-0.43-0.91-0.66-1.67-0.69l-4.13-0.14 l-0.15,4.37l4.13,0.14C183.02,347.39,183.59,347.19,183.97,346.77z M183.98,336.95c0.36-0.38,0.55-0.86,0.57-1.42 c0.02-0.56-0.14-1.04-0.48-1.45c-0.34-0.41-0.89-0.63-1.66-0.65l-3.81-0.13l-0.14,4.06l3.81,0.13 C183.05,337.51,183.61,337.34,183.98,336.95z"/><path class="st0" d="M225.99,347.59l-6.27,1.3l-1.89-3.4l-7.5,1.56l-0.44,3.88l-6.27,1.3l3.8-26.24l4.63-0.96L225.99,347.59z M215.22,340.82l-3.41-6.08l-0.84,6.97L215.22,340.82z"/><path class="st0" d="M237.28,322.5l-5.74,2.14l6.81,18.23l-5.74,2.14l-6.81-18.23l-5.74,2.14l-1.91-5.11l17.21-6.43L237.28,322.5z"/><path class="st0" d="M265.94,328.49l-5.27,3.11l-5.02-8.5l-5.61,3.31l5.02,8.5l-5.28,3.11l-12.67-21.46l5.28-3.11l4.87,8.26 l5.61-3.31l-4.87-8.26l5.27-3.11L265.94,328.49z"/><path class="st0" d="M284.74,313.13l-12.63,10.76l-16.17-18.97l4.66-3.97l12.62,14.81l7.96-6.79L284.74,313.13z"/><path class="st0" d="M299.93,295.83l-10.95,12.93l-19.02-16.1l10.95-12.93l4.17,3.53l-6.99,8.25l3.18,2.69l5.97-7.05l4.17,3.53 l-5.97,7.05l3.34,2.83l6.99-8.25L299.93,295.83z"/><path class="st0" d="M295.82,265.7l-3.14,5.26l16.7,9.98l-3.14,5.26l-16.71-9.98l-3.14,5.26l-4.69-2.8l9.43-15.77L295.82,265.7z"/><path class="st0" d="M317.16,265.02l-2.46,5.61l-22.82-10.01l2.46-5.61L317.16,265.02z"/><path class="st0" d="M317.36,238.93c2.43,1.17,4.07,2.76,4.91,4.77c0.85,2.01,0.93,4.19,0.24,6.54c-0.79,2.69-2.31,4.65-4.56,5.89 c-0.75,0.41-1.52,0.7-2.29,0.86c-0.78,0.16-1.64,0.18-2.6,0.04c-0.96-0.13-1.77-0.28-2.42-0.44c-0.66-0.16-1.64-0.42-2.94-0.8 c-1.3-0.38-2.27-0.68-2.91-0.9c-0.64-0.22-1.4-0.54-2.28-0.94c-0.88-0.4-1.6-0.88-2.17-1.44c-0.57-0.55-1.06-1.21-1.47-1.96 c-1.24-2.26-1.46-4.73-0.68-7.42c0.69-2.35,1.93-4.15,3.72-5.38c1.8-1.24,4.03-1.7,6.71-1.38l-1.75,5.98 c-1.84-0.03-2.99,0.74-3.45,2.31c-0.3,1.03-0.19,1.9,0.33,2.61c0.31,0.43,0.83,0.83,1.56,1.2c0.73,0.37,2.09,0.85,4.09,1.43 s3.4,0.91,4.21,0.99c0.81,0.08,1.47,0.02,1.96-0.17c0.82-0.32,1.38-0.99,1.68-2.02c0.46-1.57-0.09-2.84-1.66-3.8L317.36,238.93z"/><g><polygon class="st0" points="82.2,156.74 78.44,158.89 79.9,161.34 76.25,163.43 78.25,166.84 82.07,164.73 80.6,162.23 84.25,160.22"/><path class="st0" d="M95.55,109.25c-0.72-0.67-1.57-1.16-2.56-1.49c-0.98-0.32-1.98-0.4-2.99-0.22c-1.01,0.18-1.88,0.67-2.61,1.45 c-0.69,0.76-1.21,1.78-1.54,3.09c-0.32,1.3-0.53,2.89-0.63,4.78c-0.09,1.88-0.1,4.32-0.04,7.3c-0.43,0.43-0.81,0.79-1.14,1.09 c-0.34,0.29-0.68,0.54-1.01,0.73c-0.37-0.94-1.02-2.24-1.94-3.89l-0.2,0.01l-2.64,3.89c1.04,1.45,1.11,5.59,1.11,5.59l-1.21,1.68 l-0.01,0.01c-0.07,0.08-0.14,0.17-0.21,0.27l-1.38,1.99l-0.04,0.05c-0.06,0.07-0.12,0.14-0.17,0.22l-1.35,2.03 c-0.07,0.08-0.13,0.17-0.2,0.27l-0.66,1.06c0,0-2.65,2.97-3.38,3.9c-0.72,0.94-1.7,2.07-2.93,3.39l-1.31,1.42l3.15,2.97 c0.84-1,1.53-1.75,2.06-2.25c0.53-0.51,0.97-0.85,1.3-1.01c0.34-0.16,0.64-0.17,0.92-0.04c0.19,0.5,0.23,1.25,0.1,2.24 s-0.4,2.11-0.81,3.36c-0.41,1.25-0.91,2.49-1.5,3.72c-0.78,1.6-1.57,2.78-2.38,3.54c-0.81,0.76-1.63,1.18-2.48,1.24 c-0.85,0.07-1.76-0.13-2.72-0.6c-0.36-0.17-0.74-0.4-1.15-0.67c-0.41-0.28-0.88-0.61-1.39-0.99l-0.36,0.26l-0.53,3.91 c1.2,1.04,2.31,1.81,3.32,2.3c1.28,0.61,2.59,0.81,3.93,0.59c1.34-0.22,2.64-0.9,3.91-2.05c1.27-1.15,2.41-2.78,3.42-4.88 c1.13-2.33,1.91-4.53,2.33-6.59c0.43-2.06,0.47-3.86,0.12-5.39c-0.35-1.53-1.09-2.67-2.23-3.43l0.47-0.99l3.41-4.01l1.52-2.2 l0.07-0.1l1.57-2.17c0.48-0.66,1.2-3.48,1.31-4.15c1.07-0.47,2.03-1.06,2.86-1.78c0.84-0.72,1.95-1.82,3.33-3.31l2.54-2.75 c1.24-1.34,2.2-2.44,2.89-3.3c0.68-0.86,1.2-1.68,1.56-2.46c0.36-0.78,0.55-1.6,0.59-2.46c0.04-0.88-0.11-1.79-0.46-2.73 C96.83,110.74,96.29,109.93,95.55,109.25z M93.44,115.14c-0.54,0.68-1.51,1.78-2.91,3.3l-2.35,2.54c0.09-2.26,0.29-4.15,0.61-5.66 c0.32-1.51,0.76-2.57,1.32-3.17c0.3-0.33,0.68-0.53,1.13-0.61c0.45-0.08,0.91-0.04,1.36,0.1c0.45,0.15,0.83,0.36,1.14,0.65 c0.43,0.4,0.69,0.77,0.78,1.11C94.34,113.87,93.98,114.45,93.44,115.14z"/><polygon class="st0" points="84.82,106.99 83.82,102.92 79.39,103.88 80.32,107.93"/><polygon class="st0" points="122.21,105.1 118.01,104.85 117.82,108.81 122.18,109.12 122.31,106.22 126.47,106.54 126.65,102.5 122.33,102.25"/><path class="st0" d="M120.34,98.62c0.23-0.84,0.27-1.68,0.12-2.52c-0.15-0.83-0.47-1.65-0.95-2.45c-0.42-0.7-1.15-1.54-2.18-2.53 c-1.02-0.99-2.09-1.86-3.19-2.61l-0.3,0.18l-1.54,4.2c1.16,0.74,2.14,1.42,2.93,2.03c0.79,0.62,1.35,1.19,1.67,1.73 c0.1,0.16,0.16,0.28,0.17,0.35c-0.15,0.2-0.49,0.49-1.02,0.86c-0.53,0.37-1.1,0.75-1.73,1.12l-0.9,0.55l0.02,0.06l-1.92,1.3 c-0.11,0.04-0.22,0.11-0.33,0.19l-1.96,1.39c-0.1,0.05-0.2,0.11-0.31,0.19l-1.57,1.17c-0.22,0.05-0.45,0.17-0.7,0.37 c-0.69,0.56-1.28,0.92-1.78,1.08c-0.5,0.17-0.98,0.15-1.44-0.05c-0.46-0.2-0.94-0.6-1.44-1.22L91.7,91.28 c-0.51,0.4-1.01,0.8-1.51,1.21l-1.48,2.05l10.08,12.47c1.55,1.92,3.14,2.97,4.74,3.13c1.55,0.16,3.2-0.43,4.95-1.8l0.03,0.07 l2.15-1.59l2.18-1.55l0.15-0.1l2.17-1.47c0.19-0.13,0.36-0.27,0.5-0.41l0.16-0.1c1.48-0.89,2.55-1.68,3.21-2.37 C119.7,100.14,120.13,99.4,120.34,98.62z"/><path class="st0" d="M147.44,63.43c-0.43,0.11-0.86,0.23-1.3,0.35l-2.69,1.6l4.26,15.16c0.29,1.03,0.45,1.89,0.47,2.56 c-0.5,0.46-1.36,0.85-2.57,1.2v0.05l-2.21,0.74h-0.01c-0.11,0.02-0.21,0.05-0.33,0.09L140.8,86h-0.02 c-0.12,0.02-0.23,0.06-0.35,0.11l-2.24,0.86h-0.01c-0.11,0.02-0.23,0.06-0.35,0.11l-1.63,0.67c-0.28-0.07-0.6-0.01-0.96,0.16 c-0.78,0.37-1.41,0.6-1.89,0.67c-0.48,0.08-0.96-0.01-1.43-0.26c-0.47-0.26-1.05-0.72-1.74-1.4c-0.09-0.09-0.21-0.21-0.37-0.38 c-0.16-0.17-0.38-0.37-0.64-0.61c-0.36-0.37-0.73-0.74-1.1-1.1c-0.37-0.37-0.73-0.74-1.09-1.11l-0.35,0.17l-1.29,4.58 c1.94,1.52,3.52,2.82,4.74,3.9c-0.04,1.21-0.41,2.42-1.11,3.63c-0.7,1.22-1.88,2.58-3.53,4.1l-0.05,0.45l3.33,1.94 c1.56-1.34,2.8-2.87,3.73-4.57s1.31-3.33,1.12-4.9c0.72-0.02,1.52-0.22,2.41-0.62l0.03,0.15l2.49-1.02l0.13-0.05l2.39-0.91 l0.1-0.04l2.39-0.86l0.14-0.05l2.52-0.84c0.24-0.08,0.45-0.18,0.63-0.3c1.37-0.45,2.48-0.98,3.33-1.6c1.04-0.76,1.72-1.75,2.05-3 c0.33-1.24,0.23-2.82-0.31-4.73L147.44,63.43z"/><path class="st0" d="M155.83,61.52l-2.88,1.42l4.67,22.73l0.32,0.15l3.84-1.65l-4.6-22.92C156.73,61.34,156.28,61.42,155.83,61.52z"/><path class="st0" d="M177.98,79.04c-0.63-0.73-0.97-1.46-1.01-2.18c-0.04-0.63,0.1-1.15,0.44-1.57c0.33-0.42,0.83-0.64,1.52-0.68 c0.52-0.04,1.26,0.08,2.22,0.35l0.98-3.28c-0.58-0.24-1.22-0.43-1.94-0.55c-0.72-0.12-1.42-0.16-2.1-0.12 c-1.05,0.06-1.95,0.34-2.72,0.84c-0.76,0.5-1.34,1.16-1.72,1.98c-0.39,0.82-0.55,1.7-0.49,2.66c0.06,1.12,0.44,2.12,1.12,3.02 l-2.78,0.34l0.45,3.48c2.32-0.23,4.32-0.46,5.99-0.69c1.67-0.23,3.65-0.52,5.94-0.89l-0.52-3.44 C181.6,78.57,179.81,78.82,177.98,79.04z"/><polygon class="st0" points="208.5,90.59 211.57,93.97 214.6,91.07 211.54,87.76"/><path class="st0" d="M219.17,83.13c1.65-0.03,3.09,0.02,4.33,0.15l2.02-3.85c-0.81-0.23-1.67-0.63-2.58-1.21 c-0.91-0.57-2.18-1.52-3.79-2.84c-1.58-1.29-2.75-2.19-3.54-2.71c-0.78-0.51-1.54-0.85-2.29-1.02c-0.55-0.12-1.12-0.18-1.71-0.17 c-0.59,0.01-1.11,0.09-1.57,0.22l-2.35,3.42l0.13,0.21c0.75-0.05,1.44-0.06,2.07-0.04s1.3,0.12,2,0.28 c0.75,0.16,1.53,0.48,2.32,0.95c0.79,0.47,1.75,1.2,2.89,2.2c0.69,0.56,1.17,0.94,1.46,1.15c-0.19,0.01-0.66,0.01-1.4,0.03 c-0.75,0.01-1.53,0.04-2.36,0.09c-2.19,0.08-3.92,0.07-5.17-0.04c-1.26-0.1-2.6-0.32-4.04-0.64l-0.15,0.32l-2.17-0.29 c-0.11-0.03-0.23-0.05-0.36-0.07L200.48,79c-0.1-0.03-0.22-0.05-0.34-0.06l-2.38-0.21l-0.07-0.01c-0.08-0.02-0.17-0.03-0.27-0.04 l-1.99-0.14c-0.2-0.1-0.45-0.15-0.76-0.16c-0.88-0.03-1.57-0.14-2.05-0.34c-0.49-0.2-0.84-0.52-1.06-0.97 c-0.23-0.45-0.33-1.07-0.31-1.86l0.43-16.46c-0.52-0.02-1.05-0.04-1.58-0.05l-2.82,0.68l-0.41,16.03 c-0.06,2.47,0.46,4.29,1.58,5.47c1.08,1.13,2.72,1.75,4.95,1.84l-0.02,0.06l2.79,0.2h0.08h0.03l2.42,0.23l0.11,0.01l2.67,0.3h0.05 l2.61,0.35c0.55,0.07,1.02,0.01,1.39-0.19c0.75,0.1,1.53,0.15,2.34,0.16c1.48,0.02,3.48-0.1,6-0.36 C215.76,83.28,217.52,83.17,219.17,83.13z"/><path class="st0" d="M262.75,80c-0.83-0.5-1.66-0.99-2.49-1.47l-1.49-0.38l-7.72,13.73c-0.53,0.93-1.03,1.65-1.49,2.14 c-0.67-0.04-1.56-0.36-2.66-0.98l-0.03,0.04l-2.09-1.04l-0.01-0.01c-0.08-0.05-0.18-0.11-0.29-0.16l-2.19-1.04 c-0.09-0.06-0.19-0.11-0.3-0.16l-2.21-0.99l-0.01-0.01c-0.09-0.06-0.19-0.11-0.3-0.16l-1.65-0.7c-0.15-0.24-0.42-0.42-0.82-0.56 c-0.79-0.28-1.38-0.56-1.76-0.85c-0.38-0.28-0.65-0.68-0.82-1.2c-0.16-0.51-0.24-1.26-0.25-2.22l0.01-4.53l-0.39-0.14l-4.13,2.32 c0.19,1.63,0.38,3.67,0.58,6.11c-0.63,0.6-1.47,1.08-2.52,1.45s-2.3,0.6-3.75,0.69c-1.46,0.09-3.06-0.01-4.81-0.31l-0.35,0.25 l1.13,3.82c1.73,0.29,3.37,0.37,4.93,0.24c1.55-0.13,2.96-0.47,4.22-1.03c1.27-0.55,2.3-1.3,3.1-2.22 c0.59,0.54,1.33,0.99,2.21,1.33l-0.09,0.13l2.47,1.04l0.12,0.05l2.33,1.04l0.11,0.05l2.3,1.09l0.12,0.06l2.39,1.19 c0.23,0.12,0.46,0.2,0.67,0.25c1.27,0.64,2.42,1.04,3.45,1.21c1.26,0.2,2.45-0.02,3.56-0.67c1.12-0.64,2.16-1.83,3.13-3.56 L262.75,80z"/><path class="st0" d="M268.43,83.58l-1.21-0.41l-12.8,19.35l0.12,0.34l3.88,1.55l12.69-19.01 C270.23,84.78,269.33,84.18,268.43,83.58z"/><path class="st0" d="M287.04,124.39c0.11-0.41,0.1-0.94-0.04-1.6c-0.14-0.66-0.45-1.5-0.92-2.53c-0.47-0.97-0.8-1.71-1.01-2.21 c-0.2-0.5-0.32-0.91-0.35-1.25c-0.03-0.34,0.06-0.62,0.27-0.84c0.32-0.31,0.76-0.51,1.35-0.59c0.58-0.08,1.2-0.03,1.84,0.17 c0.65,0.19,1.22,0.53,1.7,1c0.35,0.35,0.68,0.78,0.99,1.29c0.3,0.51,0.54,1,0.71,1.46l0.2,0.05l3.52-2.43 c-0.17-0.5-0.44-1.04-0.81-1.63c-0.37-0.59-0.8-1.13-1.3-1.62c-1.1-1.08-2.4-1.68-3.91-1.81c-1.52-0.12-2.98,0.09-4.4,0.64 c-1.43,0.55-2.55,1.25-3.39,2.09c-0.62,0.64-0.99,1.27-1.1,1.91c-0.12,0.64-0.08,1.27,0.11,1.88s0.53,1.4,1,2.35 c0.42,0.9,0.67,1.56,0.76,1.97c0.09,0.42,0.03,0.72-0.16,0.92c-0.04,0.04-0.13,0.1-0.3,0.2c-0.57-0.03-1.27-0.21-2.1-0.54 c-0.83-0.32-1.73-0.8-2.7-1.44c-0.96-0.64-1.9-1.41-2.81-2.3c-1.34-1.31-2.24-2.47-2.71-3.49c-0.47-1.02-0.59-1.93-0.38-2.73 c0.21-0.8,0.7-1.6,1.47-2.38c0.28-0.28,0.61-0.58,1-0.89c0.38-0.31,0.84-0.64,1.36-1.01l-0.08-0.37l-3.58-1.81 c-1.3,0.76-2.37,1.57-3.22,2.44c-1.01,1.03-1.64,2.2-1.89,3.51c-0.26,1.3-0.03,2.74,0.67,4.31s1.92,3.21,3.67,4.93 c1.78,1.75,3.69,3.09,5.73,4.03c2.04,0.94,3.96,1.36,5.75,1.28c1.8-0.08,3.25-0.69,4.37-1.82 C286.69,125.18,286.92,124.8,287.04,124.39z"/><polygon class="st0" points="267.24,125.76 266.44,121.63 262.56,122.43 263.34,126.73 266.18,126.14 266.91,130.24 270.86,129.41 270.03,125.16"/><path class="st0" d="M300.47,132.27c0.83-1.96,1.48-4.24,1.96-6.86l-0.2-0.28l-4.73,0.13c-0.22,1.76-0.58,3.5-1.1,5.23 c-0.52,1.74-1.1,3-1.74,3.78c-0.42-0.18-0.98-0.63-1.66-1.36c-0.68-0.73-1.3-1.47-1.84-2.21c-0.4-0.54-0.83-1.16-1.28-1.86 c-0.46-0.69-0.76-1.22-0.9-1.57l-0.26-0.11l-3.78,2.01c0.2,0.43,0.55,1.05,1.05,1.86c0.49,0.81,0.97,1.52,1.42,2.14 c1.03,1.39,2.11,2.48,3.25,3.26c1.14,0.78,2.29,1.19,3.45,1.22c1.15,0.04,2.24-0.33,3.28-1.09 C298.61,135.66,299.64,134.23,300.47,132.27z"/><polygon class="st0" points="320.63,152.2 319.58,156.67 323.69,157.5 324.69,153.08"/><path class="st0" d="M313.48,156.27c-0.95,1.07-1.78,1.94-2.48,2.62c-0.71,0.68-1.36,1.13-1.94,1.37c-0.17,0.07-0.3,0.11-0.37,0.11 c-0.17-0.18-0.41-0.56-0.69-1.14c-0.29-0.58-0.57-1.21-0.84-1.89l-0.14-0.32l-0.04,0.01l-0.99-2.13c-0.03-0.1-0.07-0.21-0.13-0.32 l-1.04-2.12v-0.01c-0.04-0.12-0.1-0.25-0.17-0.38l-1.13-2.19l-0.02-0.06c-0.02-0.07-0.06-0.14-0.1-0.21l-0.94-1.74 c-0.02-0.22-0.11-0.46-0.27-0.73c-0.46-0.76-0.73-1.4-0.83-1.92c-0.09-0.51-0.01-0.98,0.25-1.41c0.26-0.43,0.73-0.85,1.41-1.26 l13.19-7.95c-0.72-1.27-1.46-2.53-2.23-3.77l-13.49,8.14c-2.12,1.27-3.37,2.69-3.76,4.26c-0.38,1.52-0.01,3.24,1.11,5.16 l-0.07,0.02l1.28,2.34l0.07,0.14l1.16,2.25l0.05,0.1l1.13,2.3l0.06,0.12l1.12,2.42c0.1,0.2,0.2,0.38,0.32,0.54 c0.58,1.37,1.13,2.4,1.65,3.09c0.57,0.76,1.22,1.31,1.96,1.64c0.82,0.32,1.65,0.48,2.5,0.48c0.85-0.01,1.7-0.18,2.55-0.53 c0.78-0.31,1.73-0.89,2.86-1.74c1.13-0.84,2.15-1.76,3.05-2.75l-0.13-0.33L313.48,156.27z"/></g><path class="st0" d="M188.03,306.81c16.82,0,30.5-13.68,30.5-30.5c0-16.82-13.68-30.5-30.5-30.5s-30.5,13.68-30.5,30.5	C157.53,293.13,171.21,306.81,188.03,306.81z M216.56,276.31c0,6.16-1.97,11.86-5.3,16.53h-7.21c-1.66,0-3.23-0.79-4.22-2.13	l-2.83-3.82c-1.01-1.36-1.3-3.13-0.77-4.75l1.93-5.93c0.5-1.53,1.66-2.74,3.17-3.3l4.41-1.63c1.65-0.61,3.49-0.36,4.91,0.68	l5.91,4.3C216.56,276.27,216.56,276.29,216.56,276.31z M189.02,257.65c0-1.68,0.8-3.26,2.16-4.25l5.77-4.19	c5.67,1.87,10.56,5.47,14.03,10.18l-2.11,6.5c-0.5,1.53-1.66,2.74-3.17,3.3l-4.7,1.74c-1.65,0.61-3.49,0.36-4.91-0.68l-4.91-3.57	c-1.36-0.99-2.16-2.57-2.16-4.25V257.65z M191.16,285.88c1.66,0,3.23,0.79,4.22,2.13l2.8,3.79c1.01,1.36,1.3,3.13,0.77,4.75	l-2.25,6.94c-2.74,0.88-5.65,1.35-8.68,1.35c-3,0-5.89-0.47-8.6-1.33l-2.25-6.92c-0.52-1.6-0.24-3.35,0.75-4.71l2.79-3.83	c0.99-1.36,2.57-2.16,4.25-2.16H191.16z M179.11,249.21l5.77,4.19c1.36,0.99,2.16,2.57,2.16,4.25v4.78c0,1.68-0.81,3.26-2.16,4.25	l-4.98,3.62c-1.41,1.02-3.24,1.28-4.88,0.69l-4.45-1.61c-1.52-0.55-2.71-1.78-3.21-3.32l-2.21-6.8	C168.63,254.62,173.48,251.07,179.11,249.21z M159.5,276.46l6-4.36c1.41-1.02,3.24-1.28,4.88-0.69l4.35,1.58	c1.52,0.55,2.71,1.78,3.21,3.32l1.92,5.9c0.52,1.6,0.24,3.35-0.75,4.71l-2.7,3.71c-0.99,1.36-2.57,2.16-4.25,2.16h-7.4	C161.48,288.16,159.53,282.53,159.5,276.46z"/><path class="st0" d="M185.36,372.98c-21.49,0-41.98-4.22-60.72-11.85v61.18c18.74-7.63,39.24-11.85,60.72-11.85	c21.49,0,41.98,4.22,60.72,11.85v-61.18C227.35,368.76,206.85,372.98,185.36,372.98z"/><path class="st0" d="M344.18,209.25c0,87.72-71.1,158.82-158.82,158.82c-87.71,0-158.82-71.1-158.82-158.82	c0-66.1,40.39-122.77,97.84-146.68V35.48h35.38l8.23,8.02l-2.41,14.07C131.25,62,100.5,77.81,77.21,101.1	c-27.69,27.69-44.8,65.91-44.8,108.15c0,42.25,17.11,80.47,44.8,108.15c27.69,27.69,65.9,44.8,108.15,44.8s80.47-17.11,108.16-44.8	c27.68-27.68,44.79-65.9,44.79-108.15c0-42.24-17.11-80.46-44.79-108.15c-23.3-23.29-54.05-39.1-88.38-43.53l-2.41-14.07l8.23-8.02	h35.38v27.09C303.79,86.48,344.18,143.15,344.18,209.25z"/><polygon class="st1" points="185.36,11.24 177.54,27.09 160.04,29.64 172.7,41.98 169.71,59.41 185.36,51.17 201.01,59.41 198.02,41.98 210.69,29.64 193.18,27.09"/><path class="st0" d="M264.29,130.32c-20.2-20.2-48.11-32.7-78.93-32.7c-61.65,0-111.63,49.98-111.63,111.63	c0,30.83,12.49,58.73,32.7,78.93c20.2,20.2,48.11,32.7,78.93,32.7s58.73-12.5,78.93-32.7c20.21-20.2,32.7-48.1,32.7-78.93	C296.99,178.42,284.5,150.52,264.29,130.32z M262.22,286.11c-9.84,9.83-21.55,17.79-34.55,23.29c-13.01,5.5-27.3,8.54-42.31,8.54	c-15.01,0-29.3-3.04-42.31-8.54c-13-5.5-24.71-13.46-34.55-23.29c-9.84-9.84-17.79-21.55-23.29-34.55c-5.5-13-8.54-27.3-8.54-42.31	c0-30.02,12.16-57.18,31.83-76.86c9.84-9.83,21.55-17.79,34.55-23.29c13.01-5.5,27.3-8.54,42.31-8.54c15.01,0,29.3,3.04,42.31,8.54	c13,5.5,24.71,13.46,34.55,23.29c9.84,9.84,17.79,21.55,23.29,34.55s8.54,27.3,8.54,42.31s-3.04,29.31-8.54,42.31	C280.01,264.56,272.06,276.27,262.22,286.11z"/><polygon class="st1" points="146.54,377.61 142.14,386.51 132.32,387.94 139.43,394.87 137.75,404.65 146.54,400.03 155.32,404.65 153.64,394.87 160.76,387.94 150.93,386.51"/><polygon class="st1" points="185.36,377.61 180.97,386.51 171.14,387.94 178.25,394.87 176.57,404.65 185.36,400.03 194.15,404.65 192.47,394.87 199.58,387.94 189.75,386.51"/><polygon class="st1" points="224.19,377.61 219.8,386.51 209.97,387.94 217.08,394.87 215.4,404.65 224.19,400.03 232.98,404.65 231.3,394.87 238.41,387.94 228.58,386.51"/><g><path class="st0" d="M182.53,167.62c0,0-7.47,2.87-14.12,0.12c-6.68-2.75-16.81-10.61-22.44-14.01c-5.4-3.26-16.42-12.4-20.74-0.72 c-0.2,0.83-2.52,6.21-0.8,5.23c13.41-8.28,29.76,6.85,38.92,11.91C165.27,171.21,177.12,177.9,182.53,167.62z"/><path class="st0" d="M131.28,158.95c-2.53,0.16-5.02,0.81-7.37,2.12c-2.18,22.11-9.44,100.37-9.95,101.89 c1.62-0.62,6.19-3.49,7.09-12.79c0.89-9.3,8.32-86.56,8.32-86.56S129.35,159.69,131.28,158.95z"/><path class="st0" d="M156.1,168.08c0.23,0.64,0.32,1.58,0.18,3.06c-0.34,3.48-2.39,67.52-2.58,68.46c0.64-0.22,6.75-1.61,6.1-12.72 c0.6-11.13,2.31-54.97,2.31-54.97C161.38,171.75,159.2,170.13,156.1,168.08z"/><path class="st0" d="M133.95,158.96c0.51,0.28,0.74,1.05,0.55,3.1c-0.39,3.99-6.27,94.38-6.49,95.36 c0.46-0.35,6.12-5.39,6.88-14.53c0.76-9.13,5.03-80.72,5.03-80.72s-0.01-1.46,0.84-1.88C138.53,159.59,136.24,159.1,133.95,158.96z"/><path class="st0" d="M146.15,165.85c-0.24,3.71-5.51,83.13-5.51,83.13s5.54-2.38,6.33-8.53c0.23-6.14,4.12-73.07,4.12-73.07 s0.08-1.45,1.83-1.31c-2.49-1.52-5.32-3.08-8.33-4.36C145.59,162.53,146.28,163.75,146.15,165.85z"/><path class="st0" d="M205.75,169.73c9.08-5.24,25.16-20.69,38.72-12.68c1.73,0.95-0.68-4.39-0.89-5.21 c-4.51-11.59-15.38-2.24-20.72,1.13c-5.56,3.51-15.57,11.57-22.2,14.46c-6.61,2.88-14.12,0.16-14.12,0.16 C192.11,177.75,203.85,170.82,205.75,169.73z"/><path class="st0" d="M267.3,238.02c-1.06-8.08-8.91-70.84-11.19-85.85c-2.28-15.01-10.02-20.24-11.15-21.24 c4.93-0.72,8.3-3.11,9.56-4.14c-10.14,3.3-14.96-0.02-17.5,0.01c-2.54,0.02-9.41,6.16-23.84,19.27c-2.87,3.12-5.39,4.81-7.59,5.49 c-0.24,0.04-0.48,0.07-0.72,0.09c-0.43,0.31-6.68-1.22-11.2-18.09c-1.12-3.84-1.71-8.21-0.99-11.05c0.84-1.42,7.2-4.5,10.58-3.4 c0,0-1.92-3.08-6.32-3.27c-1.87,0.46-4.91-1.96-6.25-2.3c-1.35-0.35-10.31-2.65-14.02,2.52c-1,1.39-1.92,5.62-1.8,8.24 c0,0-0.38,14.64-0.96,16.88c-0.35,1.37-0.73,4.77-2.13,7.44c-3.17,4.22-8.35,6.31-16.25-1.97c-14.65-12.83-21.61-18.82-24.15-18.79 c-2.54,0.02-7.31,3.44-17.5,0.34c1.28,1,4.69,3.32,9.63,3.95c-1.12,1.02-8.77,6.41-10.79,21.46c-2.03,15.06-8.85,77.96-9.77,86.05 c-0.92,8.1-3.55,24.32-6.15,29.3c0,0,6.02,0.86,8.26-11.18c2.25-12.04,9.36-68.57,10-75.49c0.63-6.92,1.25-15.81,1.77-19.61 c0.52-3.79,0.73-11.53,3.04-15.67c1.36-2.15,8.39-14.15,16.56-3.82c0.37,0.36,3.8-2.96,10.3,0.1c1.67,0.9,15.2,20.16,25.84,10.46 c0.1,1.41,0.58,3.23,2.44,3.23c1.81,0,3.63-0.76,4.47-4.45c0.36,0.76,0.85,4.96,3.26,5.09c1.09,0,3.51-1.15,3.51-6.11 c0,2.54,0.36,5.98,2.9,5.98c1.69,0,3.38-0.51,3.75-2.8c0.36-2.29,0.24-2.54,0.85-1.27c0.6,1.27,2.9,4.32,5.56,2.54 c0.17-0.11,0.31-0.23,0.44-0.36c9.98,3.48,20.7-12.24,22.18-13.07c6.46-3.19,9.93,0.06,10.3-0.31c8.01-10.49,15.23,1.37,16.62,3.5 c2.38,4.09,2.73,11.82,3.31,15.6c0.58,3.78,1.35,12.66,2.09,19.57c0.75,6.91,8.8,63.28,11.25,75.28 c2.44,11.99,8.45,11.01,8.45,11.01C271.25,262.26,268.35,246.09,267.3,238.02z"/><path class="st0" d="M237.63,157.89c1.93,0.71,1.98,4.62,1.98,4.62s8.71,77.1,9.76,86.38c1.05,9.28,5.66,12.06,7.3,12.65 c-0.54-1.51-9.1-79.62-11.64-101.68C242.66,158.6,240.17,158,237.63,157.89z"/><path class="st0" d="M212.96,167.51c-3.06,2.11-5.22,3.77-5.94,3.95c0,0,2.43,43.79,3.22,54.91c-0.47,11.12,5.67,12.39,6.31,12.6 c-0.2-0.94-3.32-64.93-3.71-68.4C212.67,169.1,212.75,168.16,212.96,167.51z"/><path class="st0" d="M234.96,157.95c-2.28,0.19-4.56,0.72-6.79,1.47c0.86,0.41,0.87,1.87,0.87,1.87s5.46,71.49,6.37,80.61 c0.91,9.12,6.65,14.05,7.12,14.39c-0.24-0.98-7.62-91.23-8.07-95.21C234.23,159.02,234.45,158.24,234.96,157.95z"/><path class="st0" d="M224.36,160.91c-2.99,1.34-5.8,2.96-8.26,4.52c1.74-0.18,1.85,1.28,1.85,1.28s5,66.84,5.33,72.98 c0.89,6.13,6.47,8.4,6.47,8.4s-6.58-79.31-6.88-83.01C222.7,162.99,223.38,161.75,224.36,160.91z"/><path class="st0" d="M201.35,230.78c0.76,0.22,1.11,0.99,1.59,0.36c0.1-0.14,0.4-1.27,0.79-3.18c0.31,0.09,0.56,0.25,0.65,0.35 c0.39-3.41,0.65-6.66,0.82-9.75c1.28-10.85,1.92-27.1-2.05-42.21c0,0-1.92-0.14-1.46,2.08c0.46,2.22,1.43,20.19,1.58,26.42 c0.11,4.7-0.05,11.43-0.51,15.45c-0.31,1.12-1.21,0.65-2.36,0.24c-1.13-0.39-1.89,0.75-2.26,1.93c-0.18,0.17-0.34,0.41-0.45,0.76 l0.17,0.37c-0.28,1.05-0.69,1.84-1.68,1.84c-0.64-0.01-1.07-0.19-1.37-0.49l0.02-0.01c-0.03-0.02-0.06-0.04-0.09-0.06 c-0.77-0.87-0.55-2.63-0.72-4.3c-0.1-0.9-0.28-1.2-0.54-1.2c-0.04-0.56-0.06-0.93-0.06-0.93s-1.26,0.59-1.35,1.48 c-0.63,0.3-4.51-3.21-6.11-3.11c-1.61,0.11-5.23,2.64-6.41,3.81c-0.2-0.07-0.4-0.19-0.6-0.32c-0.43-0.43-1.06-0.66-1.06-0.66 s0,0.03,0,0.08c-0.27,0.01-0.44,0.31-0.47,1.25c-0.07,2.35,0.64,4.78-1.79,5.06c-1.17,0.11-1.61-0.95-2-2.26 c-0.39-1.29-1.31-2.78-2.57-2.2c-1.27,0.59-2.2,1.24-2.5-0.54l-2.17-14.81c0-0.35,0-0.7,0-1.03c0.05-6.23,0.72-24.22,1.14-26.44 c0.43-2.22-1.48-2.05-1.48-2.05c-4.21,17.19-2.49,35.74-0.75,46.24c0.85,5.09,1.7,8.29,1.87,8.53c0.55,0.69,0.89-0.36,1.85-0.46 l1.04-1.19c0.11,0.15,0.21,0.33,0.3,0.55c0.35,0.85,0.96,2.93,1.54,5.16c0.76,2.85,1.47,5.94,1.55,6.96 c0.16,1.84-0.36,4.2-1.22,5.03c-0.53,0.5-2.01,1.61-3.04,3.3l0,0c-0.64,1.06-1.02,2.36-1.04,3.88c0,0.27,0.16,0.98,0.01,0.57 l0.22,0.77c-0.17-1.05-0.13-0.9,0,0c0.06,0.43,0.09,0.75,0.1,0.99c0.03-0.07,0.06-0.14,0.11-0.21c0.53-0.87,3.18-3.57,3.89-4.75 c0.71-1.18,3.18-3.59,3.18-3.59c-0.43,1.48-0.2,4.14-0.02,5.33c0.19,1.19-0.04-0.41,0.22,1.12c0.15,0.9,0.54,1.36,0.96,2.93 l0.06,0.26c0.03,0.43,0.31,0.85,0.42,0.42c0.52-2,2.42-4.3,1.66-9.03c0.43-1.18,2.3-2.77,3.71-3.22c0.3-0.04,0.64-0.06,1.01-0.08 c0.03,0.01,0.06,0.01,0.09,0.02l0.01-0.03c0.49-0.03,1.05-0.04,1.67-0.03c0.17,0.13,0.55,0.22,1.29,0.19 c2.18-0.07,3.69,0.03,4.77,0.21c1.29,0.54,2.69,1.65,3.11,2.57c-0.41,4.79,1.64,6.9,2.31,8.83c0.14,0.41,0.39-0.03,0.39-0.46 l0.04-0.26c0.3-1.6,0.66-2.1,0.74-3.01c0.14-1.55,0.03,0.07,0.13-1.13c0.1-1.2,0.13-3.88-0.41-5.31c0,0,2.63,2.16,3.43,3.26 c0.79,1.1,3.62,3.53,4.22,4.34c0.05,0.07,0.09,0.13,0.12,0.2c-0.01-0.24-0.01-0.56,0.02-0.99c0.06-0.91,0.09-1.07,0,0l0.17-0.79 c-0.12,0.43-0.01-0.3-0.04-0.57c-0.13-1.52-0.61-2.77-1.33-3.76c-1.15-1.59-2.7-2.54-3.27-2.98c-0.92-0.73-1.61-3.04-1.58-4.89 c0.01-1.02,0.49-4.17,1.04-7.09C200.84,233.15,201.11,231.81,201.35,230.78z M196.31,240.91c-1.11,0.81-3.76,2.33-7.19,3.06 c0,0-0.01,0-0.01,0l-0.05,0.02c-0.09,0.02-0.17,0.04-0.26,0.06l-0.01,0l0,0.01c0,0,0,0-0.01,0l0.01,0l0.01,0.03l-2.08,0.76 l-2.39-0.92l0.02-0.06l0.01,0c0,0-0.01,0-0.01,0l0-0.01l-0.01,0.01c-3.63-0.33-6.5-1.66-7.7-2.37c-1.3-0.76-1.93-4.06-2.2-7.09 c-0.22-2.59-0.17-4.98-0.01-5.44c0.93,0.43,1.48-0.05,1.97-0.69c0.42-1.11,0.93-1.57,1.42-1.68l1.28,0.45 c0.21,0.19,0.38,0.41,0.5,0.6c0.5,0.82,0.83,0.89,1.56,0.12c-0.03-1.13,0.09-2.1,0.32-2.94c0.53-1.66,1.62-3.39,3.88-3.97 c1.68-0.23,5.2,1.41,5.44,6.84c0.79,0.69,1.11,0.59,1.55-0.27c0.43-0.89,1.95-2.41,3.23,0.3c0.54,0.59,1.12,1.01,2.01,0.49 c0.19,0.44,0.42,2.82,0.39,5.42C197.94,236.67,197.55,240.02,196.31,240.91z"/></g></svg>