<svg version="1.1" id="Calque_1" xmlns="http://www.w3.org/2000/svg" x="0px" y="0px" viewBox="0 0 595.28 595.28" style="enable-background:new 0 0 595.28 595.28" xml:space="preserve"><style>.st0{fill:#F07F00}.st1{fill:#020203}.st2{fill:#00833E}.st3{fill:none;stroke:#129538;stroke-miterlimit:10}.st4{fill:#FFFFFF}</style><circle class="st0" cx="297.64" cy="297.64" r="264.78"/><path class="st1" d="M297.64,36.86c144.02,0,260.78,116.75,260.78,260.78S441.66,558.42,297.64,558.42S36.86,441.66,36.86,297.64 S153.61,36.86,297.64,36.86 M297.64,28.85c-36.28,0-71.48,7.11-104.63,21.13c-32.01,13.54-60.75,32.92-85.44,57.6 S63.51,161,49.97,193.01c-14.02,33.14-21.13,68.35-21.13,104.63s7.11,71.48,21.13,104.63c13.54,32.01,32.92,60.75,57.6,85.44 c24.68,24.68,53.43,44.06,85.44,57.6c33.14,14.02,68.35,21.13,104.63,21.13s71.48-7.11,104.63-21.13 c32.01-13.54,60.75-32.92,85.44-57.6c24.68-24.68,44.06-53.43,57.6-85.44c14.02-33.14,21.13-68.35,21.13-104.63 s-7.11-71.48-21.13-104.63c-13.54-32.01-32.92-60.75-57.6-85.44c-24.68-24.68-53.43-44.06-85.44-57.6 C369.12,35.95,333.92,28.85,297.64,28.85L297.64,28.85z"/><path class="st1" d="M118.48,188.9l-3.98,7.59l-16.54-3l-1.26,2.41l14.2,7.46l-3.82,7.28l-36.49-19.17l5.46-10.4 c1.99-3.79,4.3-5.95,6.93-6.47c2.63-0.52,5.8,0.2,9.53,2.16c2.26,1.18,4.01,2.47,5.27,3.85c1.26,1.38,1.97,3.16,2.13,5.34 L118.48,188.9z M88.67,184.03c-0.89-0.47-1.64-0.81-2.25-1.02c-0.61-0.21-1.29-0.22-2.05-0.03c-0.75,0.19-1.36,0.72-1.8,1.57 l-1.62,3.07l9.18,4.82l1.62-3.08c0.34-0.65,0.49-1.25,0.46-1.82c-0.03-0.56-0.26-1.06-0.68-1.5c-0.42-0.44-0.84-0.8-1.26-1.09 C89.85,184.68,89.32,184.37,88.67,184.03z"/><path class="st1" d="M131.31,170.44l-10.8,15.62l-33.9-23.45l10.8-15.62l6.09,4.22l-6.13,8.86l7.67,5.3l5.27-7.62l6.09,4.22 l-5.27,7.62l7.95,5.5l6.13-8.86L131.31,170.44z"/><path class="st1" d="M149.56,149.48l-4.67,5.23l-20.85-6.9l15.03,13.42l-5.48,6.13l-30.75-27.45l4.78-5.36l20.74,7.02l-15.03-13.42 l5.48-6.13L149.56,149.48z"/><path class="st1" d="M173.33,128.81l-6.53,5.55l-5.18-4.03l-7.23,6.15l3.15,5.76l-6.53,5.55l-18.65-38.26l6.17-5.25L173.33,128.81z M155.63,125.7l-12.33-9.58l7.48,13.7L155.63,125.7z"/><path class="st1" d="M182.44,123.02l-6.77,4.67l-23.4-33.93l6.77-4.67L182.44,123.02z"/><path class="st1" d="M200.34,98.95c2.12,3.81,2.83,6.9,2.13,9.29c-0.86,2.82-2.97,5.17-6.34,7.05c-3.44,1.92-6.52,2.49-9.25,1.71 c-2.47-0.7-4.74-2.92-6.83-6.66l7.18-4c0.9,1.62,1.77,2.57,2.59,2.86c0.83,0.29,1.73,0.16,2.7-0.38c1.04-0.58,1.63-1.31,1.77-2.18 c0.15-0.84-0.18-1.98-0.98-3.43c-0.94-1.69-1.77-2.72-2.48-3.09c-0.72-0.37-1.88-0.46-3.5-0.27l-5.59,0.67 c-2.32,0.28-4.22-0.01-5.71-0.86c-1.49-0.85-2.99-2.62-4.49-5.32c-1.94-3.47-2.34-6.74-1.22-9.79c0.94-2.51,2.73-4.5,5.36-5.97 c3.1-1.73,5.88-2.29,8.35-1.67c2.81,0.69,5.29,2.95,7.43,6.79l-7.18,4c-0.9-1.62-1.71-2.58-2.41-2.9 c-0.78-0.36-1.64-0.28-2.58,0.25c-0.91,0.51-1.42,1.21-1.54,2.12c-0.1,0.77,0.17,1.74,0.83,2.92c0.64,1.15,1.24,1.87,1.81,2.17 c0.57,0.3,1.49,0.38,2.78,0.24l5.51-0.69c2.82-0.33,5.02-0.03,6.61,0.92C196.87,93.67,198.55,95.75,200.34,98.95z"/><path class="st1" d="M225.58,88.46c1.64,4.04,1.96,7.2,0.96,9.48c-1.2,2.69-3.59,4.76-7.17,6.21c-3.65,1.48-6.78,1.66-9.39,0.55 c-2.36-1-4.35-3.49-5.95-7.46l7.62-3.08c0.69,1.72,1.43,2.77,2.22,3.16c0.78,0.39,1.69,0.38,2.73-0.04 c1.11-0.45,1.78-1.1,2.02-1.94c0.25-0.81,0.07-1.99-0.55-3.52c-0.72-1.79-1.42-2.91-2.08-3.37c-0.66-0.46-1.81-0.69-3.44-0.7 l-5.63-0.03c-2.34-0.01-4.19-0.53-5.56-1.56c-1.37-1.03-2.64-2.97-3.8-5.83c-1.49-3.68-1.49-6.97,0-9.87 c1.24-2.38,3.26-4.13,6.05-5.26c3.29-1.33,6.12-1.54,8.49-0.62c2.71,1.03,4.88,3.58,6.53,7.66l-7.62,3.08 c-0.7-1.72-1.37-2.78-2.03-3.17c-0.73-0.46-1.59-0.48-2.59-0.08c-0.97,0.39-1.56,1.03-1.79,1.91c-0.2,0.75-0.04,1.75,0.46,3 c0.49,1.22,1,2.01,1.53,2.38c0.52,0.37,1.44,0.57,2.73,0.58l5.56,0c2.84,0.02,4.99,0.6,6.45,1.73 C222.79,82.79,224.2,85.06,225.58,88.46z"/><path class="st1" d="M259,91.54l-8.29,2.16l-2.91-5.88l-9.19,2.39l0.33,6.55l-8.29,2.16l-0.13-42.56l7.84-2.04L259,91.54z M244.42,81.04l-6.93-13.99l0.77,15.59L244.42,81.04z"/><path class="st1" d="M285.03,88.54l-6.96,0.81l-11.02-19l2.34,20.01l-8.17,0.95l-4.78-40.94l7.13-0.83l10.85,19.02l-2.34-20.01 l8.17-0.95L285.03,88.54z"/><path class="st1" d="M312.77,76.97c-0.26,4.01-1.54,7.08-3.85,9.2c-2.12,1.93-4.78,2.88-7.98,2.82c-3.78-0.06-6.77-1.5-8.96-4.31 c-1.29-1.64-2.09-3.71-2.42-6.21c-0.33-2.5-0.45-6.08-0.38-10.75c0.08-4.67,0.32-8.25,0.72-10.73c0.41-2.48,1.28-4.52,2.62-6.12 c2.28-2.74,5.32-4.08,9.1-4.02c3.2,0.05,5.83,1.08,7.88,3.08c2.24,2.2,3.42,5.29,3.55,9.26l-8.22-0.13 c-0.05-1.47-0.25-2.53-0.58-3.19c-0.49-1.05-1.4-1.59-2.75-1.61c-1.31-0.02-2.25,0.5-2.81,1.58c-0.76,1.42-1.19,5.42-1.29,12.02 c-0.11,6.6,0.19,10.62,0.9,12.06c0.52,1.09,1.44,1.64,2.75,1.67c1.35,0.02,2.29-0.5,2.81-1.58c0.36-0.65,0.59-1.71,0.69-3.17 L312.77,76.97z"/><path class="st1" d="M335.25,91.63l-18.83-2.48l5.38-40.87l18.83,2.48l-0.97,7.35l-10.68-1.4l-1.22,9.24l9.18,1.21l-0.97,7.35 l-9.18-1.21l-1.26,9.59l10.68,1.4L335.25,91.63z"/><path class="st1" d="M372.66,89.5c-1.26,4.18-2.99,6.84-5.19,7.99c-2.62,1.35-5.78,1.46-9.48,0.34c-3.77-1.14-6.32-2.96-7.67-5.46 c-1.21-2.26-1.2-5.44,0.04-9.54l7.87,2.38c-0.53,1.77-0.62,3.06-0.26,3.85c0.36,0.8,1.08,1.35,2.15,1.68 c1.14,0.35,2.08,0.26,2.79-0.24c0.71-0.47,1.3-1.5,1.78-3.09c0.56-1.85,0.72-3.16,0.49-3.93c-0.23-0.77-0.98-1.68-2.24-2.7 l-4.37-3.56c-1.81-1.47-2.93-3.04-3.36-4.7c-0.43-1.66-0.19-3.97,0.7-6.92c1.15-3.81,3.21-6.37,6.19-7.69 c2.46-1.07,5.13-1.17,8.01-0.3c3.4,1.03,5.74,2.64,7.01,4.84c1.46,2.5,1.56,5.85,0.29,10.07l-7.87-2.38 c0.53-1.77,0.67-3.02,0.41-3.75c-0.28-0.81-0.94-1.37-1.97-1.68c-1-0.3-1.86-0.18-2.59,0.37c-0.62,0.46-1.13,1.33-1.52,2.63 c-0.38,1.26-0.48,2.19-0.31,2.81c0.18,0.62,0.76,1.34,1.77,2.17l4.33,3.48c2.2,1.79,3.51,3.59,3.94,5.39 C374.03,83.33,373.72,85.99,372.66,89.5z"/><path class="st1" d="M407.22,75.99c0.68,2.74,0.14,6.08-1.63,10.02c-1.76,3.95-3.89,6.58-6.38,7.9c-2.49,1.32-5.68,1.11-9.55-0.62 l-3.12-1.39l-6.1,13.64l-7.5-3.36l16.82-37.63l10.62,4.75C404.27,71.02,406.54,73.25,407.22,75.99z M397.17,84.5 c0.26-0.45,0.57-1.07,0.92-1.84c0.35-0.77,0.6-1.41,0.76-1.91c0.16-0.5,0.27-1.08,0.34-1.75c0.07-0.67-0.07-1.26-0.41-1.77 c-0.34-0.51-0.88-0.93-1.62-1.26l-2.91-1.3l-4.68,10.46l2.91,1.3c0.74,0.33,1.41,0.45,2.02,0.37c0.61-0.09,1.14-0.38,1.59-0.87 C396.55,85.42,396.91,84.95,397.17,84.5z"/><path class="st1" d="M432.87,98.42c-0.99,2.31-2.7,5.46-5.14,9.45c-2.44,3.98-4.46,6.94-6.07,8.87c-1.61,1.93-3.4,3.25-5.37,3.94 c-3.36,1.2-6.65,0.82-9.88-1.16c-3.23-1.97-5.07-4.73-5.53-8.27c-0.27-2.07,0.08-4.26,1.07-6.57c0.99-2.32,2.7-5.46,5.14-9.45 c2.44-3.98,4.46-6.94,6.08-8.87c1.61-1.93,3.4-3.25,5.37-3.94c3.36-1.2,6.65-0.82,9.88,1.16c3.23,1.97,5.07,4.73,5.53,8.27 C434.21,93.92,433.86,96.11,432.87,98.42z M420.72,103.58c3.45-5.63,5.23-9.24,5.35-10.85c0.1-1.2-0.41-2.15-1.52-2.83 c-1.12-0.69-2.19-0.71-3.22-0.07c-1.37,0.84-3.78,4.07-7.22,9.7c-3.45,5.63-5.23,9.25-5.35,10.85c-0.1,1.2,0.4,2.15,1.52,2.83 c1.12,0.68,2.19,0.71,3.22,0.07C414.87,112.44,417.27,109.21,420.72,103.58z"/><path class="st1" d="M439.21,143.16l-6.66-5.39l6.16-15.64l-2.12-1.71l-10.08,12.47l-6.39-5.17l25.91-32.06l9.14,7.39 c3.33,2.69,5,5.38,4.99,8.05c0,2.68-1.33,5.65-3.97,8.92c-1.6,1.98-3.2,3.46-4.8,4.42c-1.6,0.97-3.48,1.32-5.65,1.05L439.21,143.16 z M449.8,114.87c0.63-0.78,1.11-1.45,1.43-2c0.32-0.56,0.47-1.22,0.43-2c-0.04-0.78-0.44-1.47-1.19-2.08l-2.7-2.18l-6.51,8.06 l2.7,2.18c0.57,0.46,1.13,0.73,1.69,0.81c0.56,0.08,1.09-0.05,1.61-0.38c0.51-0.33,0.95-0.67,1.31-1.02 C448.93,115.9,449.34,115.44,449.8,114.87z"/><path class="st1" d="M479.01,135.63l-4.86-4.97l-24.16,23.65l-5.75-5.88l24.17-23.65l-4.86-4.97l5.3-5.18l15.47,15.81 L479.01,135.63z"/><path class="st1" d="M462.14,168.43l-5.21-6.36l31.89-26.11l5.21,6.36L462.14,168.43z"/><path class="st1" d="M513.28,169.69l-39.4,15.25l-4.77-7.12l29.12-30.59l5.03,7.5l-21.71,19.91l26.71-12.45L513.28,169.69z"/><path class="st1" d="M488.6,211.66l-8.64-16.91l36.71-18.76l8.64,16.91l-6.6,3.37l-4.9-9.59l-8.3,4.24l4.22,8.25l-6.6,3.37 l-4.21-8.25l-8.61,4.4l4.9,9.59L488.6,211.66z"/><path class="st2" d="M465.93,207.45c-25.99-38.16-50.76-50.02-69.08-53.51c-18.8-3.59-37.24,0.4-67.82-9.33	c-13.75-4.38-24.46-9.79-31.39-13.7c-6.93,3.91-17.64,9.32-31.39,13.7c-30.58,9.73-49.02,5.74-67.82,9.33	c-18.32,3.49-43.09,15.34-69.08,53.51c0,0,9.33,2.5,9.96,18.05c0.39,9.87,0.23,19-0.27,27.61c2.79,6.8,3.66,14.27,2.48,21.58	c26.51,0.53,48.07,21.5,49.55,47.77c23.32,0.09,42.25,19.08,42.25,42.42c0,10.82-4.06,20.68-10.75,28.19	c8.19,12.63,9.77,28.84,3.37,43.36c2.3,0.12,4.73,0.32,7.33,0.64c25.53,3.15,49.89,16.76,64.36,27.29	c14.48-10.54,38.83-24.14,64.36-27.29c2.6-0.32,5.03-0.52,7.33-0.64c-6.41-14.52-4.82-30.73,3.36-43.36	c-6.69-7.5-10.75-17.37-10.75-28.19c0-23.34,18.94-42.33,42.25-42.42c1.48-26.27,23.05-47.23,49.55-47.77	c-1.18-7.3-0.31-14.78,2.48-21.58c-0.49-8.61-0.65-17.75-0.27-27.61C456.6,209.95,465.93,207.45,465.93,207.45z"/><path class="st0" d="M379.61,276.59c-1.12-0.31-2.2-0.69-3.24-1.16C377.49,275.75,378.56,276.14,379.61,276.59z"/><path class="st0" d="M379.61,276.59c-1.12-0.31-2.2-0.69-3.24-1.16C377.49,275.75,378.56,276.14,379.61,276.59z"/><path class="st0" d="M379.61,276.59c-1.12-0.31-2.2-0.69-3.24-1.16C377.49,275.75,378.56,276.14,379.61,276.59z"/><path class="st0" d="M379.61,276.59c-1.12-0.31-2.2-0.69-3.24-1.16C377.49,275.75,378.56,276.14,379.61,276.59z"/><path class="st0" d="M379.61,276.59c-1.12-0.31-2.2-0.69-3.24-1.16C377.49,275.75,378.56,276.14,379.61,276.59z"/><path class="st2" d="M490.54,398.86c-0.09,0.19-0.2,0.36-0.31,0.53c-3.79,6.52-9.89,10.84-16.67,12.53	c1.28-0.76,2.38-1.86,3.18-3.23c2.3-3.95,1.36-8.91-1.99-11.78c-0.84-0.39-1.67-0.81-2.47-1.28c-0.33-0.19-0.65-0.39-0.97-0.59	c-7.02-4.49-11.3-11.78-12.19-19.55c4.54-0.39,8.91-1.39,13.03-2.9h0.01c1.42,1.7,2.78,3.43,4.14,5.18c2.32,3,4.59,6.06,6.98,9.2	c-0.76-3.89-2.28-7.56-4.11-11.03c-0.92-1.72-1.94-3.41-3.04-5.02c3.07-1.44,5.97-3.19,8.67-5.19	C494.09,373.9,496.72,387.67,490.54,398.86z"/><path class="st2" d="M452.51,425.92c-0.16,0.19-0.31,0.37-0.48,0.56c-6.09,6.86-14.42,10.58-22.91,10.96	c1.72-0.61,3.28-1.66,4.58-3.11c3.69-4.15,3.77-10.3,0.44-14.53c-0.89-0.67-1.79-1.36-2.64-2.12c-0.35-0.31-0.68-0.61-1.01-0.93	c-4.05-3.9-6.88-8.6-8.45-13.63c7.57-3.47,13.97-9.15,18.33-16.34c0.95,1.16,1.87,2.32,2.78,3.51c2.31,3,4.58,6.06,6.98,9.19	c-0.76-3.89-2.3-7.54-4.13-11.03c-1.04-1.95-2.22-3.85-3.51-5.66c0.88-1.87,1.63-3.82,2.23-5.85c1.59,0.97,3.11,2.1,4.55,3.38	C462.59,392.14,463.98,412.4,452.51,425.92z"/><path class="st2" d="M396.28,455.17c-0.28,0.16-0.53,0.31-0.81,0.44c-9.97,5.25-21.14,5.89-31.06,2.66c2.24,0.04,4.5-0.48,6.6-1.59	c6.04-3.18,8.8-10.19,6.82-16.49c-0.75-1.15-1.47-2.34-2.11-3.58c-0.27-0.51-0.52-1.01-0.76-1.51c-6-12.65-4.79-26.99,2.08-38.2	c4.75,4.06,10.43,7.09,16.67,8.73c0.69,3.66,1.3,7.36,1.83,11.12c0.75,5.15,1.39,10.38,2.14,15.76c1.76-5.72,2.43-11.44,2.6-17.05	c0.08-2.94-0.01-5.84-0.28-8.69c1.44,0.15,2.9,0.23,4.38,0.23c3.42,0,6.74-0.4,9.93-1.19C421.34,424.25,413.88,445.42,396.28,455.17	z"/><path class="st1" d="M483.41,283.96c-2.87-1.99-5.96-3.7-9.21-5.06c-1.36-0.57-2.75-1.08-4.17-1.54c-3.34-1.07-6.81-1.79-10.4-2.12	c-1.6-0.16-3.22-0.24-4.85-0.24c-26.89,0-48.94,21.22-50.26,47.81c-0.11-0.01-0.21-0.01-0.32-0.01c-0.01,0-0.01,0-0.03,0	c-23.1,0.11-41.89,18.99-41.89,42.09c0,12.79,5.73,24.26,14.76,32.01c4.75,4.06,10.43,7.09,16.67,8.73	c2.04,0.53,4.14,0.91,6.29,1.14c1.44,0.15,2.9,0.23,4.38,0.23c3.42,0,6.74-0.4,9.93-1.19c2.68-0.63,5.26-1.54,7.72-2.68	c7.57-3.47,13.97-9.15,18.33-16.34c0.77-1.28,1.48-2.62,2.12-3.99c0.88-1.87,1.63-3.82,2.23-5.85c0.17-0.6,0.35-1.2,0.49-1.82	c0.03-0.12,0.05-0.23,0.07-0.35c3.08,0.6,6.26,0.91,9.51,0.91c1.46,0,2.91-0.07,4.34-0.19c4.54-0.39,8.91-1.39,13.03-2.9h0.01	c1.35-0.51,2.67-1.05,3.97-1.67c3.07-1.44,5.97-3.19,8.67-5.19c12.33-9.19,20.31-23.88,20.31-40.38	C505.11,308.21,496.51,293.06,483.41,283.96z M439.85,374.47c-0.32,1.22-0.71,2.39-1.16,3.55v0.01c-0.56,1.5-1.23,2.94-1.98,4.33	c-3.59,6.62-9.15,12.02-15.89,15.41c-2.76,1.38-5.72,2.42-8.81,3.07c-2.47,0.52-5.02,0.8-7.64,0.8c-1.74,0-3.43-0.12-5.1-0.36	c-2.34-0.32-4.59-0.85-6.76-1.6c-4.59-1.56-8.79-4.02-12.37-7.17c-7.68-6.72-12.53-16.61-12.53-27.63	c0-20.24,16.36-36.66,36.58-36.75c1.18,21.58,15.92,39.61,35.83,45.68C439.97,374.05,439.92,374.26,439.85,374.47z M480.21,362.46	c-2.32,1.6-4.81,2.99-7.41,4.13c-1.42,0.61-2.86,1.16-4.34,1.64c-3,0.96-6.16,1.6-9.41,1.91c-1.4,0.13-2.82,0.2-4.26,0.2	c-24.85,0-44.99-20.15-44.99-44.99c0-24.85,20.14-45,44.99-45c2.2,0,4.38,0.16,6.49,0.47c1.91,0.27,3.78,0.67,5.6,1.18	c1.35,0.37,2.68,0.81,3.98,1.31c2.22,0.85,4.37,1.87,6.4,3.04c13.47,7.79,22.53,22.34,22.53,39.01	C499.77,340.76,492.02,354.35,480.21,362.46z"/><path class="st2" d="M487.74,281.39c-1.4,0.97-2.84,1.83-4.33,2.58c-2.87-1.99-5.96-3.7-9.21-5.06c0.28-0.41,0.56-0.84,0.84-1.27	c2.16-3.32,3.83-6.98,5.05-10.78c0.27-0.96,0.52-1.92,0.76-2.9c0.24-0.96,0.33-1.96,0.48-2.95l0.17-1.47c0.04-0.49,0.03-1,0.03-1.5	c0-0.99-0.01-1.98-0.09-2.95c-0.84,1.83-1.32,3.65-2.18,5.38l-0.55,1.3c-0.19,0.44-0.35,0.88-0.57,1.3	c-0.43,0.84-0.83,1.68-1.23,2.54c-1.71,3.32-3.5,6.57-5.53,9.71c-0.44,0.68-0.88,1.38-1.35,2.06c-3.34-1.07-6.81-1.79-10.4-2.12	c-2.58-12.61,2.07-26.08,12.86-34.32c0.39-0.28,0.77-0.57,1.18-0.85c0.99-0.68,2-1.31,3.02-1.9c3.99-4.03,4.66-10.47,1.3-15.28	c-1.16-1.68-2.68-2.96-4.41-3.82c8.85,1.44,17.12,6.33,22.67,14.27c0.15,0.21,0.29,0.43,0.44,0.64	C507.05,249.55,503.13,270.61,487.74,281.39z"/><path class="st2" d="M499.23,331.23c0.56-1.03,0.87-2.19,0.87-3.43c0-3.55-2.56-6.53-5.96-7.14c-0.71,0.07-1.43,0.11-2.16,0.11	c-0.29,0-0.59-0.01-0.88-0.01c-10.74-0.45-19.36-8.97-19.99-19.67c1.64,0.28,3.27,0.61,4.9,1.03c2.38,0.6,4.74,1.28,7.12,2.03	c2.39,0.73,4.77,1.54,7.24,2.32c-1.88-1.82-4.09-3.22-6.38-4.39c-2.31-1.18-4.75-2.1-7.29-2.74c-1.12-0.28-2.27-0.49-3.43-0.64	c3.27-2.12,7.17-3.35,11.36-3.35c11.39,0,20.66,9.11,20.91,20.44c0.01,0.16,0.01,0.32,0.01,0.48	C505.55,322.14,503.13,327.44,499.23,331.23z"/><path class="st2" d="M467.11,311.29c1.76,9.22-4.18,18.12-13.3,20.06c-0.13,0.04-0.26,0.06-0.39,0.09	c-4.75,0.91-9.41-0.23-13.08-2.79c0.91,0.29,1.9,0.36,2.91,0.16c2.87-0.55,4.88-3.08,4.85-5.92c-0.16-0.57-0.3-1.14-0.41-1.73	c-0.05-0.24-0.09-0.47-0.12-0.71c-1.21-8.2,3.57-15.99,11.19-18.71c-0.11,1.68-0.28,3.36-0.52,5.02c-0.35,2.43-0.77,4.85-1.27,7.3	c-0.48,2.44-1.04,4.89-1.56,7.43c1.6-2.06,2.76-4.39,3.7-6.81c0.92-2.42,1.58-4.95,1.95-7.54c0.29-1.9,0.37-3.85,0.26-5.77	c1.05,0.87,1.99,1.88,2.8,3c0.22,0.31,0.45,0.65,0.66,0.99C465.89,307.13,466.69,309.13,467.11,311.29z"/><polygon class="st2" points="454.68,285.8 455.81,290.74 460.58,292.48 456.22,295.09 456.04,300.15 452.22,296.82 447.34,298.21 449.33,293.54 446.5,289.33 451.55,289.79"/><polygon class="st2" points="394.55,331.75 396.73,336.33 401.76,336.99 398.08,340.48 399,345.47 394.55,343.05 390.09,345.47 391.02,340.48 387.34,336.99 392.37,336.33"/><path class="st0" d="M413.04,256.02c-0.69,3.75-2.19,7.21-4.3,10.22c0,0.01,0,0.01,0,0.01c-4.79,6.88-12.78,11.39-21.81,11.39 c-2.52,0-4.97-0.36-7.28-1.01c-0.01,0-0.03-0.01-0.04-0.03c-1.05-0.45-2.12-0.84-3.24-1.16c-2.6-0.77-5.35-1.18-8.2-1.18 c-1.31,0-2.59,0.08-3.85,0.25c-1.01,0.13-2.02,0.32-2.99,0.56c-1.24,0.29-2.47,0.68-3.66,1.14c-1.35-3.18-2.1-6.68-2.1-10.35 c0-3.87,0.84-7.54,2.34-10.87c0.29-0.68,0.63-1.35,0.99-2c0.12-0.23,0.25-0.45,0.4-0.68c0.32-0.57,0.68-1.12,1.07-1.66 c4.02-5.76,10.26-9.85,17.49-11.03c2.46,0.88,4.86,1.8,7.2,2.76c0.07,0.03,0.15,0.05,0.21,0.07c4.46,1.84,8.77,3.85,12.85,5.97 c4.19,2.19,8.21,4.57,11.96,7.08c0.49,0.33,1.08,0.52,1.68,0.52H413.04z"/><path class="st0" d="M379.61,276.59c-1.12-0.31-2.2-0.69-3.24-1.16C377.49,275.75,378.56,276.14,379.61,276.59z"/><path class="st0" d="M375.34,304.69l-0.12,0.27c-0.01,0.01-0.01,0.01-0.01,0.01l-1.36,2.67L361,332.93 c-0.44-0.36-1.23-1.03-2.26-1.99c-0.63-0.6-1.35-1.32-2.14-2.15c-1.47-1.55-3.14-3.5-4.81-5.82c-0.57-0.79-1.14-1.62-1.7-2.5 c-3.97-6.14-7.54-14.41-8.07-24.61c-0.77-15.13,5.54-28.26,11.06-35.64c-0.36,1.84-0.55,3.73-0.55,5.64 c0,4.01,0.79,7.88,2.34,11.54c0.49,1.15,1.62,1.84,2.79,1.84c0.36,0,0.73-0.07,1.08-0.2c1.04-0.4,2.15-0.75,3.27-1.01 c1.44,5.53,3.94,11.8,8.12,18.8c0.51,0.85,1.03,1.71,1.59,2.58C372.83,301.11,374.03,302.89,375.34,304.69z"/><path class="st0" d="M354.4,330.87c0.05,0.05,0.09,0.11,0.13,0.15c-4.34,4.55-9.37,8.83-14.94,11.83 c3.74-6.42,7.22-12.15,10.46-17.17C351.39,327.5,352.87,329.23,354.4,330.87z"/><path class="st0" d="M354.54,331.02c-4.34,4.55-9.37,8.83-14.94,11.83c3.74-6.42,7.22-12.15,10.46-17.17 c1.34,1.82,2.82,3.55,4.35,5.19C354.46,330.93,354.5,330.98,354.54,331.02z"/><path class="st0" d="M377.6,306.93l0.23-0.44c0.04-0.08,0.08-0.15,0.12-0.23l0.13-0.27c0.48-1,0.36-2.19-0.29-3.08 c-0.07-0.09-0.13-0.19-0.2-0.29c-0.96-1.32-1.9-2.7-2.79-4.07c-0.17-0.25-0.35-0.52-0.51-0.77c-0.44-0.69-0.87-1.39-1.28-2.08 c0.55-0.12,1.08-0.19,1.62-0.19c0.77,0,1.52,0.13,2.23,0.39c2.71,1.03,3.93,3.12,4.14,4.61 C381.36,302.67,380.23,304.85,377.6,306.93z"/><path class="st0" d="M351.73,394.38c-2.03-4.91-5.29-16.68-5.29-16.68c-2.22,2.51-9.17,4.13-15.46,5.11 c-1.08,0.17-2.15,0.32-3.18,0.45l0.49,0.95c0.29,0.56,0.73,0.99,1.26,1.27c1.01-0.35,2.02-0.69,3-1.05c1.4-0.52,2.8-1.08,4.13-1.67 c0.39-0.16,0.8-0.25,1.22-0.25c0.55,0,1.1,0.16,1.58,0.45c0.4,0.24,0.73,0.57,0.97,0.96c0.28,0.43,0.44,0.91,0.47,1.43 c0.12,1.82,0.27,4.07,0.47,6.52c0.45,5.6,1,10.12,1.66,13.81c6.17-2.56,9.79-6.16,9.83-8.49c0.01-0.4-0.08-0.76-0.29-1.07 C352.35,395.76,352.05,395.16,351.73,394.38z"/><path class="st0" d="M355.5,382.08c2.34-2.92,0-12.86,0-12.86c-2.92,4.09-18.71,6.44-23.1,6.44c-4.38,0-4.09,2.04-4.09,2.04 l1.19,2.28c0.33-0.05,0.68-0.11,1.01-0.16c11.06-1.74,13.33-3.75,13.66-4.13c0.59-0.67,1.42-1.03,2.27-1.03 c0.23,0,0.45,0.03,0.68,0.08c1.08,0.25,1.94,1.07,2.23,2.14c0.04,0.12,3.2,11.51,5.13,16.24c5.25-2.86,8.32-7.58,8.32-7.58 C356.95,386.66,356.95,382.97,355.5,382.08z"/><path class="st3" d="M181.75,251.04v1.94h0.08C181.78,252.34,181.75,251.7,181.75,251.04z"/><path class="st0" d="M413.52,186.78v64.26c0,0.67-0.01,1.31-0.07,1.95h-1.68c-3.83-2.56-7.92-4.99-12.25-7.25 c-4.21-2.19-8.64-4.25-13.29-6.16c-0.01,0-0.03,0-0.03,0c-2.62-1.08-5.29-2.1-8.04-3.06c-3.51-1.26-7.13-2.4-10.83-3.46 c-19.1-5.5-40.65-8.6-63.46-8.6c-2.1,0-4.18,0.03-6.25,0.08c-2.07-0.05-4.15-0.08-6.25-0.08c-22.81,0-44.36,3.1-63.46,8.6 c-3.7,1.05-7.32,2.2-10.83,3.46c-2.75,0.96-5.42,1.98-8.04,3.06c0,0-0.01,0-0.03,0c-4.65,1.91-9.08,3.97-13.29,6.16 c-4.33,2.26-8.41,4.69-12.25,7.25h-1.68c-0.05-0.64-0.07-1.28-0.07-1.95v-64.26c26.13-18.15,65.54-29.71,109.63-29.71 c2.1,0,4.18,0.03,6.25,0.08c2.07-0.05,4.15-0.08,6.25-0.08C347.98,157.07,387.39,168.63,413.52,186.78z"/><path class="st0" d="M215.66,276.59c1.12-0.31,2.2-0.69,3.24-1.16C217.78,275.75,216.72,276.14,215.66,276.59z"/><path class="st3" d="M181.75,251.04v1.94h0.08C181.78,252.34,181.75,251.7,181.75,251.04z"/><path class="st0" d="M215.66,276.59c1.12-0.31,2.2-0.69,3.24-1.16C217.78,275.75,216.72,276.14,215.66,276.59z"/><path class="st0" d="M215.66,276.59c1.12-0.31,2.2-0.69,3.24-1.16C217.78,275.75,216.72,276.14,215.66,276.59z"/><path class="st0" d="M215.66,276.59c1.12-0.31,2.2-0.69,3.24-1.16C217.78,275.75,216.72,276.14,215.66,276.59z"/><path class="st0" d="M215.66,276.59c1.12-0.31,2.2-0.69,3.24-1.16C217.78,275.75,216.72,276.14,215.66,276.59z"/><path class="st2" d="M122.48,366.58c-2.6-1.14-5.09-2.52-7.41-4.13L122.48,366.58z"/><path class="st2" d="M136.16,375.49c-0.89,7.77-5.17,15.06-12.19,19.55c-0.32,0.2-0.64,0.4-0.97,0.59c-0.8,0.47-1.63,0.89-2.47,1.28	c-3.35,2.87-4.29,7.83-1.99,11.78c0.8,1.38,1.9,2.47,3.18,3.23c-6.77-1.68-12.87-6.01-16.67-12.53c-0.11-0.17-0.21-0.35-0.31-0.53	c-6.18-11.19-3.55-24.96,5.74-33.13c2.7,2,5.6,3.75,8.67,5.19c-1.11,1.62-2.12,3.3-3.04,5.02c-1.83,3.47-3.35,7.14-4.11,11.03	c2.39-3.14,4.66-6.2,6.98-9.2c1.36-1.75,2.72-3.49,4.14-5.18h0.01C127.25,374.1,131.61,375.1,136.16,375.49z"/><path class="st2" d="M156.59,378.03c-0.45-1.16-0.84-2.34-1.16-3.55L156.59,378.03z"/><path class="st2" d="M161.58,434.34c1.3,1.46,2.86,2.5,4.58,3.11c-8.49-0.39-16.83-4.1-22.91-10.96c-0.17-0.19-0.32-0.37-0.48-0.56	c-11.47-13.53-10.08-33.78,3.24-45.62c1.44-1.28,2.96-2.4,4.55-3.38c0.6,2.03,1.35,3.98,2.23,5.85c-1.3,1.82-2.47,3.71-3.51,5.66	c-1.83,3.49-3.37,7.14-4.13,11.03c2.4-3.12,4.67-6.18,6.98-9.19c0.91-1.19,1.83-2.35,2.78-3.51c4.37,7.2,10.76,12.87,18.33,16.34	c-1.58,5.03-4.41,9.73-8.45,13.63c-0.33,0.32-0.67,0.63-1.01,0.93c-0.85,0.76-1.75,1.46-2.64,2.12	C157.81,424.04,157.89,430.18,161.58,434.34z"/><path class="st2" d="M230.87,458.27c-9.92,3.23-21.09,2.59-31.06-2.66c-0.28-0.13-0.53-0.28-0.81-0.44	c-17.6-9.75-25.06-30.91-18.03-49.37c3.19,0.79,6.52,1.19,9.93,1.19c1.48,0,2.94-0.08,4.38-0.23c-0.27,2.86-0.36,5.76-0.28,8.69	c0.17,5.61,0.84,11.34,2.6,17.05c0.75-5.38,1.39-10.6,2.14-15.76c0.53-3.77,1.13-7.46,1.83-11.12c6.24-1.64,11.91-4.67,16.67-8.73	c6.88,11.22,8.08,25.56,2.08,38.2c-0.24,0.49-0.49,1-0.76,1.51c-0.64,1.24-1.36,2.43-2.11,3.58c-1.98,6.3,0.79,13.31,6.82,16.49	C226.37,457.79,228.63,458.31,230.87,458.27z"/><path class="st1" d="M191.1,322.8c-0.01,0-0.01,0-0.03,0c-0.11,0-0.21,0-0.32,0.01c-1.32-26.59-23.37-47.81-50.26-47.81	c-1.63,0-3.24,0.08-4.85,0.24c-3.59,0.33-7.06,1.05-10.4,2.12c-1.42,0.45-2.8,0.96-4.17,1.54c-3.26,1.36-6.34,3.07-9.21,5.06	c-13.1,9.09-21.7,24.25-21.7,41.38c0,16.5,7.99,31.19,20.31,40.38c2.7,2,5.6,3.75,8.67,5.19c1.3,0.61,2.62,1.16,3.97,1.67h0.01	c4.13,1.51,8.49,2.51,13.03,2.9c1.43,0.12,2.88,0.19,4.34,0.19c3.24,0,6.42-0.31,9.51-0.91c0.01,0.12,0.04,0.23,0.07,0.35	c0.15,0.61,0.32,1.22,0.49,1.82c0.6,2.03,1.35,3.98,2.23,5.85c0.64,1.38,1.35,2.71,2.12,3.99c4.37,7.2,10.76,12.87,18.33,16.34	c2.46,1.15,5.03,2.06,7.72,2.68c3.19,0.79,6.52,1.19,9.93,1.19c1.48,0,2.94-0.08,4.38-0.23c2.15-0.23,4.25-0.6,6.29-1.14	c6.24-1.64,11.91-4.67,16.67-8.73c9.03-7.74,14.76-19.22,14.76-32.01C232.99,341.78,214.21,322.9,191.1,322.8z M140.49,370.33	c-1.44,0-2.86-0.07-4.26-0.2c-3.26-0.31-6.41-0.95-9.41-1.91c-1.48-0.48-2.92-1.03-4.34-1.64c-2.6-1.14-5.09-2.52-7.41-4.13	c-11.82-8.11-19.56-21.7-19.56-37.11c0-16.67,9.05-31.22,22.53-39.01c2.03-1.18,4.18-2.19,6.4-3.04c1.3-0.49,2.63-0.93,3.98-1.31	c1.82-0.51,3.69-0.91,5.6-1.18c2.11-0.31,4.29-0.47,6.49-0.47c24.85,0,44.99,20.15,44.99,45	C185.48,350.18,165.35,370.33,140.49,370.33z M215.13,392.51c-3.58,3.15-7.77,5.61-12.37,7.17c-2.16,0.75-4.42,1.28-6.76,1.6	c-1.67,0.24-3.37,0.36-5.1,0.36c-2.62,0-5.17-0.28-7.64-0.8c-3.1-0.65-6.05-1.7-8.81-3.07c-6.74-3.39-12.3-8.79-15.89-15.41	c-0.75-1.39-1.42-2.83-1.98-4.33v-0.01c-0.45-1.16-0.84-2.34-1.16-3.55c-0.07-0.21-0.12-0.43-0.17-0.65	c19.91-6.08,34.65-24.1,35.83-45.68c20.22,0.09,36.58,16.5,36.58,36.75C227.65,375.9,222.81,385.8,215.13,392.51z"/><path class="st2" d="M135.65,275.24c-3.59,0.33-7.06,1.05-10.4,2.12c-0.47-0.68-0.91-1.38-1.35-2.06c-2.03-3.14-3.82-6.38-5.53-9.71	c-0.4-0.85-0.8-1.7-1.23-2.54c-0.23-0.41-0.39-0.85-0.57-1.3l-0.55-1.3c-0.85-1.74-1.34-3.55-2.18-5.38	c-0.08,0.97-0.09,1.96-0.09,2.95c0,0.49-0.01,1,0.03,1.5l0.17,1.47c0.15,0.99,0.24,1.99,0.48,2.95c0.24,0.97,0.49,1.94,0.76,2.9	c1.22,3.79,2.88,7.45,5.05,10.78c0.28,0.43,0.56,0.85,0.84,1.27c-3.26,1.36-6.34,3.07-9.21,5.06c-1.48-0.75-2.92-1.6-4.33-2.58	c-15.4-10.78-19.31-31.83-8.95-47.39c0.15-0.21,0.29-0.43,0.44-0.64c5.56-7.95,13.82-12.83,22.67-14.27	c-1.72,0.85-3.24,2.14-4.41,3.82c-3.37,4.81-2.7,11.24,1.3,15.28c1.01,0.59,2.03,1.22,3.02,1.9c0.4,0.28,0.79,0.57,1.18,0.85	C133.58,249.16,138.22,262.64,135.65,275.24z"/><path class="st2" d="M96.05,331.23c-0.56-1.03-0.87-2.19-0.87-3.43c0-3.55,2.56-6.53,5.96-7.14c0.71,0.07,1.43,0.11,2.16,0.11	c0.29,0,0.59-0.01,0.88-0.01c10.74-0.45,19.36-8.97,19.99-19.67c-1.64,0.28-3.27,0.61-4.9,1.03c-2.38,0.6-4.74,1.28-7.12,2.03	c-2.39,0.73-4.77,1.54-7.24,2.32c1.88-1.82,4.09-3.22,6.38-4.39c2.31-1.18,4.75-2.1,7.29-2.74c1.12-0.28,2.27-0.49,3.43-0.64	c-3.27-2.12-7.17-3.35-11.36-3.35c-11.39,0-20.66,9.11-20.91,20.44c-0.01,0.16-0.01,0.32-0.01,0.48	C89.73,322.14,92.15,327.44,96.05,331.23z"/><path class="st2" d="M128.17,311.29c-1.76,9.22,4.18,18.12,13.3,20.06c0.13,0.04,0.26,0.06,0.39,0.09	c4.75,0.91,9.41-0.23,13.08-2.79c-0.91,0.29-1.9,0.36-2.91,0.16c-2.87-0.55-4.88-3.08-4.85-5.92c0.16-0.57,0.3-1.14,0.41-1.73	c0.05-0.24,0.09-0.47,0.12-0.71c1.21-8.2-3.57-15.99-11.19-18.71c0.11,1.68,0.28,3.36,0.52,5.02c0.35,2.43,0.77,4.85,1.27,7.3	c0.48,2.44,1.04,4.89,1.56,7.43c-1.6-2.06-2.76-4.39-3.7-6.81c-0.92-2.42-1.58-4.95-1.95-7.54c-0.29-1.9-0.37-3.85-0.26-5.77	c-1.05,0.87-1.99,1.88-2.8,3c-0.22,0.31-0.45,0.65-0.66,0.99C129.38,307.13,128.58,309.13,128.17,311.29z"/><polygon class="st2" points="140.59,285.8 139.46,290.74 134.7,292.48 139.05,295.09 139.24,300.15 143.06,296.82 147.94,298.21 145.94,293.54 148.77,289.33 143.72,289.79"/><polygon class="st2" points="200.73,331.75 198.55,336.33 193.52,336.99 197.2,340.48 196.27,345.47 200.73,343.05 205.18,345.47 204.26,340.48 207.94,336.99 202.91,336.33"/><g><path class="st0" d="M182.24,256.02c0.69,3.75,2.19,7.21,4.3,10.22c0,0.01,0,0.01,0,0.01c4.79,6.88,12.78,11.39,21.81,11.39 c2.52,0,4.97-0.36,7.28-1.01c0.01,0,0.03-0.01,0.04-0.03c1.05-0.45,2.12-0.84,3.24-1.16c2.6-0.77,5.35-1.18,8.2-1.18 c1.31,0,2.59,0.08,3.85,0.25c1.01,0.13,2.02,0.32,2.99,0.56c1.24,0.29,2.47,0.68,3.66,1.14c1.35-3.18,2.1-6.68,2.1-10.35 c0-3.87-0.84-7.54-2.34-10.87c-0.29-0.68-0.63-1.35-0.99-2c-0.12-0.23-0.25-0.45-0.4-0.68c-0.32-0.57-0.68-1.12-1.07-1.66 c-4.02-5.76-10.26-9.85-17.49-11.03c-2.46,0.88-4.86,1.8-7.2,2.76c-0.07,0.03-0.15,0.05-0.21,0.07c-4.46,1.84-8.77,3.85-12.85,5.97 c-4.19,2.19-8.21,4.57-11.96,7.08c-0.49,0.33-1.08,0.52-1.68,0.52H182.24z"/></g><g><path class="st0" d="M215.66,276.59c1.12-0.31,2.2-0.69,3.24-1.16C217.78,275.75,216.72,276.14,215.66,276.59z"/></g><g><path class="st0" d="M219.93,304.69l0.12,0.27c0.01,0.01,0.01,0.01,0.01,0.01l1.36,2.67l12.85,25.29c0.44-0.36,1.23-1.03,2.26-1.99 c0.63-0.6,1.35-1.32,2.14-2.15c1.47-1.55,3.14-3.5,4.81-5.82c0.57-0.79,1.14-1.62,1.7-2.5c3.97-6.14,7.54-14.41,8.07-24.61 c0.77-15.13-5.54-28.26-11.06-35.64c0.36,1.84,0.55,3.73,0.55,5.64c0,4.01-0.79,7.88-2.34,11.54c-0.49,1.15-1.62,1.84-2.79,1.84 c-0.36,0-0.73-0.07-1.08-0.2c-1.04-0.4-2.15-0.75-3.27-1.01c-1.44,5.53-3.94,11.8-8.12,18.8c-0.51,0.85-1.03,1.71-1.59,2.58 C222.44,301.11,221.24,302.89,219.93,304.69z"/></g><g><path class="st0" d="M240.87,330.87c-0.05,0.05-0.09,0.11-0.13,0.15c4.34,4.55,9.37,8.83,14.94,11.83 c-3.74-6.42-7.22-12.15-10.46-17.17C243.89,327.5,242.41,329.23,240.87,330.87z"/></g><g><path class="st0" d="M240.74,331.02c4.34,4.55,9.37,8.83,14.94,11.83c-3.74-6.42-7.22-12.15-10.46-17.17 c-1.34,1.82-2.82,3.55-4.35,5.19C240.82,330.93,240.78,330.98,240.74,331.02z"/></g><g><path class="st0" d="M217.68,306.93l-0.23-0.44c-0.04-0.08-0.08-0.15-0.12-0.23L217.2,306c-0.48-1-0.36-2.19,0.29-3.08 c0.07-0.09,0.13-0.19,0.2-0.29c0.96-1.32,1.9-2.7,2.79-4.07c0.17-0.25,0.35-0.52,0.51-0.77c0.44-0.69,0.87-1.39,1.28-2.08 c-0.55-0.12-1.08-0.19-1.62-0.19c-0.77,0-1.52,0.13-2.23,0.39c-2.71,1.03-3.93,3.12-4.14,4.61 C213.91,302.67,215.05,304.85,217.68,306.93z"/></g><g><path class="st0" d="M341.21,411.61c-11.48,5.78-26.77,9.31-43.57,9.31c-16.8,0-32.09-3.53-43.57-9.31 c0.16-0.6,0.32-1.24,0.47-1.91c0.21-0.93,0.41-1.92,0.59-2.95c0.84-4.61,1.4-9.99,1.79-14.62c0.2-2.47,0.36-4.75,0.47-6.58 c1.39,0.6,2.82,1.19,4.3,1.74c4.09,1.52,8.52,2.79,13.21,3.75c0.97,0.2,1.96,0.39,2.96,0.56c6.24,1.09,12.89,1.7,19.79,1.7 c6.9,0,13.55-0.6,19.79-1.7c1-0.17,1.99-0.36,2.96-0.56c4.69-0.96,9.12-2.23,13.21-3.75c1.48-0.55,2.91-1.14,4.3-1.74 c0.11,1.83,0.27,4.11,0.47,6.58c0.39,4.63,0.95,10.02,1.79,14.62c0.17,1.03,0.37,2.02,0.59,2.95 C340.89,410.37,341.05,411.01,341.21,411.61z"/></g><g><path class="st0" d="M243.54,394.38c2.03-4.91,5.29-16.68,5.29-16.68c2.22,2.51,9.17,4.13,15.46,5.11 c1.08,0.17,2.15,0.32,3.18,0.45l-0.49,0.95c-0.29,0.56-0.73,0.99-1.26,1.27c-1.01-0.35-2.02-0.69-3-1.05 c-1.4-0.52-2.8-1.08-4.13-1.67c-0.39-0.16-0.8-0.25-1.22-0.25c-0.55,0-1.1,0.16-1.58,0.45c-0.4,0.24-0.73,0.57-0.97,0.96 c-0.28,0.43-0.44,0.91-0.47,1.43c-0.12,1.82-0.27,4.07-0.47,6.52c-0.45,5.6-1,10.12-1.66,13.81c-6.17-2.56-9.79-6.16-9.83-8.49 c-0.01-0.4,0.08-0.76,0.29-1.07C242.93,395.76,243.22,395.16,243.54,394.38z"/></g><g><path class="st0" d="M239.78,382.08c-2.34-2.92,0-12.86,0-12.86c2.92,4.09,18.71,6.44,23.1,6.44c4.38,0,4.09,2.04,4.09,2.04 l-1.19,2.28c-0.33-0.05-0.68-0.11-1.01-0.16c-11.06-1.74-13.33-3.75-13.66-4.13c-0.59-0.67-1.42-1.03-2.27-1.03 c-0.23,0-0.45,0.03-0.68,0.08c-1.08,0.25-1.94,1.07-2.23,2.14c-0.04,0.12-3.2,11.51-5.13,16.24c-5.25-2.86-8.32-7.58-8.32-7.58 C238.32,386.66,238.32,382.97,239.78,382.08z"/></g><g><path class="st1" d="M277.91,415.31l-4.27-0.99l-0.65-8.57l-1.36-0.32l-1.86,7.99l-4.09-0.95l4.79-20.53l5.85,1.37 c2.13,0.5,3.5,1.36,4.09,2.6c0.59,1.23,0.65,2.9,0.16,4.99c-0.3,1.27-0.7,2.3-1.23,3.1c-0.52,0.8-1.31,1.38-2.37,1.74 L277.91,415.31z M276.48,399.93c0.12-0.5,0.19-0.91,0.21-1.24c0.03-0.33-0.06-0.67-0.25-1.02c-0.19-0.35-0.53-0.58-1.01-0.69 l-1.73-0.4l-1.2,5.16l1.73,0.4c0.36,0.08,0.68,0.08,0.96-0.01c0.27-0.09,0.49-0.26,0.66-0.53c0.16-0.27,0.29-0.52,0.38-0.76 C276.31,400.6,276.4,400.3,276.48,399.93z"/><path class="st1" d="M286.19,416.14l-4.41-0.48l0.48-4.42l4.41,0.48L286.19,416.14z"/><path class="st1" d="M301.93,410.58c-0.01,2.23-0.47,3.79-1.38,4.67c-1.09,1.04-2.62,1.56-4.6,1.55c-2.01-0.01-3.53-0.53-4.55-1.56 c-0.92-0.93-1.38-2.49-1.37-4.68l4.2,0.02c0,0.95,0.14,1.59,0.44,1.93c0.29,0.34,0.73,0.51,1.3,0.51c0.61,0,1.06-0.17,1.33-0.53 c0.28-0.34,0.42-0.93,0.42-1.77c0-0.99-0.11-1.65-0.33-2c-0.23-0.35-0.72-0.68-1.49-1l-2.66-1.11c-1.1-0.46-1.88-1.06-2.33-1.82 c-0.45-0.75-0.67-1.92-0.67-3.5c0.01-2.03,0.65-3.59,1.91-4.67c1.05-0.88,2.34-1.32,3.88-1.32c1.82,0.01,3.19,0.46,4.14,1.35 c1.08,1.01,1.62,2.64,1.61,4.89l-4.2-0.02c0-0.95-0.11-1.58-0.35-1.9c-0.26-0.36-0.66-0.54-1.21-0.54c-0.53,0-0.94,0.18-1.22,0.56 c-0.24,0.32-0.36,0.82-0.36,1.51c0,0.67,0.08,1.14,0.26,1.42c0.18,0.28,0.57,0.55,1.18,0.8l2.63,1.08 c1.34,0.56,2.24,1.25,2.72,2.07C301.71,407.36,301.94,408.71,301.93,410.58z"/><path class="st1" d="M310.2,415.79l-4.42,0.44l-0.44-4.42l4.42-0.44L310.2,415.79z"/><path class="st1" d="M325.2,406.65c0.27,1.19,0.37,2.16,0.33,2.9c-0.05,0.74-0.27,1.44-0.67,2.09c-0.67,1.1-1.99,1.87-3.98,2.31 l-5.95,1.32l-4.57-20.58l5.95-1.32c1.95-0.43,3.48-0.31,4.6,0.37c0.61,0.37,1.08,0.85,1.42,1.43c0.34,0.58,0.64,1.43,0.88,2.55 c0.35,1.56,0.23,2.8-0.36,3.72c-0.22,0.35-0.49,0.65-0.8,0.91c0.45,0.12,0.82,0.29,1.11,0.51 C324.1,403.46,324.77,404.72,325.2,406.65z M319.18,398.92c-0.17-0.79-0.44-1.32-0.81-1.59c-0.36-0.27-0.94-0.32-1.73-0.15 l-1.36,0.3l0.98,4.39l1.36-0.3c0.77-0.17,1.27-0.46,1.49-0.88C319.32,400.28,319.35,399.69,319.18,398.92z M321.03,409.39 c0.21-0.47,0.21-1.19-0.01-2.15c-0.21-0.96-0.52-1.61-0.92-1.95c-0.4-0.34-0.99-0.42-1.78-0.24l-1.3,0.29l1.18,5.32l1.3-0.29 C320.31,410.19,320.82,409.87,321.03,409.39z"/></g><g><path class="st1" d="M297.64,290.2c-19.82,0-35.93,16.12-35.93,35.93s16.12,35.93,35.93,35.93c19.82,0,35.93-16.12,35.93-35.93 S317.45,290.2,297.64,290.2z M298.8,304.15c0-1.98,0.95-3.83,2.55-4.99l6.8-4.95c6.68,2.22,12.45,6.45,16.53,11.99l-2.48,7.65 c-0.59,1.8-1.96,3.24-3.74,3.9l-5.54,2.06c-1.94,0.71-4.11,0.41-5.78-0.8l-5.78-4.21c-1.6-1.16-2.55-3.02-2.55-5.01V304.15z M287.13,294.21l6.8,4.95c1.6,1.16,2.55,3.02,2.55,4.99v5.64c0,1.99-0.95,3.85-2.55,5.01l-5.88,4.27c-1.66,1.2-3.81,1.51-5.74,0.8 l-5.25-1.9c-1.79-0.64-3.18-2.08-3.77-3.9l-2.6-8.01C274.78,300.59,280.51,296.4,287.13,294.21z M278.94,345.55h-8.72 c-3.87-5.45-6.16-12.07-6.2-19.24l7.06-5.13c1.67-1.22,3.82-1.51,5.76-0.81l5.11,1.86c1.8,0.65,3.19,2.1,3.78,3.91l2.26,6.94 c0.61,1.9,0.29,3.95-0.88,5.55l-3.18,4.37C282.78,344.6,280.92,345.55,278.94,345.55z M310.51,349.98l-2.64,8.17 c-3.23,1.03-6.66,1.59-10.23,1.59c-3.53,0-6.93-0.55-10.14-1.56l-2.64-8.15c-0.61-1.88-0.29-3.95,0.88-5.56l3.28-4.51 c1.16-1.6,3.03-2.55,5.01-2.55h7.29c1.96,0,3.81,0.93,4.98,2.51l3.3,4.46C310.79,345.99,311.14,348.07,310.51,349.98z M325.01,345.6h-8.49c-1.96,0-3.81-0.92-4.98-2.5l-3.33-4.5c-1.19-1.62-1.54-3.7-0.92-5.6l2.27-6.98c0.59-1.8,1.96-3.23,3.74-3.9 l5.19-1.92c1.95-0.72,4.11-0.41,5.8,0.8l6.96,5.06v0.07C331.25,333.38,328.94,340.11,325.01,345.6z"/><path class="st4" d="M287.12,338.63l-3.18,4.37c-1.16,1.6-3.02,2.55-4.99,2.55h-8.72c-3.87-5.45-6.16-12.07-6.2-19.24l7.06-5.13 c1.67-1.22,3.82-1.51,5.76-0.81l5.11,1.86c1.8,0.65,3.19,2.1,3.78,3.91l2.26,6.94C288.61,334.97,288.29,337.03,287.12,338.63z"/><path class="st4" d="M310.51,349.98l-2.64,8.17c-3.23,1.03-6.66,1.59-10.23,1.59c-3.53,0-6.93-0.55-10.14-1.56l-2.64-8.15 c-0.61-1.88-0.29-3.95,0.88-5.56l3.28-4.51c1.16-1.6,3.03-2.55,5.01-2.55h7.29c1.96,0,3.81,0.93,4.98,2.51l3.3,4.46 C310.79,345.99,311.14,348.07,310.51,349.98z"/><path class="st4" d="M331.25,326.07v0.07c0,7.25-2.31,13.98-6.24,19.47h-8.49c-1.96,0-3.81-0.92-4.98-2.5l-3.33-4.5 c-1.19-1.62-1.54-3.7-0.92-5.6l2.27-6.98c0.59-1.8,1.96-3.23,3.74-3.9l5.19-1.92c1.95-0.72,4.11-0.41,5.8,0.8L331.25,326.07z"/><path class="st4" d="M324.68,306.2l-2.48,7.65c-0.59,1.8-1.96,3.24-3.74,3.9l-5.54,2.06c-1.94,0.71-4.11,0.41-5.78-0.8l-5.78-4.21 c-1.6-1.16-2.55-3.02-2.55-5.01v-5.64c0-1.98,0.95-3.83,2.55-4.99l6.8-4.95C314.82,296.42,320.59,300.66,324.68,306.2z"/><path class="st4" d="M296.48,304.15v5.64c0,1.99-0.95,3.85-2.55,5.01l-5.88,4.27c-1.66,1.2-3.81,1.51-5.74,0.8l-5.25-1.9 c-1.79-0.64-3.18-2.08-3.77-3.9l-2.6-8.01c4.09-5.47,9.81-9.67,16.44-11.86l6.8,4.95C295.53,300.32,296.48,302.18,296.48,304.15z"/></g><g><polygon class="st1" points="197.84,200.62 198.27,198.2 195.66,197.7 195.35,199.4 192.88,198.92 192.42,201.3 195.06,201.83 195.33,200.11"/><polygon class="st1" points="210.04,212 207.55,211.39 207,213.74 209.58,214.41 209.98,212.68 212.44,213.33 212.99,210.93 210.43,210.3"/><path class="st1" d="M215.05,200.85c-0.47-0.72-0.99-1.38-1.56-1.97l-0.2,0.07l-1.5,2.3c0.61,0.62,1.11,1.16,1.5,1.62 c0.39,0.46,0.64,0.87,0.76,1.23c0.04,0.11,0.05,0.18,0.05,0.23c-0.12,0.1-0.36,0.23-0.73,0.38c-0.33,0.14-0.69,0.27-1.07,0.4 c-0.1,0.01-0.2,0.03-0.31,0.07c-1.17,0.44-2.16,0.66-2.97,0.66c0.02-0.47,0.01-0.98-0.03-1.53c-0.04-0.56-0.11-1.2-0.21-1.94 l-0.25-0.06l-2.35,1.57c0.26,1.36,0.38,2.39,0.36,3.06c-0.08,0.12-0.24,0.25-0.49,0.4c-0.25,0.15-0.51,0.27-0.79,0.38l-0.04,0.02 c-0.13,0-0.27,0.03-0.42,0.1c-0.5,0.22-0.9,0.34-1.2,0.37c-0.3,0.03-0.55-0.02-0.74-0.17s-0.36-0.39-0.51-0.74l-2.56-5.88 l-0.2,0.02l-1.89,1.87l0.39,0.9c-0.85,0.76-1.52,1.54-2.02,2.34c-0.5,0.8-0.81,1.56-0.92,2.27c-0.12,0.71-0.06,1.34,0.18,1.89 c0.22,0.5,0.55,0.88,1,1.14s0.98,0.38,1.6,0.36c0.62-0.02,1.28-0.19,1.99-0.49c0.6-0.26,1.16-0.63,1.68-1.11 c0.51,0.31,1.07,0.45,1.69,0.43c0.59-0.02,1.23-0.18,1.91-0.47l0.01,0.03l0.66-0.25c0.63-0.24,1.15-0.52,1.56-0.86 c0.41-0.34,0.75-0.73,1.01-1.18c0.5,0.16,1.1,0.2,1.8,0.12c0.66-0.08,1.34-0.25,2.05-0.51l0,0.02l0.24-0.08 c1-0.33,1.74-0.66,2.23-0.98c0.49-0.32,0.84-0.7,1.07-1.14c0.23-0.48,0.36-0.98,0.39-1.5c0.03-0.52-0.05-1.04-0.22-1.57 C215.84,202.18,215.52,201.57,215.05,200.85z M199.13,209.24c-0.39,0.17-0.79,0.26-1.2,0.27c-0.42,0.01-0.72-0.09-0.93-0.29 c-0.01-0.35,0.18-0.77,0.57-1.26c0.39-0.49,0.9-0.97,1.53-1.45l0.81,1.86l0.16,0.37C199.83,208.91,199.51,209.08,199.13,209.24z"/><polygon class="st1" points="212.93,195.09 210.28,194.31 209.58,196.75 212.27,197.56"/><path class="st1" d="M229.64,197.54c-0.32-0.37-0.84-0.76-1.57-1.17s-1.71-0.82-2.96-1.25l3.81-3.32l0.03-3.34l-0.22-0.08 l-6.18,5.57l0.16,3.05l0.14,0.12c1.51,0.49,2.75,0.95,3.71,1.39s1.5,0.87,1.61,1.3c-0.25,0.21-0.72,0.46-1.42,0.75 c-0.69,0.29-1.44,0.53-2.22,0.74l-1.32,0.35l0,0.01c-0.49,0.14-0.9,0.21-1.21,0.19c-0.32-0.02-0.59-0.14-0.8-0.36 c-0.21-0.22-0.39-0.56-0.53-1.02l-2.92-9.7l-0.24-0.06l-2.16,1.34l2.82,9.37c0.44,1.45,1.09,2.4,1.96,2.87s1.99,0.49,3.35,0.08 c0.09-0.03,0.16-0.06,0.24-0.09l1.69-0.44c2.04-0.53,3.43-1.24,4.18-2.11c0.75-0.87,0.98-1.87,0.69-2.98 C230.17,198.31,229.96,197.91,229.64,197.54z"/><polygon class="st1" points="242.43,203.63 244.97,204.79 245.97,202.44 243.46,201.31"/><path class="st1" d="M249.63,183.83l-0.21-0.1l-2.35,1.03l1.46,9.5c0.1,0.65,0.13,1.18,0.09,1.59c-0.31,0.22-0.81,0.38-1.47,0.5 c-0.05,0-0.09-0.01-0.15,0c-0.91,0.17-1.73,0.18-2.45,0.04c0.12-0.46,0.21-0.96,0.26-1.51s0.1-1.21,0.14-1.97l-0.24-0.11 l-2.59,1.13c0.01,1.46-0.05,2.49-0.17,3.07c-0.23,0.23-0.77,0.42-1.61,0.58l-0.15,0.03c-0.08,0-0.14,0-0.23,0.02 c-0.5,0.11-0.9,0.15-1.19,0.13c-0.29-0.02-0.56-0.14-0.81-0.36c-0.25-0.21-0.53-0.57-0.85-1.07l-1.46-2.35l-0.25,0.05l-1.39,2.54 c0.62,0.78,1.38,1.78,2.27,2.98c-0.14,0.51-0.42,1.03-0.84,1.56c-0.42,0.53-1,1.05-1.72,1.57c-0.73,0.52-1.59,0.98-2.59,1.39 l-0.1,0.24l1.82,1.61c0.99-0.41,1.87-0.89,2.63-1.46c0.76-0.57,1.38-1.2,1.86-1.9c0.47-0.69,0.77-1.41,0.88-2.15 c0.5,0.1,1.05,0.07,1.65-0.04l0,0.01l0.4-0.07c1.41-0.26,2.47-0.8,3.18-1.63c0.46,0.23,1.02,0.39,1.66,0.46 c0.6,0.07,1.17,0.05,1.7-0.04l0,0.01c1.13-0.17,2.03-0.45,2.72-0.83s1.17-0.93,1.46-1.66c0.29-0.73,0.35-1.69,0.16-2.89 L249.63,183.83z"/><polygon class="st1" points="254.92,183 252.51,183.97 254.31,198.02 254.5,198.13 256.91,197.3 255.16,183.1"/><polygon class="st1" points="266.6,183.09 268.8,184.4 270,182.25 267.7,180.93 266.85,182.43 264.67,181.16 263.46,183.27 265.77,184.64"/><polygon class="st1" points="276.67,199.09 274.5,197.72 273.24,199.78 275.48,201.23 276.4,199.72 278.53,201.1 279.81,199 277.57,197.59"/><polygon class="st1" points="295.16,183.72 292.88,182.16 291.47,184.26 293.76,185.87"/><path class="st1" d="M295.69,188.4c-0.5-0.37-1.08-0.56-1.74-0.55c-0.63,0.01-1.3,0.21-2.01,0.6c-0.72,0.4-1.51,0.97-2.39,1.72 c-0.88,0.75-1.97,1.76-3.27,3.04c-0.37-0.01-0.69-0.03-0.96-0.06c-0.27-0.03-0.52-0.07-0.75-0.14c0.27-0.56,0.57-1.39,0.92-2.49 l-0.09-0.08l-2.84,0.45c-0.21,1.07-0.38,1.8-0.54,2.18c-0.14,0.06-0.35,0.11-0.62,0.14c-0.16,0.02-0.31,0.03-0.47,0.04 c-0.08-0.01-0.16-0.03-0.26-0.03c-1.25,0.05-2.26-0.05-3.03-0.3c0.17-0.43,0.32-0.92,0.45-1.46c0.13-0.54,0.27-1.18,0.41-1.91 l-0.22-0.14l-2.73,0.75c-0.19,1.38-0.39,2.38-0.62,3.02c-0.11,0.09-0.31,0.17-0.59,0.23c-0.28,0.06-0.57,0.1-0.87,0.11l-0.1,0 c-0.11-0.03-0.24-0.03-0.38-0.02c-0.54,0.04-0.96,0.03-1.26-0.04c-0.3-0.07-0.51-0.2-0.64-0.4c-0.13-0.2-0.21-0.49-0.24-0.87 l-0.49-6.39l-0.2-0.05l-2.4,1.15l0.08,0.98c-1.05,0.44-1.94,0.95-2.68,1.54c-0.73,0.59-1.27,1.2-1.62,1.84 c-0.34,0.63-0.49,1.25-0.45,1.85c0.04,0.54,0.23,1.01,0.57,1.4c0.34,0.4,0.8,0.69,1.4,0.87c0.59,0.18,1.27,0.25,2.04,0.19 c0.65-0.05,1.3-0.21,1.96-0.49c0.38,0.46,0.86,0.78,1.46,0.96c0.57,0.18,1.24,0.23,2,0.18l0,0.02l0.7-0.03 c0.67-0.03,1.25-0.14,1.75-0.33c0.5-0.19,0.94-0.46,1.32-0.8c0.43,0.31,0.98,0.54,1.67,0.68c0.65,0.13,1.35,0.18,2.11,0.16 l-0.01,0.04c0.63,0,1.17-0.06,1.63-0.17c0.46-0.11,0.86-0.28,1.2-0.51c0.66,0.28,1.32,0.46,1.99,0.53c0.67,0.07,1.62,0.1,2.86,0.09 l2.29-0.02c1.11-0.01,2-0.04,2.67-0.1c0.67-0.06,1.25-0.17,1.75-0.33c0.5-0.17,0.94-0.42,1.34-0.77c0.41-0.35,0.75-0.79,1.03-1.34 s0.41-1.13,0.4-1.74c0-0.6-0.14-1.19-0.41-1.76C296.57,189.25,296.19,188.78,295.69,188.4z M267.18,192.97 c-0.42,0.03-0.83-0.02-1.23-0.14c-0.4-0.13-0.66-0.32-0.78-0.58c0.11-0.34,0.42-0.67,0.95-1c0.53-0.33,1.17-0.62,1.93-0.87 l0.16,2.02l0.03,0.4C267.96,192.88,267.6,192.94,267.18,192.97z M294.97,192.86c-0.29,0.12-0.69,0.2-1.22,0.25 c-0.53,0.05-1.43,0.08-2.69,0.09l-2.11,0.02c1.04-0.91,1.96-1.6,2.77-2.09s1.46-0.74,1.96-0.74c0.27,0,0.52,0.08,0.74,0.25 s0.4,0.38,0.52,0.65s0.19,0.52,0.19,0.78C295.14,192.41,295.09,192.68,294.97,192.86z"/><path class="st1" d="M303.89,195.89l0.44,0.01c1.05,0.03,1.86-0.02,2.43-0.15c0.57-0.13,1.03-0.36,1.4-0.69 c0.4-0.36,0.69-0.78,0.89-1.25c0.2-0.48,0.31-1,0.33-1.57c0.02-0.5-0.08-1.17-0.28-2.02s-0.46-1.65-0.77-2.4l-0.21-0.01l-2.18,1.64 c0.35,0.77,0.62,1.44,0.82,2.01c0.2,0.58,0.3,1.06,0.29,1.44c0,0.11-0.01,0.19-0.03,0.23c-0.14,0.05-0.42,0.09-0.81,0.1 c-0.4,0.02-0.81,0.02-1.26,0l-0.64-0.02l0,0.01c-0.53-0.01-0.94-0.07-1.23-0.18c-0.3-0.12-0.52-0.31-0.66-0.58 c-0.14-0.27-0.21-0.65-0.2-1.13l0.11-10.13l-0.21-0.13l-2.46,0.64l-0.11,9.78c-0.02,1.51,0.32,2.62,1.01,3.32 c0.69,0.71,1.75,1.07,3.17,1.08C303.78,195.91,303.83,195.9,303.89,195.89z"/><polygon class="st1" points="306.96,199 304.89,197.48 303.48,199.45 305.62,201.06 306.64,199.61 308.67,201.15 310.1,199.14 307.97,197.58"/><path class="st1" d="M322.33,182.74l-0.88,9.57c-0.06,0.65-0.16,1.17-0.29,1.56c-0.35,0.14-0.87,0.18-1.54,0.13 c-0.06-0.01-0.11-0.03-0.18-0.04c-0.53-0.03-0.93-0.1-1.21-0.2c-0.28-0.1-0.51-0.29-0.68-0.57c-0.18-0.27-0.35-0.7-0.51-1.26 c-0.02-0.07-0.05-0.18-0.09-0.32c-0.03-0.14-0.09-0.31-0.16-0.51c-0.08-0.3-0.17-0.61-0.25-0.92c-0.09-0.31-0.17-0.61-0.25-0.91 l-0.23-0.01l-2.06,2.06c0.58,1.39,1.04,2.56,1.37,3.49c-0.38,0.63-0.94,1.17-1.67,1.61c-0.73,0.44-1.77,0.82-3.1,1.13l-0.16,0.23 l1.2,2.02c1.23-0.25,2.34-0.69,3.35-1.32s1.69-1.39,2.06-2.28c0.41,0.22,0.94,0.34,1.59,0.39l-0.01,0.02 c1.13,0.1,2.08,0.06,2.83-0.15c0.75-0.2,1.36-0.62,1.82-1.26s0.74-1.56,0.86-2.76l0.92-9.98l-0.18-0.15L322.33,182.74z"/><polygon class="st1" points="327.77,183.28 326.13,197.35 326.29,197.5 328.83,197.28 330.54,183.07 330.34,182.91"/><polygon class="st1" points="341.65,185.83 343.47,187.63 345.16,185.84 343.24,184 342.05,185.25 340.25,183.49 338.56,185.24 340.48,187.12"/><polygon class="st1" points="361.71,191.54 359.87,189.48 357.99,191.19 359.84,193.3"/><polygon class="st1" points="380.94,199.42 379.34,197.17 377.29,198.65 378.88,200.96"/><path class="st1" d="M388.03,197.63l-2.55-0.32l-3.61,8.91c-0.25,0.61-0.49,1.08-0.73,1.41c-0.37,0.03-0.87-0.08-1.48-0.31 c-0.06-0.03-0.1-0.07-0.16-0.09c-0.87-0.31-1.58-0.71-2.13-1.2c0.33-0.33,0.66-0.73,0.99-1.18s0.7-0.99,1.11-1.63l-0.15-0.21 l-2.81-0.33c-0.73,1.27-1.3,2.12-1.7,2.57c-0.31,0.08-0.86-0.02-1.63-0.3c-0.1-0.08-0.21-0.14-0.37-0.19l-2.59-0.81 c0.36-0.16,0.71-0.42,1.03-0.8c0.33-0.38,0.55-0.75,0.67-1.14c0.19-0.61,0.15-1.29-0.11-2.05c-0.27-0.75-0.78-1.64-1.53-2.67 l-0.17-0.03l-1.94,0.42c-0.81,0.54-1.57,1.19-2.29,1.96s-1.31,1.57-1.77,2.39l-0.17-0.05c-0.1-0.18-0.29-0.3-0.57-0.37 c-0.74-0.17-1.4-0.43-1.99-0.78c0.24-0.38,0.4-0.78,0.5-1.18c0.14-0.58,0.14-1.18,0.02-1.81c-0.12-0.62-0.38-1.17-0.78-1.66 c-0.4-0.48-0.92-0.8-1.55-0.95c-0.61-0.14-1.31-0.11-2.1,0.11s-1.7,0.58-2.73,1.1c-1.03,0.52-2.33,1.24-3.9,2.17 c-0.36-0.1-0.66-0.19-0.92-0.28c-0.26-0.09-0.49-0.2-0.69-0.32c0.39-0.48,0.89-1.21,1.49-2.2l-0.06-0.1l-2.86-0.24 c-0.45,0.99-0.8,1.65-1.04,1.99c-0.15,0.02-0.36,0.02-0.63-0.01s-0.53-0.07-0.76-0.12l-0.05,0.1c-0.5-0.09-0.89-0.2-1.15-0.33 c-0.27-0.14-0.45-0.32-0.53-0.54c-0.08-0.22-0.08-0.52-0.02-0.9l1.07-6.32l-0.18-0.1l-2.6,0.53l-0.17,0.97 c-1.13,0.17-2.12,0.45-2.97,0.85c-0.86,0.4-1.53,0.86-2.01,1.39c-0.49,0.53-0.78,1.09-0.88,1.68c-0.09,0.53-0.02,1.03,0.21,1.5 c0.23,0.47,0.61,0.86,1.14,1.18s1.17,0.55,1.93,0.68c0.65,0.11,1.32,0.11,2.02,0c0.26,0.54,0.65,0.96,1.18,1.28 c0.53,0.32,1.19,0.55,1.98,0.68c0.26,0.04,0.49,0.04,0.69-0.02c0.28,0.04,0.54,0.06,0.78,0.06c0.47,0,0.9-0.07,1.29-0.21 c0.57,0.43,1.17,0.76,1.81,0.99c0.63,0.23,1.55,0.49,2.76,0.77l2.22,0.53c0.97,0.23,1.77,0.4,2.4,0.5c0.63,0.1,1.19,0.15,1.68,0.14 c0.49-0.01,0.96-0.09,1.39-0.25c0.34,0.36,0.77,0.68,1.3,0.97c0.46,0.25,0.91,0.43,1.37,0.55l-0.08,0.13l1.26,0.39 c-0.18,0.9-0.16,1.72,0.04,2.45c0.2,0.73,0.57,1.36,1.11,1.87c0.54,0.51,1.22,0.89,2.05,1.15c0.57,0.18,1.13,0.23,1.66,0.16 c0.54-0.07,1.01-0.26,1.41-0.57c0.4-0.31,0.68-0.72,0.84-1.24c0.08-0.26,0.12-0.53,0.12-0.8c0-0.28-0.05-0.55-0.13-0.81l1.05,0.33 l-0.01,0.02l0.38,0.14c1.35,0.49,2.54,0.55,3.56,0.2c0.28,0.44,0.68,0.85,1.2,1.23c0.48,0.36,0.97,0.62,1.46,0.81l-0.01,0.01 c1.06,0.43,1.97,0.65,2.76,0.68c0.78,0.02,1.48-0.2,2.11-0.68c0.62-0.48,1.16-1.28,1.62-2.4l3.76-9.29L388.03,197.63z M340.96,195.25l-0.07,0.4c-0.3,0.01-0.65-0.02-1.07-0.1s-0.8-0.22-1.16-0.43s-0.56-0.47-0.61-0.75c0.18-0.3,0.57-0.55,1.17-0.74 c0.59-0.19,1.29-0.32,2.08-0.37L340.96,195.25z M359.71,199.63c-0.08,0.35-0.2,0.6-0.35,0.75c-0.31,0.04-0.72,0.03-1.25-0.05 s-1.4-0.27-2.63-0.56l-2.05-0.48c1.23-0.63,2.29-1.09,3.19-1.38s1.59-0.37,2.08-0.25c0.26,0.06,0.49,0.2,0.66,0.42 s0.29,0.47,0.35,0.75C359.76,199.11,359.76,199.38,359.71,199.63z M368.22,207.93c-0.12,0.04-0.26,0.05-0.43,0.04 c-0.17-0.01-0.35-0.04-0.55-0.1c-0.61-0.19-1.08-0.52-1.41-1c-0.33-0.48-0.48-1.04-0.43-1.68c0.31,0.01,0.62,0.06,0.93,0.15 c0.48,0.15,0.88,0.37,1.2,0.66c0.32,0.29,0.54,0.61,0.67,0.96C368.32,207.31,368.33,207.63,368.22,207.93z M369.28,201.52 c-0.19,0.61-0.56,1.04-1.12,1.27s-1.19,0.27-1.91,0.11c0.74-1.37,1.68-2.48,2.83-3.33c0.16,0.41,0.26,0.77,0.29,1.07 C369.39,200.96,369.36,201.25,369.28,201.52z"/><polygon class="st1" points="393.21,199.89 390.64,199.47 384.88,212.41 384.99,212.59 387.48,213.14 393.36,200.09"/></g><g><path class="st1" d="M202.69,509.79c-1.39,2.64-2.71,4.6-3.97,5.9c-1.25,1.29-2.77,2.24-4.55,2.82c-2.97,0.99-6.64,0.33-11.02-1.98 l-13.14-6.93l23.96-45.41l13.14,6.93c4.29,2.27,6.95,4.91,7.95,7.95c0.54,1.65,0.68,3.28,0.39,4.9c-0.28,1.62-1.08,3.66-2.38,6.13 c-1.82,3.44-3.99,5.56-6.52,6.34c-0.97,0.3-1.94,0.44-2.91,0.42c0.65,0.94,1.07,1.84,1.26,2.7 C205.68,502.13,204.94,505.54,202.69,509.79z M190.63,508.32c1.13-0.55,2.26-1.88,3.38-4.01c1.12-2.13,1.58-3.81,1.37-5.07 c-0.21-1.25-1.19-2.34-2.93-3.26l-2.87-1.51l-6.19,11.74l2.87,1.51C188.04,508.66,189.5,508.86,190.63,508.32z M203.7,485.94 c0.92-1.74,1.26-3.15,1.01-4.24c-0.25-1.08-1.24-2.08-2.98-3l-3-1.58l-5.11,9.69l3,1.58c1.7,0.9,3.08,1.14,4.15,0.72 C201.82,488.7,202.8,487.64,203.7,485.94z"/><path class="st1" d="M229.3,535.36l-22.37-7.69l16.69-48.55l22.37,7.69l-3,8.73l-12.68-4.36l-3.77,10.98l10.91,3.75l-3,8.73 l-10.91-3.75l-3.91,11.39l12.68,4.36L229.3,535.36z"/><path class="st1" d="M270.18,543.64l-10.51-1.87L257,521l-3.34-0.59l-3.5,19.66l-10.08-1.79l9-50.55l14.41,2.57 c5.25,0.93,8.68,2.86,10.29,5.79c1.6,2.92,1.95,6.96,1.03,12.12c-0.56,3.12-1.42,5.69-2.58,7.71c-1.16,2.02-3.01,3.53-5.53,4.55 L270.18,543.64z M264.72,506.41c0.22-1.23,0.34-2.25,0.36-3.05c0.02-0.8-0.22-1.61-0.74-2.44c-0.51-0.82-1.36-1.34-2.54-1.55 l-4.26-0.76l-2.26,12.71l4.26,0.76c0.9,0.16,1.68,0.12,2.33-0.13c0.65-0.25,1.16-0.71,1.53-1.38c0.36-0.67,0.63-1.3,0.82-1.91 S264.56,507.31,264.72,506.41z"/><path class="st1" d="M313.49,544.88l-10.96-0.18l-7.05-18.86l-3.43,6.87l-0.19,11.83l-10.24-0.17l0.83-51.33l10.24,0.17 l-0.36,22.06l10.09-21.9l10.24,0.17l-10.58,21.18L313.49,544.88z"/><path class="st1" d="M356.16,538.32l-10.53,1.74l-2.94-7.63l-11.67,1.93l-0.33,8.17l-10.53,1.74l4.66-52.8l9.96-1.64L356.16,538.32 z M339.27,523.64l-7.01-18.14l-0.81,19.43L339.27,523.64z"/><path class="st1" d="M393.92,525.62l-8.23,2.9l-18.62-20.04l8.35,23.66l-9.66,3.41l-17.08-48.42l8.43-2.98l18.41,20.11l-8.35-23.66 l9.66-3.41L393.92,525.62z"/><path class="st1" d="M426.39,508.8l-20.79,11.28l-24.49-45.12l20.79-11.28l4.4,8.11l-11.79,6.4l5.54,10.2l10.14-5.5l4.4,8.11 l-10.14,5.5l5.74,10.58l11.79-6.4L426.39,508.8z"/></g></svg>