<svg xmlns="http://www.w3.org/2000/svg" viewBox="0 0 1678.74 1678.74"><defs><style>.cls-1,.cls-8{fill:#241f20}.cls-1,.cls-9{stroke:#241f20}.cls-2,.cls-4,.cls-5{fill:#fff}.cls-2{stroke:#fff}.cls-6{fill:red}.cls-10,.cls-4{stroke:#000}.cls-10,.cls-4,.cls-9{stroke-width:2px}.cls-10,.cls-9{fill:none}</style><radialGradient id="radial-gradient" cx="847.58" cy="1064.5" r="251.23" gradientUnits="userSpaceOnUse"><stop offset="0.57" stop-color="#fefefe"/><stop offset="0.64" stop-color="#f7f7f7"/><stop offset="0.74" stop-color="#e3e3e3"/><stop offset="0.86" stop-color="#c3c3c3"/><stop offset="0.97" stop-color="#9f9f9f"/></radialGradient></defs><g id="Layer_2" data-name="Layer 2"><g id="Layer_1-2" data-name="Layer 1"><circle class="cls-1" cx="839.37" cy="839.37" r="838.87" transform="translate(-347.68 839.37) rotate(-45)"/><circle class="cls-2" cx="843.21" cy="839.6" r="777.81" transform="translate(-346.72 842.15) rotate(-45)"/><circle cx="843.15" cy="839.59" r="746.93" transform="translate(-346.73 842.11) rotate(-45)" style="stroke:red;fill:red"/><path class="cls-1" d="M596.49,631.84V299.25a606.91,606.91,0,0,0-200,143.51V631.84Z"/><path class="cls-1" d="M836.06,631.84V246.7a614,614,0,0,0-200,36v349.1Z"/><path class="cls-1" d="M1077.83,631.84V291.73a612.25,612.25,0,0,0-200-44.33V631.84Z"/><path class="cls-1" d="M1315.21,629.64V465.07a606.11,606.11,0,0,0-200-157.45v322Z"/><path class="cls-1" d="M1354.12,531.86a972.27,972.27,0,0,1,6,108.34c0,388.71-228.78,703.82-511,703.82s-511-315.11-511-703.82A966.68,966.68,0,0,1,346.93,510,587.72,587.72,0,0,0,238,851.33c0,329.39,270.91,596.4,605.09,596.4s605.09-267,605.09-596.4A587.44,587.44,0,0,0,1354.12,531.86Z"/><path class="cls-4" d="M529.67,696.68H504.56q.48-8.25-6.37-13.74-7.23-6.11-20.34-6.34-22.31-.24-23.4,14.7-.61,6.11,1.47,8.73,1.71,2,6.62,3.94,2.56,2.5,32.58,7.77,22.19,3.82,30.63,12.37t8.45,22.4a43.82,43.82,0,0,1-4.53,19.37,33.73,33.73,0,0,1-12,14.1q-13.47,8.24-40.67,8.72a55.61,55.61,0,0,1-14.82-1.79q-10.67-2.52-17-6.93Q428.6,768.26,427,747.23h26a17.81,17.81,0,0,0,5.51,13q7.85,8,24.38,7.41,14.82-.36,20.7-5.86a14.9,14.9,0,0,0,.5-21.39q-5-5-22.42-8.37-24-4.31-28.42-5.85-23.78-8-23.77-30.23c0-1.6,0-3.23.12-4.91q1.73-15.88,13.36-25.21,12.6-9.92,35.4-9.92,31,0,43.86,16.25A33.4,33.4,0,0,1,530,693.69,11.32,11.32,0,0,1,529.67,696.68Z"/><path class="cls-4" d="M618.89,743.27a19.35,19.35,0,0,1-1.44,7.28,20.68,20.68,0,0,1-4,6.35,18.87,18.87,0,0,1-6,4.39,16.68,16.68,0,0,1-7.2,1.62q-18.84,0-18.84-19.64a19.72,19.72,0,0,1,1.33-7.16,19.3,19.3,0,0,1,3.88-6.24,18.94,18.94,0,0,1,6-4.4,17.78,17.78,0,0,1,7.64-1.61,17,17,0,0,1,6.65,1.39,18.33,18.33,0,0,1,6,4,21.44,21.44,0,0,1,4.33,6.24A18.14,18.14,0,0,1,618.89,743.27Z"/><path class="cls-4" d="M863.92,744.52a19.39,19.39,0,0,1-1.44,7.28,20.85,20.85,0,0,1-4,6.35,19.1,19.1,0,0,1-6,4.39,16.69,16.69,0,0,1-7.21,1.62q-18.84,0-18.84-19.64a19.75,19.75,0,0,1,5.21-13.41,19,19,0,0,1,6-4.38,17.7,17.7,0,0,1,7.64-1.62,17.19,17.19,0,0,1,6.65,1.38,18.53,18.53,0,0,1,6,4,21.59,21.59,0,0,1,4.32,6.25A18.08,18.08,0,0,1,863.92,744.52Z"/><path class="cls-4" d="M1112.71,743.27a19.35,19.35,0,0,1-1.44,7.28,20.68,20.68,0,0,1-4,6.35,19.06,19.06,0,0,1-6,4.39,16.76,16.76,0,0,1-7.21,1.62q-18.84,0-18.84-19.64a19.72,19.72,0,0,1,1.33-7.16,19.55,19.55,0,0,1,9.86-10.64,17.85,17.85,0,0,1,7.65-1.61,17.06,17.06,0,0,1,6.65,1.39,18.33,18.33,0,0,1,6,4,21.44,21.44,0,0,1,4.33,6.24A18.29,18.29,0,0,1,1112.71,743.27Z"/><path class="cls-4" d="M752.73,740.64h27.2a44,44,0,0,1-5.43,20,46.09,46.09,0,0,1-13.27,16q-16.08,12.09-40.79,12.7-22.62.74-38.57-11.95-15.43-12-21.18-33.27a91.28,91.28,0,0,1-2.62-22.91q0-14.89,3.27-25.13,13.86-43.6,60.28-43.6,21.69,0,37.26,10.22,20.52,13.55,21,36.22h-27.2a25.27,25.27,0,0,0-7.45-15.4q-9.42-9.74-27.59-8.5a31.08,31.08,0,0,0-16.6,6.59A34.93,34.93,0,0,0,690.17,696q-3.6,8.76-4.38,22.42-.66,16.51,4.45,27.35Q697.29,760.6,710,764.9a33.29,33.29,0,0,0,9.28,1.36,45.3,45.3,0,0,0,12-1.36Q744,761.47,748.94,753,751,749.51,752.73,740.64Z"/><path class="cls-4" d="M997.76,740.64H1025a44,44,0,0,1-5.43,20,46.07,46.07,0,0,1-13.26,16q-16.1,12.09-40.8,12.7-22.62.74-38.57-11.95-15.42-12-21.18-33.27a91.74,91.74,0,0,1-2.62-22.91q0-14.89,3.28-25.13,13.85-43.6,60.27-43.6,21.71,0,37.26,10.22,20.52,13.55,21.05,36.22h-27.2a25.17,25.17,0,0,0-7.45-15.4q-9.4-9.74-27.59-8.5a31.11,31.11,0,0,0-16.6,6.59A34.93,34.93,0,0,0,935.2,696q-3.6,8.76-4.38,22.42-.65,16.51,4.45,27.35Q942.34,760.6,955,764.9a33.35,33.35,0,0,0,9.28,1.36,45.3,45.3,0,0,0,12-1.36Q989,761.47,994,753,996.07,749.51,997.76,740.64Z"/><path class="cls-4" d="M1234.09,786.79H1202.9L1180,680.05V786.79h-26.38V654.92h43.41l23.84,101.26,24-101.26h38.47V786.79H1257V680.05Z"/><path class="cls-2" d="M763.53,1427.48h-11v-50.55H735v-9.63c4-.61,7.28-1.21,9.7-1.81a14.7,14.7,0,0,0,5-2q2.67-2.05,5.48-10.79h8.36Z"/><path class="cls-2" d="M796.5,1407.7v.57a9.47,9.47,0,0,0,2.91,7.15,11,11,0,0,0,7.89,3.14q8.9,0,13.08-9.93a38,38,0,0,0,2.24-6.71,40.47,40.47,0,0,0,1-7.65q-2.28,2-3.7,3.15c-1,.76-1.61,1.26-2,1.5a20.74,20.74,0,0,1-4.76,1.89,22.22,22.22,0,0,1-5.68.68,22.92,22.92,0,0,1-16.56-6.43q-7-6.86-7-18a26.7,26.7,0,0,1,5.33-16.5q7-9.13,19.76-9.14,25.29,0,25.3,36.14,0,41.43-28.43,41.43-5.4,0-11.16-3.93a21.16,21.16,0,0,1-6.39-7.15,26.59,26.59,0,0,1-3.13-10.21Zm26.55-30.06a14.6,14.6,0,0,0-4.48-11.14,13.35,13.35,0,0,0-9.31-3.71,13.14,13.14,0,0,0-9.91,3.85q-3.74,3.85-3.74,11.29,0,14,13.58,14a14.32,14.32,0,0,0,4.87-.86,13.66,13.66,0,0,0,4.23-2.43,12.46,12.46,0,0,0,3.51-4.68A15.5,15.5,0,0,0,823.05,1377.64Z"/><path class="cls-2" d="M873.43,1409.9H842.66v-11l33.45-46.11h8.31v46.16h11v11h-11v17.58h-11Zm0-11v-28.07l-19.83,28.07Z"/><path class="cls-2" d="M913.87,1356.79a23.11,23.11,0,0,1,13.93-4.43,28.74,28.74,0,0,1,16.49,4.71q7.25,4.79,7.25,15.71,0,6.23-3,9.86-1.2,1.42-2.49,2.79a19.49,19.49,0,0,1-2.41,2.21,17.25,17.25,0,0,1,6,5.93l-.07-.14a17,17,0,0,1,3.48,6.1,26.9,26.9,0,0,1,1.21,8.47,17.8,17.8,0,0,1-2.45,9.07,27.87,27.87,0,0,1-7.15,7.85q-6.67,5-17,5-10.67,0-17.41-6.5-7-6.57-7-15.42,0-9.07,3.7-13.58a10.81,10.81,0,0,1,2.55-3.14,41.2,41.2,0,0,1,4.55-3.36,34.47,34.47,0,0,1-4.33-3.67,11.24,11.24,0,0,1-2.35-3.25,20.71,20.71,0,0,1-1.56-8.57,18.88,18.88,0,0,1,2-8.75A19.6,19.6,0,0,1,913.87,1356.79Zm1.32,50.06a12.79,12.79,0,0,0,3.48,8.64q3.69,4,10.52,4a13.69,13.69,0,0,0,9.74-3.92,12,12,0,0,0,4.12-8.86q0-7.86-5.55-11.29a15.86,15.86,0,0,0-8.31-2.14q-6.9,0-10.8,4a13.64,13.64,0,0,0-2.39,4,13.93,13.93,0,0,0-.81,4.89Zm22-41.34A8.23,8.23,0,0,0,934,1364a18.7,18.7,0,0,0-4.62-.5q-5.61,0-8.6,2.43h.07a9.18,9.18,0,0,0-3.27,7.22,14.11,14.11,0,0,0,.78,4.71q2.28,6.14,9.74,6.14t10.73-3.93a10.12,10.12,0,0,0,2.06-6.28,9.8,9.8,0,0,0-3.76-8.21Z"/><polygon class="cls-5" points="295.84 398.3 286.23 399.59 285.22 390.03 294.73 388.88 295.84 398.3"/><polygon class="cls-5" points="304.31 387.63 294.8 388.78 293.68 379.37 303.3 378.06 304.31 387.63"/><path class="cls-2" d="M352.75,417.55a7.57,7.57,0,0,1-3.52,2.36,17.84,17.84,0,0,1-4.77.91,19.74,19.74,0,0,1-4.93-.3,11.08,11.08,0,0,1-4-1.39,16.13,16.13,0,0,1,1.76,4.74,11.14,11.14,0,0,1,0,4.23,13.48,13.48,0,0,1-1.52,4,31,31,0,0,1-2.76,4.05c-.35.45-.83,1-1.46,1.79a17.25,17.25,0,0,1-2,2.06,7.64,7.64,0,0,1-2.27,1.35,2.11,2.11,0,0,1-2.12-.34,17.87,17.87,0,0,1-2.71-2.63,41.56,41.56,0,0,1-2.61-3.42,31.41,31.41,0,0,1-2.16-3.74,18.37,18.37,0,0,1-1.29-3.42,12.69,12.69,0,0,1-.22-2.23c0-.94,0-2,.08-3.15s.16-2.36.31-3.62.3-2.47.49-3.64.37-2.21.57-3.15a10.84,10.84,0,0,1,.63-2.15l-6.46-3.62-4-7.73q5.48,3.51,11.11,6.75t11.48,6a21.15,21.15,0,0,0,3.23,1.24,14.14,14.14,0,0,0,3.59.61,9.08,9.08,0,0,0,3.45-.48,6.11,6.11,0,0,0,2.85-2.09l6.12-7.72a2,2,0,0,1,1.19-.72,4.88,4.88,0,0,1,1.67,0,7.63,7.63,0,0,1,1.9.58,9.39,9.39,0,0,1,3.47,2.7,7.33,7.33,0,0,1,1,1.69,4.81,4.81,0,0,1,.38,1.61,2,2,0,0,1-.43,1.31Z"/><path class="cls-6" d="M323.8,413.67l-.08.1a4.16,4.16,0,0,0-.52,1.44c-.19.76-.38,1.65-.56,2.69s-.36,2.15-.51,3.34-.27,2.3-.35,3.3-.13,1.86-.14,2.57.06,1.11.2,1.21.4,0,.8-.19a6.49,6.49,0,0,0,1.24-.92l1.19-1.14a8.76,8.76,0,0,0,.71-.75,15.53,15.53,0,0,0,1.06-1.64,29.25,29.25,0,0,0,1.47-2.8,15.23,15.23,0,0,0,1-2.81c.23-.87.14-1.4-.25-1.6Z"/><path class="cls-2" d="M357.67,394.36a.93.93,0,0,0,.16-.72,3.63,3.63,0,0,0-.25-1,5,5,0,0,0-.5-1,3.6,3.6,0,0,0-.55-.65,6.13,6.13,0,0,0-1.35-.78c-.66-.32-1.38-.62-2.15-.92s-1.49-.53-2.17-.72a3.78,3.78,0,0,0-1.41-.2l-4.65-8.9a15.9,15.9,0,0,1,6.08,1.66,25.07,25.07,0,0,1,5.37,3.53,24.39,24.39,0,0,1,3.3,3.5,21.83,21.83,0,0,1,2.5,4.1,16.21,16.21,0,0,1,1.12,3.32,23.22,23.22,0,0,1,.61,4.08,15.31,15.31,0,0,1-.22,4,6.26,6.26,0,0,1-1.38,3.09l-6.47,7.34a2.14,2.14,0,0,1-1.32.7,3.67,3.67,0,0,1-1.69-.13,8.71,8.71,0,0,1-1.83-.8,13,13,0,0,1-1.81-1.32,9.14,9.14,0,0,1-2.47-3.16,2.5,2.5,0,0,1,.31-2.9Z"/><polygon class="cls-5" points="377.51 421.94 367.85 422.76 367.35 413.15 376.88 412.49 377.51 421.94"/><polygon class="cls-5" points="386.51 411.73 376.97 412.39 376.35 402.94 386.02 402.13 386.51 411.73"/><path class="cls-2" d="M386.28,362.21a14.78,14.78,0,0,1,2.36,5.44,18.29,18.29,0,0,1,.27,5.9,19.11,19.11,0,0,1-1.67,5.7,18.16,18.16,0,0,1-3.36,4.83L382,386a19.64,19.64,0,0,1-2.69,2.17,9.62,9.62,0,0,1-2.88,1.36,2.38,2.38,0,0,1-2.44-.6l-9.34-9a9.55,9.55,0,0,0,5.09.05,9.22,9.22,0,0,0,4.41-2.5,22.38,22.38,0,0,0,2.86-3.64,39.46,39.46,0,0,0,2.5-4.48,37,37,0,0,0,1.94-4.77,31,31,0,0,0,1.13-4.51L362,347.87l-4.6-8.69,26,14.09q7.49,4.08,10.37,2.72a6.7,6.7,0,0,0,2-1.44c.64-.65,1.42-1.45,2.37-2.4a2.82,2.82,0,0,1,3.11-.65,9.13,9.13,0,0,1,3.52,2.19,8.84,8.84,0,0,1,2.29,3.44,2.78,2.78,0,0,1-.57,3.11l-4.37,4.43a4.15,4.15,0,0,1-3.23,1.07,19.83,19.83,0,0,1-4.53-.64,36.13,36.13,0,0,1-4.62-1.49C388.23,363,387.09,362.56,386.28,362.21Z"/><path class="cls-2" d="M403.46,363.1a2.57,2.57,0,0,1-3,.26,10.25,10.25,0,0,1-3.27-2.5,10,10,0,0,1-2.1-3.53,2.54,2.54,0,0,1,.63-2.91q2-1.71,3.31-3a25,25,0,0,0,2.25-2.45,8.37,8.37,0,0,0,1.34-2.21,9.15,9.15,0,0,0,.62-2.24,33,33,0,0,0,.07-3.67c0-1.57,0-3.18,0-4.85a37.86,37.86,0,0,1,.38-4.61,4.82,4.82,0,0,1,1.35-3,5.75,5.75,0,0,1,3.21-1.57,9.42,9.42,0,0,1,3.34.29c1.16.3,2.38.67,3.66,1.13a18.94,18.94,0,0,0,4.25,1,9.46,9.46,0,0,0,5.57-1.45,45.34,45.34,0,0,0,7.6-5.62,3,3,0,0,1,3.28-.51,9.46,9.46,0,0,1,5.36,6,2.93,2.93,0,0,1-.91,3.16l-6.35,5.56a7,7,0,0,1-1.26.84,15.88,15.88,0,0,1-1.8.86c-.67.26-1.35.49-2,.69a10.13,10.13,0,0,1-1.91.39,5.13,5.13,0,0,1,.61,1.34,10.63,10.63,0,0,1,.44,1.81,7.27,7.27,0,0,1,.07,1.79,1.82,1.82,0,0,1-.56,1.26,12,12,0,0,1-3.45,2.08,27.2,27.2,0,0,1-4.24,1.35,37.06,37.06,0,0,1-4.42.74c-1.49.16-2.83.24-4,.26a12.14,12.14,0,0,1,.41,4.28,5.19,5.19,0,0,1-1.89,3.35ZM408.14,340a3,3,0,0,0,2.17.68,19.24,19.24,0,0,0,3.4-.23,22.64,22.64,0,0,0,3.41-.81,6.51,6.51,0,0,0,2.22-1c.35-.32.39-.64.1-1a12.26,12.26,0,0,0-2-1.6c-1-.72-2.16-1.41-3.36-2.08a23.39,23.39,0,0,0-3.4-1.57c-1.07-.39-1.79-.41-2.18-.06a3.22,3.22,0,0,0-.89,1.54,8.34,8.34,0,0,0-.32,2.23,10.23,10.23,0,0,0,.17,2.24A3.46,3.46,0,0,0,408.14,340Z"/><path class="cls-2" d="M436.82,333.15a2.45,2.45,0,0,1-2.87-.1,10.38,10.38,0,0,1-3-2.79,10.22,10.22,0,0,1-1.8-3.68,2.36,2.36,0,0,1,.75-2.74c2.08-1.54,4.05-3.06,5.89-4.54a37.44,37.44,0,0,0,5-4.89,34.72,34.72,0,0,0,4.06-6,36.81,36.81,0,0,0,3-7.93,11.4,11.4,0,0,0-3,.35,34.49,34.49,0,0,0-3.51,1c-1.18.41-2.3.87-3.36,1.35a16.11,16.11,0,0,0-2.6,1.48,8,8,0,0,0-2.22,2.55c-.62,1.07-1.15,2.08-1.61,3.07-.07.32-.15.66-.21,1a1.22,1.22,0,0,1-.49.85c-.18.13-.32.13-.44,0a4.14,4.14,0,0,1-.38-.43,12.5,12.5,0,0,1-2-4.22,14.82,14.82,0,0,1-.5-4.8,13,13,0,0,1,1.17-4.58,9.11,9.11,0,0,1,2.94-3.6,15.43,15.43,0,0,1,5.23-2.49c2-.53,4-1,6.16-1.48s4.3-1,6.46-1.71a20.94,20.94,0,0,0,6.12-3.15A40.08,40.08,0,0,0,460,282q2-1.93,4-4.08l4.39,9-4.22,5.42a4.51,4.51,0,0,0,4.14,1.8,9.65,9.65,0,0,0,4.42-1.85l10.73-7.89a2.76,2.76,0,0,1,3.15-.12,9.57,9.57,0,0,1,3.1,2.73,9.32,9.32,0,0,1,1.73,3.74,2.74,2.74,0,0,1-1,3l-8.7,6.38A10.61,10.61,0,0,1,471,301.8a15.71,15.71,0,0,1-4.74-2.87,37.76,37.76,0,0,1-4.19-4.2,40.13,40.13,0,0,0-6.09,8.95q-2.37,4.8-4.4,9.48t-4.24,9a27.34,27.34,0,0,1-5.64,7.42Z"/><path class="cls-2" d="M487,296.45a2.56,2.56,0,0,1-3-.26,9.68,9.68,0,0,1-2.79-3,10,10,0,0,1-1.46-3.84,2.53,2.53,0,0,1,1.12-2.76c1.48-.9,2.73-1.71,3.77-2.43a25.22,25.22,0,0,0,2.65-2,9,9,0,0,0,1.69-1.95,8.85,8.85,0,0,0,1-2.11,33.27,33.27,0,0,0,.71-3.61c.24-1.56.51-3.15.82-4.78a35.08,35.08,0,0,1,1.17-4.48,4.86,4.86,0,0,1,1.84-2.76,5.7,5.7,0,0,1,3.44-1,9.51,9.51,0,0,1,3.24.85c1.09.48,2.23,1.07,3.4,1.73a19.42,19.42,0,0,0,4,1.67,9.62,9.62,0,0,0,5.74-.49,46.1,46.1,0,0,0,8.44-4.26,3,3,0,0,1,3.32.05,9.39,9.39,0,0,1,4.25,6.85,2.94,2.94,0,0,1-1.46,3l-7.2,4.41a7.81,7.81,0,0,1-1.38.61,14.69,14.69,0,0,1-1.92.54c-.7.15-1.4.26-2.11.34a9.43,9.43,0,0,1-2,.06,5.45,5.45,0,0,1,.39,1.43,11.33,11.33,0,0,1,.12,1.86,7.56,7.56,0,0,1-.25,1.77,1.84,1.84,0,0,1-.77,1.16,12.45,12.45,0,0,1-3.76,1.46,27.78,27.78,0,0,1-4.39.61,33.62,33.62,0,0,1-4.49,0c-1.49-.09-2.83-.23-4-.42a11.71,11.71,0,0,1-.33,4.29,5.22,5.22,0,0,1-2.42,3Zm8.58-22a3,3,0,0,0,2,1,18.85,18.85,0,0,0,3.38.35,23.55,23.55,0,0,0,3.51-.22,7,7,0,0,0,2.35-.64c.4-.25.49-.56.27-.92a12.92,12.92,0,0,0-1.73-1.94,38.41,38.41,0,0,0-3-2.6,23.82,23.82,0,0,0-3.07-2.13c-1-.56-1.69-.7-2.14-.43a3.16,3.16,0,0,0-1.14,1.38,9.11,9.11,0,0,0-.71,2.12,11.09,11.09,0,0,0-.21,2.25A3.33,3.33,0,0,0,495.56,274.49Z"/><path class="cls-2" d="M525.32,273.2a2.44,2.44,0,0,1-2.82-.49,10.41,10.41,0,0,1-2.59-3.19,10.09,10.09,0,0,1-1.27-3.89,2.4,2.4,0,0,1,1.12-2.62q3-1.63,5-2.79a36.15,36.15,0,0,0,3.26-2.16,15.46,15.46,0,0,0,2.27-2.08c.62-.7,1.31-1.52,2-2.45l-21.12-34.68c-.35-.11-.81-.27-1.4-.49s-1.2-.47-1.84-.76a13.94,13.94,0,0,1-1.69-.93,2.83,2.83,0,0,1-1-.92,7.49,7.49,0,0,1-.37-2.7c0-1.42,0-3,.1-4.64a45,45,0,0,1,.52-4.67,5.84,5.84,0,0,1,.93-2.78c.18-.19.33-.25.43-.16a.57.57,0,0,1,.18.35,19.1,19.1,0,0,0,.78,2.9,16.7,16.7,0,0,0,1.08,2.38,3.85,3.85,0,0,0,1.46,1.46,11.71,11.71,0,0,0,2.23,1,20.61,20.61,0,0,0,2.49.71c.85.18,1.56.3,2.15.37,0,.38.18,1,.37,1.79s.41,1.69.63,2.63.39,1.86.55,2.77a13.31,13.31,0,0,1,.23,2.18l-.87,0q3.47,5.67,7.33,11.51t7,11.65a43.49,43.49,0,0,1,2.07,4.41,33.71,33.71,0,0,1,1.63,5.07,35.2,35.2,0,0,1,.83,5.3,16.29,16.29,0,0,1-.38,5.07,13.56,13.56,0,0,1-2,4.45,11.06,11.06,0,0,1-3.93,3.4Z"/><path class="cls-2" d="M528.6,189.59q5.4,10.49,10.94,20.83t10.83,21A103.17,103.17,0,0,1,555,242c1.2,3.28,2.32,6.47,3.33,9.57-.21.82-.4,1.65-.54,2.46a6.74,6.74,0,0,1-1.43,2.75L552,248.05q-3.36-6.74-6.51-12.45t-6.23-11.23q-3.09-5.52-6.25-11.26t-6.53-12.48Z"/><path class="cls-2" d="M614.82,198.55c0,.46-.08,1.06-.16,1.8s-.13,1.55-.16,2.43,0,1.78,0,2.7a9.44,9.44,0,0,0,.48,2.6,7.69,7.69,0,0,0,2.74,3.92,12.46,12.46,0,0,0,4.54,2,25.87,25.87,0,0,0,5.58.65,41.84,41.84,0,0,0,5.92-.38,55.38,55.38,0,0,0,5.54-1c1.73-.42,3.22-.82,4.45-1.21q4.34-1.38,8.78-3.16a93.79,93.79,0,0,0,8.72-4,79.51,79.51,0,0,0,8.23-4.92,56.81,56.81,0,0,0,7.27-5.89,9.7,9.7,0,0,0-3.18-4.56,14.53,14.53,0,0,0-4.59-2.43l.12-13a7.8,7.8,0,0,1,2.37,1.18,19.15,19.15,0,0,1,2.85,2.45,23.53,23.53,0,0,1,2.73,3.42,17.37,17.37,0,0,1,2,4.18,21.19,21.19,0,0,1,1,7.44,38.83,38.83,0,0,1-1.06,7.51,11.76,11.76,0,0,1-2.66,4.7,34.58,34.58,0,0,1-5.06,4.66,58.69,58.69,0,0,1-6.67,4.36q-3.66,2.07-7.47,3.88t-7.48,3.25c-2.44.95-4.68,1.74-6.7,2.39a68.62,68.62,0,0,1-9.06,2.17,29.5,29.5,0,0,1-9.16.2,17.8,17.8,0,0,1-7.91-3.15,15.11,15.11,0,0,1-5.28-7.88,14.55,14.55,0,0,1-.72-4.19,20.37,20.37,0,0,1,.3-4.29,26.19,26.19,0,0,1,1.06-4.05,22.74,22.74,0,0,1,1.59-3.59,1.18,1.18,0,0,1,.64-.54C614.64,198.21,614.75,198.31,614.82,198.55Z"/><polygon class="cls-5" points="658.64 240.87 650.14 236.6 654.49 228.24 663 232.51 658.64 240.87"/><path class="cls-2" d="M713.39,203.24a9.16,9.16,0,0,1-5.88-.46,14.48,14.48,0,0,1-4.91-3.6,27.54,27.54,0,0,1-3.93-5.66,62.9,62.9,0,0,1-3-6.58,66.65,66.65,0,0,1-2.19-6.4c-.61-2-1.08-3.77-1.46-5.16l-7.86-30.76,3.94-7.1,7.47,31.94c.28,1.17.72,2.66,1.33,4.51s1.32,3.71,2.1,5.58,1.64,3.63,2.52,5.29a15.29,15.29,0,0,0,2.61,3.76,9.26,9.26,0,0,0,5.08,2.88,14.75,14.75,0,0,0,5.34-.27l3.93-.89a2.75,2.75,0,0,1,1.66.11,4.24,4.24,0,0,1,1.43,1,6.13,6.13,0,0,1,1.11,1.61,9.35,9.35,0,0,1,.72,2.07,9,9,0,0,1,.27,2.15,5.71,5.71,0,0,1-.28,1.93,4.34,4.34,0,0,1-.84,1.51,2.71,2.71,0,0,1-1.45.81Z"/><path class="cls-2" d="M716.62,202.4a2.48,2.48,0,0,1-2.55-1.32,9.76,9.76,0,0,1-1.5-3.79,9.64,9.64,0,0,1,0-4,2.47,2.47,0,0,1,1.92-2.14l3.42-.6c1.18-.22,2.3-.44,3.38-.67s2.09-.49,3-.78a16.2,16.2,0,0,0,2.32-.83,4.21,4.21,0,0,0,2.06-1.9,10.26,10.26,0,0,0,1-2.7,22.58,22.58,0,0,0,.46-2.93,17.43,17.43,0,0,1,.38-2.57.47.47,0,0,1,.27-.34,1.46,1.46,0,0,1,.53-.2.83.83,0,0,1,.5.07.5.5,0,0,1,.22.46c0,.69.09,1.36.18,2s.14,1.13.17,1.33a4.47,4.47,0,0,0,2.08,3.2,9.31,9.31,0,0,0,3.9,1.21,22,22,0,0,0,4.65,0c1.61-.18,3-.38,4.28-.61a2.64,2.64,0,0,1,2.72,1.3,10.2,10.2,0,0,1,1.44,7.85,2.57,2.57,0,0,1-2.08,2.15l-7.35,1.32a7.7,7.7,0,0,1-2.86-.07,12.12,12.12,0,0,1-3-1.08,16.07,16.07,0,0,1-2.86-1.89,13.87,13.87,0,0,1-2.42-2.54,14.61,14.61,0,0,1-1.18,2.7,18.79,18.79,0,0,1-1.93,2.82,14.17,14.17,0,0,1-2.42,2.3,6.27,6.27,0,0,1-2.71,1.24Z"/><polygon class="cls-5" points="736.06 220.48 728.2 215.15 733.65 207.42 741.51 212.76 736.06 220.48"/><path class="cls-2" d="M807.33,189.93a5.26,5.26,0,0,1-2.18-.26,8.77,8.77,0,0,1-2-.95,10.31,10.31,0,0,1-1.6-1.25,5.32,5.32,0,0,1-1-1.21,20.9,20.9,0,0,1-3,3.51,6,6,0,0,1-3.47,1.78,8.17,8.17,0,0,1-2.66-.18,14.85,14.85,0,0,1-2.49-.83,22.78,22.78,0,0,1-2.2-1.15c-.7-.43-1.33-.81-1.89-1.19l-1.28,1.29a14.91,14.91,0,0,1-2.07,1.69,18.76,18.76,0,0,1-2.75,1.52,10.43,10.43,0,0,1-3.34.9,15.21,15.21,0,0,1-4.1-.13,23.77,23.77,0,0,1-3.76-.92,18.75,18.75,0,0,1-3.08-1.36,22,22,0,0,1-2.13-1.31c-.46.56-1,1.15-1.61,1.77a15.77,15.77,0,0,1-2,1.71,15.17,15.17,0,0,1-2.34,1.36,8.18,8.18,0,0,1-2.61.72l-9.38,1c-.9.09-1.63-.42-2.18-1.54a10.91,10.91,0,0,1-1.07-3.9,11.28,11.28,0,0,1,.23-4c.31-1.21.91-1.86,1.82-1.95l5.56-.57c.69-.08,1.57-.19,2.65-.35a26.47,26.47,0,0,0,3.26-.65,18.63,18.63,0,0,0,3.06-1.08,4.44,4.44,0,0,0,2-1.68c.15-.28.36-.72.65-1.32l.9-2,1-2c.34-.67.58-1.21.76-1.62a.77.77,0,0,1,.58-.38c.31-.08.47.06.46.4a11.66,11.66,0,0,0,.41,3.24,8,8,0,0,0,.74,2,4.69,4.69,0,0,0,2,1.78,10.22,10.22,0,0,0,2.75.91,14.67,14.67,0,0,0,3,.24c1,0,1.89-.06,2.67-.14a11.44,11.44,0,0,0,5.26-1.9,10.28,10.28,0,0,0,3.58-4.15c.14-.27.32-.66.53-1.18s.42-1.06.64-1.66.45-1.23.69-1.87.45-1.24.66-1.76.45-.51.83-.28a1,1,0,0,1,.59.7c0,.47.07,1.06.06,1.76s0,1.44-.1,2.23-.11,1.51-.18,2.22a13.39,13.39,0,0,1-.31,1.74,2.26,2.26,0,0,0,.83,1.1,6.05,6.05,0,0,0,1.52.8A8.2,8.2,0,0,0,792,180a7.32,7.32,0,0,0,1.8,0,5.9,5.9,0,0,0,3.78-1.67,10.61,10.61,0,0,0,2.17-3.27,18,18,0,0,0,1.15-3.71c.24-1.24.47-2.23.69-3a.89.89,0,0,1,.47-.53.86.86,0,0,1,.63,0,1.5,1.5,0,0,1,.52.37.55.55,0,0,1,.19.48,26.62,26.62,0,0,0-.37,3.7,23.28,23.28,0,0,0,.09,3,2.19,2.19,0,0,0,1.06,1.72,6.43,6.43,0,0,0,2.47.76,20,20,0,0,0,3.54.09c1.35-.07,2.77-.19,4.28-.34a2.89,2.89,0,0,1,2.93,1.46,9.52,9.52,0,0,1,.84,7.93,2.92,2.92,0,0,1-2.56,2Z"/><polygon class="cls-5" points="775.94 161.58 768.3 155.5 774.52 148.19 781.95 154.1 775.94 161.58"/><polygon class="cls-5" points="781.32 147.49 773.9 141.58 779.91 134.1 787.35 140.2 781.32 147.49"/><polygon class="cls-5" points="789.52 160.18 782.08 154.08 788.1 146.79 795.73 152.68 789.52 160.18"/><path class="cls-2" d="M811.47,190.17a2.42,2.42,0,0,1-2.3-1.67,11.13,11.13,0,0,1-.26-8,2.44,2.44,0,0,1,2.19-1.83c2.3-.07,4.19-.16,5.69-.28a34.48,34.48,0,0,0,3.88-.48,15.79,15.79,0,0,0,3-.83c.88-.35,1.84-.77,2.91-1.28l-3.18-40a12.94,12.94,0,0,1-1-1.05,17.5,17.5,0,0,1-1.29-1.49,12.69,12.69,0,0,1-1.09-1.56,2.9,2.9,0,0,1-.47-1.26,7.38,7.38,0,0,1,.89-2.54c.62-1.28,1.34-2.63,2.18-4.07s1.7-2.73,2.57-3.91a6.19,6.19,0,0,1,2.09-2.05c.26-.09.41-.08.46.05a.55.55,0,0,1,0,.38,16.88,16.88,0,0,0-.61,2.93,15,15,0,0,0-.11,2.59,3.72,3.72,0,0,0,.64,1.92,10.94,10.94,0,0,0,1.53,1.89,20.83,20.83,0,0,0,1.91,1.74c.67.52,1.24,1,1.74,1.28a15.78,15.78,0,0,0-.47,1.73c-.19.82-.4,1.68-.63,2.61s-.49,1.82-.76,2.71a13.44,13.44,0,0,1-.78,2l-.79-.36q.54,6.56,1.34,13.43t1,13.43a42.7,42.7,0,0,1-.15,4.83,32.39,32.39,0,0,1-.83,5.19,34,34,0,0,1-1.66,5.06,15.73,15.73,0,0,1-2.62,4.33,13.18,13.18,0,0,1-3.77,3.07,11.21,11.21,0,0,1-5,1.28Z"/><path class="cls-2" d="M961.62,187a2.47,2.47,0,0,1,2,2.07,9.79,9.79,0,0,1,.17,4.07,9.94,9.94,0,0,1-1.38,3.82,2.56,2.56,0,0,1-2.59,1.39l-10.16-1.5c-1.83-.27-3.78-.48-5.81-.62a32.72,32.72,0,0,0-5.87.06,8.76,8.76,0,0,0-1.08.36c-.48.19-.74.35-.75.47-.09.55.21,1,.88,1.48a11.82,11.82,0,0,0,2.65,1.2c1.09.35,2.28.7,3.58,1s2.56.71,3.75,1.07a21.76,21.76,0,0,1,3.14,1.21,3.1,3.1,0,0,1,1.67,1.47,6.94,6.94,0,0,1,.21,2.94,7.69,7.69,0,0,1-2.27,4.11,22.83,22.83,0,0,1-5,3.81,42.59,42.59,0,0,1-7,3.19,61.78,61.78,0,0,1-8.28,2.29,60.85,60.85,0,0,1-8.72,1.14,39.78,39.78,0,0,1-16.46-2.39,25.79,25.79,0,0,1-7.22-3.91,16.76,16.76,0,0,1-4.88-5.94,13.66,13.66,0,0,1-1-8.24,18.24,18.24,0,0,1,1.68-5.14,34.18,34.18,0,0,1,3.21-5.28,44.2,44.2,0,0,1,4.32-5,41.16,41.16,0,0,1,5-4.27.9.9,0,0,1,.69-.22c.13,0,.18.15.13.41-.69.84-1.49,1.85-2.37,3s-1.74,2.46-2.57,3.85a35.65,35.65,0,0,0-2.18,4.32,20.12,20.12,0,0,0-1.27,4.46,9.53,9.53,0,0,0,1.06,6.77,12.8,12.8,0,0,0,4.59,4.32,25.37,25.37,0,0,0,6.52,2.54c2.4.59,4.68,1.05,6.82,1.36a46.43,46.43,0,0,0,4.68.4c1.82.07,3.76.1,5.8.07s4.09-.1,6.12-.25a54.59,54.59,0,0,0,5.52-.67,19.27,19.27,0,0,0,4.09-1.11c1.07-.44,1.66-1,1.77-1.61s-.27-1-1-1.35a19.84,19.84,0,0,0-3-1c-1.23-.3-2.53-.65-3.92-1A18.48,18.48,0,0,1,933,204.7a7.94,7.94,0,0,1-2.79-2.37,4.91,4.91,0,0,1-.67-3.72,10,10,0,0,1,3.34-5.92,24.3,24.3,0,0,1,6.64-4.26,33.15,33.15,0,0,1,7.88-2.32,23.78,23.78,0,0,1,7.11-.21Z"/><polygon class="cls-5" points="901.62 237 895.75 229.43 903.64 223.88 909.31 231.42 901.62 237"/><polygon class="cls-5" points="915.75 238.06 910.07 230.51 917.76 224.94 923.63 232.5 915.75 238.06"/><path class="cls-2" d="M963.53,187.35a11.8,11.8,0,0,0,3.17.48,5.84,5.84,0,0,0,2.42-.49,6.91,6.91,0,0,0,2.09-1.46,30.59,30.59,0,0,0,2.22-2.45,8.49,8.49,0,0,0,2.65,6.65,18.94,18.94,0,0,0,7.34,4.25c1.74-.9,3.81-1.9,6.23-3s5-2.21,7.77-3.3,5.64-2.12,8.6-3.07a89.41,89.41,0,0,1,8.66-2.37,54.59,54.59,0,0,1,8-1.19,21.14,21.14,0,0,1,6.61.48,8.41,8.41,0,0,1,3.21,1.66,8.94,8.94,0,0,1,2.24,2.74,9.71,9.71,0,0,1,1.08,3.42,9.5,9.5,0,0,1-.28,3.7,10.91,10.91,0,0,1-2.32,4.27,23.62,23.62,0,0,1-3.55,3.35,30.64,30.64,0,0,1-9.9,5.11,51.86,51.86,0,0,1-11.45,2.17,64.49,64.49,0,0,1-11.79-.19,72.7,72.7,0,0,1-11-2,42.28,42.28,0,0,1-5-1.64,24.46,24.46,0,0,1-4.71-2.46,19.67,19.67,0,0,1-3.88-3.44,12.22,12.22,0,0,1-2.43-4.61,20.66,20.66,0,0,1-3.26,2.67,11,11,0,0,1-2.8,1.34,7.53,7.53,0,0,1-2.48.34,12,12,0,0,1-2.45-.39l-3.32-.87a2.52,2.52,0,0,1-1.86-2.32,9.75,9.75,0,0,1,.3-4,10.14,10.14,0,0,1,1.82-3.66,2.61,2.61,0,0,1,2.79-1.08Z"/><path class="cls-6" d="M1017.08,189.3a19.08,19.08,0,0,0-6.84-.38,52.21,52.21,0,0,0-7.91,1.44,73.67,73.67,0,0,0-7.79,2.49,62.59,62.59,0,0,0-6.44,2.85,1.74,1.74,0,0,0,.77.52c.42.16.86.33,1.32.47s.88.27,1.3.38l.76.2c2.21.58,4.57,1.12,7.06,1.61s5,.86,7.43,1.13,4.82.45,7.06.52a42.5,42.5,0,0,0,6.05-.22,14.8,14.8,0,0,0,4.42-1.08,3.28,3.28,0,0,0,2.07-2.06,2.79,2.79,0,0,0-.41-2.22,9.1,9.1,0,0,0-2.08-2.27,16.92,16.92,0,0,0-3.16-2A18.23,18.23,0,0,0,1017.08,189.3Z"/><polygon class="cls-5" points="1001.09 173.67 996.32 165.53 1004.62 160.85 1009.38 168.99 1001.09 173.67"/><path class="cls-2" d="M1054,225.24a9.06,9.06,0,0,1-4.67-3.53,14,14,0,0,1-2.14-5.65,27.61,27.61,0,0,1-.16-6.84,64.49,64.49,0,0,1,1.09-7.15q.75-3.49,1.7-6.55t1.66-5.12l10.44-30,7.23-3.87-11.42,30.83c-.41,1.12-.87,2.62-1.38,4.49s-1,3.81-1.33,5.81-.64,3.92-.82,5.78a14.72,14.72,0,0,0,.11,4.55,9.05,9.05,0,0,0,2.66,5.13,14.53,14.53,0,0,0,4.63,2.63l3.79,1.34a2.74,2.74,0,0,1,1.33,1,4,4,0,0,1,.65,1.6,5.63,5.63,0,0,1,0,1.93,9.89,9.89,0,0,1-.55,2.12,10.62,10.62,0,0,1-1,2,6.14,6.14,0,0,1-1.3,1.46,4.61,4.61,0,0,1-1.54.82,2.82,2.82,0,0,1-1.67-.09Z"/><polygon class="cls-5" points="1046.26 248.42 1042.4 239.69 1051.4 236.15 1055.09 244.8 1046.26 248.42"/><path class="cls-2" d="M1077,221.9a1,1,0,0,0,.74-.08,4.59,4.59,0,0,0,.86-.55,3.9,3.9,0,0,0,.74-.78,3.26,3.26,0,0,0,.45-.72,7.28,7.28,0,0,0,.31-1.49c.08-.72.15-1.49.19-2.3a20.94,20.94,0,0,0,0-2.25,3.67,3.67,0,0,0-.26-1.38l7-7.18a15.19,15.19,0,0,1,.36,6.18,24.86,24.86,0,0,1-1.65,6.13,24.05,24.05,0,0,1-2.28,4.19,22.15,22.15,0,0,1-3.11,3.64,16.38,16.38,0,0,1-2.81,2.11,26,26,0,0,1-3.72,1.89,16.3,16.3,0,0,1-3.89,1.08,6.34,6.34,0,0,1-3.39-.3l-9.09-3.65a2.18,2.18,0,0,1-1.09-1,3.76,3.76,0,0,1-.41-1.62,7.6,7.6,0,0,1,.19-2,11.9,11.9,0,0,1,.66-2.11,9.3,9.3,0,0,1,2.25-3.3,2.57,2.57,0,0,1,2.86-.65Z"/><polygon class="cls-5" points="1058.89 253.51 1055.21 244.85 1064.03 241.23 1067.9 249.96 1058.89 253.51"/><path class="cls-2" d="M1111.89,232.61a14.53,14.53,0,0,0,1.1,3,8,8,0,0,0,1.8,2.24,17,17,0,0,0,2.89,1.92q1.74.94,4.33,2.14a3.2,3.2,0,0,1,2,2.84,8.5,8.5,0,0,1-3.46,7.22,3.28,3.28,0,0,1-3.49.33l-5.53-2.55a42.11,42.11,0,0,1-3.2,3.47A53.23,53.23,0,0,1,1104,257q-2.39,1.83-5,3.46a31.91,31.91,0,0,1-5.33,2.66,19.06,19.06,0,0,1-5.22,1.23,9.14,9.14,0,0,1-4.66-.77,23.36,23.36,0,0,1-5.23-3.32,26.28,26.28,0,0,1-4.12-4.29,19.62,19.62,0,0,1-2.6-4.47,8.58,8.58,0,0,1-.73-3.89,53.32,53.32,0,0,0,4.39,3.28,33.24,33.24,0,0,0,4.81,2.7,15.71,15.71,0,0,0,6.39,1.22,41,41,0,0,0,7.87-.71,39.37,39.37,0,0,0,7.65-2.24,18.93,18.93,0,0,0,5.66-3.35l-1.49-9.49Z"/><path class="cls-2" d="M1113.58,250.83a2.38,2.38,0,0,1-1.14-2.59,11.1,11.1,0,0,1,3.81-7,2.45,2.45,0,0,1,2.82-.52q3,1.57,5.07,2.52a34,34,0,0,0,3.62,1.48,16.11,16.11,0,0,0,3,.73c1,.12,2,.23,3.19.31l17.5-36.32c-.11-.35-.23-.82-.37-1.42s-.26-1.25-.36-1.93a14.31,14.31,0,0,1-.16-1.88,2.88,2.88,0,0,1,.24-1.32,7.28,7.28,0,0,1,2.06-1.78c1.18-.81,2.48-1.63,4-2.47a45.38,45.38,0,0,1,4.22-2.14,6.06,6.06,0,0,1,2.82-.76c.29.05.41.13.39.26a.73.73,0,0,1-.18.35,18.08,18.08,0,0,0-2,2.23,16.17,16.17,0,0,0-1.4,2.19,3.5,3.5,0,0,0-.41,2,11,11,0,0,0,.35,2.39,22.19,22.19,0,0,0,.78,2.43c.31.79.61,1.44.86,2-.28.25-.72.67-1.29,1.29l-1.85,2c-.68.69-1.36,1.34-2,2a14.35,14.35,0,0,1-1.71,1.39l-.51-.69q-2.85,5.94-5.63,12.31t-5.91,12.16a43,43,0,0,1-2.57,4.12,32.12,32.12,0,0,1-3.35,4.1,34.06,34.06,0,0,1-4,3.59,16.22,16.22,0,0,1-4.47,2.48,13.61,13.61,0,0,1-4.82.82,11,11,0,0,1-5-1.34Z"/><path class="cls-2" d="M1185.55,207.57q-5.85,10.17-11.49,20.39t-11.61,20.39a103.23,103.23,0,0,1-6.37,9.66q-3.13,4.2-6.2,8c-.8.28-1.6.57-2.37.9a6.63,6.63,0,0,1-3.09.35l4.94-8.4c2.53-4.32,4.83-8.38,6.86-12.18s4-7.56,6-11.26,4-7.48,6-11.3,4.35-7.89,6.88-12.2Z"/><polygon class="cls-5" points="1190.85 337.83 1189.96 327.89 1200.65 327.49 1201.36 337.29 1190.85 337.83"/><path class="cls-2" d="M1274.06,314a9.54,9.54,0,0,0,.16-1,9.69,9.69,0,0,0,.09-1.2,3.92,3.92,0,0,0-.17-1.16,1.8,1.8,0,0,0-.59-.9,12,12,0,0,0-4.65-1.93,39.62,39.62,0,0,0-6.87-1,34.18,34.18,0,0,0-6.81.29,7.61,7.61,0,0,0-4.47,1.81,2.81,2.81,0,0,0-.66,2.87,12.22,12.22,0,0,0,1.93,3.67,38,38,0,0,0,3.49,4.1c1.34,1.41,2.68,2.78,4,4.11q2.54,2.51,2.41,4.68c-.08,1.43-.92,3-2.52,4.68a12.83,12.83,0,0,1-3.08,2.35,27.1,27.1,0,0,1-4.14,1.89,30.34,30.34,0,0,1-4.63,1.23,17.62,17.62,0,0,1-4.53.25,62,62,0,0,1-9.67-1.42,75.84,75.84,0,0,1-9.26-2.67,63.73,63.73,0,0,1-8-3.47,33.06,33.06,0,0,1-5.9-3.76,26.62,26.62,0,0,1-6.39-7.29,17,17,0,0,1-2.33-7.77,17.28,17.28,0,0,1,1.6-7.88,28.19,28.19,0,0,1,5.38-7.78,31,31,0,0,1,8-5.9,51.16,51.16,0,0,1,11.32-4.18,1.19,1.19,0,0,1,1,.23v.19c0,.06,0,.16-.17.29a48.3,48.3,0,0,0-6.06,3.56,35.18,35.18,0,0,0-5.9,5,17.62,17.62,0,0,0-4,6.1,11.38,11.38,0,0,0-.55,6,14.18,14.18,0,0,0,2.51,5.74,29.38,29.38,0,0,0,5.22,5.46,55.92,55.92,0,0,0,5.91,4.19c2.17,1.34,4.36,2.56,6.59,3.66a70.91,70.91,0,0,0,6.58,2.86,43.3,43.3,0,0,0,6,1.79,20.7,20.7,0,0,0,4.78.54,4,4,0,0,0,2.89-1q.36-.39-.21-1.26a10.75,10.75,0,0,0-1.47-1.75c-.59-.58-1.21-1.13-1.81-1.63l-1.19-1c-1.14-1.05-2.27-2.15-3.4-3.33a15.18,15.18,0,0,1-2.71-3.7,7.09,7.09,0,0,1-.81-4,7.25,7.25,0,0,1,2.22-4.23,18.61,18.61,0,0,1,4.8-3.48,46.19,46.19,0,0,1,6.94-3.09,61.15,61.15,0,0,1,8.12-2.26,54.14,54.14,0,0,1,8.25-1.08,30.08,30.08,0,0,1,7.35.44,12,12,0,0,1,5.48,2.4,4.45,4.45,0,0,1,1.7,2.77,3.33,3.33,0,0,1-1,3,8.45,8.45,0,0,1-2.14,1.55,28.62,28.62,0,0,1-2.89,1.33c-1,.41-2.07.79-3.1,1.12Z"/><polygon class="cls-5" points="1202.2 347.19 1201.47 337.38 1212.01 336.84 1212.89 346.78 1202.2 347.19"/><path class="cls-2" d="M1272.21,353a30.63,30.63,0,0,1-4.5-5.27,14.31,14.31,0,0,1-2-4.15c-.16-.6.22-1.32,1.15-2.15.41-.36,1-.88,1.89-1.55s1.77-1.36,2.72-2.05,1.88-1.33,2.8-1.89a9.09,9.09,0,0,1,2.25-1.1,12.6,12.6,0,0,0,0,2.5,5.78,5.78,0,0,0,.53,1.81,6.57,6.57,0,0,0,1.07,1.52c.46.46,1,1,1.68,1.67,1.6,1.54,3.47,3.19,5.64,4.92a32.84,32.84,0,0,0,7,4.32c.5.23.93.4,1.28.52a1,1,0,0,0,1-.23,8.33,8.33,0,0,0,2.21-3.37,16.66,16.66,0,0,0,1-4.41,22.05,22.05,0,0,0-.06-4.6,14.27,14.27,0,0,0-1-3.9,14.59,14.59,0,0,0-1.55-2.9c-.62-.88-1.2-1.78-1.78-2.71a.37.37,0,0,1-.06-.31.62.62,0,0,1,.18-.35,33.15,33.15,0,0,1,3-2.49c1.24-1,2.51-1.9,3.78-2.84s2.45-1.73,3.52-2.43a11.52,11.52,0,0,1,2.09-1.22,8.31,8.31,0,0,1,1.33,2.77c.32,1.11.58,2.11.76,3a25.37,25.37,0,0,1,.23,7.12,28.23,28.23,0,0,1-1.58,6.87,29.37,29.37,0,0,1-3.28,6.34,30.79,30.79,0,0,1-4.85,5.49,28.52,28.52,0,0,1-6.28,4.3,18.32,18.32,0,0,1-6.74,1.93,16.3,16.3,0,0,1-6.87-.9A18.29,18.29,0,0,1,1272.21,353Z"/><path class="cls-2" d="M1308.1,386.14a9,9,0,0,1-2.6-5.59,13.87,13.87,0,0,1,1-6.22,28.11,28.11,0,0,1,3.56-6.31,64.38,64.38,0,0,1,5-5.94c1.73-1.87,3.47-3.57,5.18-5.09s3.18-2.8,4.38-3.81l26.36-22,9.09.16-27.76,22.21q-1.51,1.2-3.76,3.38t-4.44,4.6c-1.44,1.63-2.74,3.24-3.94,4.84a15.51,15.51,0,0,0-2.37,4.2,8.79,8.79,0,0,0-.19,6,14.77,14.77,0,0,0,3,4.75l2.9,3.15a2.61,2.61,0,0,1,.76,1.57,4,4,0,0,1-.23,1.78,6.19,6.19,0,0,1-1,1.79,11.87,11.87,0,0,1-1.67,1.65,11.36,11.36,0,0,1-2,1.29,7.23,7.23,0,0,1-2,.67,5,5,0,0,1-1.94,0,3,3,0,0,1-1.56-.93Z"/><path class="cls-2" d="M1310.72,388.71a2.41,2.41,0,0,1,0-3,10.39,10.39,0,0,1,3-3.18,11.13,11.13,0,0,1,4-1.91,2.91,2.91,0,0,1,3.1.72l2.38,2.83c.82,1,1.62,1.89,2.43,2.77s1.57,1.67,2.33,2.39a19.48,19.48,0,0,0,2,1.72,5.06,5.06,0,0,0,3,1,13.4,13.4,0,0,0,3.18-.41,25.12,25.12,0,0,0,3.15-1,19.43,19.43,0,0,1,2.75-.88.55.55,0,0,1,.47.08,1.71,1.71,0,0,1,.46.39.66.66,0,0,1,.2.49.47.47,0,0,1-.35.42c-.63.36-1.28.74-1.91,1.14s-1,.68-1.23.81a4.5,4.5,0,0,0-2.08,3.42,8.44,8.44,0,0,0,.82,4.14,21,21,0,0,0,2.47,4.23q1.51,2.08,2.83,3.62a2.55,2.55,0,0,1,.11,3.09,10,10,0,0,1-3,3.21,10.65,10.65,0,0,1-4.07,1.89,3,3,0,0,1-3.21-.85l-5.13-6.09a7.46,7.46,0,0,1-1.42-2.64,12.29,12.29,0,0,1-.48-3.27,14.1,14.1,0,0,1,.39-3.51,13.06,13.06,0,0,1,1.26-3.44,17.26,17.26,0,0,1-3.29.22,22.27,22.27,0,0,1-3.79-.4,16.83,16.83,0,0,1-3.54-1.11,6.87,6.87,0,0,1-2.63-1.87Z"/><polygon class="cls-5" points="1347.94 383.21 1349.15 373.48 1359.63 374.74 1358.42 384.48 1347.94 383.21"/><path class="cls-2" d="M1330.24,411.93a2.36,2.36,0,0,1,.13-2.94,11.15,11.15,0,0,1,3.14-3,11.35,11.35,0,0,1,4.11-1.78,2.78,2.78,0,0,1,3,.8c1.5,1.93,2.77,3.5,3.79,4.72a40.64,40.64,0,0,0,2.86,3.05,17.5,17.5,0,0,0,2.61,2.07c.86.55,1.86,1.14,3,1.76l35.19-25.85c.07-.38.19-.88.34-1.51a19.31,19.31,0,0,1,.58-2,13.6,13.6,0,0,1,.78-1.83,2.84,2.84,0,0,1,.88-1.13,8.52,8.52,0,0,1,2.91-.71c1.58-.21,3.28-.37,5.13-.48a51.39,51.39,0,0,1,5.24-.05,7.28,7.28,0,0,1,3.17.59c.27.18.35.31.25.43a.67.67,0,0,1-.35.23,21,21,0,0,0-3.09,1.16,20,20,0,0,0-2.49,1.4,4.12,4.12,0,0,0-1.38,1.67,11.09,11.09,0,0,0-.81,2.4,15.82,15.82,0,0,0-.42,2.63c-.08.89-.11,1.62-.11,2.23-.4.1-1,.3-1.91.61l-2.81,1c-1,.34-2,.64-3,.91a14.49,14.49,0,0,1-2.37.51l-.15-.89q-5.76,4.26-11.65,8.91c-3.9,3.11-7.86,6-11.82,8.64-1.37.89-2.88,1.78-4.57,2.67a40.76,40.76,0,0,1-5.35,2.28,40.22,40.22,0,0,1-5.73,1.5,19.58,19.58,0,0,1-5.63.25,15.88,15.88,0,0,1-5.2-1.46,12.29,12.29,0,0,1-4.3-3.58Z"/><path class="cls-2" d="M1422.84,404.84q-10.78,6.81-21.41,13.75t-21.53,13.67a115.9,115.9,0,0,1-11.05,6.08q-5.17,2.46-10.07,4.59c-.94-.11-1.88-.2-2.8-.25a7.84,7.84,0,0,1-3.24-1.11l9-5.55q7-4.29,12.8-8.21c3.88-2.61,7.72-5.2,11.48-7.76s7.59-5.15,11.5-7.77,8.19-5.37,12.82-8.22Z"/><path class="cls-5" d="M256.06,1165.83l-5-10.38a7.45,7.45,0,0,0,4.56-5.46q1.12-4.24-1.4-9.71-4.37-9.27-10.92-6.66c-1.8.67-2.94,1.47-3.4,2.4a7.7,7.7,0,0,0-.35,3.55q-.54,1.58,3.24,15.07c1.89,6.63,2.19,11.71.9,15.2a14.55,14.55,0,0,1-7.8,8.11,21.18,21.18,0,0,1-9.12,2.1,15.8,15.8,0,0,1-8.38-2.06q-6.21-3.88-11.86-15a25,25,0,0,1-2.2-6.5,22.72,22.72,0,0,1-.49-8.46,19.94,19.94,0,0,1,10.25-14.23l5.21,10.74a8.47,8.47,0,0,0-4.42,5q-1.82,4.88,1.75,11.6,3.12,6,6.63,7.36a6.91,6.91,0,0,0,5.67-.31,6.82,6.82,0,0,0,3.5-3.89q1.11-3.11-.95-11a131.1,131.1,0,0,1-3.22-13q-1.36-11.47,8.05-16,1-.49,2.1-1a17,17,0,0,1,13.37.34q6.74,3.18,11.3,12.6,6.22,12.81,1.91,21.48a16,16,0,0,1-7.55,7.66A5.34,5.34,0,0,1,256.06,1165.83Z"/><path class="cls-5" d="M225.83,1194.11l49.28-33.66L290,1182.3q7.59,11.12,1.88,19.92a26.28,26.28,0,0,1-15,10.15q-11.61,1.86-18.37-8l-8.26-12.09-17.57,12Zm47.74-17.74-14.83,10.13,7.75,11.34q2.6,3.81,7.91,2.7a13.36,13.36,0,0,0,4.86-2.16,9.21,9.21,0,0,0,2.35-2.15q2.85-3.92-.61-9Z"/><path class="cls-5" d="M310.69,1265.93a37.67,37.67,0,0,1-12.31,5.16,30.24,30.24,0,0,1-12.49.32q-10.15-2-17-12.66T264.3,1238a30.22,30.22,0,0,1,5.44-11.24,38.08,38.08,0,0,1,22.09-14.26,30.25,30.25,0,0,1,12.49-.33q10.2,2,17.09,12.69t4.49,20.75a30.31,30.31,0,0,1-5.43,11.25A38,38,0,0,1,310.69,1265.93Zm-32.83-13a15.29,15.29,0,0,0,9.32,7Q295,1262,304.31,1256T315,1242a15.33,15.33,0,0,0-2.57-11.34,15.79,15.79,0,0,0-9.34-7.11q-7.8-2-17.11,4t-10.65,13.91A15.65,15.65,0,0,0,277.86,1253Z"/><path class="cls-5" d="M296.12,1289.68l44.15-40.16,22.31,24.54a15.75,15.75,0,0,1,4,7.76,12.15,12.15,0,0,1-1.72,8.72,29.37,29.37,0,0,1-4.59,5.84,19.25,19.25,0,0,1-4,2.8,13.57,13.57,0,0,1-6.28,1.54,23.5,23.5,0,0,1-6.13-1.21c.4,2.94.62,4.46.66,4.57a8.74,8.74,0,0,1-2.33,5.93q-2.34,2.65-9.47,9.37c-1.7,1.6-2.4,3.25-2.11,5l-1.62,1.48-8.87-9.75a13.06,13.06,0,0,1,3-5l8.88-8.07q4.46-4-.51-9.5l-9.69-10.67-17.46,15.87Zm44.82-24.18L329.41,1276l11.33,12.45a7.11,7.11,0,0,0,5,2.15,7.55,7.55,0,0,0,6.47-2.76q4.95-4.51,0-10Z"/><path class="cls-5" d="M377.1,1289.94l33.4,34.19-7.33,7.16-12.23-12.53-35.37,34.54-8.53-8.74L382.4,1310l-12.63-12.92Z"/><path class="cls-5" d="M421,1335.88l-40.53,43.81-9-8.34,40.52-43.8Z"/><path class="cls-5" d="M426.8,1338.17l9.08,8-8.94,46.72L454,1362.12l9.21,8.11L423.8,1415l-9.08-8,9.32-47.14-27.45,31.19-9.21-8.11Z"/><path class="cls-5" d="M469.56,1418.24l5.68-8.46,19.88,13.34-18,26.78-6.13-4.11,2.92-7a28,28,0,0,1-8.79,1.49,22.52,22.52,0,0,1-12.57-4.91,26.65,26.65,0,0,1-8-9.05,27.2,27.2,0,0,1-2.18-6.95q-2.55-12.17,5.7-24.45a35.71,35.71,0,0,1,13.09-12,26.2,26.2,0,0,1,17.39-2.77,27.35,27.35,0,0,1,10.66,4.51q10.71,7.18,12.55,16.36a23.36,23.36,0,0,1,.05,10.53q-.17.45-1.86,4.39l-9.3-6.25q3-9.8-6.65-16.26a18.88,18.88,0,0,0-10.54-3.07q-8.67,1-15.53,11.21a23.6,23.6,0,0,0-4.16,9.74q-1.54,10.77,5.39,16.51a15.7,15.7,0,0,0,6.33,3.09,14.32,14.32,0,0,0,8-.07,14.65,14.65,0,0,0,7.42-5Z"/><path class="cls-5" d="M552.86,1467.12l10.82,3.65a21.5,21.5,0,0,1-5.07,7.91,20.64,20.64,0,0,1-7.62,5.15q-8.16,3.06-18.09,0a22.63,22.63,0,0,1-13.62-10.35q-4.41-7.23-3.58-17.24A45.11,45.11,0,0,1,518,1446a41.44,41.44,0,0,1,5-10.45q11.88-17,30.36-10.79a26.25,26.25,0,0,1,13.35,9.42,19.94,19.94,0,0,1,3.1,18.51L558.94,1449a11.94,11.94,0,0,0-.72-7.67c-1.56-3.65-4.8-6.11-9.75-7.38a12.48,12.48,0,0,0-7.57.63,16,16,0,0,0-6.46,4.8,34.68,34.68,0,0,0-5,9.12,28.87,28.87,0,0,0-2.22,12.43q.66,7.35,5.08,10.92a13.17,13.17,0,0,0,3.5,1.83,17.47,17.47,0,0,0,5,1q5.55.21,8.77-2.81A20.17,20.17,0,0,0,552.86,1467.12Z"/><path class="cls-5" d="M584.67,1441.46l11.35,3.82-15.76,46.8,26.45,8.91-3.27,9.71L565.64,1498Z"/><path class="cls-5" d="M660,1467.85l11.63,2.89-9.71,39.07q-3,12-14.85,14.41a27.76,27.76,0,0,1-12.14-.58,32.56,32.56,0,0,1-10.48-4.53q-10.05-9.48-7.32-20.44l9.71-39.07,11.62,2.89-9.75,39.24q-2.26,9.13,8.39,11.78,10.88,2.71,13.15-6.43Z"/><path class="cls-5" d="M667.39,1532,681,1472.21l23.46,5.36q12.38,2.82,15.94,10.88a14.88,14.88,0,0,1,.94,9.48,16,16,0,0,1-8.16,11.08q5.53,7.1,3.36,16.62-1.67,7.29-8.84,11.35-5.49,3-14.7.92Zm23-46.89-3.1,13.61,13.23,3q7.88,1.82,9.43-5t-5.69-8.43ZM684.92,1509l-3.51,15.41,13.77,3.14q3.86.89,5.88.15c2.38-.72,4-2.88,4.81-6.5q1.61-7.05-5-8.57Z"/><path class="cls-5" d="M786.23,1530l11.35,1.31a22.28,22.28,0,0,1-9.64,15q-7.32,4.57-17.67,3.66a23,23,0,0,1-15.49-7.15q-5.84-6-7.15-15.76a43.83,43.83,0,0,1,.08-10.28,39.27,39.27,0,0,1,2.65-11q8-18.66,27.39-16.42a26.61,26.61,0,0,1,15,6.32q7.88,7,6.94,17.06l-11.35-1.31a11.58,11.58,0,0,0-2.33-7.18q-3.43-4.77-11.08-5.09a12.58,12.58,0,0,0-7.27,2.12,15.46,15.46,0,0,0-5.3,5.88,33.5,33.5,0,0,0-3,9.73,27.67,27.67,0,0,0,.46,12.33q2.19,6.88,7.27,9.41a13.32,13.32,0,0,0,3.8,1,17.71,17.71,0,0,0,5.09,0q5.48-.92,8-4.44A18.81,18.81,0,0,0,786.23,1530Z"/><path class="cls-5" d="M806.39,1551.66v-57.14h11v22h24.18v-22h11v57.14h-11v-26.37H817.38v26.37Z"/><path class="cls-5" d="M895.82,1491.45l24.89,58.22-12.2,1-5-11.65-21.52,1.8-3,12.32-12.21,1L882,1492.61Zm-5.64,14.92L885,1530.25,899.8,1529Z"/><path class="cls-5" d="M930.63,1547.15l-7.07-57.81,23.88-2.92q12.6-1.55,18.65,4.47a13.7,13.7,0,0,1,4,8.14,14.78,14.78,0,0,1-4,12.55,17.57,17.57,0,0,1,8.71,13.71q.85,7-4.55,13-4.17,4.49-13.54,5.64Zm6-49.34,1.61,13.14,13.47-1.65q8-1,7.2-7.58t-8.16-5.63Zm2.82,23.07,1.82,14.88,14-1.71a11.55,11.55,0,0,0,5.59-1.79c2-1.43,2.79-3.88,2.37-7.38q-.84-6.81-7.6-6Z"/><path class="cls-5" d="M1006.64,1473.07l36.57,51.22-12.08,3.58-7.27-10.25-21.27,6.3-.57,12.59L990,1540.09l3-63Zm-2.71,15.68-.52,24.27,14.67-4.35Z"/><path class="cls-5" d="M1055,1521.81l-20.58-54.48,22.52-8.5q11.86-4.49,19.17-.08a13.65,13.65,0,0,1,5.85,7,14.78,14.78,0,0,1-.9,13.15q8.43,2.57,11.71,11.26,2.51,6.63-1.34,13.72-3,5.34-11.81,8.69Zm-5.84-49.36,4.68,12.39,12.69-4.79q7.56-2.86,5.21-9.08t-9.27-3.55Zm8.21,21.74,5.3,14,13.21-5a11.52,11.52,0,0,0,5-3.07c1.6-1.86,1.79-4.43.55-7.72q-2.43-6.42-8.8-4Z"/><path class="cls-5" d="M1163.76,1476.6l-10.7,5.39-30.47-37.44,21.2,42.11-10.7,5.38-26.19-52,15.65-7.89,29.79,35.08-10.41-44.84,15.61-7.85,26.19,52-10.7,5.39-21.2-42.11Z"/><path class="cls-5" d="M1225.45,1405a36.76,36.76,0,0,1,5.7,11.72,29.67,29.67,0,0,1,1,12.15q-1.44,10-11.43,17.27t-20,5.56a29.78,29.78,0,0,1-11.26-4.7,37.21,37.21,0,0,1-15.07-20.76,29.68,29.68,0,0,1-1-12.15q1.41-10,11.45-17.35t20-5.48a29.4,29.4,0,0,1,11.26,4.7A36.63,36.63,0,0,1,1225.45,1405Zm-10.89,32.69a14.84,14.84,0,0,0,6.3-9.46q1.64-7.77-4.7-16.49t-14.25-9.61a15,15,0,0,0-10.91,3.11,15.37,15.37,0,0,0-6.43,9.48q-1.53,7.69,4.82,16.46c4.23,5.81,8.93,9,14.14,9.64A15.28,15.28,0,0,0,1214.56,1437.67Z"/><path class="cls-5" d="M1251.65,1425.16l-35.82-45.91,9.44-7.37,13.45,17.24,18.19-14.2-13.45-17.23,9.48-7.41,35.83,45.91-9.48,7.4-16.23-20.78L1244.87,1397l16.22,20.79Z"/><path class="cls-5" d="M1282.36,1325.1l54.67,28.3-8.86,8.47-10.91-5.69-15.6,14.93,5.15,11.18-8.86,8.47-25.59-56.09Zm4.68,14.82,10.45,21.34,10.76-10.29Z"/><path class="cls-5" d="M1370.14,1319.14,1362,1328l-41.72-24.28L1355,1335.6l-8.11,8.81L1304,1305l11.86-12.9,40.25,22.31-25.55-38.29,11.83-12.85,42.86,39.42-8.11,8.82-34.69-31.92Z"/><path class="cls-5" d="M1414.82,1265.16l-7.29,9.52-43.74-20.41,37.43,28.65-7.27,9.51L1347.69,1257l10.66-13.91,42.08,18.58-28.89-35.83,10.62-13.86,46.24,35.39-7.28,9.51-37.43-28.65Z"/><path class="cls-5" d="M1387.25,1207.35l22.19-35.11,8.13,5.57L1401.68,1203l10.77,7.37,14.68-23.22,8.13,5.58-14.68,23.23,12.2,8.35,16.58-26.23,8.13,5.56-22.87,36.21Z"/><path class="cls-5" d="M1465.09,1194.09l-52.65-24.88,11.57-24.49q5.15-10.87,20.23-11a29.91,29.91,0,0,1,12.8,3.26q11.93,5.63,17.12,14a23.42,23.42,0,0,1,3.51,10,17.19,17.19,0,0,1-1.35,9.41Zm-38.49-31.44,34.58,16.34,4.11-8.69q3.76-8-1.71-14.66c-2.14-2.6-5.59-5-10.36-7.15q-7.73-3.57-12.72-2.78a11.92,11.92,0,0,0-5.91,2.49,13.33,13.33,0,0,0-3.39,4.72Z"/><path class="cls-5" d="M1441.85,1109.24l52.9,24.36-5,10.88-52.9-24.35Z"/><path class="cls-5" d="M1457.16,1076.06l57.69,3.23-4,10.9-11.54-.67-7.06,19.21,8.92,7.76-4,10.9-44.52-39Zm10,11.14,17.53,14.55,4.88-13.25Z"/><circle class="cls-2" cx="851.87" cy="1065.87" r="263.47"/><path d="M1096.9,1066.34c0,135.6-109.43,245.53-244.4,245.53s-244.4-109.93-244.4-245.53S717.52,820.83,852.5,820.83,1096.9,930.74,1096.9,1066.34Z" style="fill:url(#radial-gradient);stroke-width:2px;stroke:#241f20"/><path class="cls-8" d="M928.76,1249.65l-73.14-26.26L785,1262.15l29.37,45s46.89,9.38,103.14-6.25Z"/><path class="cls-9" d="M910.63,876.47s-49.85-21.88-106.26-7.5"/><path class="cls-1" d="M760.61,838.34l50.63,31.88-40.63,68.14-76.89,18.13L671.84,899.6S716.23,851.47,760.61,838.34Z"/><path class="cls-1" d="M951.88,843.34l-45,32.51,43.76,60.63,76.25,17.5L1035,907.1S1011.27,864.59,951.88,843.34Z"/><polygon class="cls-8" points="902.5 1002.11 808.12 1000.24 775.61 1087.75 850.62 1147.14 928.13 1092.75 902.5 1002.11"/><path class="cls-8" d="M1091.07,1107.13l-39.38-38.76-51.88,53.76.62,90,53.76-8.12S1088.57,1155.89,1091.07,1107.13Z"/><path class="cls-8" d="M651.22,1058.37l50,57.51,1.87,80-56.88,1.25S618.09,1164,608.71,1104Z"/><line class="cls-9" x1="770.61" y1="938.36" x2="812.49" y2="1004.62"/><path class="cls-9" d="M695.23,952.09s-43.63,40.22-45.52,109.43"/><path class="cls-4" d="M778.73,1085.25c-22.5,15-80.63,31.88-80.63,31.88"/><path class="cls-9" d="M899.38,1004s37.94-39.22,51.26-67.51"/><path class="cls-9" d="M1022.52,949s28.75,23.75,26.88,125.64"/><path class="cls-4" d="M1004.39,1124.63s-65-30-84.39-32.5"/><path class="cls-10" d="M1009.38,1204.75s-30.42,36.91-86.87,49.79"/><path class="cls-4" d="M856.87,1234.65s-2.5-82.51-10-106.27"/><path class="cls-10" d="M693.72,1185.26s47.51,70.64,107.52,78.77"/></g></g></svg>