<svg version="1.1" id="Calque_1" xmlns="http://www.w3.org/2000/svg" x="0px" y="0px" viewBox="0 0 454.68 595.28" style="enable-background:new 0 0 454.68 595.28" xml:space="preserve"><style>.st0{fill:#E73830}.st1{fill:#FFFFFF}.st2{fill:#F9B233}</style><circle class="st0" cx="234.47" cy="295.1" r="186.43"/><path class="st1" d="M300.51,351.2c-2,0.33-4.09,1.01-6.3,2.03c-1.53,0.7-3.02,1.59-4.45,2.65c-0.47,0.36-0.94,0.74-1.4,1.14 c-0.75,0.64-1.49,1.32-2.25,2.05c-1.11,1.03-2.25,2.16-3.4,3.34c-1.93,2.01-3.95,4.15-6.08,6.43c-2.16,2.3-4.56,4.64-7.19,7.02 c-2.62,2.39-5.56,4.76-8.82,7.11c-3.25,2.37-6.95,4.58-11.1,6.66c-1.41,0.72-3,1.44-4.76,2.13c-1.11,0.44-2.26,0.87-3.46,1.3 h-0.01c-0.67,0.23-1.34,0.47-2.03,0.7c-1.93,0.64-3.89,1.25-5.89,1.83c-2.01,0.57-3.96,1.1-5.86,1.59 c-0.07,0.02-0.15,0.03-0.22,0.06c7.85,3.61,16.33,3.23,17.43,3.17c0.07-0.01,0.11-0.01,0.11-0.01c2.26-0.4,4.45-0.99,6.58-1.77 c2.14-0.79,4.18-1.79,6.16-3.01c2.19-1.34,4.19-2.82,6.01-4.39c1.82-1.59,3.53-3.24,5.14-4.96c1.61-1.72,3.19-3.48,4.75-5.29 c1.53-1.82,3.13-3.62,4.81-5.42c1.68-1.8,3.48-3.58,5.42-5.34c1.93-1.76,4.1-3.46,6.5-5.09c0.62-0.43,1.22-0.82,1.8-1.18 c0.05-0.03,0.1-0.07,0.16-0.09c0.54-0.33,1.06-0.63,1.57-0.91c1.14-0.61,2.22-1.16,3.24-1.67c1-0.52,1.93-1.02,2.8-1.51 c0.87-0.48,1.68-1.05,2.42-1.68c0.74-0.63,1.4-1.38,1.98-2.23c0.59-0.85,1.08-1.87,1.49-3.09l0.4-1.19 C304.36,351,302.51,350.87,300.51,351.2z"/><path class="st1" d="M329.2,286.44c-0.76-0.26-1.59-0.16-2.46,0.29c-0.87,0.46-1.73,1.15-2.57,2.07 c-2.11,2.36-3.83,4.69-5.12,7.02c-1.3,2.32-2.34,4.65-3.13,6.97c-0.85,2.52-1.4,5.02-1.65,7.53c-0.26,2.5-0.34,4.95-0.28,7.35 c0.08,2.39,0.25,4.7,0.54,6.91c0.28,2.25,0.52,4.34,0.75,6.31c0.22,1.95,0.34,3.76,0.38,5.4c0.03,1.64-0.16,3.08-0.56,4.3 c-0.37,1.08-1.01,2.08-1.94,2.99c-0.92,0.91-2.02,1.76-3.31,2.55c-1.28,0.79-2.68,1.53-4.18,2.21c-1.52,0.68-3.04,1.32-4.61,1.92 c-2.01,0.72-4.08,1.59-6.2,2.56c-1.72,0.79-3.41,1.82-5.08,3.08c-0.39,0.29-0.78,0.6-1.17,0.92c-0.92,0.75-1.75,1.49-2.48,2.26 c-0.18,0.17-0.36,0.36-0.52,0.53c-0.86,0.94-1.63,1.88-2.3,2.83c-0.67,0.93-1.26,1.86-1.8,2.79c-0.53,0.92-1.01,1.84-1.44,2.76 l0.1,0.74c0.67-0.07,1.37-0.17,2.09-0.31c0.72-0.14,1.49-0.36,2.32-0.64c0.82-0.3,1.7-0.68,2.65-1.11 c0.94-0.45,1.95-1.01,3.03-1.68c0.55-0.34,1.13-0.69,1.75-1.02c0.05-0.03,0.1-0.07,0.16-0.09c1.06-0.57,2.21-1.14,3.45-1.67 c2.01-0.91,4.17-1.9,6.47-2.94c1.38-0.62,2.72-1.3,4.02-2.05c1.3-0.74,2.56-1.68,3.8-2.83c1.23-1.14,2.45-2.54,3.64-4.19 c1.19-1.67,2.4-3.71,3.64-6.15c0.45-0.91,0.87-1.72,1.26-2.45c0.37-0.72,0.7-1.41,1.01-2.07c0.3-0.64,0.59-1.26,0.85-1.87 c0.26-0.6,0.51-1.22,0.71-1.85c0.63-1.88,0.99-3.83,1.07-5.85c0.08-2.02,0.02-4.09-0.15-6.22c-0.18-2.11-0.44-4.27-0.76-6.48 c-0.32-2.17-0.57-4.34-0.72-6.54c-0.16-2.18-0.18-4.37-0.05-6.55c0.13-2.17,0.55-4.31,1.25-6.4c0.37-1.08,0.79-2.02,1.26-2.84 c0.48-0.8,1.02-1.51,1.64-2.1c1.01-0.98,1.98-1.99,2.9-3.01c0.92-1.03,1.55-2.05,1.88-3.06L329.2,286.44z"/><path class="st1" d="M345,294.08c-0.7-2.75-1.71-5.06-3.07-6.91c-1.34-1.85-3.03-3.13-5.07-3.8c-0.85-0.29-1.77-0.4-2.78-0.32 c-1.01,0.07-2.07,0.33-3.18,0.78c-1.1,0.45-2.24,1.08-3.38,1.91c-1.15,0.82-2.26,1.84-3.35,3.06c-1,1.14-1.77,2.25-2.3,3.33 c-0.53,1.09-0.91,1.98-1.14,2.67l-0.32,0.95l0.29,0.18c0.56-0.34,1.13-0.74,1.71-1.19c0.57-0.45,1.3-1.09,2.17-1.92 c0.92-0.9,1.9-1.48,2.93-1.77c1.03-0.28,2.1-0.23,3.18,0.13c2.01,0.68,3.67,1.9,4.98,3.64c1.31,1.76,2.29,3.94,2.93,6.56 c0.65,2.62,0.98,5.63,0.97,9.04c0,3.41-0.29,7.12-0.87,11.12c-0.59,4-1.44,8.24-2.56,12.73c-1.11,4.5-2.48,9.16-4.1,13.96 c-0.95,2.8-1.83,5.01-2.63,6.62c-0.82,1.61-1.3,2.65-1.46,3.14c-0.07,0.21-0.14,0.43-0.2,0.63c-0.06,0.22-0.05,0.34,0.03,0.37 c0.14,0.05,0.3-0.01,0.51-0.18c0.2-0.16,0.38-0.34,0.53-0.53c0.83-0.86,1.71-1.85,2.65-2.94c0.94-1.09,1.84-2.16,2.69-3.21 c0.71-0.82,1.51-2.17,2.36-4.06c0.86-1.88,1.88-4.57,3.06-8.07c1.47-4.37,2.71-8.69,3.72-12.98s1.76-8.43,2.24-12.41 c0.48-3.96,0.69-7.7,0.62-11.18C346.07,299.95,345.69,296.83,345,294.08z"/><path class="st1" d="M136.37,281.69c-4.71,14.95-7.06,24.47-7.06,28.57c0,6.26,1.55,9.38,4.65,9.38c2.33,0,4.82-2.77,7.47-8.3h0.33 l0.58,0.75c-2.16,11.68-5.32,17.52-9.47,17.52h-1.41c-3.04,0-5.18-1.99-6.39-5.98c-0.22-1.66-0.33-2.99-0.33-3.99v-4.9 c0-9.63,3.63-20.65,10.88-33.05H136.37z"/><path class="st1" d="M189.86,324.58c-1.47,0.12-4.44,0.55-8.89,1.29c-2.06,0.4-4.93,0.94-8.62,1.61c1.38,0.34,4.04,1.51,7.97,3.5 c2.03,0.58,3.33,1.38,3.92,2.4c0.4,0.68,0.6,1.86,0.6,3.55c0,1.51-0.57,3.61-1.7,6.31c-0.86,2.03-5.81,5.3-14.84,9.82 c-9.37,4.67-16.64,7.01-21.8,7.01c-3.44,0-6.73-0.95-9.86-2.86c-5.38-3.26-8.07-8.68-8.07-16.27c0-7.04,1.66-13.57,4.98-19.59 c0.43-0.77,0.72-1.15,0.88-1.15c0.25,0,0.22,0.63-0.09,1.89c-0.65,2.12-1.28,4.24-1.89,6.36c-1.08,3.96-1.61,7.16-1.61,9.59 c0,4.79,1.58,8.62,4.75,11.48c3.01,2.73,6.9,4.1,11.66,4.1c4.42,0,10.28-1.54,17.56-4.61c4.06-1.72,7.96-3.69,11.71-5.9 c3.35-2,5.02-3.2,5.02-3.6c0-0.92-1.95-2.37-5.85-4.33c-6.02-1.6-9.34-2.52-9.95-2.76c-1.72-0.68-2.63-1.6-2.72-2.77 c0-0.22,0.21-1.08,0.65-2.58c0.49-1.69,0.91-2.7,1.24-3.04c1.94-1.29,6.1-2.4,12.49-3.32c3.81-1.11,7.97-1.97,12.49-2.58V324.58z"/><path class="st1" d="M145.3,363.85c-1.2,3.81-1.8,6.24-1.8,7.28c0,1.6,0.4,2.4,1.2,2.4c0.58,0,1.21-0.71,1.89-2.12h0.09l0.14,0.18 c-0.55,2.98-1.35,4.47-2.4,4.47h-0.37c-0.77,0-1.31-0.51-1.61-1.52c-0.06-0.43-0.09-0.77-0.09-1.01v-1.24 c0-2.46,0.92-5.27,2.77-8.43H145.3z"/><path class="st1" d="M168.77,269.25c0.81,0,1.65,0.72,2.52,2.17v0.3c0,0.87-0.34,1.6-1.01,2.17h-0.15 c-1.04-0.94-1.63-1.41-1.77-1.41h-0.76c-0.81,0-1.87,2.92-3.18,8.77c-1.45,2.89-2.71,4.79-3.78,5.7c-3.83,2.96-7.35,4.93-10.54,5.9 c-4.47,1.45-6.84,2.17-7.11,2.17l-0.15-0.2c0.71-0.54,3.41-1.97,8.12-4.29c4.71-2.45,8.19-4.54,10.44-6.25 c0-0.13,0.42-0.55,1.26-1.26c0-1.72-1.11-4.34-3.33-7.87h-0.76c0,0.3-0.25,0.45-0.76,0.45c-0.74,0-1.66-0.66-2.77-1.97v-0.2 c0.4-1.14,1.03-2.07,1.87-2.77h0.55c2.59,0,4.57,2.61,5.95,7.82v0.45h0.1C164.77,272.48,166.51,269.25,168.77,269.25z"/><path class="st1" d="M170.18,369.43c0,0.74-0.18,1.66-0.55,2.76c-0.46,1.29-0.98,1.94-1.57,1.94c-0.28,0-1.4-0.58-3.36-1.75 c-2.15-1.23-3.23-2.11-3.23-2.63c0-0.55,0.75-2.47,2.26-5.76c0.92,0.92,2.4,1.97,4.42,3.13 C169.51,367.92,170.18,368.69,170.18,369.43z"/><path class="st1" d="M179.4,366.75c0,0.49-0.2,1.34-0.6,2.54c-0.49,1.44-1.03,2.49-1.61,3.13c-4.09-2.27-6.13-3.67-6.13-4.19 c0-0.22,0.31-1.08,0.92-2.58c0.68-1.66,1.15-2.49,1.43-2.49C177.4,364.94,179.4,366.14,179.4,366.75z"/><path class="st1" d="M182.17,349.38c-1.2,3.81-1.8,6.24-1.8,7.28c0,1.6,0.4,2.4,1.2,2.4c0.58,0,1.21-0.71,1.89-2.12h0.09l0.14,0.18 c-0.55,2.98-1.35,4.47-2.4,4.47h-0.37c-0.77,0-1.31-0.51-1.61-1.52c-0.06-0.43-0.09-0.77-0.09-1.01v-1.24 c0-2.46,0.92-5.27,2.77-8.43H182.17z"/><path class="st1" d="M199.45,293.47c-1.2,3.81-1.8,6.24-1.8,7.28c0,1.6,0.4,2.4,1.2,2.4c0.58,0,1.21-0.71,1.89-2.12h0.09l0.14,0.18 c-0.55,2.98-1.35,4.47-2.4,4.47h-0.37c-0.77,0-1.31-0.51-1.61-1.52c-0.06-0.43-0.09-0.77-0.09-1.01v-1.24 c0-2.46,0.92-5.27,2.77-8.43H199.45z"/><path class="st1" d="M213.46,280.66c0,2.06-0.61,3.86-1.84,5.39c-1.78-0.92-3.58-1.83-5.39-2.72c-0.89-0.49-1.34-1.03-1.34-1.61 c0,0.09,0.57-1.81,1.71-5.72c0.83,0.71,2.33,1.58,4.52,2.63C212.68,279.37,213.46,280.05,213.46,280.66z"/><path class="st1" d="M240.88,301.86c-2.43-5.16-6.67-7.74-12.72-7.74c-2.89,0-5.5,0.72-7.83,2.17c-1.91,1.2-4.13,3.53-6.68,7.01 c-2.61,3.63-4.78,7.4-6.5,11.34c-1.32-0.86-2.4-2.03-3.23-3.5c0.09-0.83,0.15-1.37,0.16-1.61c0.01-0.25,0.02-0.46,0.02-0.65 c0-0.49-0.14-0.74-0.41-0.74c-0.37,0-0.74,0.32-1.11,0.97c-2.4,4.12-4.44,6.68-6.13,7.7c-1.47,0.89-3.67,1.34-6.59,1.34v6.45 c2.61,0,5.01-1.04,7.19-3.13c1.11-1.04,2.72-3.12,4.84-6.22c1.14,2.18,2.21,3.78,3.23,4.79c-0.49,1.87-0.81,3.37-0.97,4.47 c-0.12,1.01-0.03,1.52,0.28,1.52c0.28,0,0.51-0.34,0.69-1.01c0.28-1.01,0.77-2.31,1.48-3.87c1.84,1.11,4.44,1.66,7.79,1.66 c3.23,0,7.28-1.09,12.17-3.27c5.04-2.24,9.03-4.84,11.98-7.79c1.66-2.83,2.49-5.39,2.49-7.7 C241.02,303.35,240.97,302.63,240.88,301.86z M227.42,313.57c-4.79,2-8.53,2.99-11.2,2.99c-2.95,0-5.28-0.31-7-0.92 c2.43-4.36,5.01-7.99,7.74-10.88c3.2-3.35,6.05-5.02,8.57-5.02c1.54,0,3.43,0.52,5.67,1.57c2.95,1.35,5.33,3.21,7.14,5.58 C236.1,309.22,232.46,311.45,227.42,313.57z"/><path class="st1" d="M230.14,331.17h-0.09c-1.48,0-3.78,1.68-6.91,5.02h-2.3c-1.81,0-4.19,1.4-7.14,4.19 c-3.13,3.66-5.16,5.84-6.08,6.54c-3.26,2.15-4.89,3.27-4.89,3.36v0.14c1.08-0.18,1.61-0.34,1.61-0.46c1.38,0,3.18-1.09,5.39-3.27 c4.18-4.82,7.76-7.24,10.74-7.24l3.04,0.6c1.23,0,2.32-0.2,3.27-0.6c3.56-1.48,5.35-3.46,5.35-5.95v-0.37 C232.12,331.96,231.46,331.3,230.14,331.17z M230.74,334.54c-2.03,1.41-4.06,2.12-6.08,2.12h-0.23l-0.23-0.09 c2.06-2.03,3.61-3.04,4.66-3.04h0.51c0.68,0,1.18,0.26,1.52,0.78L230.74,334.54z"/><path class="st1" d="M238.95,269.14c-1.81,5.81-2.72,9.49-2.72,11.06c0,2.43,0.61,3.64,1.84,3.64c0.86,0,1.81-1.08,2.86-3.23h0.14 l0.23,0.28c-0.86,4.55-2.09,6.82-3.69,6.82h-0.55c-1.17,0-1.98-0.77-2.44-2.31c-0.09-0.65-0.14-1.17-0.14-1.57v-1.89 c0-3.72,1.4-7.99,4.19-12.81H238.95z"/><path class="st1" d="M201.61,353.87c-1.81,5.81-2.72,9.49-2.72,11.06c0,2.43,0.61,3.64,1.84,3.64c0.86,0,1.81-1.08,2.86-3.23h0.14 l0.23,0.28c-0.86,4.55-2.09,6.82-3.69,6.82h-0.55c-1.17,0-1.98-0.77-2.44-2.31c-0.09-0.65-0.14-1.17-0.14-1.57v-1.89 c0-3.72,1.4-7.99,4.19-12.81H201.61z"/><path class="st1" d="M198.83,379.42c-1.42,4.55-2.13,7.44-2.13,8.67c0,1.9,0.48,2.85,1.45,2.85c0.67,0,1.42-0.84,2.24-2.53h0.11 l0.18,0.22c-0.67,3.57-1.64,5.35-2.89,5.35h-0.43c-0.92,0-1.55-0.6-1.92-1.81c-0.07-0.51-0.11-0.91-0.11-1.23v-1.48 c0-2.91,1.1-6.26,3.29-10.04H198.83z"/><path class="st1" d="M279.22,335.62c-3.59,0-6.93-1.81-10.01-5.44c-2.33-2.76-3.93-5.65-4.8-8.7c-1.15-3.96-2.25-11.51-3.32-22.66 c-1.19-12.43-2.55-24.05-4.09-34.86c-0.44-3.17-1.44-7.43-3.02-12.77c-1.42-4.92-2.13-7.51-2.13-7.76c0.55-1.96,1.19-4.48,1.9-7.57 c0.12-0.21,0.28-0.31,0.47-0.31c0.99,0,2.37,3.15,4.15,9.45c1.66,5.88,2.9,11.54,3.73,16.96c1.42,9.6,2.55,19.42,3.38,29.48 c0.39,5.47,0.81,10.93,1.24,16.4c0.75,6.34,2.61,11.29,5.57,14.83c2.33,2.8,4.64,4.2,6.93,4.2V335.62z"/><path class="st1" d="M257.23,314.59c-1.54,5.18-2.31,8.47-2.31,9.89c0,2.17,0.51,3.25,1.54,3.25c0.75,0,1.56-0.96,2.43-2.88h0.12 l0.18,0.25c-0.71,4.05-1.74,6.07-3.08,6.07h-0.47c-0.99,0-1.68-0.69-2.07-2.07c-0.08-0.58-0.12-1.04-0.12-1.38v-1.69 c0-3.34,1.18-7.16,3.55-11.45H257.23z"/><path class="st1" d="M247.87,334.18c-1.54,5.18-2.31,8.47-2.31,9.89c0,2.17,0.51,3.25,1.54,3.25c0.75,0,1.56-0.96,2.43-2.88h0.12 l0.18,0.25c-0.71,4.05-1.74,6.07-3.08,6.07h-0.47c-0.99,0-1.68-0.69-2.07-2.07c-0.08-0.58-0.12-1.04-0.12-1.38v-1.69 c0-3.34,1.18-7.16,3.55-11.45H247.87z"/><path class="st1" d="M297.76,315.21c0.51,4.38-0.87,8.62-4.15,12.71c-1.3,1.63-3.32,3.25-6.04,4.88c-3.2,1.88-5.98,2.82-8.35,2.82 v-8.76c3.55,0,7.25-1.11,11.08-3.32c3.48-2.04,5.06-3.46,4.74-4.26c-0.55-1.46-2.71-4.49-6.46-9.07 c-3.59-4.38-6.08-8.76-7.47-13.14c-0.83,0-1.22-0.23-1.18-0.69c0.16-1.58,0.39-3.71,0.71-6.38c0.2-1.25,0.59-1.61,1.18-1.06 c2.02,1.46,4.44,3.32,7.29,5.57c0.99,0.88,1.48,1.56,1.48,2.07c0,0.42-0.32,0.63-0.95,0.63c-1.18,0-2.19-0.08-3.02-0.25 c0.36,1.09,2.31,3.76,5.87,8.01C295.65,308.83,297.4,312.25,297.76,315.21z"/><path class="st1" d="M284.31,344.51c0.24,0.42,0.03,1.79-0.62,4.13c-0.65,2.34-1.35,3.51-2.1,3.51c-0.32,0-1.44-0.65-3.38-1.94 c-2.13-1.38-3.2-2.42-3.2-3.13c0-0.67,0.95-3.28,2.84-7.82c1.42,1.5,2.84,2.63,4.27,3.38C283.18,343.18,283.91,343.8,284.31,344.51 z"/><path class="st1" d="M294.73,341.19c0,0.67-0.28,1.84-0.83,3.51c-0.63,1.92-1.3,3.32-2.02,4.19c-4.86-2.88-7.29-4.72-7.29-5.51 c0-0.33,0.37-1.58,1.13-3.75c0.83-2.38,1.44-3.57,1.84-3.57C292.34,338.57,294.73,340.28,294.73,341.19z"/><path class="st1" d="M187.74,276.69c0.23,1.53,0.34,3.02,0.34,4.45c0,5.08-1.12,8.74-3.36,10.97c-0.86,0.86-1.49,1.28-1.89,1.28 c-0.63,0-0.72-0.98-0.26-2.94c0.57-2.48,0.6-5.07,0.09-7.76c-2.07-8.75-4.94-21.92-8.61-39.48c-0.46-3.21-1.24-7.85-2.33-13.91 c-0.17-0.34-0.95-1.24-2.32-2.71c-0.34-0.34,0.57-2.28,2.75-5.83c0.12-0.21,0.29-0.32,0.52-0.32c0.57,0,1.38,0.66,2.41,1.97 c1.78,2.02,3.53,4.04,5.25,6.06c2.76,3.12,4.13,5.07,4.13,5.83c0,0.24-0.17,0.37-0.52,0.37c-0.23,0-0.6-0.09-1.12-0.28 c-1.43-0.58-2.96-1.31-4.56-2.2c-0.12,0.86,1.06,6.49,3.53,16.9C184.78,261.49,186.76,270.69,187.74,276.69z"/><path class="st1" d="M303.27,257.15c-0.83,0.07-1.71,0.11-2.64,0.11c-0.08,0.41-0.24,1.28-0.51,2.59 c-0.75,4.01-2.38,7.41-4.89,10.18c-5.06,4.61-10.97,9.13-17.72,13.56c-6.07,3.94-11.1,6.71-15.08,8.33c-8.21,1.2-15.56,3-22.05,5.4 c-1.35,0.49-2.44,0.73-3.26,0.73c-0.52,0-0.79-0.11-0.79-0.34c0-0.49,1.03-1.18,3.09-2.08c6.3-2.74,12.84-5.83,19.63-9.28 c8.33-4.2,16.97-9.39,25.93-15.58c8.74-6.04,13.14-9.75,13.22-11.14c-0.19-0.9-0.45-1.69-0.79-2.36c-7.13,0-11.57-0.37-13.33-1.12 c-0.97-0.41-1.88-1.14-2.7-2.19c-0.98-1.2-1.46-2.36-1.46-3.49c0.04-3.15,1.03-6.12,2.98-8.92c1.95-2.79,3.97-4.19,6.07-4.19 c1.5,0,3.45,1.24,5.85,3.71c2.51,2.59,4.22,5.34,5.12,8.27c1.24,0,2.34-0.02,3.32-0.06V257.15z M273.12,256.92h0.84 c1.42,0,2.27,0.9,2.53,2.7v1.18c0,3.64-2.93,7.74-8.78,12.32l-0.84,0.17v-0.17c4.61-5.03,6.92-8.29,6.92-9.79v-0.17 c0-0.67-0.34-1.18-1.01-1.52h-1.52c-0.41,0-1.03,0.28-1.86,0.84c-0.23,0-0.34-0.17-0.34-0.51 C269.67,258.61,271.02,256.92,273.12,256.92z M292.13,249.22c-0.34-0.45-0.75-1.03-1.24-1.74c-0.75-1.12-1.76-1.72-3.04-1.8 c-0.9-0.04-1.63,0.16-2.19,0.59c-0.56,0.43-0.82,1.08-0.79,1.94C285.47,248.73,287.89,249.07,292.13,249.22z M297.42,276.78 c-1.8,5.74-2.7,9.41-2.7,11.03c0,2.4,0.6,3.6,1.8,3.6c0.9,0,1.86-1.07,2.87-3.21h0.11l0.22,0.28c-0.82,4.5-2.02,6.75-3.6,6.75 h-0.56c-1.16,0-1.99-0.77-2.47-2.31c-0.08-0.64-0.11-1.15-0.11-1.52v-1.86c0-3.75,1.39-8.01,4.16-12.77H297.42z"/><path class="st1" d="M342.77,235.55c0.15,7.2-0.96,12.43-3.32,15.7c-2.85,3.94-6.23,5.91-10.13,5.91v-7.87 c3.11,0,5.42-0.45,6.92-1.35c1.2-0.68,2.21-1.89,3.04-3.66c0.08-0.11,0.11-0.41,0.11-0.9c0-3.45-1.89-19.76-5.68-48.94 c-0.64-5.03-1.13-10.69-1.46-16.99c-0.08-0.23-0.41-0.75-1.01-1.58c-0.22-0.3-0.34-0.71-0.34-1.24c0-1.01,0.6-3.39,1.8-7.14 c0.07-0.26,0.19-0.39,0.34-0.39c0.37,0,0.9,0.86,1.58,2.59c3.86,7.31,5.79,12.06,5.79,14.23c0,0.38-0.11,0.56-0.34,0.56 c-0.19,0-0.43-0.11-0.73-0.34c-0.08-0.07-1.07-1.16-2.98-3.26C338.27,194.82,340.4,213.05,342.77,235.55z M337.93,260.97h0.84 c1.42,0,2.27,0.9,2.53,2.7v1.18c0,3.64-2.93,7.74-8.78,12.32l-0.84,0.17v-0.17c4.61-5.03,6.92-8.29,6.92-9.79v-0.17 c0-0.68-0.34-1.18-1.01-1.52h-1.52c-0.41,0-1.03,0.28-1.86,0.84c-0.23,0-0.34-0.17-0.34-0.51 C334.48,262.66,335.83,260.97,337.93,260.97z"/><path class="st1" d="M207.75,176.7c-0.48,1.59-2.93,4.07-7.35,7.46c-4.94,3.76-10.22,6.91-15.85,9.43 c-6.94,3.11-13.24,4.64-18.9,4.61c-5.32-0.03-9.58-2.09-12.79-6.16c-2.97-3.8-4.35-8.36-4.14-13.67c0.28-6.73,1.74-12.76,4.4-18.08 c1.42-2.8,2.4-4.2,2.95-4.2c0.14,0.03,0.21,0.17,0.21,0.41c0,0.79-0.52,2.28-1.55,4.45c-2.45,5.08-3.61,10.08-3.47,15.02 c0.1,4.11,1.57,7.58,4.4,10.41s6.27,4.25,10.31,4.25c5.97,0,12.43-1.42,19.37-4.25c5.35-2.14,10.32-4.83,14.92-8.08 c4.07-2.83,5.92-4.51,5.54-5.02c-0.62-0.9-2.9-1.71-6.84-2.43c-5.04-0.97-8.39-1.79-10.05-2.49c-3.45-1.42-5.18-3.44-5.18-6.06 c0-6.9,2.93-13.81,8.8-20.72c4.25-5.01,7.99-7.51,11.24-7.51c2.66,0,3.99,1.93,3.99,5.8c0,2.97-0.83,4.45-2.49,4.45 c-0.14,0-0.36-0.53-0.67-1.58c-0.31-1.05-1.17-1.58-2.59-1.58c-2.73,0-5.97,2.31-9.74,6.94c-3.9,4.8-5.85,8.08-5.85,9.84 c0,0.1,0.02,0.19,0.05,0.26c1.38,1.97,4.23,3.42,8.55,4.35c6.35,1.38,10.06,2.3,11.13,2.75c1.73,0.73,2.59,2.5,2.59,5.33 C208.73,172.47,208.4,174.49,207.75,176.7z"/><path class="st1" d="M177.71,144.38c0.86,0,1.78,0.86,2.75,2.59c0.07,0.17,0.1,0.41,0.1,0.73V148c-0.31,1.73-0.69,2.59-1.14,2.59 c-0.1,0-0.73-0.57-1.86-1.71l-0.73-0.31c-1.28,0-2.54,3.71-3.78,11.13c-0.83,2.31-1.45,3.47-1.87,3.47c-0.31,0-0.6-1.1-0.88-3.31 c-1.31-3.87-2.47-6.37-3.47-7.51h-0.47l-0.73,0.57h-0.41c-0.97,0-2.04-0.91-3.21-2.74v-0.31c1-2,1.78-3.21,2.33-3.63h0.31 c3.14,0,5.51,3.63,7.1,10.88v0.16h0.16C173.26,148.68,175.19,144.38,177.71,144.38z"/><path class="st1" d="M179.37,208.86c0,0.86-0.23,1.9-0.67,3.11c-0.52,1.45-1.09,2.18-1.71,2.18c-0.31,0-1.57-0.66-3.78-1.97 c-2.42-1.42-3.63-2.42-3.63-3c0-0.41,0.83-2.54,2.49-6.37c1.04,1,2.69,2.18,4.97,3.52C178.59,207.18,179.37,208.03,179.37,208.86z"/><path class="st1" d="M189.73,205.96c0,0.52-0.23,1.45-0.67,2.8c-0.55,1.62-1.14,2.78-1.76,3.47c-1.38-0.76-2.74-1.52-4.09-2.28 c-1.9-1.11-2.85-1.92-2.85-2.43c0-0.21,0.36-1.2,1.09-2.98c0.73-1.78,1.22-2.67,1.5-2.67C187.46,203.8,189.73,205.16,189.73,205.96 z"/><path class="st1" d="M203.87,189.7c-1.35,4.28-2.02,7.01-2.02,8.18c0,1.79,0.45,2.69,1.35,2.69c0.66,0,1.36-0.8,2.12-2.38h0.1 l0.16,0.21c-0.62,3.35-1.52,5.02-2.69,5.02h-0.41c-0.86,0-1.47-0.57-1.81-1.71c-0.07-0.48-0.1-0.86-0.1-1.14v-1.4 c0-2.76,1.04-5.92,3.11-9.48H203.87z"/><path class="st1" d="M224.25,138.55c-1.27,4.04-1.91,6.61-1.91,7.72c0,1.69,0.42,2.54,1.27,2.54c0.62,0,1.29-0.75,2-2.25h0.1 l0.15,0.2c-0.59,3.16-1.43,4.74-2.54,4.74h-0.39c-0.81,0-1.38-0.54-1.71-1.61c-0.07-0.46-0.1-0.81-0.1-1.07v-1.32 c0-2.6,0.98-5.58,2.93-8.94H224.25z"/><path class="st1" d="M262.78,173.77c0,3.12-0.75,5.73-2.25,7.81c-0.78,1.07-2.41,2.41-4.88,4c-1.89,1.21-3.76,2.41-5.62,3.61 c-5.83,4.27-9.67,6.98-11.53,8.16c-4.17,2.57-7.54,3.86-10.11,3.86c-1.92,0-3.45-1.01-4.59-3.03c-1.07-1.89-1.61-4.26-1.61-7.13 c0-1.34,0.34-3.55,1.03-6.64c0.85-3.94,1.87-6.8,3.08-8.6c0.2-0.03,0.29,0.13,0.29,0.49c0,0.26-0.36,1.89-1.07,4.88 c-0.72,3-1.07,5.49-1.07,7.47c0,1.6,0.41,2.97,1.22,4.13c0.81,1.16,1.82,1.73,3.03,1.73c3.06,0,8.53-2.62,16.41-7.86 c1.82-1.14,5.81-3.79,11.97-7.96c2.57-1.79,3.73-3,3.47-3.61c-0.72-1.79-2-3.21-3.86-4.25c-3.35-1.79-6.72-3.58-10.11-5.37 c-2.41-1.37-5.03-3.63-7.86-6.79c-2.34-2.6-3.79-3.91-4.35-3.91c-0.23,0-0.42,0.08-0.59,0.24c0-0.03,0.1-0.65,0.29-1.86 c0.2-1.2,0.26-2.59,0.2-4.15c-0.03-1.34,0.03-2,0.2-2c0.1,0,0.63,0.46,1.61,1.37c0.55,0.52,2.17,1.39,4.84,2.59 c2.38,1.04,3.57,1.73,3.57,2.05c0,0.2-0.34,0.33-1.03,0.39c-0.68,0.07-1.76,0.21-3.22,0.44c2.28,2.21,5.73,4.44,10.35,6.69 c4.95,2.41,7.72,3.84,8.3,4.3C261.48,166.88,262.78,169.86,262.78,173.77z"/><path class="st1" d="M240.12,169.03c-1.27,4.04-1.9,6.61-1.9,7.72c0,1.69,0.42,2.54,1.27,2.54c0.62,0,1.29-0.75,2-2.25h0.1 l0.15,0.2c-0.59,3.16-1.43,4.74-2.54,4.74h-0.39c-0.81,0-1.38-0.54-1.71-1.61c-0.07-0.46-0.1-0.81-0.1-1.07v-1.32 c0-2.6,0.98-5.58,2.93-8.94H240.12z"/><path class="st1" d="M253.5,127.71c0.88,0,1.82,0.9,2.83,2.69c0.1,0.16,0.15,0.41,0.15,0.73v0.29c-0.36,1.79-0.75,2.69-1.17,2.69 c-0.13,0-0.78-0.6-1.95-1.81l-0.73-0.29c-1.3,0-2.59,3.83-3.86,11.48c-0.85,2.38-1.5,3.57-1.95,3.57c-0.29,0-0.59-1.14-0.88-3.42 c-1.34-3.97-2.52-6.54-3.56-7.72h-0.49l-0.73,0.59h-0.44c-0.98,0-2.07-0.94-3.27-2.83v-0.29c1.01-2.08,1.81-3.32,2.39-3.71h0.29 c3.26,0,5.68,3.71,7.28,11.14v0.15h0.15C248.94,132.12,250.93,127.71,253.5,127.71z"/><path class="st1" d="M115.93,271.36c0.88,0,1.82,0.9,2.83,2.69c0.1,0.16,0.15,0.41,0.15,0.73v0.29c-0.36,1.79-0.75,2.69-1.17,2.69 c-0.13,0-0.78-0.6-1.95-1.81l-0.73-0.29c-1.3,0-2.59,3.83-3.86,11.48c-0.85,2.38-1.5,3.57-1.95,3.57c-0.29,0-0.59-1.14-0.88-3.42 c-1.34-3.97-2.52-6.54-3.56-7.72h-0.49l-0.73,0.59h-0.44c-0.98,0-2.07-0.94-3.27-2.83v-0.29c1.01-2.08,1.81-3.32,2.39-3.71h0.29 c3.26,0,5.68,3.71,7.28,11.14v0.15h0.15C111.37,275.77,113.36,271.36,115.93,271.36z"/><path class="st1" d="M243.54,359.04c0.88,0,1.82,0.9,2.83,2.69c0.1,0.16,0.15,0.41,0.15,0.73v0.29c-0.36,1.79-0.75,2.69-1.17,2.69 c-0.13,0-0.78-0.6-1.95-1.81l-0.73-0.29c-1.3,0-2.59,3.83-3.86,11.48c-0.85,2.38-1.5,3.57-1.95,3.57c-0.29,0-0.59-1.14-0.88-3.42 c-1.34-3.97-2.52-6.54-3.56-7.72h-0.49l-0.73,0.59h-0.44c-0.98,0-2.07-0.94-3.27-2.83v-0.29c1.01-2.08,1.81-3.32,2.39-3.71h0.29 c3.26,0,5.68,3.71,7.28,11.14v0.15h0.15C238.98,363.45,240.96,359.04,243.54,359.04z"/><path class="st1" d="M254.77,191.25c-1.27,4.04-1.9,6.61-1.9,7.72c0,1.69,0.42,2.54,1.27,2.54c0.62,0,1.29-0.75,2-2.25h0.1 l0.15,0.2c-0.59,3.16-1.43,4.74-2.54,4.74h-0.39c-0.81,0-1.38-0.54-1.71-1.61c-0.07-0.46-0.1-0.81-0.1-1.07v-1.32 c0-2.6,0.98-5.58,2.93-8.94H254.77z"/><path class="st1" d="M241.95,237.3c0,3.12-0.75,5.73-2.25,7.81c-0.78,1.07-2.41,2.41-4.88,4c-1.89,1.21-3.76,2.41-5.62,3.61 c-5.83,4.27-9.67,6.98-11.53,8.16c-4.17,2.57-7.54,3.86-10.11,3.86c-1.92,0-3.45-1.01-4.59-3.03c-1.07-1.89-1.61-4.26-1.61-7.13 c0-1.34,0.34-3.55,1.03-6.64c0.85-3.94,1.87-6.8,3.08-8.6c0.2-0.03,0.29,0.13,0.29,0.49c0,0.26-0.36,1.89-1.07,4.88 c-0.72,3-1.07,5.49-1.07,7.47c0,1.6,0.41,2.97,1.22,4.13c0.81,1.16,1.82,1.73,3.03,1.73c3.06,0,8.53-2.62,16.41-7.86 c1.82-1.14,5.81-3.79,11.97-7.96c2.57-1.79,3.73-3,3.47-3.61c-0.72-1.79-2-3.21-3.86-4.25c-3.35-1.79-6.72-3.58-10.11-5.37 c-2.41-1.37-5.03-3.63-7.86-6.79c-2.34-2.6-3.79-3.91-4.35-3.91c-0.23,0-0.42,0.08-0.59,0.24c0-0.03,0.1-0.65,0.29-1.86 c0.2-1.2,0.26-2.59,0.2-4.15c-0.03-1.34,0.03-2,0.2-2c0.1,0,0.63,0.46,1.61,1.37c0.55,0.52,2.17,1.39,4.84,2.59 c2.38,1.04,3.57,1.73,3.57,2.05c0,0.2-0.34,0.33-1.03,0.39c-0.68,0.07-1.76,0.21-3.22,0.44c2.28,2.21,5.73,4.44,10.35,6.69 c4.95,2.41,7.72,3.84,8.3,4.3C240.65,230.42,241.95,233.4,241.95,237.3z"/><path class="st1" d="M219.29,232.57c-1.27,4.04-1.9,6.61-1.9,7.72c0,1.69,0.42,2.54,1.27,2.54c0.62,0,1.29-0.75,2-2.25h0.1 l0.15,0.2c-0.59,3.16-1.43,4.74-2.54,4.74h-0.39c-0.81,0-1.38-0.54-1.71-1.61c-0.07-0.46-0.1-0.81-0.1-1.07v-1.32 c0-2.6,0.98-5.58,2.93-8.94H219.29z"/><path class="st1" d="M120.96,193.75c-1.27,4.04-1.91,6.61-1.91,7.72c0,1.69,0.42,2.54,1.27,2.54c0.62,0,1.29-0.75,2-2.25h0.1 l0.15,0.2c-0.59,3.16-1.43,4.74-2.54,4.74h-0.39c-0.81,0-1.38-0.54-1.71-1.61c-0.07-0.46-0.1-0.81-0.1-1.07v-1.32 c0-2.6,0.98-5.58,2.93-8.94H120.96z M159.49,228.97c0,3.12-0.75,5.73-2.25,7.81c-0.78,1.07-2.41,2.41-4.88,4 c-1.89,1.21-3.76,2.41-5.62,3.61c-5.83,4.27-9.67,6.98-11.53,8.16c-4.17,2.57-7.54,3.86-10.11,3.86c-1.92,0-3.45-1.01-4.59-3.03 c-1.07-1.89-1.61-4.26-1.61-7.13c0-1.34,0.34-3.55,1.03-6.64c0.85-3.94,1.87-6.8,3.08-8.6c0.2-0.03,0.29,0.13,0.29,0.49 c0,0.26-0.36,1.89-1.07,4.88c-0.72,3-1.07,5.49-1.07,7.47c0,1.6,0.41,2.97,1.22,4.13c0.81,1.16,1.82,1.73,3.03,1.73 c3.06,0,8.53-2.62,16.41-7.86c1.82-1.14,5.81-3.79,11.97-7.96c2.57-1.79,3.73-3,3.47-3.61c-0.72-1.79-2-3.21-3.86-4.25 c-3.35-1.79-6.72-3.58-10.11-5.37c-2.41-1.37-5.03-3.63-7.86-6.79c-2.34-2.6-3.79-3.91-4.35-3.91c-0.23,0-0.42,0.08-0.59,0.24 c0-0.03,0.1-0.65,0.29-1.86c0.2-1.2,0.26-2.59,0.2-4.15c-0.03-1.34,0.03-2,0.2-2c0.1,0,0.63,0.46,1.61,1.37 c0.55,0.52,2.17,1.39,4.84,2.59c2.38,1.04,3.57,1.73,3.57,2.05c0,0.2-0.34,0.33-1.03,0.39c-0.68,0.07-1.76,0.21-3.22,0.44 c2.28,2.21,5.73,4.44,10.35,6.69c4.95,2.41,7.72,3.84,8.3,4.3C158.19,222.08,159.49,225.06,159.49,228.97z M136.83,224.23 c-1.27,4.04-1.9,6.61-1.9,7.72c0,1.69,0.42,2.54,1.27,2.54c0.62,0,1.29-0.75,2-2.25h0.1l0.15,0.2c-0.59,3.16-1.43,4.74-2.54,4.74 h-0.39c-0.81,0-1.38-0.54-1.71-1.61c-0.07-0.46-0.1-0.81-0.1-1.07v-1.32c0-2.6,0.98-5.58,2.93-8.94H136.83z M151.48,246.45 c-1.27,4.04-1.9,6.61-1.9,7.72c0,1.69,0.42,2.54,1.27,2.54c0.62,0,1.29-0.75,2-2.25h0.1l0.15,0.2c-0.59,3.16-1.43,4.74-2.54,4.74 h-0.39c-0.81,0-1.38-0.54-1.71-1.61c-0.07-0.46-0.1-0.81-0.1-1.07v-1.32c0-2.6,0.98-5.58,2.93-8.94H151.48z"/><path class="st1" d="M298.48,221.15c-3.06,0-5.91-1.46-8.53-4.39c-1.99-2.22-3.35-4.56-4.09-7.02c-0.98-3.2-1.92-9.29-2.83-18.27 c-1.01-10.03-2.17-19.4-3.48-28.11c-0.37-2.56-1.23-5.99-2.57-10.3c-1.21-3.97-1.82-6.06-1.82-6.26c0.47-1.58,1.01-3.62,1.62-6.11 c0.1-0.17,0.23-0.25,0.4-0.25c0.84,0,2.02,2.54,3.53,7.62c1.41,4.74,2.47,9.3,3.18,13.68c1.21,7.74,2.17,15.66,2.88,23.77 c0.34,4.41,0.69,8.81,1.06,13.22c0.64,5.11,2.22,9.1,4.74,11.96c1.99,2.26,3.95,3.38,5.91,3.38V221.15z"/><path class="st1" d="M279.76,204.19c-1.31,4.17-1.97,6.83-1.97,7.98c0,1.75,0.44,2.62,1.31,2.62c0.64,0,1.33-0.78,2.07-2.32h0.1 l0.15,0.2c-0.61,3.26-1.48,4.9-2.62,4.9h-0.4c-0.84,0-1.43-0.55-1.77-1.67c-0.07-0.47-0.1-0.84-0.1-1.11v-1.36 c0-2.69,1.01-5.77,3.03-9.24H279.76z"/><path class="st1" d="M107.72,242.53c-1.31,4.17-1.97,6.83-1.97,7.98c0,1.75,0.44,2.62,1.31,2.62c0.64,0,1.33-0.78,2.07-2.32h0.1 l0.15,0.2c-0.61,3.26-1.48,4.9-2.62,4.9h-0.4c-0.84,0-1.43-0.55-1.77-1.67c-0.07-0.47-0.1-0.84-0.1-1.11v-1.36 c0-2.69,1.01-5.77,3.03-9.24H107.72z"/><path class="st1" d="M285.61,134.89h0.15c3.73,2.83,5.6,6.28,5.6,10.35v1.26c0,1.99-0.45,3.48-1.36,4.49h-0.1 c-0.17,0-0.25-0.12-0.25-0.35c0.23-1.24,0.35-2.35,0.35-3.33c0-3.16-1.92-6.46-5.75-9.89C284.35,136.78,284.8,135.94,285.61,134.89 z"/><path class="st1" d="M292.88,168.05c-1.31,4.17-1.97,6.83-1.97,7.97c0,1.75,0.44,2.62,1.31,2.62c0.64,0,1.33-0.77,2.07-2.32h0.1 l0.15,0.2c-0.61,3.26-1.48,4.9-2.62,4.9h-0.4c-0.84,0-1.43-0.56-1.77-1.67c-0.07-0.47-0.1-0.84-0.1-1.11v-1.36 c0-2.69,1.01-5.77,3.03-9.24H292.88z"/><path class="st1" d="M298.99,157.05c0,2.26-0.69,4.24-2.07,5.96c-1.98-1.01-3.95-2.02-5.91-3.03c-1.01-0.54-1.51-1.11-1.51-1.72 c0,0.07,0.62-2.04,1.87-6.31c0.88,0.74,2.54,1.68,5,2.83C298.11,155.62,298.99,156.38,298.99,157.05z"/><path class="st1" d="M314.33,204.7c0.47,3.53-0.71,6.95-3.53,10.25c-1.11,1.31-2.84,2.62-5.2,3.94c-2.69,1.51-5.06,2.27-7.12,2.27 v-7.07c3.03,0,6.19-0.89,9.49-2.68c2.96-1.65,4.31-2.79,4.04-3.43c-0.47-1.18-2.32-3.62-5.55-7.32c-3.06-3.53-5.18-7.07-6.36-10.6 c-0.77,0-1.09-0.19-0.96-0.56c0.1-1.28,0.29-2.99,0.56-5.15c0.2-1.04,0.56-1.33,1.06-0.86c1.68,1.18,3.75,2.67,6.21,4.49 c0.84,0.71,1.26,1.26,1.26,1.67c0,0.34-0.29,0.5-0.86,0.5c-0.98,0-1.82-0.07-2.52-0.2c0.3,0.91,1.95,3.06,4.95,6.46 C312.48,199.55,313.99,202.31,314.33,204.7z"/><path class="st1" d="M309.54,164.22c-1.61,5.15-2.42,8.45-2.42,9.89c0,2.15,0.54,3.23,1.61,3.23c0.81,0,1.67-0.96,2.57-2.88h0.1 l0.2,0.25c-0.74,4.04-1.82,6.06-3.23,6.06h-0.5c-1.04,0-1.78-0.69-2.22-2.07c-0.07-0.57-0.1-1.03-0.1-1.36v-1.67 c0-3.36,1.24-7.18,3.73-11.46H309.54z"/><path class="st1" d="M330.9,174.63c0,0,35.7,61.04,33.82,86.35c-1.87,25.3-8.85,37.22-56.14,60.04c0,0,35.58-9.36,52.91-27.54 c17.32-18.18,7.95-45.75,5.54-52.98c-2.41-7.23-28.16-61.98-28.16-61.98"/><path class="st1" d="M241.31,393.07c7.84-1.11,14.4-4.64,19.37-8.38l-15.84,15.71c0,0-0.05,0-0.11,0.01 c-1.1,0.06-9.58,0.44-17.43-3.17c-7.18-3.3-13.83-9.9-13.83-23.11c0,0,9.19,21.57,27.84,18.94H241.31z"/><path class="st1" d="M271.33,374.14c-0.2,0.29-4,5.58-10.65,10.55L271.33,374.14z"/><path class="st1" d="M303.27,257.15c0,0,15.12,1.66,26.05,0v-7.87h-26.05l-2.37,4.31L303.27,257.15z"/><path class="st1" d="M411.44,295.09c0,97.74-79.23,176.97-176.97,176.97c-97.74,0-176.97-79.22-176.97-176.97	c0-55.62,25.67-105.26,65.8-137.7c-25.35,27.16-40.86,63.62-40.86,103.71c0,83.96,68.07,152.02,152.02,152.02	S386.5,345.05,386.5,261.09c0-40.09-15.51-76.54-40.86-103.71C385.77,189.83,411.44,239.47,411.44,295.09z"/><g><polygon class="st2" points="190.79,29.43 199.41,55.94 227.28,55.94 204.73,72.32 213.34,98.82 190.79,82.44 168.25,98.82 176.86,72.32 154.31,55.94 182.18,55.94"/><polygon class="st2" points="278.16,29.43 286.77,55.94 314.64,55.94 292.09,72.32 300.7,98.82 278.16,82.44 255.61,98.82 264.22,72.32 241.67,55.94 269.54,55.94"/></g><g><polygon class="st2" points="203.08,487.28 209.27,506.34 229.3,506.34 213.1,518.11 219.29,537.16 203.08,525.39 186.87,537.16 193.06,518.11 176.86,506.34 196.89,506.34"/><polygon class="st2" points="265.87,487.28 272.06,506.34 292.09,506.34 275.89,518.11 282.08,537.16 265.87,525.39 249.66,537.16 255.85,518.11 239.65,506.34 259.68,506.34"/></g><g><ellipse class="st0" cx="173.35" cy="453.15" rx="4.72" ry="4.34"/><polygon class="st0" points="189.08,426.06 185.05,425.94 152.44,440.7 153.7,443.77 151.05,447.07 135.19,436.01 137.58,433.18 141.23,432.54 143.25,414.89 124.67,420.15 124.73,422.99 121.71,425.19 108.55,410.73 111.19,408.01 114.47,409.05 123.47,385.96 122.91,381.1 125.36,378.38 138.77,391.92 136.63,394.4 132.73,394.46 127.06,408.7 150.49,401.93 157.67,406.32 155.08,428.26 173.54,420.22 173.03,417.78 174.73,415.06 191.03,422.12"/><path class="st0" d="M287.93,458.18c-2.58,0-4.66-1.97-4.66-4.34c0-2.37,2.08-4.34,4.66-4.34c2.64,0,4.72,1.97,4.72,4.34 C292.65,456.21,290.57,458.18,287.93,458.18z"/><path class="st0" d="M355.48,406.15c-3.9,6.77-9.32,15.69-15.37,21.71c-7.81,7.69-20.46,13.89-32.42,12.39 c-6.49-0.81-10.83-1.51-16.75-0.41c1.95-4.05,1.51-11.23,2.01-16.27c0.88-8.62,4.22-14.47,9.57-19.79 c8.12-8.04,15.05-12.45,25.81-16.84l-0.95-3.01l2.02-2.43l11.27,7.86l-2.46,2.49c-6.11,1.5-17.12,7.17-21.73,11.05 c-6.73,5.73-12.34,15.45-6.61,21.29c3.15,3.3,7.61,2.96,12.28,1.44c6.87-2.19,16.31-9.78,20.84-17.01c2.2-3.59,3.39-7.23,2.89-10.6 l2.2-2.94l12.28,7.98l-2.02,2.84L355.48,406.15z"/><path class="st0" d="M271.55,460.66h-3.21l-27.95-30.21l1.95-1.97l-0.06-2.55l-22.22-0.06l-0.06,3.42l2.33,2.54l-25.57,27.95 l-3.84,0.06l-1.19,4l17.81,3.99l0.88-3.47l-1.51-1.5l8.25-9.26l12.59,7l13.48-6.48l9.45,10.24l-1.76,2.03l1.01,3.13l20.77-4.92 L271.55,460.66z M229.94,452.34l-7.49-4.51l7.24-8.16l8.12,8.74L229.94,452.34z"/></g></svg>